<?xml version="1.0" encoding="iso-8859-1"?>
<!-- Generator: Adobe Illustrator 18.1.1, SVG Export Plug-In . SVG Version: 6.00 Build 0)  -->
<svg fill="#fff" version="1.1" id="Capa_1" xmlns="http://www.w3.org/2000/svg" xmlns:xlink="http://www.w3.org/1999/xlink" x="0px" y="0px"
	 viewBox="0 0 483.083 483.083" style="enable-background:new 0 0 483.083 483.083;" xml:space="preserve">
<g>
	<g>
		<path d="M241.542,114.467c-41.933,0-75.933,34-75.933,75.933s34,75.933,75.933,75.933s75.933-34,75.933-75.933
			S283.475,114.467,241.542,114.467z M241.542,232.333c-22.95,0-41.933-18.7-41.933-41.933s18.7-41.933,41.933-41.933
			s41.933,18.7,41.933,41.933S264.492,232.333,241.542,232.333z"/>
		<path d="M367.625,56.667C344.675,30.883,303.025,0,236.442,0c-109.367,0-166.6,88.967-166.6,176.8
			c0,115.033,157.25,292.683,164.05,300.333c3.117,3.683,7.65,5.95,12.467,5.95h0.283c4.817,0,9.067-2.267,12.467-5.667
			c1.7-1.7,38.817-41.933,76.5-98.317c51.567-77.067,77.633-145.35,77.633-202.583C413.242,132.883,396.525,89.25,367.625,56.667z
			 M246.925,439.45c-36.833-44.2-142.8-178.217-142.8-262.933c0-68.567,41.65-142.517,132.6-142.517
			c92.65,0,142.517,73.383,142.517,142.517C379.242,276.25,282.058,398.367,246.925,439.45z"/>
	</g>
</g>
<g>
</g>
<g>
</g>
<g>
</g>
<g>
</g>
<g>
</g>
<g>
</g>
<g>
</g>
<g>
</g>
<g>
</g>
<g>
</g>
<g>
</g>
<g>
</g>
<g>
</g>
<g>
</g>
<g>
</g>
</svg>
