<?xml version='1.0' encoding='iso-8859-1'?>
<svg  version="1.1" xmlns="http://www.w3.org/2000/svg" viewBox="0 0 296.256 296.256" xmlns:xlink="http://www.w3.org/1999/xlink" enable-background="new 0 0 296.256 296.256">
  <g>
    <path d="m285.796,209.249l-24.362-24.362c-12.181-12.181-33.062-12.181-45.243,0l-10.441,10.441c-3.48,3.48-8.701,3.48-12.181,0-15.661-12.181-36.543-33.062-48.723-45.243-12.181-10.441-33.062-33.062-45.243-48.723-1.74-3.48-3.48-8.701 0-12.181l10.441-10.441c5.22-5.22 8.701-13.921 8.701-22.621s-3.48-17.401-8.701-22.621l-24.362-24.362c-12.181-12.181-33.062-12.181-45.243,0-40.023,41.763-50.464,87.006-24.362,121.808 26.102,36.543 48.723,60.904 69.605,81.786s45.243,43.503 81.786,69.605c12.181,8.701 27.842,13.921 43.503,13.921 26.102,0 52.204-13.921 74.825-41.763 5.22-5.22 8.701-13.921 8.701-22.621s-3.481-17.403-8.701-22.623zm-8.701,36.543c-34.802,34.802-71.345,41.763-99.187,22.621-36.543-26.102-59.164-46.983-80.046-67.865-20.882-20.882-41.763-43.503-67.865-80.046-19.141-27.841-12.18-64.384 22.622-99.186 3.48-1.74 6.96-3.48 10.441-3.48s6.96,1.74 12.181,5.22l24.362,24.362c1.74,3.48 3.48,6.96 3.48,10.441s0,6.96-3.48,10.441l-10.441,10.44c-8.701,8.701-8.701,22.621 0,34.802 12.181,15.661 34.802,38.283 46.983,50.463 12.181,12.181 33.062,34.802 50.463,46.983 12.181,8.701 26.102,8.701 34.802,0l10.441-10.441c5.22-5.22 15.661-5.22 20.882,0l24.362,24.362c1.74,3.48 3.48,6.96 3.48,10.441s-5.68434e-14,6.961-3.48,10.442z"/>
  </g>
</svg>
