<svg width="98" height="98" viewBox="0 0 98 98" fill="none" xmlns="http://www.w3.org/2000/svg">
<path d="M30.8941 80.1627C13.8318 70.3113 7.9861 48.4935 17.8374 31.4311C27.6888 14.3688 49.5066 8.52314 66.569 18.3745C83.6313 28.2258 89.477 50.0437 79.6256 67.106C69.7743 84.1684 47.9564 90.014 30.8941 80.1627Z" fill="url(#paint0_radial_1407_729)"/>
<path fill-rule="evenodd" clip-rule="evenodd" d="M34.0805 29H39.1329V29.2614C38.4295 29.2614 38.1055 29.4524 38.5238 30.3438L45.2927 47.0495L52.087 30.14C52.3531 29.4906 52.0401 29.1922 51.4278 29.236V29.0054H54.689V29.2745C53.858 29.3017 53.2719 29.6519 52.9362 30.4456L44.5 51.4356L35.8872 30.4711C35.519 29.7957 35.0006 29.2995 34.0873 29.2742L34.0805 29Z" fill="#2C2C2C"/>
<path fill-rule="evenodd" clip-rule="evenodd" d="M46.1293 50.7294V51.2901H62.8236V45.5934H62.6192C62.6192 48.7975 62.1404 50.3092 58.0328 50.3092H51.1347L59.3882 29.9108C59.5528 29.4633 59.8474 29.3346 60.1983 29.3462L60.9969 29.3015V29.0239H55.7405V29.3095L56.584 29.354C56.8571 29.3543 56.9301 29.5073 56.7868 29.8251L49.0887 49.2201C48.7554 50.0917 48.1258 50.6147 47.1087 50.6818L46.1293 50.7294Z" fill="#2C2C2C"/>
<path d="M32.3878 68.3486V69H32.2274L32.2206 68.8626C32.2105 68.7212 32.1953 68.6132 32.175 68.5386C32.085 68.5273 31.9555 68.5216 31.7866 68.5216H30C30.0113 68.3769 30.0203 68.218 30.027 68.045C30.0304 67.9545 30.0321 67.8629 30.0321 67.7702V66.9271C30.0321 66.7756 30.0276 66.6048 30.0186 66.4148C30.0163 66.3696 30.0124 66.2916 30.0068 66.1808H30.4391C30.4255 66.3232 30.4165 66.481 30.412 66.654C30.4087 66.7434 30.407 66.8344 30.407 66.9271V68.3011C30.4171 68.3057 30.4379 68.3102 30.4695 68.3147C30.5471 68.3283 30.6496 68.3384 30.7768 68.3452C30.8387 68.3498 30.9136 68.352 31.0014 68.352H31.0487C31.2243 68.352 31.3633 68.3452 31.4658 68.3317C31.5682 68.3181 31.6296 68.3079 31.6498 68.3011V67.0577C31.6498 66.9288 31.647 66.792 31.6414 66.6472C31.6358 66.498 31.6307 66.3877 31.6262 66.3165L31.6211 66.2164L31.6178 66.1808H32.0501C32.0388 66.3764 32.0315 66.5342 32.0281 66.654C32.0258 66.7739 32.0247 66.8649 32.0247 66.9271V67.7702C32.0247 67.9432 32.0298 68.1151 32.0399 68.2859C32.0422 68.313 32.0433 68.3334 32.0433 68.3469L32.3878 68.3486Z" fill="#2C2C2C"/>
<path d="M32.7162 68.5216C32.7218 68.4108 32.7257 68.3328 32.728 68.2876C32.737 68.0976 32.7415 67.9268 32.7415 67.7753V66.9322C32.7415 66.7784 32.7359 66.6065 32.7246 66.4165L32.7094 66.1808H33.8527V66.403C33.7502 66.3883 33.6095 66.3753 33.4305 66.364C33.319 66.3572 33.2149 66.3526 33.1181 66.3504V67.1833C33.3275 67.1787 33.484 67.1737 33.5875 67.168L33.7294 67.1578V67.38C33.672 67.3744 33.5616 67.3682 33.3984 67.3614L33.3055 67.3597L33.1181 67.3546V67.7753C33.1181 67.8906 33.1198 67.9986 33.1232 68.0993L33.1265 68.2384L33.1316 68.3537C33.314 68.3503 33.4969 68.3396 33.6804 68.3215C33.7581 68.3136 33.8194 68.3062 33.8645 68.2994V68.5216H32.7162Z" fill="#2C2C2C"/>
<path d="M36.3026 67.7702C36.3026 67.9432 36.3076 68.1151 36.3178 68.2859C36.3234 68.3865 36.329 68.4651 36.3346 68.5216H35.9209L35.9243 68.2621C35.9243 68.2124 35.9254 68.1377 35.9277 68.0382V67.3783C35.9209 67.3772 35.9063 67.3766 35.8838 67.3766L35.8415 67.375L35.7487 67.3733L35.4971 67.3682H35.3012C35.1897 67.3682 35.0586 67.3693 34.9077 67.3716L34.7642 67.375L34.7236 67.3766C34.7034 67.3766 34.6904 67.3772 34.6848 67.3783V67.7753C34.6848 67.946 34.6899 68.1168 34.7 68.2876L34.7152 68.5216H34.2829C34.2885 68.4108 34.2925 68.3328 34.2947 68.2876C34.3037 68.0976 34.3082 67.9268 34.3082 67.7753V66.9322C34.3082 66.7784 34.3026 66.6065 34.2913 66.4165L34.2761 66.1808H34.6899L34.6865 66.4403V66.5522C34.6854 66.5783 34.6848 66.6161 34.6848 66.6659V67.1951C34.6916 67.1963 34.7056 67.1968 34.727 67.1968L34.7676 67.1985C34.8734 67.2031 34.9826 67.2053 35.0952 67.2053C35.1402 67.2065 35.2094 67.207 35.3029 67.207C35.3974 67.207 35.5246 67.2059 35.6845 67.2036C35.7588 67.2036 35.8112 67.2031 35.8415 67.2019L35.8838 67.2002C35.9074 67.2002 35.922 67.1997 35.9277 67.1985V66.9271C35.9277 66.7756 35.922 66.6048 35.9108 66.4148L35.8956 66.1808H36.3279C36.3166 66.3764 36.3093 66.5342 36.3059 66.654C36.3037 66.7739 36.3026 66.8649 36.3026 66.9271V67.7702Z" fill="#2C2C2C"/>
<path d="M37.3002 68.5216C37.3058 68.4108 37.3098 68.3328 37.312 68.2876C37.321 68.0976 37.3255 67.9268 37.3255 67.7753V66.3504C37.1814 66.356 37.0233 66.3668 36.851 66.3826L36.6467 66.403V66.1808H38.3826V66.403C38.2881 66.3905 38.1518 66.377 37.974 66.3623C37.8659 66.3555 37.7753 66.3515 37.7021 66.3504V67.7753C37.7021 67.9506 37.706 68.1213 37.7139 68.2876C37.7184 68.3905 37.7224 68.4685 37.7257 68.5216H37.3002Z" fill="#2C2C2C"/>
<path d="M39.2109 67.3173L39.2954 67.3224C39.3539 67.3258 39.4113 67.3201 39.4676 67.3054C39.5667 67.2783 39.6444 67.2313 39.7006 67.1646C39.7783 67.073 39.8172 66.9464 39.8172 66.7846C39.8172 66.6297 39.7721 66.5138 39.6821 66.4369C39.6078 66.3747 39.5121 66.3408 39.395 66.3351C39.3792 66.334 39.355 66.3334 39.3224 66.3334C39.2897 66.3334 39.265 66.334 39.2481 66.3351C39.2143 66.3363 39.1631 66.3368 39.0944 66.3368V67.7753C39.0944 67.946 39.0995 68.1168 39.1096 68.2876C39.1152 68.3882 39.1209 68.4662 39.1265 68.5216H38.6942C38.6998 68.4108 38.7038 68.3328 38.706 68.2876C38.715 68.0976 38.7195 67.9268 38.7195 67.7753V66.9322C38.7195 66.7784 38.7139 66.6065 38.7026 66.4165L38.6874 66.1808H38.9458C39.0494 66.1808 39.1535 66.1774 39.2582 66.1706C39.3179 66.1672 39.377 66.1655 39.4355 66.1655C39.5976 66.1655 39.7248 66.1808 39.8172 66.2113C39.9658 66.2622 40.0699 66.3594 40.1296 66.5031C40.16 66.5754 40.1752 66.6631 40.1752 66.766C40.1752 67.0046 40.0975 67.1867 39.9421 67.3122C39.8678 67.3733 39.7778 67.4185 39.6719 67.4479C39.5672 67.4762 39.4502 67.4886 39.3207 67.4852L39.27 67.4835L39.2109 67.3173Z" fill="#2C2C2C"/>
<path d="M41.5363 66.9322C41.5363 66.7784 41.5306 66.6065 41.5194 66.4165L41.5042 66.1808H41.9111V67.7753C41.9111 67.946 41.9162 68.1168 41.9263 68.2876C41.932 68.3882 41.9376 68.4662 41.9432 68.5216H41.5109C41.5166 68.4108 41.5205 68.3328 41.5227 68.2876C41.5318 68.0976 41.5363 67.9268 41.5363 67.7753V66.9322ZM43.4208 68.5132L43.4073 68.5183C43.3994 68.5228 43.387 68.5262 43.3702 68.5284C43.3499 68.5307 43.3341 68.5318 43.3229 68.5318C43.2632 68.5318 43.1833 68.5183 43.0831 68.4911C42.9964 68.4481 42.9103 68.3746 42.8247 68.2706C42.7538 68.1858 42.6829 68.0778 42.6119 67.9466C42.5523 67.8392 42.474 67.7148 42.3772 67.5734C42.3221 67.4739 42.2584 67.4015 42.1864 67.3563C42.1583 67.3405 42.1352 67.3308 42.1172 67.3275L42.0749 67.3207L42.0277 67.1663L42.3536 66.7287C42.4121 66.6495 42.4859 66.5404 42.5748 66.4013L42.6643 66.2605L42.693 66.213C42.6998 66.1994 42.7065 66.1887 42.7133 66.1808L43.0679 66.1825C43.0229 66.2254 42.9547 66.3029 42.8636 66.4148C42.8118 66.4782 42.7594 66.5449 42.7065 66.615L42.2556 67.2138C42.4279 67.2149 42.5838 67.2924 42.7234 67.4462C42.8247 67.557 42.9227 67.7142 43.0172 67.9178C43.1174 68.1315 43.2165 68.2887 43.3144 68.3893C43.3561 68.4323 43.3944 68.46 43.4293 68.4725L43.4208 68.5132Z" fill="#2C2C2C"/>
<path d="M44.7804 68.5759C44.598 68.5759 44.4286 68.5471 44.2721 68.4894C44.1156 68.4317 43.9794 68.3498 43.8634 68.2435C43.7464 68.136 43.6557 68.0065 43.5916 67.855C43.5274 67.7035 43.4953 67.5361 43.4953 67.3529C43.4953 67.0849 43.5572 66.8536 43.6811 66.6591C43.7914 66.485 43.9479 66.351 44.1505 66.2571C44.3374 66.17 44.5457 66.1265 44.7753 66.1265C44.9588 66.1265 45.1294 66.1553 45.287 66.213C45.4446 66.2695 45.5814 66.351 45.6973 66.4573C45.8133 66.5658 45.9028 66.6959 45.9658 66.8474C46.03 66.9989 46.0621 67.1663 46.0621 67.3495C46.0621 67.5519 46.0278 67.7312 45.9591 67.8872C45.8904 68.0433 45.7942 68.1739 45.6703 68.2791C45.5544 68.3775 45.4193 68.4515 45.265 68.5013C45.1119 68.551 44.9504 68.5759 44.7804 68.5759ZM43.9006 67.3478C43.9006 67.4914 43.9203 67.6277 43.9597 67.7566C43.9991 67.8844 44.0559 67.9964 44.1302 68.0925C44.2057 68.192 44.2957 68.2695 44.4004 68.3249C44.5063 68.3792 44.6233 68.4063 44.7517 68.4063C44.898 68.4063 45.0359 68.3712 45.1654 68.3011C45.3129 68.2208 45.4283 68.1077 45.5116 67.9619C45.6073 67.7922 45.6551 67.5898 45.6551 67.3546C45.6551 67.211 45.6354 67.0747 45.596 66.9458C45.5566 66.8169 45.5003 66.7043 45.4271 66.6082C45.3506 66.5087 45.2594 66.4318 45.1536 66.3775C45.0489 66.3232 44.9324 66.2961 44.804 66.2961C44.7354 66.2961 44.6656 66.3052 44.5946 66.3232C44.5237 66.3402 44.4562 66.3662 44.392 66.4013C44.2445 66.4816 44.1291 66.5947 44.0458 66.7405C43.949 66.909 43.9006 67.1115 43.9006 67.3478Z" fill="#2C2C2C"/>
<path d="M48.0819 68.4742C48.002 68.5103 47.89 68.5386 47.7459 68.559C47.6772 68.5703 47.5922 68.5759 47.4909 68.5759C47.3074 68.5759 47.1385 68.5477 46.9843 68.4911C46.83 68.4334 46.6966 68.3509 46.5841 68.2435C46.4715 68.1372 46.3842 68.0082 46.3223 67.8567C46.2615 67.7052 46.2311 67.5372 46.2311 67.3529C46.2311 67.0838 46.2925 66.8525 46.4152 66.6591C46.5255 66.4838 46.6814 66.3498 46.8829 66.2571C47.0698 66.17 47.2803 66.1265 47.5145 66.1265C47.6665 66.1265 47.8044 66.1423 47.9282 66.174C47.989 66.1887 48.0397 66.2045 48.0802 66.2215L48.0329 66.4488C47.9541 66.3934 47.8584 66.3504 47.7459 66.3199C47.6851 66.304 47.6192 66.2961 47.5483 66.2961C47.3941 66.2961 47.2522 66.3312 47.1227 66.4013C46.9775 66.4793 46.8632 66.5924 46.7799 66.7405C46.6854 66.909 46.6381 67.1115 46.6381 67.3478C46.6381 67.4937 46.6572 67.6305 46.6955 67.7583C46.7338 67.8861 46.7895 67.9975 46.8627 68.0925C46.9392 68.192 47.0315 68.2695 47.1396 68.3249C47.2488 68.3803 47.3715 68.408 47.5078 68.408C47.6383 68.408 47.7644 68.3825 47.886 68.3317C47.9344 68.3124 47.9845 68.2864 48.0363 68.2536L48.0819 68.4742Z" fill="#2C2C2C"/>
<path d="M50.7908 66.1808L51.0525 67.7787C51.0852 67.9641 51.1206 68.1439 51.1589 68.3181L51.1944 68.4674L51.2062 68.5216H50.7486C50.7407 68.4199 50.7294 68.3017 50.7148 68.1671C50.7002 68.0359 50.6714 67.8313 50.6287 67.5531L50.5712 67.1968C50.5273 66.9435 50.4924 66.7287 50.4666 66.5522L49.7995 68.1264L49.6239 68.1332C49.6205 68.1253 49.6149 68.1111 49.607 68.0908C49.6093 68.0976 49.6019 68.0789 49.5851 68.0348L49.5192 67.8703L49.4348 67.6599L49.3689 67.4971L49.3402 67.4258L49.2456 67.1901C49.213 67.1132 49.1843 67.0419 49.1595 66.9763L49.1393 66.9254C49.1167 66.8734 49.1004 66.8333 49.0903 66.805L49.0481 66.6981L48.9906 66.5573L48.788 67.7719C48.7632 67.9472 48.7402 68.1275 48.7188 68.313L48.712 68.3775C48.7053 68.4306 48.7002 68.4787 48.6968 68.5216H48.4266L48.4351 68.4843L48.4553 68.3825L48.5246 68.0467L48.5651 67.8431L48.6056 67.6345L48.7373 66.9271C48.7722 66.736 48.8032 66.5539 48.8302 66.3809C48.8449 66.2882 48.8544 66.2215 48.8589 66.1808H49.2575C49.2957 66.2769 49.3363 66.39 49.379 66.52C49.4184 66.6376 49.4798 66.8039 49.5631 67.0187L49.8063 67.6345L50.1086 66.9322C50.1817 66.7535 50.2504 66.5732 50.3146 66.3911C50.3405 66.321 50.3647 66.2509 50.3872 66.1808H50.7908Z" fill="#2C2C2C"/>
<path d="M51.694 68.5216C51.6996 68.4108 51.7035 68.3328 51.7058 68.2876C51.7148 68.0976 51.7193 67.9268 51.7193 67.7753V66.9322C51.7193 66.7784 51.7137 66.6065 51.7024 66.4165L51.6872 66.1808H52.8305V66.403C52.728 66.3883 52.5873 66.3753 52.4083 66.364C52.2968 66.3572 52.1927 66.3526 52.0959 66.3504V67.1833C52.3053 67.1787 52.4618 67.1737 52.5653 67.168L52.7072 67.1578V67.38C52.6498 67.3744 52.5394 67.3682 52.3762 67.3614L52.2833 67.3597L52.0959 67.3546V67.7753C52.0959 67.8906 52.0976 67.9986 52.101 68.0993L52.1043 68.2384L52.1094 68.3537C52.2918 68.3503 52.4747 68.3396 52.6582 68.3215C52.7359 68.3136 52.7972 68.3062 52.8423 68.2994V68.5216H51.694Z" fill="#2C2C2C"/>
<path d="M53.6592 68.5216C53.6649 68.4108 53.6688 68.3328 53.671 68.2876C53.6801 68.0976 53.6846 67.9268 53.6846 67.7753V66.3504C53.5405 66.356 53.3823 66.3668 53.21 66.3826L53.0057 66.403V66.1808H54.7417V66.403C54.6471 66.3905 54.5109 66.377 54.333 66.3623C54.2249 66.3555 54.1343 66.3515 54.0611 66.3504V67.7753C54.0611 67.9506 54.0651 68.1213 54.073 68.2876C54.0775 68.3905 54.0814 68.4685 54.0848 68.5216H53.6592Z" fill="#2C2C2C"/>
<path d="M55.9843 68.5759C55.802 68.5759 55.6325 68.5471 55.4761 68.4894C55.3196 68.4317 55.1834 68.3498 55.0674 68.2435C54.9503 68.136 54.8597 68.0065 54.7955 67.855C54.7314 67.7035 54.6993 67.5361 54.6993 67.3529C54.6993 67.0849 54.7612 66.8536 54.885 66.6591C54.9953 66.485 55.1518 66.351 55.3545 66.2571C55.5414 66.17 55.7496 66.1265 55.9793 66.1265C56.1628 66.1265 56.3333 66.1553 56.4909 66.213C56.6486 66.2695 56.7853 66.351 56.9013 66.4573C57.0173 66.5658 57.1068 66.6959 57.1698 66.8474C57.234 66.9989 57.2661 67.1663 57.2661 67.3495C57.2661 67.5519 57.2317 67.7312 57.163 67.8872C57.0944 68.0433 56.9981 68.1739 56.8743 68.2791C56.7583 68.3775 56.6232 68.4515 56.469 68.5013C56.3159 68.551 56.1543 68.5759 55.9843 68.5759ZM55.1045 67.3478C55.1045 67.4914 55.1243 67.6277 55.1637 67.7566C55.2031 67.8844 55.2599 67.9964 55.3342 68.0925C55.4096 68.192 55.4997 68.2695 55.6044 68.3249C55.7102 68.3792 55.8273 68.4063 55.9556 68.4063C56.102 68.4063 56.2399 68.3712 56.3694 68.3011C56.5168 68.2208 56.6322 68.1077 56.7155 67.9619C56.8112 67.7922 56.8591 67.5898 56.8591 67.3546C56.8591 67.211 56.8394 67.0747 56.8 66.9458C56.7606 66.8169 56.7043 66.7043 56.6311 66.6082C56.5546 66.5087 56.4634 66.4318 56.3575 66.3775C56.2528 66.3232 56.1363 66.2961 56.008 66.2961C55.9393 66.2961 55.8695 66.3052 55.7986 66.3232C55.7277 66.3402 55.6601 66.3662 55.596 66.4013C55.4485 66.4816 55.3331 66.5947 55.2498 66.7405C55.153 66.909 55.1045 67.1115 55.1045 67.3478Z" fill="#2C2C2C"/>
<path d="M57.4959 68.3724C57.5871 68.3724 57.6681 68.3113 57.739 68.1892C57.8212 68.0444 57.8848 67.8352 57.9299 67.5615C57.9828 67.2279 58.0092 66.8231 58.0092 66.347L57.918 66.3521C57.8854 66.3532 57.8595 66.3543 57.8404 66.3555C57.8212 66.3566 57.806 66.3577 57.7948 66.3589V66.1808H59.5088L59.5054 66.2605C59.4986 66.3747 59.4924 66.5381 59.4868 66.7507C59.4846 66.8909 59.4834 66.995 59.4834 67.0628V67.7702C59.4834 67.9432 59.4885 68.1151 59.4986 68.2859C59.5043 68.3865 59.5099 68.4651 59.5155 68.5216H59.1086V66.9271C59.1086 66.8717 59.1074 66.7943 59.1052 66.6947L59.1035 66.6048L59.0984 66.4674L59.0934 66.3538C58.9616 66.3447 58.817 66.3402 58.6594 66.3402H58.428C58.3774 66.3413 58.3059 66.3419 58.2136 66.3419C58.2136 66.7875 58.1877 67.1748 58.1359 67.5039C58.0818 67.8488 58.0058 68.1117 57.9079 68.2926C57.8055 68.4804 57.6867 68.5742 57.5516 68.5742C57.4852 68.5742 57.4272 68.5618 57.3777 68.5369C57.3585 68.5279 57.3433 68.5194 57.3321 68.5115L57.3135 68.4996L57.3658 68.3334C57.3681 68.3334 57.3732 68.3356 57.381 68.3401C57.4013 68.3537 57.4261 68.3633 57.4553 68.369C57.4711 68.3712 57.4846 68.3724 57.4959 68.3724Z" fill="#2C2C2C"/>
<path d="M61.179 68.5759C60.9966 68.5759 60.8272 68.5471 60.6707 68.4894C60.5142 68.4317 60.378 68.3498 60.2621 68.2435C60.145 68.136 60.0543 68.0065 59.9902 67.855C59.926 67.7035 59.8939 67.5361 59.8939 67.3529C59.8939 67.0849 59.9558 66.8536 60.0797 66.6591C60.19 66.485 60.3465 66.351 60.5491 66.2571C60.736 66.17 60.9443 66.1265 61.1739 66.1265C61.3574 66.1265 61.528 66.1553 61.6856 66.213C61.8432 66.2695 61.98 66.351 62.096 66.4573C62.2119 66.5658 62.3014 66.6959 62.3645 66.8474C62.4286 66.9989 62.4607 67.1663 62.4607 67.3495C62.4607 67.5519 62.4264 67.7312 62.3577 67.8872C62.289 68.0433 62.1928 68.1739 62.0689 68.2791C61.953 68.3775 61.8179 68.4515 61.6637 68.5013C61.5105 68.551 61.349 68.5759 61.179 68.5759ZM60.2992 67.3478C60.2992 67.4914 60.3189 67.6277 60.3583 67.7566C60.3977 67.8844 60.4546 67.9964 60.5289 68.0925C60.6043 68.192 60.6944 68.2695 60.799 68.3249C60.9049 68.3792 61.022 68.4063 61.1503 68.4063C61.2966 68.4063 61.4346 68.3712 61.564 68.3011C61.7115 68.2208 61.8269 68.1077 61.9102 67.9619C62.0059 67.7922 62.0537 67.5898 62.0537 67.3546C62.0537 67.211 62.034 67.0747 61.9946 66.9458C61.9552 66.8169 61.8989 66.7043 61.8258 66.6082C61.7492 66.5087 61.658 66.4318 61.5522 66.3775C61.4475 66.3232 61.331 66.2961 61.2026 66.2961C61.134 66.2961 61.0642 66.3052 60.9932 66.3232C60.9223 66.3402 60.8548 66.3662 60.7906 66.4013C60.6431 66.4816 60.5277 66.5947 60.4444 66.7405C60.3476 66.909 60.2992 67.1115 60.2992 67.3478Z" fill="#2C2C2C"/>
<path d="M62.8442 66.9271C62.8442 66.7756 62.8397 66.6048 62.8307 66.4148C62.8284 66.3696 62.8245 66.2916 62.8189 66.1808H63.9773V66.403C63.9278 66.3939 63.8709 66.386 63.8067 66.3792C63.6424 66.3634 63.451 66.3532 63.2326 66.3487C63.2292 66.3951 63.2264 66.4793 63.2241 66.6014C63.2219 66.7349 63.2208 66.8434 63.2208 66.9271V67.6599C63.2208 67.7267 63.2219 67.829 63.2241 67.967C63.2298 68.2033 63.2354 68.3628 63.241 68.4453L63.2444 68.5216H62.8189C62.8234 68.4131 62.8273 68.3345 62.8307 68.2859C62.8397 68.0959 62.8442 67.924 62.8442 67.7702V66.9271Z" fill="#2C2C2C"/>
<path d="M66.293 67.7753C66.293 67.9506 66.297 68.1213 66.3048 68.2876L66.3099 68.3893L66.3184 68.5216H65.8861C65.8973 68.3792 65.9063 68.2208 65.9131 68.0467C65.9164 67.9585 65.9181 67.868 65.9181 67.7753V66.5438C65.8044 66.7304 65.6688 66.9486 65.5112 67.1985L65.4048 67.3682C65.3395 67.4722 65.2815 67.5638 65.2308 67.643C65.1813 67.7221 65.1391 67.7894 65.1042 67.8448L64.9303 68.1179C64.8188 68.291 64.7434 68.4097 64.704 68.4742C64.6848 68.5024 64.6753 68.5183 64.6753 68.5216H64.2666C64.2779 68.3769 64.2869 68.218 64.2936 68.045C64.297 67.9545 64.2987 67.8629 64.2987 67.7702V66.9271C64.2987 66.7756 64.2942 66.6048 64.2852 66.4148C64.2829 66.3696 64.279 66.2916 64.2734 66.1808H64.7057C64.6933 66.3334 64.6848 66.4912 64.6803 66.654C64.677 66.7434 64.6753 66.8344 64.6753 66.9271V68.1586C64.7439 68.0489 64.8194 67.9313 64.9016 67.8058L65.0535 67.5717L65.2207 67.3156C65.3423 67.1132 65.505 66.8468 65.7087 66.5166L65.9181 66.1808H66.3251C66.3116 66.3255 66.3026 66.4844 66.2981 66.6574C66.2947 66.7468 66.293 66.8384 66.293 66.9322V67.7753Z" fill="#2C2C2C"/>
<path d="M68.9118 67.7753C68.9118 67.9506 68.9157 68.1213 68.9236 68.2876L68.9287 68.3893L68.9371 68.5216H68.5048C68.5161 68.3792 68.5251 68.2208 68.5318 68.0467C68.5352 67.9585 68.5369 67.868 68.5369 67.7753V66.5438C68.4232 66.7304 68.2875 66.9486 68.1299 67.1985L68.0235 67.3682C67.9582 67.4722 67.9003 67.5638 67.8496 67.643C67.8001 67.7221 67.7579 67.7894 67.723 67.8448L67.549 68.1179C67.4376 68.291 67.3621 68.4097 67.3227 68.4742C67.3036 68.5024 67.294 68.5183 67.294 68.5216H66.8854C66.8966 68.3769 66.9056 68.218 66.9124 68.045C66.9158 67.9545 66.9175 67.8629 66.9175 67.7702V66.9271C66.9175 66.7756 66.913 66.6048 66.904 66.4148C66.9017 66.3696 66.8978 66.2916 66.8921 66.1808H67.3244C67.312 66.3334 67.3036 66.4912 67.2991 66.654C67.2957 66.7434 67.294 66.8344 67.294 66.9271V68.1586C67.3627 68.0489 67.4381 67.9313 67.5203 67.8058L67.6723 67.5717L67.8395 67.3156C67.9611 67.1132 68.1237 66.8468 68.3275 66.5166L68.5369 66.1808H68.9439C68.9304 66.3255 68.9214 66.4844 68.9169 66.6574C68.9135 66.7468 68.9118 66.8384 68.9118 66.9322V67.7753Z" fill="#2C2C2C"/>
<path d="M30.2246 58.829C30.2246 58.4143 30.2094 57.9508 30.179 57.4385L30.138 56.8027H31.2354V61.1023C31.2354 61.5627 31.2491 62.0232 31.2764 62.4836C31.2916 62.755 31.3068 62.9654 31.3219 63.1149H30.1562C30.1714 62.816 30.1821 62.6056 30.1881 62.4836C30.2124 61.9713 30.2246 61.5109 30.2246 61.1023V58.829ZM35.3063 63.092L35.2698 63.1057C35.2486 63.1179 35.2152 63.1271 35.1696 63.1332C35.115 63.1393 35.0725 63.1423 35.0422 63.1423C34.8813 63.1423 34.6657 63.1057 34.3956 63.0325C34.1618 62.9167 33.9296 62.7184 33.6989 62.4379C33.5076 62.2092 33.3164 61.918 33.1251 61.5643C32.9642 61.2746 32.7533 60.9391 32.4922 60.558C32.3434 60.2896 32.1719 60.0945 31.9776 59.9725C31.9018 59.9298 31.8395 59.9039 31.791 59.8947L31.6771 59.8764L31.5496 59.4602L32.4284 58.2801C32.5863 58.0666 32.7851 57.7724 33.025 57.3973L33.2663 57.0177L33.3437 56.8896C33.3619 56.853 33.3801 56.824 33.3983 56.8027L34.3546 56.8073C34.2331 56.9231 34.0495 57.132 33.8036 57.4339C33.664 57.6047 33.5228 57.7846 33.3801 57.9736L32.1643 59.5883C32.6288 59.5913 33.0492 59.8002 33.4257 60.2149C33.6989 60.5138 33.963 60.9376 34.218 61.4865C34.4881 62.0628 34.7553 62.4867 35.0194 62.7581C35.1317 62.874 35.2349 62.9487 35.329 62.9822L35.3063 63.092Z" fill="#2C2C2C"/>
<path d="M35.6665 62.7123C35.9124 62.7123 36.1309 62.5477 36.3222 62.2183C36.5438 61.828 36.7153 61.2639 36.8367 60.526C36.9794 59.6264 37.0507 58.5347 37.0507 57.2509L36.8049 57.2647C36.7168 57.2677 36.647 57.2708 36.5954 57.2738C36.5438 57.2769 36.5028 57.2799 36.4724 57.283V56.8027H41.0942L41.0851 57.0177C41.0669 57.3256 41.0502 57.7663 41.0351 58.3396C41.029 58.7177 41.0259 58.9982 41.0259 59.1812V61.0886C41.0259 61.5551 41.0396 62.0186 41.0669 62.4791C41.0821 62.7505 41.0973 62.9624 41.1125 63.1149H40.0151V58.8153C40.0151 58.6658 40.012 58.457 40.006 58.1886L40.0014 57.9462L39.9877 57.5757L39.9741 57.2692C39.6189 57.2448 39.2288 57.2326 38.8038 57.2326H38.18C38.0434 57.2357 37.8506 57.2372 37.6017 57.2372C37.6017 58.4387 37.5319 59.4831 37.3923 60.3704C37.2465 61.3005 37.0416 62.0095 36.7775 62.4974C36.5013 63.0036 36.181 63.2567 35.8167 63.2567C35.6376 63.2567 35.4813 63.2231 35.3477 63.156C35.2961 63.1316 35.2551 63.1088 35.2248 63.0874L35.1747 63.0554L35.3159 62.6071C35.3219 62.6071 35.3356 62.6132 35.3568 62.6254C35.4115 62.662 35.4783 62.688 35.5572 62.7032C35.5997 62.7093 35.6361 62.7123 35.6665 62.7123Z" fill="#2C2C2C"/>
<path d="M48.0842 61.1023C48.0842 61.5749 48.0948 62.0354 48.1161 62.4836L48.1298 62.7581L48.1525 63.1149H46.9868C47.0172 62.7306 47.0415 62.3037 47.0597 61.8341C47.0688 61.5963 47.0733 61.3523 47.0733 61.1023V57.7815C46.7667 58.2847 46.4009 58.8732 45.976 59.5471L45.6891 60.0045C45.513 60.2851 45.3567 60.532 45.2201 60.7455C45.0865 60.959 44.9727 61.1404 44.8786 61.2898L44.4095 62.0262C44.109 62.4928 43.9056 62.813 43.7994 62.9868C43.7478 63.063 43.722 63.1057 43.722 63.1149H42.62C42.6504 62.7245 42.6747 62.2961 42.6929 61.8296C42.702 61.5856 42.7065 61.3386 42.7065 61.0886V58.8153C42.7065 58.4066 42.6944 57.9462 42.6701 57.4339C42.664 57.3119 42.6534 57.1015 42.6382 56.8027H43.8039C43.7705 57.2143 43.7478 57.6397 43.7356 58.0788C43.7265 58.3197 43.722 58.5652 43.722 58.8153V62.136C43.9071 61.8402 44.1105 61.5231 44.3321 61.1846L44.742 60.5534L45.1928 59.8627C45.5206 59.3169 45.9593 58.5988 46.5087 57.7083L47.0733 56.8027H48.1707C48.1343 57.193 48.11 57.6214 48.0979 58.088C48.0888 58.3289 48.0842 58.5759 48.0842 58.829V61.1023Z" fill="#2C2C2C"/>
<path d="M55.1457 61.0886C55.1457 61.5551 55.1594 62.0186 55.1867 62.4791C55.2019 62.7505 55.217 62.9624 55.2322 63.1149H54.1166L54.1257 62.415C54.1257 62.2809 54.1288 62.0796 54.1348 61.8113V60.032C54.1166 60.0289 54.0771 60.0274 54.0164 60.0274L53.9026 60.0228L53.6522 60.0182L52.9737 60.0045H52.4455C52.1449 60.0045 51.7913 60.0076 51.3845 60.0137L50.9975 60.0228L50.8882 60.0274C50.8335 60.0274 50.7986 60.0289 50.7835 60.032V61.1023C50.7835 61.5627 50.7971 62.0232 50.8244 62.4836L50.8654 63.1149H49.6997C49.7149 62.816 49.7255 62.6056 49.7316 62.4836C49.7559 61.9713 49.768 61.5109 49.768 61.1023V58.829C49.768 58.4143 49.7528 57.9508 49.7225 57.4385L49.6815 56.8027H50.7971L50.788 57.5025V57.8044C50.785 57.8745 50.7835 57.9767 50.7835 58.1109V59.538C50.8017 59.541 50.8396 59.5425 50.8973 59.5425L51.0066 59.5471C51.2919 59.5593 51.5864 59.5654 51.8899 59.5654C52.0114 59.5685 52.1981 59.57 52.45 59.57C52.705 59.57 53.0481 59.5669 53.4791 59.5608C53.6795 59.5608 53.8206 59.5593 53.9026 59.5563L54.0164 59.5517C54.0802 59.5517 54.1196 59.5502 54.1348 59.5471V58.8153C54.1348 58.4066 54.1196 57.9462 54.0893 57.4339L54.0483 56.8027H55.214C55.1836 57.3302 55.1639 57.7556 55.1548 58.0788C55.1487 58.4021 55.1457 58.6475 55.1457 58.8153V61.0886Z" fill="#2C2C2C"/>
<path d="M62.2072 61.1023C62.2072 61.5749 62.2178 62.0354 62.2391 62.4836L62.2527 62.7581L62.2755 63.1149H61.1098C61.1401 62.7306 61.1644 62.3037 61.1826 61.8341C61.1917 61.5963 61.1963 61.3523 61.1963 61.1023V57.7815C60.8897 58.2847 60.5239 58.8732 60.0989 59.5471L59.812 60.0045C59.636 60.2851 59.4796 60.532 59.343 60.7455C59.2095 60.959 59.0956 61.1404 59.0015 61.2898L58.5325 62.0262C58.232 62.4928 58.0286 62.813 57.9223 62.9868C57.8707 63.063 57.8449 63.1057 57.8449 63.1149H56.743C56.7733 62.7245 56.7976 62.2961 56.8158 61.8296C56.8249 61.5856 56.8295 61.3386 56.8295 61.0886V58.8153C56.8295 58.4066 56.8174 57.9462 56.7931 57.4339C56.787 57.3119 56.7764 57.1015 56.7612 56.8027H57.9269C57.8935 57.2143 57.8707 57.6397 57.8586 58.0788C57.8495 58.3197 57.8449 58.5652 57.8449 58.8153V62.136C58.0301 61.8402 58.2335 61.5231 58.4551 61.1846L58.8649 60.5534L59.3157 59.8627C59.6436 59.3169 60.0822 58.5988 60.6317 57.7083L61.1963 56.8027H62.2937C62.2573 57.193 62.233 57.6214 62.2208 58.088C62.2117 58.3289 62.2072 58.5759 62.2072 58.829V61.1023Z" fill="#2C2C2C"/>
<path d="M63.8955 58.829C63.8955 58.4143 63.8804 57.9508 63.85 57.4385L63.809 56.8027H64.9064V61.1023C64.9064 61.5627 64.9201 62.0232 64.9474 62.4836C64.9626 62.755 64.9777 62.9654 64.9929 63.1149H63.8272C63.8424 62.816 63.853 62.6056 63.8591 62.4836C63.8834 61.9713 63.8955 61.5109 63.8955 61.1023V58.829ZM68.9772 63.092L68.9408 63.1057C68.9196 63.1179 68.8862 63.1271 68.8406 63.1332C68.786 63.1393 68.7435 63.1423 68.7131 63.1423C68.5522 63.1423 68.3367 63.1057 68.0665 63.0325C67.8328 62.9167 67.6006 62.7184 67.3698 62.4379C67.1786 62.2092 66.9874 61.918 66.7961 61.5643C66.6352 61.2746 66.4242 60.9391 66.1632 60.558C66.0144 60.2896 65.8429 60.0945 65.6486 59.9725C65.5727 59.9298 65.5105 59.9039 65.4619 59.8947L65.3481 59.8764L65.2206 59.4602L66.0994 58.2801C66.2573 58.0666 66.4561 57.7724 66.6959 57.3973L66.9373 57.0177L67.0147 56.8896C67.0329 56.853 67.0511 56.824 67.0693 56.8027L68.0256 56.8073C67.9041 56.9231 67.7205 57.132 67.4746 57.4339C67.3349 57.6047 67.1938 57.7846 67.0511 57.9736L65.8353 59.5883C66.2998 59.5913 66.7202 59.8002 67.0966 60.2149C67.3698 60.5138 67.6339 60.9376 67.8889 61.4865C68.1591 62.0628 68.4263 62.4867 68.6904 62.7581C68.8027 62.874 68.9059 62.9487 69 62.9822L68.9772 63.092Z" fill="#2C2C2C"/>
<defs>
<radialGradient id="paint0_radial_1407_729" cx="0" cy="0" r="1" gradientUnits="userSpaceOnUse" gradientTransform="translate(49.4192 -4.04883) rotate(90.0006) scale(148.809 73.7738)">
<stop stop-color="#FEE49A"/>
<stop offset="1" stop-color="#BB8D37"/>
</radialGradient>
</defs>
</svg>
