<?xml version="1.0" standalone="no"?>
<!DOCTYPE svg PUBLIC "-//W3C//DTD SVG 1.1//EN" "http://www.w3.org/Graphics/SVG/1.1/DTD/svg11.dtd" >
<svg xmlns="http://www.w3.org/2000/svg" xmlns:xlink="http://www.w3.org/1999/xlink" version="1.1">
<metadata>
Created by FontForge 20170731 at Sat Nov 19 19:35:34 2016
 By Aleksey,,,
Copyright (c) 2016 by Studio Kmzero. All rights reserved.
</metadata>
<defs>
<font id="BeatrixAntiqua-Light" horiz-adv-x="3500" >
  <font-face 
    font-family="Beatrix Antiqua Light"
    font-weight="300"
    font-stretch="normal"
    units-per-em="2000"
    panose-1="2 0 5 3 8 0 0 2 0 3"
    ascent="1600"
    descent="-400"
    x-height="855"
    cap-height="1380"
    bbox="-310 -676 3398 1984"
    underline-thickness="100"
    underline-position="-300"
    unicode-range="U+0020-FB04"
  />
<missing-glyph horiz-adv-x="1126" 
d="M562 58q-105 0 -198 40t-163 111q-69 70 -107 162t-38 193q0 105 40 198.5t111 163.5q70 69 162 107.5t193 38.5q106 0 200 -41t163 -113q68 -71 105.5 -163t37.5 -191q0 -177 -108 -312q-50 -63 -117 -108t-145 -68q-66 -18 -136 -18zM562 1030q-98 0 -183 -37
t-149 -103q-62 -65 -97 -149.5t-35 -176.5q0 -93 35 -177.5t99 -149.5q64 -66 149 -103.5t181 -37.5q95 0 180 36t149 101q65 65 101 150t36 181q0 83 -26.5 157t-74.5 133q-46 57 -109 97t-134 61q-54 18 -122 18zM280 876q58 52 130 80t152 28t151.5 -28.5t126.5 -79.5
h-560zM886 296h-558l546 550q106 -130 106 -282q0 -150 -94 -268zM248 282q-51 57 -77.5 129t-26.5 153q0 149 94 266h556zM844 250q-59 -50 -131 -78t-151 -28q-78 0 -149.5 28t-130.5 78h562z" />
    <glyph glyph-name="IJ" unicode="IJ" horiz-adv-x="1007" 
d="M826 1049q-2 -122 -2 -185v-467q0 -299 -73 -472q-55 -132 -142 -188q-34 -22 -61 -30q-25 -7 -35 -11l-13 43q24 14 39.5 25.5t33.5 35.5q50 67 79 212q36 183 36 504v376q0 166 -5 326l-4 110l-70 1q-34 0 -90 -2q-72 -1 -133 -10q-29 -5 -44 -10q-12 -5 -15 -10
q-4 -114 -5 -189q-2 -104 -2 -160v-518q0 -164 5 -297q1 -51 5 -133h-156q1 35 5 133q5 133 5 297v518q0 163 -5 298q-4 97 -5 134h660q-5 -123 -8 -331z" />
    <glyph glyph-name="ij" unicode="ij" horiz-adv-x="1023" 
d="M293 1085l-132 69l67 128l132 -70zM805 1085l-132 69l67 128l132 -70zM569 846q47 0 140 5l132 11q-5 -62 -8 -212q-2 -94 -2 -164v-322q0 -227 -48 -386q-37 -124 -105 -206q-67 -79 -153 -97l-17 67q48 26 78.5 75t54.5 114q36 97 54 262q8 90 8 191v302q0 156 -5 263
q-2 28 -2 40q-60 -5 -104 -5q-49 0 -149 7q-54 3 -86 3q-32 -2 -32 -17l-3 -96q-2 -92 -2 -175v-148q0 -156 5 -261l6 -97h-149l5 97q5 105 5 261v140q0 195 -5 283l-5 70l149 12q7 1 20 1q16 0 58 -6q61 -9 113 -11q14 -1 47 -1z" />
    <glyph glyph-name="ff" unicode="ff" horiz-adv-x="1187" 
d="M78 834l26 7q35 6 88 10v145q0 256 101 394q108 147 325 147q85 0 140 -21q24 -8 42 -20l-20 -78l-22 12q-31 18 -80 28q-28 5 -56 5q-154 -4 -230 -128q-72 -119 -72 -342v-138h466v141q0 256 101 394q108 147 324 147q85 0 140 -21q24 -8 42 -20l-19 -78l-22 12
q-31 18 -80 28q-28 5 -56 5q-154 -4 -230 -128q-72 -119 -72 -342v-138h265l-19 -81q-46 6 -79 7q-35 0 -54 1l-113 2v-426q0 -156 5 -261q1 -43 5 -97h-149q1 0 3 32q5 97 7 225q1 53 1 178v352h-466v-429q0 -156 5 -261q1 -43 5 -97h-148l5 114q5 122 5 305v368h-114v47z
" />
    <glyph glyph-name="fi" unicode="fi" horiz-adv-x="1106" 
d="M914 506v-148q0 -156 5 -261l6 -97h-149l5 97q5 105 5 261v140q0 157 -4 265q-3 11 -16 18q-8 4 -23 4l-423 -1v-426q0 -156 5 -261q1 -43 5 -97h-148l5 114q5 122 5 305v368h-114v47l26 7q35 6 88 10v145q0 256 101 394q108 147 325 147q85 0 140 -21q24 -8 42 -20
l-20 -78l-22 12q-31 18 -80 28q-28 5 -56 5q-154 -4 -230 -128q-72 -119 -72 -342v-141l131 2l204 4q158 4 270 5q-6 -50 -9 -182q-2 -92 -2 -175zM754 1154l68 128l131 -70l-66 -127z" />
    <glyph glyph-name="fl" unicode="fl" horiz-adv-x="1107" 
d="M786 1146q0 92 -2 188l-3 84l-1 26q-66 19 -147 19q-163 0 -242 -129q-71 -117 -71 -341v-138h265l-19 -81q-46 6 -78 7q-35 0 -54 1l-114 2v-426q0 -156 5 -261q1 -43 5 -97h-148l5 114q5 122 5 305v368h-114v47l26 7q35 6 88 10v145q0 201 70 329.5t208 177.5
q82 31 236 33q59 0 145 -6l73 -6l-1 -20q-3 -45 -4 -71q-5 -113 -5 -351v-724q0 -156 5 -261q1 -43 5 -97h-149l5 97q6 126 6 261v788z" />
    <glyph glyph-name="ffi" unicode="ffi" horiz-adv-x="1699" 
d="M1380 602q0 108 -4 157q-1 8 -10.5 13t-27.5 8q-22 2 -34 2h-35l-355 2v-426q0 -156 5 -261q1 -43 5 -97h-149q1 0 3 32q5 97 7 225q1 53 1 178v352h-466v-429q0 -156 5 -261q1 -43 5 -97h-148l5 114q5 122 5 305v368h-114v47l26 7q35 6 88 10v145q0 226 85 363
q86 139 260 169q28 6 72 6q94 0 155 -21q21 -7 36 -17l-20 -78l-22 12q-31 18 -80 28q-28 5 -56 5q-154 -4 -230 -128q-72 -119 -72 -342v-138h466v141q0 201 70 329.5t207 177.5q62 26 147 26q24 0 37 -1q70 -1 115 -17q18 -7 31 -15l-19 -78l-22 12q-31 18 -80 28
q-28 5 -56 5q-154 -4 -230 -128q-72 -119 -72 -342v-138q227 2 334 5q153 3 270 3q-5 -40 -8 -182q-2 -92 -2 -175v-148q0 -156 5 -261q1 -43 5 -97h-149q1 0 3 35q5 105 7 249q1 59 1 196v122zM1415 1282l132 -70l-66 -127l-133 69z" />
    <glyph glyph-name="ffl" unicode="ffl" horiz-adv-x="1700" 
d="M78 834l26 7q35 6 88 10v145q0 256 101 394q108 147 325 147q85 0 140 -21q24 -8 42 -20l-20 -78l-22 12q-31 18 -80 28q-28 5 -56 5q-154 -4 -230 -128q-72 -119 -72 -342v-138h466v141q0 201 70 329.5t207 177.5q83 31 236 33q87 -1 146 -6q58 -6 73 -6q-6 -68 -9 -227
q-2 -114 -2 -215v-724q0 -156 5 -261l6 -97h-149l5 97q5 105 5 261v788q0 92 -2 188q-1 24 -1 63l-2 47q-60 18 -128 18q-167 0 -242 -96q-62 -80 -81 -224q-9 -70 -9 -149v-138h265l-19 -81q-46 6 -79 7q-35 0 -54 1l-113 2v-426q0 -156 5 -261q1 -43 5 -97h-149l2 30
q5 66 8 217q1 51 1 172v367l-466 1v-429q0 -156 5 -261q1 -43 5 -97h-148l5 114q5 122 5 305v368h-114v47z" />
    <glyph glyph-name=".notdef" horiz-adv-x="1126" 
d="M562 58q-105 0 -198 40t-163 111q-69 70 -107 162t-38 193q0 105 40 198.5t111 163.5q70 69 162 107.5t193 38.5q106 0 200 -41t163 -113q68 -71 105.5 -163t37.5 -191q0 -177 -108 -312q-50 -63 -117 -108t-145 -68q-66 -18 -136 -18zM562 1030q-98 0 -183 -37
t-149 -103q-62 -65 -97 -149.5t-35 -176.5q0 -93 35 -177.5t99 -149.5q64 -66 149 -103.5t181 -37.5q95 0 180 36t149 101q65 65 101 150t36 181q0 83 -26.5 157t-74.5 133q-46 57 -109 97t-134 61q-54 18 -122 18zM280 876q58 52 130 80t152 28t151.5 -28.5t126.5 -79.5
h-560zM886 296h-558l546 550q106 -130 106 -282q0 -150 -94 -268zM248 282q-51 57 -77.5 129t-26.5 153q0 149 94 266h556zM844 250q-59 -50 -131 -78t-151 -28q-78 0 -149.5 28t-130.5 78h562z" />
    <glyph glyph-name=".null" horiz-adv-x="0" 
 />
    <glyph glyph-name="nonmarkingreturn" horiz-adv-x="666" 
 />
    <glyph glyph-name="space" unicode=" " horiz-adv-x="512" 
 />
    <glyph glyph-name="exclam" unicode="!" horiz-adv-x="401" 
d="M277 1531q-11 -103 -18 -305q-9 -216 -10 -396q-4 -205 -4 -488l-100 -10q-1 260 -6 492l-4 202q-4 187 -11 371q-3 91 -7 134h160zM164 166l128 -68l-65 -124l-128 68z" />
    <glyph glyph-name="quotedbl" unicode="&#x22;" horiz-adv-x="598" 
d="M228 1536q-17 -187 -22 -346q-4 -69 -4 -145l-79 -8q-5 154 -14 308q-5 90 -12 191h131zM499 1536q-17 -187 -22 -346q-4 -69 -4 -145l-79 -8q-5 154 -14 308q-5 90 -12 191h131z" />
    <glyph glyph-name="numbersign" unicode="#" horiz-adv-x="1029" 
d="M169 898l53 -3q38 -3 139 -5q10 36 14 54q24 89 47 181l22 88q11 49 23 94q5 20 8 33t5 21l4 19h95l-13 -42q-19 -61 -80 -270l-51 -179q44 -1 135 -1t135 1l63 243l24 94l28 112q11 42 9 42h95q-38 -119 -74 -244q-20 -66 -42 -149l-27 -97l99 3l37 1l55 2v-84
q-13 0 -45 2q-21 0 -83 2l-83 2l-84 -304l75 2q33 0 85 2l28 1v-84l-41 1l-83 3l-83 2q-33 -117 -77 -305q-18 -73 -23 -99q-9 -37 -10 -37h-95q1 0 13 37l42 142l28 99l47 164q-21 1 -61 1h-60h-76q-50 0 -73 -1q-35 -126 -73 -284l-5 -22q-18 -73 -23 -99q-9 -37 -10 -37
h-94q1 0 13 37l34 116q9 33 18.5 64.5t17.5 60.5l47 163q-26 -1 -71 -1l-72 -3l-33 -1v85l54 -3q38 -3 142 -5l83 305l-93 -3l-31 -1l-48 -2v86zM687 819q-21 1 -61 1h-57h-78q-51 0 -75 -1l-84 -307h271z" />
    <glyph glyph-name="dollar" unicode="$" horiz-adv-x="907" 
d="M846 360q0 -82 -28.5 -153t-83.5 -124q-47 -45 -112 -73.5t-146 -36.5l3 -119q1 -52 5 -134h-94q1 37 5 134l4 115q-130 1 -247 31q-55 13 -103 32l22 97q85 -49 207 -74q54 -11 122 -13q1 38 1 116v526q-74 48 -125.5 86t-91.5 81q-101 104 -101 227q0 73 24.5 134
t73.5 105q79 72 217 89l-3 79q-4 100 -5 135h94q-4 -81 -7 -209h9q98 0 188 -30q44 -15 70 -29l-17 -102q-8 5 -25 19q-43 34 -121 56q-43 12 -101 12h-4q-2 -102 -2 -158v-381q43 -27 49 -31q77 -51 129 -90t93 -83q101 -109 101 -234zM401 846v333q0 54 -2 150
q-74 -15 -125 -59q-36 -32 -55.5 -73.5t-19.5 -89.5q0 -51 26.5 -96t75.5 -88q43 -38 100 -77zM706.5 219.5q20.5 48.5 20.5 95.5q0 108 -100 205q-51 49 -153 116v-478q0 -75 1 -111q104 15 173 86q38 38 58.5 86.5z" />
    <glyph glyph-name="percent" unicode="%" horiz-adv-x="1846" 
d="M320 689q-70 23 -120 67q-107 93 -107 261q0 166 112 262q52 44 124 66.5t157 22.5q84 0 154 -23t121 -67q51 -45 78.5 -111.5t27.5 -149.5q0 -168 -111 -262q-52 -44 -124.5 -66.5t-157.5 -22.5q-84 0 -154 23zM286 797q74 -70 200 -70q56 0 105.5 18.5t86.5 53.5
q38 36 58.5 90t20.5 123q0 149 -82 226q-75 69 -201 69q-55 0 -103.5 -18t-85.5 -54q-39 -38 -61 -93.5t-21 -125.5q0 -144 83 -219zM1183 36q-70 23 -120 67q-107 93 -107 261q0 166 112 262q52 44 124 66.5t157 22.5q84 0 154 -23t121 -67q51 -45 78.5 -111.5t27.5 -149.5
q0 -168 -111 -262q-52 -44 -124.5 -66.5t-157.5 -22.5q-84 0 -154 23zM1149 144q74 -70 200 -70q56 0 105.5 18.5t86.5 53.5q38 36 58.5 90t20.5 123q0 149 -82 226q-75 69 -201 69q-55 0 -103.5 -18t-85.5 -54q-39 -38 -61 -93.5t-21 -125.5q0 -144 83 -219zM1071 1003
q68 105 152 249q5 7 13 21q31 53 69 119h117q-86 -122 -166 -243l-95 -146l-408 -627q-85 -133 -162 -268l-67 -119h-117q67 97 163 243l93 144z" />
    <glyph glyph-name="ampersand" unicode="&#x26;" horiz-adv-x="1571" 
d="M1481 66q-69 -62 -135 -78q-24 -7 -52 -7q-52 0 -105.5 23.5t-101.5 64.5q-55 45 -112 110q-124 -108 -249 -161q-108 -47 -197 -47q-84 0 -162 18t-137 54q-64 38 -99.5 95t-35.5 133q0 117 73 218q83 114 257 204q-65 52 -97 118q-28 57 -30 111q-1 8 -1 23
q0 124 90 194q41 32 94.5 47.5t107.5 15.5q58 0 104 -16.5t79 -45.5q33 -31 50 -71t17 -78q0 -40 -16 -82q-26 -60 -92 -112q-35 -25 -65 -42l-67 -39q130 -64 245 -181q77 -80 172 -213q117 122 216 273q93 143 145 276l55 -75q-169 -328 -371 -537q62 -85 104 -130.5
t89 -65.5q24 -10 40.5 -14.5t33.5 -4.5q16 0 24 2q36 8 58 23q11 7 58 34zM432 862q29 -64 95 -106l19 11q44 27 76 45q44 25 72.5 50.5t43.5 56.5q16 31 16 80q0 72 -62 109q-24 14 -53 20.5t-55 6.5q-40 0 -73.5 -14.5t-57.5 -40.5q-23 -25 -34.5 -58.5t-8.5 -69.5
q2 -49 22 -90zM733 104q98 51 188 133q-58 79 -97 128.5t-83 97.5q-114 119 -243 179q-139 -87 -206 -172.5t-67 -181.5q0 -17 1 -25q2 -50 28 -89.5t72 -67.5q44 -27 100 -40.5t118 -13.5q88 0 189 52z" />
    <glyph glyph-name="quotesingle" unicode="'" horiz-adv-x="364" 
d="M231 1536q-17 -187 -22 -346q-4 -69 -4 -145l-79 -8q-5 154 -14 308q-5 90 -12 191h131z" />
    <glyph glyph-name="parenleft" unicode="(" horiz-adv-x="590" 
d="M395 -522q-84 111 -151 258q-67 150 -103 301q-47 196 -47 396q0 263 77 511q54 179 141 331q33 59 55 88l22 30h103q-77 -125 -134 -271q-60 -155 -91 -304q-42 -195 -42 -384q0 -194 47 -389q36 -151 103 -302q66 -149 151 -265h-131z" />
    <glyph glyph-name="parenright" unicode=")" horiz-adv-x="573" 
d="M182 1391q83 -111 150 -259q66 -148 104 -300q47 -196 47 -396q0 -259 -76 -510q-57 -182 -142 -332q-33 -59 -55 -88l-22 -30h-102q77 127 133 271q58 149 91 303q42 195 42 385q0 193 -47 389q-36 151 -103 302q-65 147 -150 265h130z" />
    <glyph glyph-name="asterisk" unicode="*" horiz-adv-x="999" 
d="M194 761q75 87 151 186q40 52 54 71l37 48l-61 17q-77 23 -195 54l-123 32l37 107q86 -36 224 -88l85 -31l57 -21l-7 172l-10 226h111q-7 -97 -11 -216l-2 -44l-3 -86l-1 -24q0 -19 -1 -24l58 22l84 31l105 40l121 45l34 -107q-111 -26 -232 -60l-59 -17l-26 -8l-59 -17
q16 -20 40 -49q51 -66 126 -158l80 -100l-89 -65q-72 113 -133 203l-51 74l-34 49q-46 -70 -50 -77l-42 -63q-34 -51 -123 -187z" />
    <glyph glyph-name="plus" unicode="+" horiz-adv-x="729" 
d="M405 716q-6 -89 -7 -152q-1 -30 -1 -94q102 0 165 4l79 3v-82l-79 3l-78 2l-87 2q0 -120 3 -167l3 -80h-82l3 80l3 79q0 59 1 88l-118 -3l-55 -1l-75 -2v81q78 -5 154 -5q29 -1 94 -1q-1 32 -1 92q-2 102 -5 153h83z" />
    <glyph glyph-name="comma" unicode="," horiz-adv-x="375" 
d="M160 166q35 -15 39 -16q45 -20 67 -62q12 -24 12 -61q0 -94 -80 -196q-34 -42 -80 -81l-55 31q84 80 117 156q12 33 11 54l-96 51z" />
    <glyph glyph-name="hyphen" unicode="-" horiz-adv-x="624" 
d="M80 477q104 -6 175 -6q33 -1 105 -1q132 0 188 3l93 4v-82l-93 3q-73 4 -189 4q-65 0 -155 -2l-39 -1l-85 -3v81z" />
    <glyph glyph-name="period" unicode="." horiz-adv-x="386" 
d="M164 166l128 -68l-65 -124l-128 68z" />
    <glyph glyph-name="slash" unicode="/" horiz-adv-x="713" 
d="M496 1130q35 86 63 165q22 60 34 91l18 50l48 135h99l-9 -21q-75 -176 -108 -255l-67 -165l-292 -723q-61 -153 -115 -304q-30 -82 -47 -134h-98q54 122 116 274l66 164z" />
    <glyph glyph-name="zero" unicode="0" 
d="M3380 256h-3241v789h1227q0 91 32 154q21 44 40 74t46 52q56 53 124 81q65 31 150 31q94 0 156 -33q75 -31 128 -87q48 -52 82 -123q26 -70 26 -149h1230v-789zM1898 707q59 25 117 78q50 54 78 116q29 72 29 142q0 74 -21 125q-13 32 -26 56.5t-32 45.5q-17 21 -36.5 38
t-47.5 38q-30 13 -52 25q-28 13 -54 20q-19 8 -41 10.5t-54 2.5q-84 0 -143 -31q-65 -26 -115 -77q-41 -46 -73 -115q-29 -64 -29 -138q0 -71 29 -137q29 -65 75 -116q48 -51 116 -80q65 -30 140 -30q67 0 140 27zM1975 1285h-435q52 44 103 61q51 24 115 24q62 0 121 -24
q57 -24 96 -61zM2079.5 981.5q-3.5 -26.5 -13.5 -50.5q-19 -44 -57 -97h-431l423 428q82 -103 82 -219q0 -35 -3.5 -61.5zM1941 1251l-426 -426q-31 36 -62 99q-19 43 -19 119q0 62 18 112q9 24 21.5 46t32.5 50h435zM1544 801h432q-47 -42 -97 -64q-38 -11 -65.5 -16.5
t-55.5 -5.5q-45 0 -115 22q-51 21 -99 64zM529 461q0 31 -5 46q-4 14 -20 28q-14 9 -40 9t-42 -10q-14 -11 -20 -30q-4 -16 -4 -40q0 -27 6 -44q2 -9 7 -15t14 -14q14 -8 39 -8q26 0 40 10.5t20 29.5q5 14 5 38zM798 464q0 34 13 47q9 12 31 12q17 0 25 -6q12 -12 13 -25h25
q-1 17 -16 37q-15 15 -47 15q-27 0 -44 -10q-14 -14 -18 -30q-5 -15 -5 -40q0 -26 7 -44q4 -17 20 -29q18 -8 40 -8q42 0 56 28q6 16 7 27h-25q-2 -18 -13 -26.5t-25 -8.5q-16 0 -24 5q-9 9 -15 20q-5 18 -5 36zM1058 461q0 26 -5 46q-8 20 -22 28q-12 9 -38 9
q-27 0 -43 -10q-14 -16 -19 -30q-5 -22 -5 -40q0 -31 8 -44q4 -16 19 -29q18 -8 40 -8q48 0 61 40q4 15 4 38zM1775 464q0 33 11 47q12 12 31 12q16 0 27 -6q6 -6 9 -14.5t4 -10.5h25q-3 13 -6.5 21t-11.5 16t-19 11.5t-28 3.5q-26 0 -42 -10q-15 -15 -19 -30q-5 -22 -5 -40
q0 -27 6 -44q5 -17 22 -29q14 -8 38 -8t38 8q2 2 10 7.5t11 12.5q2 12 6 27h-26q-2 -9 -4.5 -16.5t-7.5 -10.5q-14 -8 -27 -8q-28 0 -36 25q-6 15 -6 36zM2561 428q0 14 -8 24q-6 9 -16 15l-9 3l-12 4l-6 1l-9 2q-7 1 -20 5q-6 2 -10 9q-1 1 -1 2.5t-1 2.5q-2 2 -2 6
q0 2 2 6q1 1 1 3t1 4q4 7 19 9q4 1 11 1q19 0 46 -9l3 18q-4 3 -13 5l-12 3q-18 2 -23 2q-21 0 -31 -5q-14 -4 -20 -14q-8 -14 -8 -21q-1 -1 -1 -3v-2q0 -12 9 -23q3 -6 19 -15l10 -3l14 -4q8 -2 12 -2q11 -2 18 -5q3 -2 5 -5q5 -8 5 -15q0 -9 -6 -14.5t-19 -8.5
q-3 -1 -9 -1h-10q-12 0 -23 4l-12 4l-13 4l-3 -19q3 -1 12 -5t19 -5q11 -3 28 -3q22 0 31 4l14 9l10 8l5 12q3 6 3 12zM2905 461q0 31 -5 46q-7 19 -21 28t-38 9q-27 0 -43 -10q-14 -11 -20 -30q-4 -12 -4 -40q0 -27 6 -44q4 -14 21 -29q14 -8 40 -8q27 0 40 11
q8 6 12.5 12.5t7.5 16.5q4 13 4 38zM365 542h-24v-119l-1 4l-6 8l-66 107h-29l3 -20v-136h23v118l3 -3l2 -7l70 -108h25v156zM687 542h-23v-119l-5 4l-3 8l-67 107h-28l1 -20v-136h23v118l4 -3l3 -7l68 -108h27v156zM1243 386l-4 156h-24l-50 -103l-3 -6l-51 109h-25l1 -17
l-5 -139h23l5 116l5 -10l40 -91h16l41 91l5 9h1l3 -115h22zM1437 386l-6 156h-24l-50 -103l-2 -6h-1l-51 109h-25l1 -17l-5 -139h25l2 116h1l4 -10l40 -91h15l43 91l3 9h2l3 -115h25zM1577 404h-80v50h62l2 20h-64v48h77l2 20h-104l1 -20v-136h104v18zM1735.5 390
q1.5 1 4.5 2l-8 14l-8 -3q0 -1 -1 -1h-3q-9 0 -15 5q-9 9 -10 15l-6 11q-4 4 -9 14q18 1 31 14q6 6 8.5 13.5t2.5 19.5q0 37 -34 46q-16 2 -25 2h-58l3 -20v-136h24v60h25l8 -13q5 -14 14 -29q2 -11 15 -15q6 -6 20 -6q7 0 10 3q3 0 9 2q1 1 2.5 2zM1934 542h-26l2 -20v-136
h24v156zM2100 386l-10 17l-54 139h-21l-60 -156h25l13 36l3 -9h66l10 -27h28zM2217 404h-73v138h-23v-136l-2 -20h98v18zM2418 542h-24v-84q0 -31 -11 -42q-7 -13 -29 -13q-20 0 -32 13q-7 13 -7 42v84h-28l4 -20v-66q0 -42 14 -56q20 -17 49 -17q64 0 64 73v86zM2697 404
h-80v50h62l3 20h-65v48h76l3 20h-105l2 -20v-136h104v18zM3062 542h-22v-119l-4 4l-5 8l-66 107h-28l2 -20v-136h22v118l4 -3l4 -7l67 -108h26v156zM3199 404h-72v138h-24v-136l-2 -20h98v18zM3309 542h-23l-39 -67l-2 -8l-2 8l-41 67h-24v-20h8l45 -75v-61h25v60zM501 499
q4 -9 4 -38q0 -30 -10 -44t-31 -14q-17 0 -25 6t-11 19q-6 15 -6 36q0 33 10 47q12 12 32 12q15 0 24 -4q5 -4 13 -20zM1029 499q4 -7 4 -38q0 -32 -10 -45t-30 -13q-30 0 -38 25q-5 18 -5 36q0 34 13 47q8 12 30 12q15 0 23 -4q7 -4 13 -20zM2877 499q3 -7 3 -38t-10 -45
q-7 -13 -29 -13q-18 0 -23 5q-12 7 -14 20q-6 22 -6 36q0 33 10 47q12 12 33 12q13 0 24 -4q4 -4 12 -20zM1694 475q-8 -8 -15 -8t-10 -1q-8 -2 -14 -2h-23v58h23q17 0 24 -3q10 -2 14 -8.5t4 -18.5t-3 -17zM2030 497l26 -64h-57l24 64l4 14zM132 45q-6 14 -9 34
q-2 18 -2 31q0 18 1 28t6 20q5 23 23 36q15 15 51 15q42 0 58 -19q19 -16 22 -47h-29q-4 22 -19 33q-5 5 -12 6.5t-20 1.5q-15 0 -27 -6q-15 -10 -18 -23q-6 -16 -6 -45t6 -44q3 -17 17 -25t28 -8q23 0 37.5 12.5t14.5 39.5h-34v24h63v-39q-1 -3 -1 -6.5t-1 -6.5
q-3 -15 -16 -28q-16 -14 -35 -18q-12 -3 -28 -3q-27 0 -47 13q-17 10 -23 24zM2042 45q1 2 5 7t4 12q0 9 -7 17t-18 10q-11 4 -27 6q-25 8 -31 11q-12 3 -24 17q-8 11 -8 29v5q0 10 9 26q3 4 11 10l14 8q18 6 39 6q15 0 27 -4l17 -4q7 -1 16 -5l-2 -23q-33 11 -59 11
q-8 0 -24 -2l-8 -5q-9 -5 -9 -20q0 -11 3 -17l6 -3q1 -1 2.5 -2t4.5 -2q5 -3 25 -8l13 -2l5 -2q13 -4 16 -5q4 -1 12 -5q11 -3 18 -16q9 -6 9 -29q0 -38 -37 -50q-16 -8 -42 -8q-20 0 -33 6q-22 3 -37 10l2 25q22 -8 34 -9l14 -4l13 -3q13 0 24 4q9 0 23 8zM2322 197
q18 -12 26 -33.5t8 -55.5q0 -26 -7 -49q-3 -17 -24 -36q-16 -15 -52 -15q-26 0 -48 13q-20 12 -25 33q-8 17 -8 56q0 29 5 48q7 23 25.5 37t50.5 14q31 0 49 -12zM3084 8q-25 0 -49 13q-18 11 -25 33q-7 26 -7 56q0 29 5 48q4 20 25 36q17 15 52 15q30 0 48 -12
q19 -11 26.5 -32t7.5 -57q0 -26 -7 -49q-3 -17 -24 -36q-18 -15 -52 -15zM322 14v167l-3 24h129l-2 -24h-94v-60h78l-1 -24h-77v-60h99v-23h-129zM520 14v167h-56l-3 24h146l-2 -24h-55v-167h-30zM737 181v-64h80l-3 -24h-77v-79h-29v167l-1 24h131l-2 -24h-99zM855 101v80
l-2 24h31v-104q0 -32 12.5 -50t37.5 -18q24 0 39 18q11 19 11 50v104h30v-105q0 -47 -20 -70q-25 -22 -60 -22q-36 0 -58 22q-21 24 -21 71zM1089 205v-168h89v-23h-122l3 23v168h30zM1236 205v-168h90v-23h-121l3 23v168h28zM1492 67l53 138h29l-75 -191h-26l-67 168
l-10 23h33l53 -138l4 -18h1zM1597 14v167l-2 24h129l-1 -24h-96v-60h79l-2 -24h-77v-60h99v-23h-129zM1914.5 14q-1.5 -1 -4.5 -2q-7 -4 -15 -4q-13 0 -26 9q-13 6 -17 19q-4 4 -9 14l-10 20l-8 16h-31v-72h-30v167l-1 24h68q34 0 53 -13q21 -13 21 -45q0 -21 -13 -41
q-15 -15 -38 -19q0 -1 10 -17l7 -14q4 -7 13 -16q1 -1 6.5 -4t11.5 -3q5 0 8 1l4 2q2 0 3 1l8 -16l-8 -5q-1 -1 -2.5 -2zM2122 14v167l-2 24h31v-191h-29zM2519 14l-87 133l-4 8l-3 4v-145h-29v168l-3 23h35l84 -131l5 -10l4 -5v146h30v-191h-32zM2774 93h-76v-79h-28v167
l-3 24h131l-3 -24h-97v-64h79zM2824 14v167l-1 24h69q73 0 73 -58q0 -49 -50 -60q3 -7 9 -17l7 -14q17 -23 30 -23q8 0 9 1l4 2q2 0 3 1l8 -16q-7 -6 -15 -9q-7 -4 -15 -4q-13 0 -26 9q-9 5 -13.5 11t-7 12.5t-4.5 9.5l-10 20l-8 16h-31v-72h-31zM3360 205h32l6 -191h-30
l-4 141h-3l-4 -13l-51 -112h-18l-54 112l-2 13h-1l-4 -141h-30l7 171l-3 20h32l64 -134l2 7zM2325 108q0 27 -5 46q-12 30 -47 30q-51 0 -51 -74q0 -18 1 -27.5t6 -16.5q4 -19 16 -25q13 -8 28 -8q52 0 52 75zM3057 41q11 -8 28 -8q23 0 39 18q11 17 11 57q0 25 -3 46
q-5 14 -18 23q-10 7 -29 7q-22 0 -39 -17q-13 -16 -13 -57q0 -31 7 -44q6 -20 17 -25zM1853 112.5q11 2.5 17 10.5q5 7 5 21q0 15 -5 23q-9 12 -31 14h-16h-29v-71h29q19 0 30 2.5zM2855 110h29q39 0 45 13q6 6 6 21t-5 22.5t-19 11.5q-7 3 -27 3h-29v-71zM2494 -193.5
q-1 -4.5 -2 -7.5q-3 -9 -3 -18t3 -19q1 -6 2 -10.5t2 -7.5q5 -10 10 -17.5t11 -12.5q12 -13 32 -22t36 -9q6 0 8 1l13 4q5 0 21 7q5 1 12 8q6 1 10 5h10q13 0 17 -4q6 -1 8 -4.5t3 -4.5l11 -12q-10 -12 -22 -19q-7 -5 -8 -5q-3 -1 -4.5 -2t-2.5 -2q-7 -6 -15 -9
q-4 -4 -14 -6q-12 -2 -17 -5q-7 -4 -30 -4q-29 0 -59 12q-52 25 -79 78q-5 16 -8.5 30.5t-3.5 29.5q0 9 4 20q1 16 7 38q1 1 2 2.5t2 4.5q2 4 4 7q18 26 24 32l17 13l9 6q3 1 4.5 2t2.5 2q15 11 35 15q21 7 39 7h7q16 0 23 -7q16 -1 31 -7l8 -5q4 -3 7.5 -4.5t6.5 -3.5
q1 0 8 -5q14 -9 22 -21l-11 -12q-1 -3 -5 -7q-6 -6 -15 -6h-8q-12 0 -20 6q-2 1 -6 5l-7 3q-4 2 -26 10q-3 1 -15 1q-16 0 -36 -9q-10 -2 -18 -7.5t-14 -11.5l-10 -14l-11 -18q-1 -6 -2 -10.5zM1585 -211v-17q0 -18 -6 -29q-2 -11 -6 -22t-6 -17q-1 -3 -5 -7q-6 -5 -12 -15
q-2 -3 -15 -13l-7 -5q-16 -18 -32 -22l-19 -7q-6 -2 -10 -2q-7 0 -10 -1q-4 -1 -10 -1h-12q-26 0 -58 12q-12 5 -24 14l-24 18q-2 2 -12.5 16.5t-16.5 29.5l-9 30q-4 12 -4 30q0 19 6 39q7 25 15 33l11 19q6 12 19 20l9 6q5 6 14 11l16 9l11 3l10 2q21 7 37 7h12q3 -1 10 -1
l10 -3l10 -3q10 -1 19 -5q4 -3 18 -10q7 -3 14 -10q3 -3 16 -13l11 -13q7 -8 12 -19q8 -12 12 -33q6 -12 6 -31zM2333 -257l2 -9v-10q0 -22 -9 -37q-1 -2 -6.5 -11t-16.5 -19q-15 -14 -32 -17q-14 -9 -39 -9q-21 0 -42 9q-15 5 -32 22q-11 8 -15 17q-1 1 -2 2.5t-2 4.5
q-3 3 -3 9v1q0 1 2 2t5 1q-2 0 6 5q4 0 6 2t3 2h11q7 0 11 -4q7 0 13 -3q1 -1 10 -7l8 -4l10 -4q9 -3 11 -3q11 0 16 4q3 1 5.5 2t4.5 2l8 4q6 4 11 12l6 11q3 3 3 6q0 10 -10 17q-4 6 -10 6q-3 6 -8 8q-4 0 -10 3q-8 1 -19 9l-14 4q-11 2 -28 13q-12 8 -23 20q-5 5 -7 13
q-8 13 -8 32q0 24 8 34q4 11 20 25l8 6q1 1 2.5 2t4.5 2q5 3 15 5l15 6q7 0 10 1h10q9 0 24 -7l10 -3q10 -3 15 -4q1 -3 7 -9l8 -9l9 -6q6 -6 7 -11l-11 -7q-3 -1 -6 -4q-6 -5 -14 -5h-16q-9 0 -9 3q-6 1 -9 4q-4 0 -4 1q-1 1 -5 1q-3 3 -6 3q-11 0 -17 -3q-5 0 -6 -1l-2 -2
l-5 -2q-4 -1 -6.5 -7t-2.5 -13q0 -9 3 -9l2 -6q3 0 4 -7q7 0 9 -1q3 -3 8 -3q8 -2 13 -5q7 -2 11 -6l13 -1q7 -7 14 -9l9 -3q4 -2 5 -4q12 -5 22 -20l8 -9q2 -4 8 -12q1 -3 1 -7v-4zM3011 -180q4 -13 4 -39q0 -27 -4 -38q-2 -12 -6 -19q-12 -29 -28 -44q-15 -13 -20 -16
q-2 -3 -15 -13q-8 -6 -17 -9q-16 -5 -20 -7q-6 -2 -8 -2q-7 0 -11 -1q-3 -1 -10 -1h-10q-30 0 -56 12q-27 11 -48 32q-22 22 -32 46q-10 33 -10 60v10q0 6 1 10l4 20q2 12 5 18l6 7q1 3 2 4.5t2 2.5q5 20 22 32q15 16 31 23q14 10 34 15l11 3l19 4h9q21 0 39 -7
q20 -4 37 -15q8 -3 15 -10q6 -4 10 -7l8 -6q3 -5 6 -6q4 -4 5 -7q9 -9 10 -19q11 -12 15 -33zM139 -73h214v-32q0 -10 -4 -14q-2 -2 -6 -4l-141 -195l2 1h148v-50h-224v18q0 8 0.5 11.5t2.5 7t4 5.5q6 7 6 15l5 4l3 5l128 178h-138v50zM389 -73h189v-50h-136v-70h109v-52
h-109v-72h136v-50h-189v294zM809 -123h-82v-244h-53v244h-88v50h223v-50zM944 -73l127 -294h-31q-7 0 -13 2t-11 5q-3 1 -7 7q-1 4 -7 10l-17 38h-133l-14 -38l-5 -5l-4 -3q-1 -5 -3.5 -6.5t-3.5 -2.5q-3 0 -5 -3q-7 -4 -11 -4h-37l128 294h47zM1084 -73h187v-50h-137v-77
h114v-53h-114v-114h-50v294zM1831 -73h52v-294h-50l-137 198q-1 0 -1 2q0 1 -1 1q-1 1 -3 1l-3 6l-2 4q-4 0 -4 2q-1 1 0 2l-1 2l-2 2l-2 4v-224h-55v294h49q4 0 10 -2l8 -3q2 -1 4 -1t3 -1l4 -4l31 -44q15 -23 27 -45q19 -21 34 -41q4 -9 14 -21q5 -7 17 -21l2 -5l1 -4
q0 -3 2 -7q3 -6 3 -8v207zM1910 -73h223v-50h-87v-244h-52v244h-84v50zM3328 -73h52v-294h-52v216q-2 -6 -2 -7q-2 -2 -4 -7t-2 -9v-6q-3 -7 -5.5 -12.5t-4.5 -9.5q-3 -6 -19 -46q-3 -8 -11 -24l-9 -23l-10 -23l-9 -24l-9 -25h-50l-76 187q-3 4 -3 15q-5 7 -5 11v-213h-55
v294h51q6 0 9 -1q4 -4 10 -4q3 0 5 -1l6 -6q8 -8 9 -12q2 -7 8 -21l8 -21l10 -23q6 -14 7 -21q4 -9 19 -46q8 -25 18 -43v-14q4 0 4 -6q0 6 1 6v6q0 3 1 3v5l13 19l59 156l3 6l2 6l3 2l3 2q3 1 3 2q1 1 5 1q5 0 6 1q2 0 3 1l2 2q1 1 6 1zM1532 -219q0 19 -7 36q-2 11 -7 18
t-15 14q-16 16 -30 19q-20 9 -38 9q-15 0 -37 -9q-17 -7 -27 -19q-9 -7 -14 -13.5t-9 -18.5q-5 -13 -5 -36q0 -26 5 -37q4 -12 9 -18.5t14 -11.5q3 -6 7.5 -8.5t5.5 -3.5l8 -4q4 -4 6 -5q19 -10 37 -10q21 0 38 10q4 2 13.5 7t16.5 14q17 9 22 30q7 15 7 37zM2961 -219
q0 6 -2 18q-1 4 -4 16.5t-8 19.5q-10 13 -11 14q-15 15 -32 19q-9 9 -38 9q-15 0 -35 -9q-6 -1 -16 -7q-3 -3 -12.5 -11t-14.5 -15q-8 -13 -10 -18q-5 -22 -5 -36q0 -17 5 -37q9 -23 22 -30q9 -9 18 -14t13 -7q17 -10 35 -10q27 0 38 10l18 9q8 5 14 12q12 9 19 30
q6 13 6 37zM961 -253l-36 93v1v2q-1 0 -1 2q-3 0 -3 4v-2l-1 -2q-3 -5 -4 -5l-38 -93h83zM2415 -330v-6q0 -10 -1.5 -14.5t-7.5 -9.5q-3 0 -5 -2l-4 -5q-6 -2 -14 -2h-6q-3 0 -5 2q-3 3 -6 4q-7 5 -9 8q-4 4 -5 6q-3 9 -3 13v6q0 5 3 5l3 4l2 3q0 1 3 1q6 10 12 10q2 2 5 2
h6h5q7 0 10 -2t8 -10q8 0 8 -8q1 0 1 -5z" />
    <glyph glyph-name="one" unicode="1" 
d="M3380 256h-3241v789h1227q0 91 32 154q21 44 40 74t46 52q56 53 124 81q65 31 150 31q94 0 156 -33q75 -31 128 -87q48 -52 82 -123q26 -70 26 -149h1230v-789zM1898 707q59 25 117 78q50 54 78 116q29 72 29 142q0 74 -21 125q-13 32 -26 56.5t-32 45.5q-17 21 -36.5 38
t-47.5 38q-30 13 -52 25q-28 13 -54 20q-19 8 -41 10.5t-54 2.5q-84 0 -143 -31q-65 -26 -115 -77q-41 -46 -73 -115q-29 -64 -29 -138q0 -71 29 -137q29 -65 75 -116q48 -51 116 -80q65 -30 140 -30q67 0 140 27zM1975 1285h-435q52 44 103 61q51 24 115 24q62 0 121 -24
q57 -24 96 -61zM2079.5 981.5q-3.5 -26.5 -13.5 -50.5q-19 -44 -57 -97h-431l423 428q82 -103 82 -219q0 -35 -3.5 -61.5zM1941 1251l-426 -426q-31 36 -62 99q-19 43 -19 119q0 62 18 112q9 24 21.5 46t32.5 50h435zM1544 801h432q-47 -42 -97 -64q-38 -11 -65.5 -16.5
t-55.5 -5.5q-45 0 -115 22q-51 21 -99 64zM529 461q0 31 -5 46q-4 14 -20 28q-14 9 -40 9t-42 -10q-14 -11 -20 -30q-4 -16 -4 -40q0 -27 6 -44q2 -9 7 -15t14 -14q14 -8 39 -8q26 0 40 10.5t20 29.5q5 14 5 38zM798 464q0 34 13 47q9 12 31 12q17 0 25 -6q12 -12 13 -25h25
q-1 17 -16 37q-15 15 -47 15q-27 0 -44 -10q-14 -14 -18 -30q-5 -15 -5 -40q0 -26 7 -44q4 -17 20 -29q18 -8 40 -8q42 0 56 28q6 16 7 27h-25q-2 -18 -13 -26.5t-25 -8.5q-16 0 -24 5q-9 9 -15 20q-5 18 -5 36zM1058 461q0 26 -5 46q-8 20 -22 28q-12 9 -38 9
q-27 0 -43 -10q-14 -16 -19 -30q-5 -22 -5 -40q0 -31 8 -44q4 -16 19 -29q18 -8 40 -8q48 0 61 40q4 15 4 38zM1775 464q0 33 11 47q12 12 31 12q16 0 27 -6q6 -6 9 -14.5t4 -10.5h25q-3 13 -6.5 21t-11.5 16t-19 11.5t-28 3.5q-26 0 -42 -10q-15 -15 -19 -30q-5 -22 -5 -40
q0 -27 6 -44q5 -17 22 -29q14 -8 38 -8t38 8q2 2 10 7.5t11 12.5q2 12 6 27h-26q-2 -9 -4.5 -16.5t-7.5 -10.5q-14 -8 -27 -8q-28 0 -36 25q-6 15 -6 36zM2561 428q0 14 -8 24q-6 9 -16 15l-9 3l-12 4l-6 1l-9 2q-7 1 -20 5q-6 2 -10 9q-1 1 -1 2.5t-1 2.5q-2 2 -2 6
q0 2 2 6q1 1 1 3t1 4q4 7 19 9q4 1 11 1q19 0 46 -9l3 18q-4 3 -13 5l-12 3q-18 2 -23 2q-21 0 -31 -5q-14 -4 -20 -14q-8 -14 -8 -21q-1 -1 -1 -3v-2q0 -12 9 -23q3 -6 19 -15l10 -3l14 -4q8 -2 12 -2q11 -2 18 -5q3 -2 5 -5q5 -8 5 -15q0 -9 -6 -14.5t-19 -8.5
q-3 -1 -9 -1h-10q-12 0 -23 4l-12 4l-13 4l-3 -19q3 -1 12 -5t19 -5q11 -3 28 -3q22 0 31 4l14 9l10 8l5 12q3 6 3 12zM2905 461q0 31 -5 46q-7 19 -21 28t-38 9q-27 0 -43 -10q-14 -11 -20 -30q-4 -12 -4 -40q0 -27 6 -44q4 -14 21 -29q14 -8 40 -8q27 0 40 11
q8 6 12.5 12.5t7.5 16.5q4 13 4 38zM365 542h-24v-119l-1 4l-6 8l-66 107h-29l3 -20v-136h23v118l3 -3l2 -7l70 -108h25v156zM687 542h-23v-119l-5 4l-3 8l-67 107h-28l1 -20v-136h23v118l4 -3l3 -7l68 -108h27v156zM1243 386l-4 156h-24l-50 -103l-3 -6l-51 109h-25l1 -17
l-5 -139h23l5 116l5 -10l40 -91h16l41 91l5 9h1l3 -115h22zM1437 386l-6 156h-24l-50 -103l-2 -6h-1l-51 109h-25l1 -17l-5 -139h25l2 116h1l4 -10l40 -91h15l43 91l3 9h2l3 -115h25zM1577 404h-80v50h62l2 20h-64v48h77l2 20h-104l1 -20v-136h104v18zM1735.5 390
q1.5 1 4.5 2l-8 14l-8 -3q0 -1 -1 -1h-3q-9 0 -15 5q-9 9 -10 15l-6 11q-4 4 -9 14q18 1 31 14q6 6 8.5 13.5t2.5 19.5q0 37 -34 46q-16 2 -25 2h-58l3 -20v-136h24v60h25l8 -13q5 -14 14 -29q2 -11 15 -15q6 -6 20 -6q7 0 10 3q3 0 9 2q1 1 2.5 2zM1934 542h-26l2 -20v-136
h24v156zM2100 386l-10 17l-54 139h-21l-60 -156h25l13 36l3 -9h66l10 -27h28zM2217 404h-73v138h-23v-136l-2 -20h98v18zM2418 542h-24v-84q0 -31 -11 -42q-7 -13 -29 -13q-20 0 -32 13q-7 13 -7 42v84h-28l4 -20v-66q0 -42 14 -56q20 -17 49 -17q64 0 64 73v86zM2697 404
h-80v50h62l3 20h-65v48h76l3 20h-105l2 -20v-136h104v18zM3062 542h-22v-119l-4 4l-5 8l-66 107h-28l2 -20v-136h22v118l4 -3l4 -7l67 -108h26v156zM3199 404h-72v138h-24v-136l-2 -20h98v18zM3309 542h-23l-39 -67l-2 -8l-2 8l-41 67h-24v-20h8l45 -75v-61h25v60zM501 499
q4 -9 4 -38q0 -30 -10 -44t-31 -14q-17 0 -25 6t-11 19q-6 15 -6 36q0 33 10 47q12 12 32 12q15 0 24 -4q5 -4 13 -20zM1029 499q4 -7 4 -38q0 -32 -10 -45t-30 -13q-30 0 -38 25q-5 18 -5 36q0 34 13 47q8 12 30 12q15 0 23 -4q7 -4 13 -20zM2877 499q3 -7 3 -38t-10 -45
q-7 -13 -29 -13q-18 0 -23 5q-12 7 -14 20q-6 22 -6 36q0 33 10 47q12 12 33 12q13 0 24 -4q4 -4 12 -20zM1694 475q-8 -8 -15 -8t-10 -1q-8 -2 -14 -2h-23v58h23q17 0 24 -3q10 -2 14 -8.5t4 -18.5t-3 -17zM2030 497l26 -64h-57l24 64l4 14zM132 45q-6 14 -9 34
q-2 18 -2 31q0 18 1 28t6 20q5 23 23 36q15 15 51 15q42 0 58 -19q19 -16 22 -47h-29q-4 22 -19 33q-5 5 -12 6.5t-20 1.5q-15 0 -27 -6q-15 -10 -18 -23q-6 -16 -6 -45t6 -44q3 -17 17 -25t28 -8q23 0 37.5 12.5t14.5 39.5h-34v24h63v-39q-1 -3 -1 -6.5t-1 -6.5
q-3 -15 -16 -28q-16 -14 -35 -18q-12 -3 -28 -3q-27 0 -47 13q-17 10 -23 24zM2042 45q1 2 5 7t4 12q0 9 -7 17t-18 10q-11 4 -27 6q-25 8 -31 11q-12 3 -24 17q-8 11 -8 29v5q0 10 9 26q3 4 11 10l14 8q18 6 39 6q15 0 27 -4l17 -4q7 -1 16 -5l-2 -23q-33 11 -59 11
q-8 0 -24 -2l-8 -5q-9 -5 -9 -20q0 -11 3 -17l6 -3q1 -1 2.5 -2t4.5 -2q5 -3 25 -8l13 -2l5 -2q13 -4 16 -5q4 -1 12 -5q11 -3 18 -16q9 -6 9 -29q0 -38 -37 -50q-16 -8 -42 -8q-20 0 -33 6q-22 3 -37 10l2 25q22 -8 34 -9l14 -4l13 -3q13 0 24 4q9 0 23 8zM2322 197
q18 -12 26 -33.5t8 -55.5q0 -26 -7 -49q-3 -17 -24 -36q-16 -15 -52 -15q-26 0 -48 13q-20 12 -25 33q-8 17 -8 56q0 29 5 48q7 23 25.5 37t50.5 14q31 0 49 -12zM3084 8q-25 0 -49 13q-18 11 -25 33q-7 26 -7 56q0 29 5 48q4 20 25 36q17 15 52 15q30 0 48 -12
q19 -11 26.5 -32t7.5 -57q0 -26 -7 -49q-3 -17 -24 -36q-18 -15 -52 -15zM322 14v167l-3 24h129l-2 -24h-94v-60h78l-1 -24h-77v-60h99v-23h-129zM520 14v167h-56l-3 24h146l-2 -24h-55v-167h-30zM737 181v-64h80l-3 -24h-77v-79h-29v167l-1 24h131l-2 -24h-99zM855 101v80
l-2 24h31v-104q0 -32 12.5 -50t37.5 -18q24 0 39 18q11 19 11 50v104h30v-105q0 -47 -20 -70q-25 -22 -60 -22q-36 0 -58 22q-21 24 -21 71zM1089 205v-168h89v-23h-122l3 23v168h30zM1236 205v-168h90v-23h-121l3 23v168h28zM1492 67l53 138h29l-75 -191h-26l-67 168
l-10 23h33l53 -138l4 -18h1zM1597 14v167l-2 24h129l-1 -24h-96v-60h79l-2 -24h-77v-60h99v-23h-129zM1914.5 14q-1.5 -1 -4.5 -2q-7 -4 -15 -4q-13 0 -26 9q-13 6 -17 19q-4 4 -9 14l-10 20l-8 16h-31v-72h-30v167l-1 24h68q34 0 53 -13q21 -13 21 -45q0 -21 -13 -41
q-15 -15 -38 -19q0 -1 10 -17l7 -14q4 -7 13 -16q1 -1 6.5 -4t11.5 -3q5 0 8 1l4 2q2 0 3 1l8 -16l-8 -5q-1 -1 -2.5 -2zM2122 14v167l-2 24h31v-191h-29zM2519 14l-87 133l-4 8l-3 4v-145h-29v168l-3 23h35l84 -131l5 -10l4 -5v146h30v-191h-32zM2774 93h-76v-79h-28v167
l-3 24h131l-3 -24h-97v-64h79zM2824 14v167l-1 24h69q73 0 73 -58q0 -49 -50 -60q3 -7 9 -17l7 -14q17 -23 30 -23q8 0 9 1l4 2q2 0 3 1l8 -16q-7 -6 -15 -9q-7 -4 -15 -4q-13 0 -26 9q-9 5 -13.5 11t-7 12.5t-4.5 9.5l-10 20l-8 16h-31v-72h-31zM3360 205h32l6 -191h-30
l-4 141h-3l-4 -13l-51 -112h-18l-54 112l-2 13h-1l-4 -141h-30l7 171l-3 20h32l64 -134l2 7zM2325 108q0 27 -5 46q-12 30 -47 30q-51 0 -51 -74q0 -18 1 -27.5t6 -16.5q4 -19 16 -25q13 -8 28 -8q52 0 52 75zM3057 41q11 -8 28 -8q23 0 39 18q11 17 11 57q0 25 -3 46
q-5 14 -18 23q-10 7 -29 7q-22 0 -39 -17q-13 -16 -13 -57q0 -31 7 -44q6 -20 17 -25zM1853 112.5q11 2.5 17 10.5q5 7 5 21q0 15 -5 23q-9 12 -31 14h-16h-29v-71h29q19 0 30 2.5zM2855 110h29q39 0 45 13q6 6 6 21t-5 22.5t-19 11.5q-7 3 -27 3h-29v-71zM2494 -193.5
q-1 -4.5 -2 -7.5q-3 -9 -3 -18t3 -19q1 -6 2 -10.5t2 -7.5q5 -10 10 -17.5t11 -12.5q12 -13 32 -22t36 -9q6 0 8 1l13 4q5 0 21 7q5 1 12 8q6 1 10 5h10q13 0 17 -4q6 -1 8 -4.5t3 -4.5l11 -12q-10 -12 -22 -19q-7 -5 -8 -5q-3 -1 -4.5 -2t-2.5 -2q-7 -6 -15 -9
q-4 -4 -14 -6q-12 -2 -17 -5q-7 -4 -30 -4q-29 0 -59 12q-52 25 -79 78q-5 16 -8.5 30.5t-3.5 29.5q0 9 4 20q1 16 7 38q1 1 2 2.5t2 4.5q2 4 4 7q18 26 24 32l17 13l9 6q3 1 4.5 2t2.5 2q15 11 35 15q21 7 39 7h7q16 0 23 -7q16 -1 31 -7l8 -5q4 -3 7.5 -4.5t6.5 -3.5
q1 0 8 -5q14 -9 22 -21l-11 -12q-1 -3 -5 -7q-6 -6 -15 -6h-8q-12 0 -20 6q-2 1 -6 5l-7 3q-4 2 -26 10q-3 1 -15 1q-16 0 -36 -9q-10 -2 -18 -7.5t-14 -11.5l-10 -14l-11 -18q-1 -6 -2 -10.5zM1585 -211v-17q0 -18 -6 -29q-2 -11 -6 -22t-6 -17q-1 -3 -5 -7q-6 -5 -12 -15
q-2 -3 -15 -13l-7 -5q-16 -18 -32 -22l-19 -7q-6 -2 -10 -2q-7 0 -10 -1q-4 -1 -10 -1h-12q-26 0 -58 12q-12 5 -24 14l-24 18q-2 2 -12.5 16.5t-16.5 29.5l-9 30q-4 12 -4 30q0 19 6 39q7 25 15 33l11 19q6 12 19 20l9 6q5 6 14 11l16 9l11 3l10 2q21 7 37 7h12q3 -1 10 -1
l10 -3l10 -3q10 -1 19 -5q4 -3 18 -10q7 -3 14 -10q3 -3 16 -13l11 -13q7 -8 12 -19q8 -12 12 -33q6 -12 6 -31zM2333 -257l2 -9v-10q0 -22 -9 -37q-1 -2 -6.5 -11t-16.5 -19q-15 -14 -32 -17q-14 -9 -39 -9q-21 0 -42 9q-15 5 -32 22q-11 8 -15 17q-1 1 -2 2.5t-2 4.5
q-3 3 -3 9v1q0 1 2 2t5 1q-2 0 6 5q4 0 6 2t3 2h11q7 0 11 -4q7 0 13 -3q1 -1 10 -7l8 -4l10 -4q9 -3 11 -3q11 0 16 4q3 1 5.5 2t4.5 2l8 4q6 4 11 12l6 11q3 3 3 6q0 10 -10 17q-4 6 -10 6q-3 6 -8 8q-4 0 -10 3q-8 1 -19 9l-14 4q-11 2 -28 13q-12 8 -23 20q-5 5 -7 13
q-8 13 -8 32q0 24 8 34q4 11 20 25l8 6q1 1 2.5 2t4.5 2q5 3 15 5l15 6q7 0 10 1h10q9 0 24 -7l10 -3q10 -3 15 -4q1 -3 7 -9l8 -9l9 -6q6 -6 7 -11l-11 -7q-3 -1 -6 -4q-6 -5 -14 -5h-16q-9 0 -9 3q-6 1 -9 4q-4 0 -4 1q-1 1 -5 1q-3 3 -6 3q-11 0 -17 -3q-5 0 -6 -1l-2 -2
l-5 -2q-4 -1 -6.5 -7t-2.5 -13q0 -9 3 -9l2 -6q3 0 4 -7q7 0 9 -1q3 -3 8 -3q8 -2 13 -5q7 -2 11 -6l13 -1q7 -7 14 -9l9 -3q4 -2 5 -4q12 -5 22 -20l8 -9q2 -4 8 -12q1 -3 1 -7v-4zM3011 -180q4 -13 4 -39q0 -27 -4 -38q-2 -12 -6 -19q-12 -29 -28 -44q-15 -13 -20 -16
q-2 -3 -15 -13q-8 -6 -17 -9q-16 -5 -20 -7q-6 -2 -8 -2q-7 0 -11 -1q-3 -1 -10 -1h-10q-30 0 -56 12q-27 11 -48 32q-22 22 -32 46q-10 33 -10 60v10q0 6 1 10l4 20q2 12 5 18l6 7q1 3 2 4.5t2 2.5q5 20 22 32q15 16 31 23q14 10 34 15l11 3l19 4h9q21 0 39 -7
q20 -4 37 -15q8 -3 15 -10q6 -4 10 -7l8 -6q3 -5 6 -6q4 -4 5 -7q9 -9 10 -19q11 -12 15 -33zM139 -73h214v-32q0 -10 -4 -14q-2 -2 -6 -4l-141 -195l2 1h148v-50h-224v18q0 8 0.5 11.5t2.5 7t4 5.5q6 7 6 15l5 4l3 5l128 178h-138v50zM389 -73h189v-50h-136v-70h109v-52
h-109v-72h136v-50h-189v294zM809 -123h-82v-244h-53v244h-88v50h223v-50zM944 -73l127 -294h-31q-7 0 -13 2t-11 5q-3 1 -7 7q-1 4 -7 10l-17 38h-133l-14 -38l-5 -5l-4 -3q-1 -5 -3.5 -6.5t-3.5 -2.5q-3 0 -5 -3q-7 -4 -11 -4h-37l128 294h47zM1084 -73h187v-50h-137v-77
h114v-53h-114v-114h-50v294zM1831 -73h52v-294h-50l-137 198q-1 0 -1 2q0 1 -1 1q-1 1 -3 1l-3 6l-2 4q-4 0 -4 2q-1 1 0 2l-1 2l-2 2l-2 4v-224h-55v294h49q4 0 10 -2l8 -3q2 -1 4 -1t3 -1l4 -4l31 -44q15 -23 27 -45q19 -21 34 -41q4 -9 14 -21q5 -7 17 -21l2 -5l1 -4
q0 -3 2 -7q3 -6 3 -8v207zM1910 -73h223v-50h-87v-244h-52v244h-84v50zM3328 -73h52v-294h-52v216q-2 -6 -2 -7q-2 -2 -4 -7t-2 -9v-6q-3 -7 -5.5 -12.5t-4.5 -9.5q-3 -6 -19 -46q-3 -8 -11 -24l-9 -23l-10 -23l-9 -24l-9 -25h-50l-76 187q-3 4 -3 15q-5 7 -5 11v-213h-55
v294h51q6 0 9 -1q4 -4 10 -4q3 0 5 -1l6 -6q8 -8 9 -12q2 -7 8 -21l8 -21l10 -23q6 -14 7 -21q4 -9 19 -46q8 -25 18 -43v-14q4 0 4 -6q0 6 1 6v6q0 3 1 3v5l13 19l59 156l3 6l2 6l3 2l3 2q3 1 3 2q1 1 5 1q5 0 6 1q2 0 3 1l2 2q1 1 6 1zM1532 -219q0 19 -7 36q-2 11 -7 18
t-15 14q-16 16 -30 19q-20 9 -38 9q-15 0 -37 -9q-17 -7 -27 -19q-9 -7 -14 -13.5t-9 -18.5q-5 -13 -5 -36q0 -26 5 -37q4 -12 9 -18.5t14 -11.5q3 -6 7.5 -8.5t5.5 -3.5l8 -4q4 -4 6 -5q19 -10 37 -10q21 0 38 10q4 2 13.5 7t16.5 14q17 9 22 30q7 15 7 37zM2961 -219
q0 6 -2 18q-1 4 -4 16.5t-8 19.5q-10 13 -11 14q-15 15 -32 19q-9 9 -38 9q-15 0 -35 -9q-6 -1 -16 -7q-3 -3 -12.5 -11t-14.5 -15q-8 -13 -10 -18q-5 -22 -5 -36q0 -17 5 -37q9 -23 22 -30q9 -9 18 -14t13 -7q17 -10 35 -10q27 0 38 10l18 9q8 5 14 12q12 9 19 30
q6 13 6 37zM961 -253l-36 93v1v2q-1 0 -1 2q-3 0 -3 4v-2l-1 -2q-3 -5 -4 -5l-38 -93h83zM2415 -330v-6q0 -10 -1.5 -14.5t-7.5 -9.5q-3 0 -5 -2l-4 -5q-6 -2 -14 -2h-6q-3 0 -5 2q-3 3 -6 4q-7 5 -9 8q-4 4 -5 6q-3 9 -3 13v6q0 5 3 5l3 4l2 3q0 1 3 1q6 10 12 10q2 2 5 2
h6h5q7 0 10 -2t8 -10q8 0 8 -8q1 0 1 -5z" />
    <glyph glyph-name="two" unicode="2" 
d="M3380 256h-3241v789h1227q0 91 32 154q21 44 40 74t46 52q56 53 124 81q65 31 150 31q94 0 156 -33q75 -31 128 -87q48 -52 82 -123q26 -70 26 -149h1230v-789zM1898 707q59 25 117 78q50 54 78 116q29 72 29 142q0 74 -21 125q-13 32 -26 56.5t-32 45.5q-17 21 -36.5 38
t-47.5 38q-30 13 -52 25q-28 13 -54 20q-19 8 -41 10.5t-54 2.5q-84 0 -143 -31q-65 -26 -115 -77q-41 -46 -73 -115q-29 -64 -29 -138q0 -71 29 -137q29 -65 75 -116q48 -51 116 -80q65 -30 140 -30q67 0 140 27zM1975 1285h-435q52 44 103 61q51 24 115 24q62 0 121 -24
q57 -24 96 -61zM2079.5 981.5q-3.5 -26.5 -13.5 -50.5q-19 -44 -57 -97h-431l423 428q82 -103 82 -219q0 -35 -3.5 -61.5zM1941 1251l-426 -426q-31 36 -62 99q-19 43 -19 119q0 62 18 112q9 24 21.5 46t32.5 50h435zM1544 801h432q-47 -42 -97 -64q-38 -11 -65.5 -16.5
t-55.5 -5.5q-45 0 -115 22q-51 21 -99 64zM529 461q0 31 -5 46q-4 14 -20 28q-14 9 -40 9t-42 -10q-14 -11 -20 -30q-4 -16 -4 -40q0 -27 6 -44q2 -9 7 -15t14 -14q14 -8 39 -8q26 0 40 10.5t20 29.5q5 14 5 38zM798 464q0 34 13 47q9 12 31 12q17 0 25 -6q12 -12 13 -25h25
q-1 17 -16 37q-15 15 -47 15q-27 0 -44 -10q-14 -14 -18 -30q-5 -15 -5 -40q0 -26 7 -44q4 -17 20 -29q18 -8 40 -8q42 0 56 28q6 16 7 27h-25q-2 -18 -13 -26.5t-25 -8.5q-16 0 -24 5q-9 9 -15 20q-5 18 -5 36zM1058 461q0 26 -5 46q-8 20 -22 28q-12 9 -38 9
q-27 0 -43 -10q-14 -16 -19 -30q-5 -22 -5 -40q0 -31 8 -44q4 -16 19 -29q18 -8 40 -8q48 0 61 40q4 15 4 38zM1775 464q0 33 11 47q12 12 31 12q16 0 27 -6q6 -6 9 -14.5t4 -10.5h25q-3 13 -6.5 21t-11.5 16t-19 11.5t-28 3.5q-26 0 -42 -10q-15 -15 -19 -30q-5 -22 -5 -40
q0 -27 6 -44q5 -17 22 -29q14 -8 38 -8t38 8q2 2 10 7.5t11 12.5q2 12 6 27h-26q-2 -9 -4.5 -16.5t-7.5 -10.5q-14 -8 -27 -8q-28 0 -36 25q-6 15 -6 36zM2561 428q0 14 -8 24q-6 9 -16 15l-9 3l-12 4l-6 1l-9 2q-7 1 -20 5q-6 2 -10 9q-1 1 -1 2.5t-1 2.5q-2 2 -2 6
q0 2 2 6q1 1 1 3t1 4q4 7 19 9q4 1 11 1q19 0 46 -9l3 18q-4 3 -13 5l-12 3q-18 2 -23 2q-21 0 -31 -5q-14 -4 -20 -14q-8 -14 -8 -21q-1 -1 -1 -3v-2q0 -12 9 -23q3 -6 19 -15l10 -3l14 -4q8 -2 12 -2q11 -2 18 -5q3 -2 5 -5q5 -8 5 -15q0 -9 -6 -14.5t-19 -8.5
q-3 -1 -9 -1h-10q-12 0 -23 4l-12 4l-13 4l-3 -19q3 -1 12 -5t19 -5q11 -3 28 -3q22 0 31 4l14 9l10 8l5 12q3 6 3 12zM2905 461q0 31 -5 46q-7 19 -21 28t-38 9q-27 0 -43 -10q-14 -11 -20 -30q-4 -12 -4 -40q0 -27 6 -44q4 -14 21 -29q14 -8 40 -8q27 0 40 11
q8 6 12.5 12.5t7.5 16.5q4 13 4 38zM365 542h-24v-119l-1 4l-6 8l-66 107h-29l3 -20v-136h23v118l3 -3l2 -7l70 -108h25v156zM687 542h-23v-119l-5 4l-3 8l-67 107h-28l1 -20v-136h23v118l4 -3l3 -7l68 -108h27v156zM1243 386l-4 156h-24l-50 -103l-3 -6l-51 109h-25l1 -17
l-5 -139h23l5 116l5 -10l40 -91h16l41 91l5 9h1l3 -115h22zM1437 386l-6 156h-24l-50 -103l-2 -6h-1l-51 109h-25l1 -17l-5 -139h25l2 116h1l4 -10l40 -91h15l43 91l3 9h2l3 -115h25zM1577 404h-80v50h62l2 20h-64v48h77l2 20h-104l1 -20v-136h104v18zM1735.5 390
q1.5 1 4.5 2l-8 14l-8 -3q0 -1 -1 -1h-3q-9 0 -15 5q-9 9 -10 15l-6 11q-4 4 -9 14q18 1 31 14q6 6 8.5 13.5t2.5 19.5q0 37 -34 46q-16 2 -25 2h-58l3 -20v-136h24v60h25l8 -13q5 -14 14 -29q2 -11 15 -15q6 -6 20 -6q7 0 10 3q3 0 9 2q1 1 2.5 2zM1934 542h-26l2 -20v-136
h24v156zM2100 386l-10 17l-54 139h-21l-60 -156h25l13 36l3 -9h66l10 -27h28zM2217 404h-73v138h-23v-136l-2 -20h98v18zM2418 542h-24v-84q0 -31 -11 -42q-7 -13 -29 -13q-20 0 -32 13q-7 13 -7 42v84h-28l4 -20v-66q0 -42 14 -56q20 -17 49 -17q64 0 64 73v86zM2697 404
h-80v50h62l3 20h-65v48h76l3 20h-105l2 -20v-136h104v18zM3062 542h-22v-119l-4 4l-5 8l-66 107h-28l2 -20v-136h22v118l4 -3l4 -7l67 -108h26v156zM3199 404h-72v138h-24v-136l-2 -20h98v18zM3309 542h-23l-39 -67l-2 -8l-2 8l-41 67h-24v-20h8l45 -75v-61h25v60zM501 499
q4 -9 4 -38q0 -30 -10 -44t-31 -14q-17 0 -25 6t-11 19q-6 15 -6 36q0 33 10 47q12 12 32 12q15 0 24 -4q5 -4 13 -20zM1029 499q4 -7 4 -38q0 -32 -10 -45t-30 -13q-30 0 -38 25q-5 18 -5 36q0 34 13 47q8 12 30 12q15 0 23 -4q7 -4 13 -20zM2877 499q3 -7 3 -38t-10 -45
q-7 -13 -29 -13q-18 0 -23 5q-12 7 -14 20q-6 22 -6 36q0 33 10 47q12 12 33 12q13 0 24 -4q4 -4 12 -20zM1694 475q-8 -8 -15 -8t-10 -1q-8 -2 -14 -2h-23v58h23q17 0 24 -3q10 -2 14 -8.5t4 -18.5t-3 -17zM2030 497l26 -64h-57l24 64l4 14zM132 45q-6 14 -9 34
q-2 18 -2 31q0 18 1 28t6 20q5 23 23 36q15 15 51 15q42 0 58 -19q19 -16 22 -47h-29q-4 22 -19 33q-5 5 -12 6.5t-20 1.5q-15 0 -27 -6q-15 -10 -18 -23q-6 -16 -6 -45t6 -44q3 -17 17 -25t28 -8q23 0 37.5 12.5t14.5 39.5h-34v24h63v-39q-1 -3 -1 -6.5t-1 -6.5
q-3 -15 -16 -28q-16 -14 -35 -18q-12 -3 -28 -3q-27 0 -47 13q-17 10 -23 24zM2042 45q1 2 5 7t4 12q0 9 -7 17t-18 10q-11 4 -27 6q-25 8 -31 11q-12 3 -24 17q-8 11 -8 29v5q0 10 9 26q3 4 11 10l14 8q18 6 39 6q15 0 27 -4l17 -4q7 -1 16 -5l-2 -23q-33 11 -59 11
q-8 0 -24 -2l-8 -5q-9 -5 -9 -20q0 -11 3 -17l6 -3q1 -1 2.5 -2t4.5 -2q5 -3 25 -8l13 -2l5 -2q13 -4 16 -5q4 -1 12 -5q11 -3 18 -16q9 -6 9 -29q0 -38 -37 -50q-16 -8 -42 -8q-20 0 -33 6q-22 3 -37 10l2 25q22 -8 34 -9l14 -4l13 -3q13 0 24 4q9 0 23 8zM2322 197
q18 -12 26 -33.5t8 -55.5q0 -26 -7 -49q-3 -17 -24 -36q-16 -15 -52 -15q-26 0 -48 13q-20 12 -25 33q-8 17 -8 56q0 29 5 48q7 23 25.5 37t50.5 14q31 0 49 -12zM3084 8q-25 0 -49 13q-18 11 -25 33q-7 26 -7 56q0 29 5 48q4 20 25 36q17 15 52 15q30 0 48 -12
q19 -11 26.5 -32t7.5 -57q0 -26 -7 -49q-3 -17 -24 -36q-18 -15 -52 -15zM322 14v167l-3 24h129l-2 -24h-94v-60h78l-1 -24h-77v-60h99v-23h-129zM520 14v167h-56l-3 24h146l-2 -24h-55v-167h-30zM737 181v-64h80l-3 -24h-77v-79h-29v167l-1 24h131l-2 -24h-99zM855 101v80
l-2 24h31v-104q0 -32 12.5 -50t37.5 -18q24 0 39 18q11 19 11 50v104h30v-105q0 -47 -20 -70q-25 -22 -60 -22q-36 0 -58 22q-21 24 -21 71zM1089 205v-168h89v-23h-122l3 23v168h30zM1236 205v-168h90v-23h-121l3 23v168h28zM1492 67l53 138h29l-75 -191h-26l-67 168
l-10 23h33l53 -138l4 -18h1zM1597 14v167l-2 24h129l-1 -24h-96v-60h79l-2 -24h-77v-60h99v-23h-129zM1914.5 14q-1.5 -1 -4.5 -2q-7 -4 -15 -4q-13 0 -26 9q-13 6 -17 19q-4 4 -9 14l-10 20l-8 16h-31v-72h-30v167l-1 24h68q34 0 53 -13q21 -13 21 -45q0 -21 -13 -41
q-15 -15 -38 -19q0 -1 10 -17l7 -14q4 -7 13 -16q1 -1 6.5 -4t11.5 -3q5 0 8 1l4 2q2 0 3 1l8 -16l-8 -5q-1 -1 -2.5 -2zM2122 14v167l-2 24h31v-191h-29zM2519 14l-87 133l-4 8l-3 4v-145h-29v168l-3 23h35l84 -131l5 -10l4 -5v146h30v-191h-32zM2774 93h-76v-79h-28v167
l-3 24h131l-3 -24h-97v-64h79zM2824 14v167l-1 24h69q73 0 73 -58q0 -49 -50 -60q3 -7 9 -17l7 -14q17 -23 30 -23q8 0 9 1l4 2q2 0 3 1l8 -16q-7 -6 -15 -9q-7 -4 -15 -4q-13 0 -26 9q-9 5 -13.5 11t-7 12.5t-4.5 9.5l-10 20l-8 16h-31v-72h-31zM3360 205h32l6 -191h-30
l-4 141h-3l-4 -13l-51 -112h-18l-54 112l-2 13h-1l-4 -141h-30l7 171l-3 20h32l64 -134l2 7zM2325 108q0 27 -5 46q-12 30 -47 30q-51 0 -51 -74q0 -18 1 -27.5t6 -16.5q4 -19 16 -25q13 -8 28 -8q52 0 52 75zM3057 41q11 -8 28 -8q23 0 39 18q11 17 11 57q0 25 -3 46
q-5 14 -18 23q-10 7 -29 7q-22 0 -39 -17q-13 -16 -13 -57q0 -31 7 -44q6 -20 17 -25zM1853 112.5q11 2.5 17 10.5q5 7 5 21q0 15 -5 23q-9 12 -31 14h-16h-29v-71h29q19 0 30 2.5zM2855 110h29q39 0 45 13q6 6 6 21t-5 22.5t-19 11.5q-7 3 -27 3h-29v-71zM2494 -193.5
q-1 -4.5 -2 -7.5q-3 -9 -3 -18t3 -19q1 -6 2 -10.5t2 -7.5q5 -10 10 -17.5t11 -12.5q12 -13 32 -22t36 -9q6 0 8 1l13 4q5 0 21 7q5 1 12 8q6 1 10 5h10q13 0 17 -4q6 -1 8 -4.5t3 -4.5l11 -12q-10 -12 -22 -19q-7 -5 -8 -5q-3 -1 -4.5 -2t-2.5 -2q-7 -6 -15 -9
q-4 -4 -14 -6q-12 -2 -17 -5q-7 -4 -30 -4q-29 0 -59 12q-52 25 -79 78q-5 16 -8.5 30.5t-3.5 29.5q0 9 4 20q1 16 7 38q1 1 2 2.5t2 4.5q2 4 4 7q18 26 24 32l17 13l9 6q3 1 4.5 2t2.5 2q15 11 35 15q21 7 39 7h7q16 0 23 -7q16 -1 31 -7l8 -5q4 -3 7.5 -4.5t6.5 -3.5
q1 0 8 -5q14 -9 22 -21l-11 -12q-1 -3 -5 -7q-6 -6 -15 -6h-8q-12 0 -20 6q-2 1 -6 5l-7 3q-4 2 -26 10q-3 1 -15 1q-16 0 -36 -9q-10 -2 -18 -7.5t-14 -11.5l-10 -14l-11 -18q-1 -6 -2 -10.5zM1585 -211v-17q0 -18 -6 -29q-2 -11 -6 -22t-6 -17q-1 -3 -5 -7q-6 -5 -12 -15
q-2 -3 -15 -13l-7 -5q-16 -18 -32 -22l-19 -7q-6 -2 -10 -2q-7 0 -10 -1q-4 -1 -10 -1h-12q-26 0 -58 12q-12 5 -24 14l-24 18q-2 2 -12.5 16.5t-16.5 29.5l-9 30q-4 12 -4 30q0 19 6 39q7 25 15 33l11 19q6 12 19 20l9 6q5 6 14 11l16 9l11 3l10 2q21 7 37 7h12q3 -1 10 -1
l10 -3l10 -3q10 -1 19 -5q4 -3 18 -10q7 -3 14 -10q3 -3 16 -13l11 -13q7 -8 12 -19q8 -12 12 -33q6 -12 6 -31zM2333 -257l2 -9v-10q0 -22 -9 -37q-1 -2 -6.5 -11t-16.5 -19q-15 -14 -32 -17q-14 -9 -39 -9q-21 0 -42 9q-15 5 -32 22q-11 8 -15 17q-1 1 -2 2.5t-2 4.5
q-3 3 -3 9v1q0 1 2 2t5 1q-2 0 6 5q4 0 6 2t3 2h11q7 0 11 -4q7 0 13 -3q1 -1 10 -7l8 -4l10 -4q9 -3 11 -3q11 0 16 4q3 1 5.5 2t4.5 2l8 4q6 4 11 12l6 11q3 3 3 6q0 10 -10 17q-4 6 -10 6q-3 6 -8 8q-4 0 -10 3q-8 1 -19 9l-14 4q-11 2 -28 13q-12 8 -23 20q-5 5 -7 13
q-8 13 -8 32q0 24 8 34q4 11 20 25l8 6q1 1 2.5 2t4.5 2q5 3 15 5l15 6q7 0 10 1h10q9 0 24 -7l10 -3q10 -3 15 -4q1 -3 7 -9l8 -9l9 -6q6 -6 7 -11l-11 -7q-3 -1 -6 -4q-6 -5 -14 -5h-16q-9 0 -9 3q-6 1 -9 4q-4 0 -4 1q-1 1 -5 1q-3 3 -6 3q-11 0 -17 -3q-5 0 -6 -1l-2 -2
l-5 -2q-4 -1 -6.5 -7t-2.5 -13q0 -9 3 -9l2 -6q3 0 4 -7q7 0 9 -1q3 -3 8 -3q8 -2 13 -5q7 -2 11 -6l13 -1q7 -7 14 -9l9 -3q4 -2 5 -4q12 -5 22 -20l8 -9q2 -4 8 -12q1 -3 1 -7v-4zM3011 -180q4 -13 4 -39q0 -27 -4 -38q-2 -12 -6 -19q-12 -29 -28 -44q-15 -13 -20 -16
q-2 -3 -15 -13q-8 -6 -17 -9q-16 -5 -20 -7q-6 -2 -8 -2q-7 0 -11 -1q-3 -1 -10 -1h-10q-30 0 -56 12q-27 11 -48 32q-22 22 -32 46q-10 33 -10 60v10q0 6 1 10l4 20q2 12 5 18l6 7q1 3 2 4.5t2 2.5q5 20 22 32q15 16 31 23q14 10 34 15l11 3l19 4h9q21 0 39 -7
q20 -4 37 -15q8 -3 15 -10q6 -4 10 -7l8 -6q3 -5 6 -6q4 -4 5 -7q9 -9 10 -19q11 -12 15 -33zM139 -73h214v-32q0 -10 -4 -14q-2 -2 -6 -4l-141 -195l2 1h148v-50h-224v18q0 8 0.5 11.5t2.5 7t4 5.5q6 7 6 15l5 4l3 5l128 178h-138v50zM389 -73h189v-50h-136v-70h109v-52
h-109v-72h136v-50h-189v294zM809 -123h-82v-244h-53v244h-88v50h223v-50zM944 -73l127 -294h-31q-7 0 -13 2t-11 5q-3 1 -7 7q-1 4 -7 10l-17 38h-133l-14 -38l-5 -5l-4 -3q-1 -5 -3.5 -6.5t-3.5 -2.5q-3 0 -5 -3q-7 -4 -11 -4h-37l128 294h47zM1084 -73h187v-50h-137v-77
h114v-53h-114v-114h-50v294zM1831 -73h52v-294h-50l-137 198q-1 0 -1 2q0 1 -1 1q-1 1 -3 1l-3 6l-2 4q-4 0 -4 2q-1 1 0 2l-1 2l-2 2l-2 4v-224h-55v294h49q4 0 10 -2l8 -3q2 -1 4 -1t3 -1l4 -4l31 -44q15 -23 27 -45q19 -21 34 -41q4 -9 14 -21q5 -7 17 -21l2 -5l1 -4
q0 -3 2 -7q3 -6 3 -8v207zM1910 -73h223v-50h-87v-244h-52v244h-84v50zM3328 -73h52v-294h-52v216q-2 -6 -2 -7q-2 -2 -4 -7t-2 -9v-6q-3 -7 -5.5 -12.5t-4.5 -9.5q-3 -6 -19 -46q-3 -8 -11 -24l-9 -23l-10 -23l-9 -24l-9 -25h-50l-76 187q-3 4 -3 15q-5 7 -5 11v-213h-55
v294h51q6 0 9 -1q4 -4 10 -4q3 0 5 -1l6 -6q8 -8 9 -12q2 -7 8 -21l8 -21l10 -23q6 -14 7 -21q4 -9 19 -46q8 -25 18 -43v-14q4 0 4 -6q0 6 1 6v6q0 3 1 3v5l13 19l59 156l3 6l2 6l3 2l3 2q3 1 3 2q1 1 5 1q5 0 6 1q2 0 3 1l2 2q1 1 6 1zM1532 -219q0 19 -7 36q-2 11 -7 18
t-15 14q-16 16 -30 19q-20 9 -38 9q-15 0 -37 -9q-17 -7 -27 -19q-9 -7 -14 -13.5t-9 -18.5q-5 -13 -5 -36q0 -26 5 -37q4 -12 9 -18.5t14 -11.5q3 -6 7.5 -8.5t5.5 -3.5l8 -4q4 -4 6 -5q19 -10 37 -10q21 0 38 10q4 2 13.5 7t16.5 14q17 9 22 30q7 15 7 37zM2961 -219
q0 6 -2 18q-1 4 -4 16.5t-8 19.5q-10 13 -11 14q-15 15 -32 19q-9 9 -38 9q-15 0 -35 -9q-6 -1 -16 -7q-3 -3 -12.5 -11t-14.5 -15q-8 -13 -10 -18q-5 -22 -5 -36q0 -17 5 -37q9 -23 22 -30q9 -9 18 -14t13 -7q17 -10 35 -10q27 0 38 10l18 9q8 5 14 12q12 9 19 30
q6 13 6 37zM961 -253l-36 93v1v2q-1 0 -1 2q-3 0 -3 4v-2l-1 -2q-3 -5 -4 -5l-38 -93h83zM2415 -330v-6q0 -10 -1.5 -14.5t-7.5 -9.5q-3 0 -5 -2l-4 -5q-6 -2 -14 -2h-6q-3 0 -5 2q-3 3 -6 4q-7 5 -9 8q-4 4 -5 6q-3 9 -3 13v6q0 5 3 5l3 4l2 3q0 1 3 1q6 10 12 10q2 2 5 2
h6h5q7 0 10 -2t8 -10q8 0 8 -8q1 0 1 -5z" />
    <glyph glyph-name="three" unicode="3" 
d="M3380 256h-3241v789h1227q0 91 32 154q21 44 40 74t46 52q56 53 124 81q65 31 150 31q94 0 156 -33q75 -31 128 -87q48 -52 82 -123q26 -70 26 -149h1230v-789zM1898 707q59 25 117 78q50 54 78 116q29 72 29 142q0 74 -21 125q-13 32 -26 56.5t-32 45.5q-17 21 -36.5 38
t-47.5 38q-30 13 -52 25q-28 13 -54 20q-19 8 -41 10.5t-54 2.5q-84 0 -143 -31q-65 -26 -115 -77q-41 -46 -73 -115q-29 -64 -29 -138q0 -71 29 -137q29 -65 75 -116q48 -51 116 -80q65 -30 140 -30q67 0 140 27zM1975 1285h-435q52 44 103 61q51 24 115 24q62 0 121 -24
q57 -24 96 -61zM2079.5 981.5q-3.5 -26.5 -13.5 -50.5q-19 -44 -57 -97h-431l423 428q82 -103 82 -219q0 -35 -3.5 -61.5zM1941 1251l-426 -426q-31 36 -62 99q-19 43 -19 119q0 62 18 112q9 24 21.5 46t32.5 50h435zM1544 801h432q-47 -42 -97 -64q-38 -11 -65.5 -16.5
t-55.5 -5.5q-45 0 -115 22q-51 21 -99 64zM529 461q0 31 -5 46q-4 14 -20 28q-14 9 -40 9t-42 -10q-14 -11 -20 -30q-4 -16 -4 -40q0 -27 6 -44q2 -9 7 -15t14 -14q14 -8 39 -8q26 0 40 10.5t20 29.5q5 14 5 38zM798 464q0 34 13 47q9 12 31 12q17 0 25 -6q12 -12 13 -25h25
q-1 17 -16 37q-15 15 -47 15q-27 0 -44 -10q-14 -14 -18 -30q-5 -15 -5 -40q0 -26 7 -44q4 -17 20 -29q18 -8 40 -8q42 0 56 28q6 16 7 27h-25q-2 -18 -13 -26.5t-25 -8.5q-16 0 -24 5q-9 9 -15 20q-5 18 -5 36zM1058 461q0 26 -5 46q-8 20 -22 28q-12 9 -38 9
q-27 0 -43 -10q-14 -16 -19 -30q-5 -22 -5 -40q0 -31 8 -44q4 -16 19 -29q18 -8 40 -8q48 0 61 40q4 15 4 38zM1775 464q0 33 11 47q12 12 31 12q16 0 27 -6q6 -6 9 -14.5t4 -10.5h25q-3 13 -6.5 21t-11.5 16t-19 11.5t-28 3.5q-26 0 -42 -10q-15 -15 -19 -30q-5 -22 -5 -40
q0 -27 6 -44q5 -17 22 -29q14 -8 38 -8t38 8q2 2 10 7.5t11 12.5q2 12 6 27h-26q-2 -9 -4.5 -16.5t-7.5 -10.5q-14 -8 -27 -8q-28 0 -36 25q-6 15 -6 36zM2561 428q0 14 -8 24q-6 9 -16 15l-9 3l-12 4l-6 1l-9 2q-7 1 -20 5q-6 2 -10 9q-1 1 -1 2.5t-1 2.5q-2 2 -2 6
q0 2 2 6q1 1 1 3t1 4q4 7 19 9q4 1 11 1q19 0 46 -9l3 18q-4 3 -13 5l-12 3q-18 2 -23 2q-21 0 -31 -5q-14 -4 -20 -14q-8 -14 -8 -21q-1 -1 -1 -3v-2q0 -12 9 -23q3 -6 19 -15l10 -3l14 -4q8 -2 12 -2q11 -2 18 -5q3 -2 5 -5q5 -8 5 -15q0 -9 -6 -14.5t-19 -8.5
q-3 -1 -9 -1h-10q-12 0 -23 4l-12 4l-13 4l-3 -19q3 -1 12 -5t19 -5q11 -3 28 -3q22 0 31 4l14 9l10 8l5 12q3 6 3 12zM2905 461q0 31 -5 46q-7 19 -21 28t-38 9q-27 0 -43 -10q-14 -11 -20 -30q-4 -12 -4 -40q0 -27 6 -44q4 -14 21 -29q14 -8 40 -8q27 0 40 11
q8 6 12.5 12.5t7.5 16.5q4 13 4 38zM365 542h-24v-119l-1 4l-6 8l-66 107h-29l3 -20v-136h23v118l3 -3l2 -7l70 -108h25v156zM687 542h-23v-119l-5 4l-3 8l-67 107h-28l1 -20v-136h23v118l4 -3l3 -7l68 -108h27v156zM1243 386l-4 156h-24l-50 -103l-3 -6l-51 109h-25l1 -17
l-5 -139h23l5 116l5 -10l40 -91h16l41 91l5 9h1l3 -115h22zM1437 386l-6 156h-24l-50 -103l-2 -6h-1l-51 109h-25l1 -17l-5 -139h25l2 116h1l4 -10l40 -91h15l43 91l3 9h2l3 -115h25zM1577 404h-80v50h62l2 20h-64v48h77l2 20h-104l1 -20v-136h104v18zM1735.5 390
q1.5 1 4.5 2l-8 14l-8 -3q0 -1 -1 -1h-3q-9 0 -15 5q-9 9 -10 15l-6 11q-4 4 -9 14q18 1 31 14q6 6 8.5 13.5t2.5 19.5q0 37 -34 46q-16 2 -25 2h-58l3 -20v-136h24v60h25l8 -13q5 -14 14 -29q2 -11 15 -15q6 -6 20 -6q7 0 10 3q3 0 9 2q1 1 2.5 2zM1934 542h-26l2 -20v-136
h24v156zM2100 386l-10 17l-54 139h-21l-60 -156h25l13 36l3 -9h66l10 -27h28zM2217 404h-73v138h-23v-136l-2 -20h98v18zM2418 542h-24v-84q0 -31 -11 -42q-7 -13 -29 -13q-20 0 -32 13q-7 13 -7 42v84h-28l4 -20v-66q0 -42 14 -56q20 -17 49 -17q64 0 64 73v86zM2697 404
h-80v50h62l3 20h-65v48h76l3 20h-105l2 -20v-136h104v18zM3062 542h-22v-119l-4 4l-5 8l-66 107h-28l2 -20v-136h22v118l4 -3l4 -7l67 -108h26v156zM3199 404h-72v138h-24v-136l-2 -20h98v18zM3309 542h-23l-39 -67l-2 -8l-2 8l-41 67h-24v-20h8l45 -75v-61h25v60zM501 499
q4 -9 4 -38q0 -30 -10 -44t-31 -14q-17 0 -25 6t-11 19q-6 15 -6 36q0 33 10 47q12 12 32 12q15 0 24 -4q5 -4 13 -20zM1029 499q4 -7 4 -38q0 -32 -10 -45t-30 -13q-30 0 -38 25q-5 18 -5 36q0 34 13 47q8 12 30 12q15 0 23 -4q7 -4 13 -20zM2877 499q3 -7 3 -38t-10 -45
q-7 -13 -29 -13q-18 0 -23 5q-12 7 -14 20q-6 22 -6 36q0 33 10 47q12 12 33 12q13 0 24 -4q4 -4 12 -20zM1694 475q-8 -8 -15 -8t-10 -1q-8 -2 -14 -2h-23v58h23q17 0 24 -3q10 -2 14 -8.5t4 -18.5t-3 -17zM2030 497l26 -64h-57l24 64l4 14zM132 45q-6 14 -9 34
q-2 18 -2 31q0 18 1 28t6 20q5 23 23 36q15 15 51 15q42 0 58 -19q19 -16 22 -47h-29q-4 22 -19 33q-5 5 -12 6.5t-20 1.5q-15 0 -27 -6q-15 -10 -18 -23q-6 -16 -6 -45t6 -44q3 -17 17 -25t28 -8q23 0 37.5 12.5t14.5 39.5h-34v24h63v-39q-1 -3 -1 -6.5t-1 -6.5
q-3 -15 -16 -28q-16 -14 -35 -18q-12 -3 -28 -3q-27 0 -47 13q-17 10 -23 24zM2042 45q1 2 5 7t4 12q0 9 -7 17t-18 10q-11 4 -27 6q-25 8 -31 11q-12 3 -24 17q-8 11 -8 29v5q0 10 9 26q3 4 11 10l14 8q18 6 39 6q15 0 27 -4l17 -4q7 -1 16 -5l-2 -23q-33 11 -59 11
q-8 0 -24 -2l-8 -5q-9 -5 -9 -20q0 -11 3 -17l6 -3q1 -1 2.5 -2t4.5 -2q5 -3 25 -8l13 -2l5 -2q13 -4 16 -5q4 -1 12 -5q11 -3 18 -16q9 -6 9 -29q0 -38 -37 -50q-16 -8 -42 -8q-20 0 -33 6q-22 3 -37 10l2 25q22 -8 34 -9l14 -4l13 -3q13 0 24 4q9 0 23 8zM2322 197
q18 -12 26 -33.5t8 -55.5q0 -26 -7 -49q-3 -17 -24 -36q-16 -15 -52 -15q-26 0 -48 13q-20 12 -25 33q-8 17 -8 56q0 29 5 48q7 23 25.5 37t50.5 14q31 0 49 -12zM3084 8q-25 0 -49 13q-18 11 -25 33q-7 26 -7 56q0 29 5 48q4 20 25 36q17 15 52 15q30 0 48 -12
q19 -11 26.5 -32t7.5 -57q0 -26 -7 -49q-3 -17 -24 -36q-18 -15 -52 -15zM322 14v167l-3 24h129l-2 -24h-94v-60h78l-1 -24h-77v-60h99v-23h-129zM520 14v167h-56l-3 24h146l-2 -24h-55v-167h-30zM737 181v-64h80l-3 -24h-77v-79h-29v167l-1 24h131l-2 -24h-99zM855 101v80
l-2 24h31v-104q0 -32 12.5 -50t37.5 -18q24 0 39 18q11 19 11 50v104h30v-105q0 -47 -20 -70q-25 -22 -60 -22q-36 0 -58 22q-21 24 -21 71zM1089 205v-168h89v-23h-122l3 23v168h30zM1236 205v-168h90v-23h-121l3 23v168h28zM1492 67l53 138h29l-75 -191h-26l-67 168
l-10 23h33l53 -138l4 -18h1zM1597 14v167l-2 24h129l-1 -24h-96v-60h79l-2 -24h-77v-60h99v-23h-129zM1914.5 14q-1.5 -1 -4.5 -2q-7 -4 -15 -4q-13 0 -26 9q-13 6 -17 19q-4 4 -9 14l-10 20l-8 16h-31v-72h-30v167l-1 24h68q34 0 53 -13q21 -13 21 -45q0 -21 -13 -41
q-15 -15 -38 -19q0 -1 10 -17l7 -14q4 -7 13 -16q1 -1 6.5 -4t11.5 -3q5 0 8 1l4 2q2 0 3 1l8 -16l-8 -5q-1 -1 -2.5 -2zM2122 14v167l-2 24h31v-191h-29zM2519 14l-87 133l-4 8l-3 4v-145h-29v168l-3 23h35l84 -131l5 -10l4 -5v146h30v-191h-32zM2774 93h-76v-79h-28v167
l-3 24h131l-3 -24h-97v-64h79zM2824 14v167l-1 24h69q73 0 73 -58q0 -49 -50 -60q3 -7 9 -17l7 -14q17 -23 30 -23q8 0 9 1l4 2q2 0 3 1l8 -16q-7 -6 -15 -9q-7 -4 -15 -4q-13 0 -26 9q-9 5 -13.5 11t-7 12.5t-4.5 9.5l-10 20l-8 16h-31v-72h-31zM3360 205h32l6 -191h-30
l-4 141h-3l-4 -13l-51 -112h-18l-54 112l-2 13h-1l-4 -141h-30l7 171l-3 20h32l64 -134l2 7zM2325 108q0 27 -5 46q-12 30 -47 30q-51 0 -51 -74q0 -18 1 -27.5t6 -16.5q4 -19 16 -25q13 -8 28 -8q52 0 52 75zM3057 41q11 -8 28 -8q23 0 39 18q11 17 11 57q0 25 -3 46
q-5 14 -18 23q-10 7 -29 7q-22 0 -39 -17q-13 -16 -13 -57q0 -31 7 -44q6 -20 17 -25zM1853 112.5q11 2.5 17 10.5q5 7 5 21q0 15 -5 23q-9 12 -31 14h-16h-29v-71h29q19 0 30 2.5zM2855 110h29q39 0 45 13q6 6 6 21t-5 22.5t-19 11.5q-7 3 -27 3h-29v-71zM2494 -193.5
q-1 -4.5 -2 -7.5q-3 -9 -3 -18t3 -19q1 -6 2 -10.5t2 -7.5q5 -10 10 -17.5t11 -12.5q12 -13 32 -22t36 -9q6 0 8 1l13 4q5 0 21 7q5 1 12 8q6 1 10 5h10q13 0 17 -4q6 -1 8 -4.5t3 -4.5l11 -12q-10 -12 -22 -19q-7 -5 -8 -5q-3 -1 -4.5 -2t-2.5 -2q-7 -6 -15 -9
q-4 -4 -14 -6q-12 -2 -17 -5q-7 -4 -30 -4q-29 0 -59 12q-52 25 -79 78q-5 16 -8.5 30.5t-3.5 29.5q0 9 4 20q1 16 7 38q1 1 2 2.5t2 4.5q2 4 4 7q18 26 24 32l17 13l9 6q3 1 4.5 2t2.5 2q15 11 35 15q21 7 39 7h7q16 0 23 -7q16 -1 31 -7l8 -5q4 -3 7.5 -4.5t6.5 -3.5
q1 0 8 -5q14 -9 22 -21l-11 -12q-1 -3 -5 -7q-6 -6 -15 -6h-8q-12 0 -20 6q-2 1 -6 5l-7 3q-4 2 -26 10q-3 1 -15 1q-16 0 -36 -9q-10 -2 -18 -7.5t-14 -11.5l-10 -14l-11 -18q-1 -6 -2 -10.5zM1585 -211v-17q0 -18 -6 -29q-2 -11 -6 -22t-6 -17q-1 -3 -5 -7q-6 -5 -12 -15
q-2 -3 -15 -13l-7 -5q-16 -18 -32 -22l-19 -7q-6 -2 -10 -2q-7 0 -10 -1q-4 -1 -10 -1h-12q-26 0 -58 12q-12 5 -24 14l-24 18q-2 2 -12.5 16.5t-16.5 29.5l-9 30q-4 12 -4 30q0 19 6 39q7 25 15 33l11 19q6 12 19 20l9 6q5 6 14 11l16 9l11 3l10 2q21 7 37 7h12q3 -1 10 -1
l10 -3l10 -3q10 -1 19 -5q4 -3 18 -10q7 -3 14 -10q3 -3 16 -13l11 -13q7 -8 12 -19q8 -12 12 -33q6 -12 6 -31zM2333 -257l2 -9v-10q0 -22 -9 -37q-1 -2 -6.5 -11t-16.5 -19q-15 -14 -32 -17q-14 -9 -39 -9q-21 0 -42 9q-15 5 -32 22q-11 8 -15 17q-1 1 -2 2.5t-2 4.5
q-3 3 -3 9v1q0 1 2 2t5 1q-2 0 6 5q4 0 6 2t3 2h11q7 0 11 -4q7 0 13 -3q1 -1 10 -7l8 -4l10 -4q9 -3 11 -3q11 0 16 4q3 1 5.5 2t4.5 2l8 4q6 4 11 12l6 11q3 3 3 6q0 10 -10 17q-4 6 -10 6q-3 6 -8 8q-4 0 -10 3q-8 1 -19 9l-14 4q-11 2 -28 13q-12 8 -23 20q-5 5 -7 13
q-8 13 -8 32q0 24 8 34q4 11 20 25l8 6q1 1 2.5 2t4.5 2q5 3 15 5l15 6q7 0 10 1h10q9 0 24 -7l10 -3q10 -3 15 -4q1 -3 7 -9l8 -9l9 -6q6 -6 7 -11l-11 -7q-3 -1 -6 -4q-6 -5 -14 -5h-16q-9 0 -9 3q-6 1 -9 4q-4 0 -4 1q-1 1 -5 1q-3 3 -6 3q-11 0 -17 -3q-5 0 -6 -1l-2 -2
l-5 -2q-4 -1 -6.5 -7t-2.5 -13q0 -9 3 -9l2 -6q3 0 4 -7q7 0 9 -1q3 -3 8 -3q8 -2 13 -5q7 -2 11 -6l13 -1q7 -7 14 -9l9 -3q4 -2 5 -4q12 -5 22 -20l8 -9q2 -4 8 -12q1 -3 1 -7v-4zM3011 -180q4 -13 4 -39q0 -27 -4 -38q-2 -12 -6 -19q-12 -29 -28 -44q-15 -13 -20 -16
q-2 -3 -15 -13q-8 -6 -17 -9q-16 -5 -20 -7q-6 -2 -8 -2q-7 0 -11 -1q-3 -1 -10 -1h-10q-30 0 -56 12q-27 11 -48 32q-22 22 -32 46q-10 33 -10 60v10q0 6 1 10l4 20q2 12 5 18l6 7q1 3 2 4.5t2 2.5q5 20 22 32q15 16 31 23q14 10 34 15l11 3l19 4h9q21 0 39 -7
q20 -4 37 -15q8 -3 15 -10q6 -4 10 -7l8 -6q3 -5 6 -6q4 -4 5 -7q9 -9 10 -19q11 -12 15 -33zM139 -73h214v-32q0 -10 -4 -14q-2 -2 -6 -4l-141 -195l2 1h148v-50h-224v18q0 8 0.5 11.5t2.5 7t4 5.5q6 7 6 15l5 4l3 5l128 178h-138v50zM389 -73h189v-50h-136v-70h109v-52
h-109v-72h136v-50h-189v294zM809 -123h-82v-244h-53v244h-88v50h223v-50zM944 -73l127 -294h-31q-7 0 -13 2t-11 5q-3 1 -7 7q-1 4 -7 10l-17 38h-133l-14 -38l-5 -5l-4 -3q-1 -5 -3.5 -6.5t-3.5 -2.5q-3 0 -5 -3q-7 -4 -11 -4h-37l128 294h47zM1084 -73h187v-50h-137v-77
h114v-53h-114v-114h-50v294zM1831 -73h52v-294h-50l-137 198q-1 0 -1 2q0 1 -1 1q-1 1 -3 1l-3 6l-2 4q-4 0 -4 2q-1 1 0 2l-1 2l-2 2l-2 4v-224h-55v294h49q4 0 10 -2l8 -3q2 -1 4 -1t3 -1l4 -4l31 -44q15 -23 27 -45q19 -21 34 -41q4 -9 14 -21q5 -7 17 -21l2 -5l1 -4
q0 -3 2 -7q3 -6 3 -8v207zM1910 -73h223v-50h-87v-244h-52v244h-84v50zM3328 -73h52v-294h-52v216q-2 -6 -2 -7q-2 -2 -4 -7t-2 -9v-6q-3 -7 -5.5 -12.5t-4.5 -9.5q-3 -6 -19 -46q-3 -8 -11 -24l-9 -23l-10 -23l-9 -24l-9 -25h-50l-76 187q-3 4 -3 15q-5 7 -5 11v-213h-55
v294h51q6 0 9 -1q4 -4 10 -4q3 0 5 -1l6 -6q8 -8 9 -12q2 -7 8 -21l8 -21l10 -23q6 -14 7 -21q4 -9 19 -46q8 -25 18 -43v-14q4 0 4 -6q0 6 1 6v6q0 3 1 3v5l13 19l59 156l3 6l2 6l3 2l3 2q3 1 3 2q1 1 5 1q5 0 6 1q2 0 3 1l2 2q1 1 6 1zM1532 -219q0 19 -7 36q-2 11 -7 18
t-15 14q-16 16 -30 19q-20 9 -38 9q-15 0 -37 -9q-17 -7 -27 -19q-9 -7 -14 -13.5t-9 -18.5q-5 -13 -5 -36q0 -26 5 -37q4 -12 9 -18.5t14 -11.5q3 -6 7.5 -8.5t5.5 -3.5l8 -4q4 -4 6 -5q19 -10 37 -10q21 0 38 10q4 2 13.5 7t16.5 14q17 9 22 30q7 15 7 37zM2961 -219
q0 6 -2 18q-1 4 -4 16.5t-8 19.5q-10 13 -11 14q-15 15 -32 19q-9 9 -38 9q-15 0 -35 -9q-6 -1 -16 -7q-3 -3 -12.5 -11t-14.5 -15q-8 -13 -10 -18q-5 -22 -5 -36q0 -17 5 -37q9 -23 22 -30q9 -9 18 -14t13 -7q17 -10 35 -10q27 0 38 10l18 9q8 5 14 12q12 9 19 30
q6 13 6 37zM961 -253l-36 93v1v2q-1 0 -1 2q-3 0 -3 4v-2l-1 -2q-3 -5 -4 -5l-38 -93h83zM2415 -330v-6q0 -10 -1.5 -14.5t-7.5 -9.5q-3 0 -5 -2l-4 -5q-6 -2 -14 -2h-6q-3 0 -5 2q-3 3 -6 4q-7 5 -9 8q-4 4 -5 6q-3 9 -3 13v6q0 5 3 5l3 4l2 3q0 1 3 1q6 10 12 10q2 2 5 2
h6h5q7 0 10 -2t8 -10q8 0 8 -8q1 0 1 -5z" />
    <glyph glyph-name="four" unicode="4" 
d="M3380 256h-3241v789h1227q0 91 32 154q21 44 40 74t46 52q56 53 124 81q65 31 150 31q94 0 156 -33q75 -31 128 -87q48 -52 82 -123q26 -70 26 -149h1230v-789zM1898 707q59 25 117 78q50 54 78 116q29 72 29 142q0 74 -21 125q-13 32 -26 56.5t-32 45.5q-17 21 -36.5 38
t-47.5 38q-30 13 -52 25q-28 13 -54 20q-19 8 -41 10.5t-54 2.5q-84 0 -143 -31q-65 -26 -115 -77q-41 -46 -73 -115q-29 -64 -29 -138q0 -71 29 -137q29 -65 75 -116q48 -51 116 -80q65 -30 140 -30q67 0 140 27zM1975 1285h-435q52 44 103 61q51 24 115 24q62 0 121 -24
q57 -24 96 -61zM2079.5 981.5q-3.5 -26.5 -13.5 -50.5q-19 -44 -57 -97h-431l423 428q82 -103 82 -219q0 -35 -3.5 -61.5zM1941 1251l-426 -426q-31 36 -62 99q-19 43 -19 119q0 62 18 112q9 24 21.5 46t32.5 50h435zM1544 801h432q-47 -42 -97 -64q-38 -11 -65.5 -16.5
t-55.5 -5.5q-45 0 -115 22q-51 21 -99 64zM529 461q0 31 -5 46q-4 14 -20 28q-14 9 -40 9t-42 -10q-14 -11 -20 -30q-4 -16 -4 -40q0 -27 6 -44q2 -9 7 -15t14 -14q14 -8 39 -8q26 0 40 10.5t20 29.5q5 14 5 38zM798 464q0 34 13 47q9 12 31 12q17 0 25 -6q12 -12 13 -25h25
q-1 17 -16 37q-15 15 -47 15q-27 0 -44 -10q-14 -14 -18 -30q-5 -15 -5 -40q0 -26 7 -44q4 -17 20 -29q18 -8 40 -8q42 0 56 28q6 16 7 27h-25q-2 -18 -13 -26.5t-25 -8.5q-16 0 -24 5q-9 9 -15 20q-5 18 -5 36zM1058 461q0 26 -5 46q-8 20 -22 28q-12 9 -38 9
q-27 0 -43 -10q-14 -16 -19 -30q-5 -22 -5 -40q0 -31 8 -44q4 -16 19 -29q18 -8 40 -8q48 0 61 40q4 15 4 38zM1775 464q0 33 11 47q12 12 31 12q16 0 27 -6q6 -6 9 -14.5t4 -10.5h25q-3 13 -6.5 21t-11.5 16t-19 11.5t-28 3.5q-26 0 -42 -10q-15 -15 -19 -30q-5 -22 -5 -40
q0 -27 6 -44q5 -17 22 -29q14 -8 38 -8t38 8q2 2 10 7.5t11 12.5q2 12 6 27h-26q-2 -9 -4.5 -16.5t-7.5 -10.5q-14 -8 -27 -8q-28 0 -36 25q-6 15 -6 36zM2561 428q0 14 -8 24q-6 9 -16 15l-9 3l-12 4l-6 1l-9 2q-7 1 -20 5q-6 2 -10 9q-1 1 -1 2.5t-1 2.5q-2 2 -2 6
q0 2 2 6q1 1 1 3t1 4q4 7 19 9q4 1 11 1q19 0 46 -9l3 18q-4 3 -13 5l-12 3q-18 2 -23 2q-21 0 -31 -5q-14 -4 -20 -14q-8 -14 -8 -21q-1 -1 -1 -3v-2q0 -12 9 -23q3 -6 19 -15l10 -3l14 -4q8 -2 12 -2q11 -2 18 -5q3 -2 5 -5q5 -8 5 -15q0 -9 -6 -14.5t-19 -8.5
q-3 -1 -9 -1h-10q-12 0 -23 4l-12 4l-13 4l-3 -19q3 -1 12 -5t19 -5q11 -3 28 -3q22 0 31 4l14 9l10 8l5 12q3 6 3 12zM2905 461q0 31 -5 46q-7 19 -21 28t-38 9q-27 0 -43 -10q-14 -11 -20 -30q-4 -12 -4 -40q0 -27 6 -44q4 -14 21 -29q14 -8 40 -8q27 0 40 11
q8 6 12.5 12.5t7.5 16.5q4 13 4 38zM365 542h-24v-119l-1 4l-6 8l-66 107h-29l3 -20v-136h23v118l3 -3l2 -7l70 -108h25v156zM687 542h-23v-119l-5 4l-3 8l-67 107h-28l1 -20v-136h23v118l4 -3l3 -7l68 -108h27v156zM1243 386l-4 156h-24l-50 -103l-3 -6l-51 109h-25l1 -17
l-5 -139h23l5 116l5 -10l40 -91h16l41 91l5 9h1l3 -115h22zM1437 386l-6 156h-24l-50 -103l-2 -6h-1l-51 109h-25l1 -17l-5 -139h25l2 116h1l4 -10l40 -91h15l43 91l3 9h2l3 -115h25zM1577 404h-80v50h62l2 20h-64v48h77l2 20h-104l1 -20v-136h104v18zM1735.5 390
q1.5 1 4.5 2l-8 14l-8 -3q0 -1 -1 -1h-3q-9 0 -15 5q-9 9 -10 15l-6 11q-4 4 -9 14q18 1 31 14q6 6 8.5 13.5t2.5 19.5q0 37 -34 46q-16 2 -25 2h-58l3 -20v-136h24v60h25l8 -13q5 -14 14 -29q2 -11 15 -15q6 -6 20 -6q7 0 10 3q3 0 9 2q1 1 2.5 2zM1934 542h-26l2 -20v-136
h24v156zM2100 386l-10 17l-54 139h-21l-60 -156h25l13 36l3 -9h66l10 -27h28zM2217 404h-73v138h-23v-136l-2 -20h98v18zM2418 542h-24v-84q0 -31 -11 -42q-7 -13 -29 -13q-20 0 -32 13q-7 13 -7 42v84h-28l4 -20v-66q0 -42 14 -56q20 -17 49 -17q64 0 64 73v86zM2697 404
h-80v50h62l3 20h-65v48h76l3 20h-105l2 -20v-136h104v18zM3062 542h-22v-119l-4 4l-5 8l-66 107h-28l2 -20v-136h22v118l4 -3l4 -7l67 -108h26v156zM3199 404h-72v138h-24v-136l-2 -20h98v18zM3309 542h-23l-39 -67l-2 -8l-2 8l-41 67h-24v-20h8l45 -75v-61h25v60zM501 499
q4 -9 4 -38q0 -30 -10 -44t-31 -14q-17 0 -25 6t-11 19q-6 15 -6 36q0 33 10 47q12 12 32 12q15 0 24 -4q5 -4 13 -20zM1029 499q4 -7 4 -38q0 -32 -10 -45t-30 -13q-30 0 -38 25q-5 18 -5 36q0 34 13 47q8 12 30 12q15 0 23 -4q7 -4 13 -20zM2877 499q3 -7 3 -38t-10 -45
q-7 -13 -29 -13q-18 0 -23 5q-12 7 -14 20q-6 22 -6 36q0 33 10 47q12 12 33 12q13 0 24 -4q4 -4 12 -20zM1694 475q-8 -8 -15 -8t-10 -1q-8 -2 -14 -2h-23v58h23q17 0 24 -3q10 -2 14 -8.5t4 -18.5t-3 -17zM2030 497l26 -64h-57l24 64l4 14zM132 45q-6 14 -9 34
q-2 18 -2 31q0 18 1 28t6 20q5 23 23 36q15 15 51 15q42 0 58 -19q19 -16 22 -47h-29q-4 22 -19 33q-5 5 -12 6.5t-20 1.5q-15 0 -27 -6q-15 -10 -18 -23q-6 -16 -6 -45t6 -44q3 -17 17 -25t28 -8q23 0 37.5 12.5t14.5 39.5h-34v24h63v-39q-1 -3 -1 -6.5t-1 -6.5
q-3 -15 -16 -28q-16 -14 -35 -18q-12 -3 -28 -3q-27 0 -47 13q-17 10 -23 24zM2042 45q1 2 5 7t4 12q0 9 -7 17t-18 10q-11 4 -27 6q-25 8 -31 11q-12 3 -24 17q-8 11 -8 29v5q0 10 9 26q3 4 11 10l14 8q18 6 39 6q15 0 27 -4l17 -4q7 -1 16 -5l-2 -23q-33 11 -59 11
q-8 0 -24 -2l-8 -5q-9 -5 -9 -20q0 -11 3 -17l6 -3q1 -1 2.5 -2t4.5 -2q5 -3 25 -8l13 -2l5 -2q13 -4 16 -5q4 -1 12 -5q11 -3 18 -16q9 -6 9 -29q0 -38 -37 -50q-16 -8 -42 -8q-20 0 -33 6q-22 3 -37 10l2 25q22 -8 34 -9l14 -4l13 -3q13 0 24 4q9 0 23 8zM2322 197
q18 -12 26 -33.5t8 -55.5q0 -26 -7 -49q-3 -17 -24 -36q-16 -15 -52 -15q-26 0 -48 13q-20 12 -25 33q-8 17 -8 56q0 29 5 48q7 23 25.5 37t50.5 14q31 0 49 -12zM3084 8q-25 0 -49 13q-18 11 -25 33q-7 26 -7 56q0 29 5 48q4 20 25 36q17 15 52 15q30 0 48 -12
q19 -11 26.5 -32t7.5 -57q0 -26 -7 -49q-3 -17 -24 -36q-18 -15 -52 -15zM322 14v167l-3 24h129l-2 -24h-94v-60h78l-1 -24h-77v-60h99v-23h-129zM520 14v167h-56l-3 24h146l-2 -24h-55v-167h-30zM737 181v-64h80l-3 -24h-77v-79h-29v167l-1 24h131l-2 -24h-99zM855 101v80
l-2 24h31v-104q0 -32 12.5 -50t37.5 -18q24 0 39 18q11 19 11 50v104h30v-105q0 -47 -20 -70q-25 -22 -60 -22q-36 0 -58 22q-21 24 -21 71zM1089 205v-168h89v-23h-122l3 23v168h30zM1236 205v-168h90v-23h-121l3 23v168h28zM1492 67l53 138h29l-75 -191h-26l-67 168
l-10 23h33l53 -138l4 -18h1zM1597 14v167l-2 24h129l-1 -24h-96v-60h79l-2 -24h-77v-60h99v-23h-129zM1914.5 14q-1.5 -1 -4.5 -2q-7 -4 -15 -4q-13 0 -26 9q-13 6 -17 19q-4 4 -9 14l-10 20l-8 16h-31v-72h-30v167l-1 24h68q34 0 53 -13q21 -13 21 -45q0 -21 -13 -41
q-15 -15 -38 -19q0 -1 10 -17l7 -14q4 -7 13 -16q1 -1 6.5 -4t11.5 -3q5 0 8 1l4 2q2 0 3 1l8 -16l-8 -5q-1 -1 -2.5 -2zM2122 14v167l-2 24h31v-191h-29zM2519 14l-87 133l-4 8l-3 4v-145h-29v168l-3 23h35l84 -131l5 -10l4 -5v146h30v-191h-32zM2774 93h-76v-79h-28v167
l-3 24h131l-3 -24h-97v-64h79zM2824 14v167l-1 24h69q73 0 73 -58q0 -49 -50 -60q3 -7 9 -17l7 -14q17 -23 30 -23q8 0 9 1l4 2q2 0 3 1l8 -16q-7 -6 -15 -9q-7 -4 -15 -4q-13 0 -26 9q-9 5 -13.5 11t-7 12.5t-4.5 9.5l-10 20l-8 16h-31v-72h-31zM3360 205h32l6 -191h-30
l-4 141h-3l-4 -13l-51 -112h-18l-54 112l-2 13h-1l-4 -141h-30l7 171l-3 20h32l64 -134l2 7zM2325 108q0 27 -5 46q-12 30 -47 30q-51 0 -51 -74q0 -18 1 -27.5t6 -16.5q4 -19 16 -25q13 -8 28 -8q52 0 52 75zM3057 41q11 -8 28 -8q23 0 39 18q11 17 11 57q0 25 -3 46
q-5 14 -18 23q-10 7 -29 7q-22 0 -39 -17q-13 -16 -13 -57q0 -31 7 -44q6 -20 17 -25zM1853 112.5q11 2.5 17 10.5q5 7 5 21q0 15 -5 23q-9 12 -31 14h-16h-29v-71h29q19 0 30 2.5zM2855 110h29q39 0 45 13q6 6 6 21t-5 22.5t-19 11.5q-7 3 -27 3h-29v-71zM2494 -193.5
q-1 -4.5 -2 -7.5q-3 -9 -3 -18t3 -19q1 -6 2 -10.5t2 -7.5q5 -10 10 -17.5t11 -12.5q12 -13 32 -22t36 -9q6 0 8 1l13 4q5 0 21 7q5 1 12 8q6 1 10 5h10q13 0 17 -4q6 -1 8 -4.5t3 -4.5l11 -12q-10 -12 -22 -19q-7 -5 -8 -5q-3 -1 -4.5 -2t-2.5 -2q-7 -6 -15 -9
q-4 -4 -14 -6q-12 -2 -17 -5q-7 -4 -30 -4q-29 0 -59 12q-52 25 -79 78q-5 16 -8.5 30.5t-3.5 29.5q0 9 4 20q1 16 7 38q1 1 2 2.5t2 4.5q2 4 4 7q18 26 24 32l17 13l9 6q3 1 4.5 2t2.5 2q15 11 35 15q21 7 39 7h7q16 0 23 -7q16 -1 31 -7l8 -5q4 -3 7.5 -4.5t6.5 -3.5
q1 0 8 -5q14 -9 22 -21l-11 -12q-1 -3 -5 -7q-6 -6 -15 -6h-8q-12 0 -20 6q-2 1 -6 5l-7 3q-4 2 -26 10q-3 1 -15 1q-16 0 -36 -9q-10 -2 -18 -7.5t-14 -11.5l-10 -14l-11 -18q-1 -6 -2 -10.5zM1585 -211v-17q0 -18 -6 -29q-2 -11 -6 -22t-6 -17q-1 -3 -5 -7q-6 -5 -12 -15
q-2 -3 -15 -13l-7 -5q-16 -18 -32 -22l-19 -7q-6 -2 -10 -2q-7 0 -10 -1q-4 -1 -10 -1h-12q-26 0 -58 12q-12 5 -24 14l-24 18q-2 2 -12.5 16.5t-16.5 29.5l-9 30q-4 12 -4 30q0 19 6 39q7 25 15 33l11 19q6 12 19 20l9 6q5 6 14 11l16 9l11 3l10 2q21 7 37 7h12q3 -1 10 -1
l10 -3l10 -3q10 -1 19 -5q4 -3 18 -10q7 -3 14 -10q3 -3 16 -13l11 -13q7 -8 12 -19q8 -12 12 -33q6 -12 6 -31zM2333 -257l2 -9v-10q0 -22 -9 -37q-1 -2 -6.5 -11t-16.5 -19q-15 -14 -32 -17q-14 -9 -39 -9q-21 0 -42 9q-15 5 -32 22q-11 8 -15 17q-1 1 -2 2.5t-2 4.5
q-3 3 -3 9v1q0 1 2 2t5 1q-2 0 6 5q4 0 6 2t3 2h11q7 0 11 -4q7 0 13 -3q1 -1 10 -7l8 -4l10 -4q9 -3 11 -3q11 0 16 4q3 1 5.5 2t4.5 2l8 4q6 4 11 12l6 11q3 3 3 6q0 10 -10 17q-4 6 -10 6q-3 6 -8 8q-4 0 -10 3q-8 1 -19 9l-14 4q-11 2 -28 13q-12 8 -23 20q-5 5 -7 13
q-8 13 -8 32q0 24 8 34q4 11 20 25l8 6q1 1 2.5 2t4.5 2q5 3 15 5l15 6q7 0 10 1h10q9 0 24 -7l10 -3q10 -3 15 -4q1 -3 7 -9l8 -9l9 -6q6 -6 7 -11l-11 -7q-3 -1 -6 -4q-6 -5 -14 -5h-16q-9 0 -9 3q-6 1 -9 4q-4 0 -4 1q-1 1 -5 1q-3 3 -6 3q-11 0 -17 -3q-5 0 -6 -1l-2 -2
l-5 -2q-4 -1 -6.5 -7t-2.5 -13q0 -9 3 -9l2 -6q3 0 4 -7q7 0 9 -1q3 -3 8 -3q8 -2 13 -5q7 -2 11 -6l13 -1q7 -7 14 -9l9 -3q4 -2 5 -4q12 -5 22 -20l8 -9q2 -4 8 -12q1 -3 1 -7v-4zM3011 -180q4 -13 4 -39q0 -27 -4 -38q-2 -12 -6 -19q-12 -29 -28 -44q-15 -13 -20 -16
q-2 -3 -15 -13q-8 -6 -17 -9q-16 -5 -20 -7q-6 -2 -8 -2q-7 0 -11 -1q-3 -1 -10 -1h-10q-30 0 -56 12q-27 11 -48 32q-22 22 -32 46q-10 33 -10 60v10q0 6 1 10l4 20q2 12 5 18l6 7q1 3 2 4.5t2 2.5q5 20 22 32q15 16 31 23q14 10 34 15l11 3l19 4h9q21 0 39 -7
q20 -4 37 -15q8 -3 15 -10q6 -4 10 -7l8 -6q3 -5 6 -6q4 -4 5 -7q9 -9 10 -19q11 -12 15 -33zM139 -73h214v-32q0 -10 -4 -14q-2 -2 -6 -4l-141 -195l2 1h148v-50h-224v18q0 8 0.5 11.5t2.5 7t4 5.5q6 7 6 15l5 4l3 5l128 178h-138v50zM389 -73h189v-50h-136v-70h109v-52
h-109v-72h136v-50h-189v294zM809 -123h-82v-244h-53v244h-88v50h223v-50zM944 -73l127 -294h-31q-7 0 -13 2t-11 5q-3 1 -7 7q-1 4 -7 10l-17 38h-133l-14 -38l-5 -5l-4 -3q-1 -5 -3.5 -6.5t-3.5 -2.5q-3 0 -5 -3q-7 -4 -11 -4h-37l128 294h47zM1084 -73h187v-50h-137v-77
h114v-53h-114v-114h-50v294zM1831 -73h52v-294h-50l-137 198q-1 0 -1 2q0 1 -1 1q-1 1 -3 1l-3 6l-2 4q-4 0 -4 2q-1 1 0 2l-1 2l-2 2l-2 4v-224h-55v294h49q4 0 10 -2l8 -3q2 -1 4 -1t3 -1l4 -4l31 -44q15 -23 27 -45q19 -21 34 -41q4 -9 14 -21q5 -7 17 -21l2 -5l1 -4
q0 -3 2 -7q3 -6 3 -8v207zM1910 -73h223v-50h-87v-244h-52v244h-84v50zM3328 -73h52v-294h-52v216q-2 -6 -2 -7q-2 -2 -4 -7t-2 -9v-6q-3 -7 -5.5 -12.5t-4.5 -9.5q-3 -6 -19 -46q-3 -8 -11 -24l-9 -23l-10 -23l-9 -24l-9 -25h-50l-76 187q-3 4 -3 15q-5 7 -5 11v-213h-55
v294h51q6 0 9 -1q4 -4 10 -4q3 0 5 -1l6 -6q8 -8 9 -12q2 -7 8 -21l8 -21l10 -23q6 -14 7 -21q4 -9 19 -46q8 -25 18 -43v-14q4 0 4 -6q0 6 1 6v6q0 3 1 3v5l13 19l59 156l3 6l2 6l3 2l3 2q3 1 3 2q1 1 5 1q5 0 6 1q2 0 3 1l2 2q1 1 6 1zM1532 -219q0 19 -7 36q-2 11 -7 18
t-15 14q-16 16 -30 19q-20 9 -38 9q-15 0 -37 -9q-17 -7 -27 -19q-9 -7 -14 -13.5t-9 -18.5q-5 -13 -5 -36q0 -26 5 -37q4 -12 9 -18.5t14 -11.5q3 -6 7.5 -8.5t5.5 -3.5l8 -4q4 -4 6 -5q19 -10 37 -10q21 0 38 10q4 2 13.5 7t16.5 14q17 9 22 30q7 15 7 37zM2961 -219
q0 6 -2 18q-1 4 -4 16.5t-8 19.5q-10 13 -11 14q-15 15 -32 19q-9 9 -38 9q-15 0 -35 -9q-6 -1 -16 -7q-3 -3 -12.5 -11t-14.5 -15q-8 -13 -10 -18q-5 -22 -5 -36q0 -17 5 -37q9 -23 22 -30q9 -9 18 -14t13 -7q17 -10 35 -10q27 0 38 10l18 9q8 5 14 12q12 9 19 30
q6 13 6 37zM961 -253l-36 93v1v2q-1 0 -1 2q-3 0 -3 4v-2l-1 -2q-3 -5 -4 -5l-38 -93h83zM2415 -330v-6q0 -10 -1.5 -14.5t-7.5 -9.5q-3 0 -5 -2l-4 -5q-6 -2 -14 -2h-6q-3 0 -5 2q-3 3 -6 4q-7 5 -9 8q-4 4 -5 6q-3 9 -3 13v6q0 5 3 5l3 4l2 3q0 1 3 1q6 10 12 10q2 2 5 2
h6h5q7 0 10 -2t8 -10q8 0 8 -8q1 0 1 -5z" />
    <glyph glyph-name="five" unicode="5" 
d="M3380 256h-3241v789h1227q0 91 32 154q21 44 40 74t46 52q56 53 124 81q65 31 150 31q94 0 156 -33q75 -31 128 -87q48 -52 82 -123q26 -70 26 -149h1230v-789zM1898 707q59 25 117 78q50 54 78 116q29 72 29 142q0 74 -21 125q-13 32 -26 56.5t-32 45.5q-17 21 -36.5 38
t-47.5 38q-30 13 -52 25q-28 13 -54 20q-19 8 -41 10.5t-54 2.5q-84 0 -143 -31q-65 -26 -115 -77q-41 -46 -73 -115q-29 -64 -29 -138q0 -71 29 -137q29 -65 75 -116q48 -51 116 -80q65 -30 140 -30q67 0 140 27zM1975 1285h-435q52 44 103 61q51 24 115 24q62 0 121 -24
q57 -24 96 -61zM2079.5 981.5q-3.5 -26.5 -13.5 -50.5q-19 -44 -57 -97h-431l423 428q82 -103 82 -219q0 -35 -3.5 -61.5zM1941 1251l-426 -426q-31 36 -62 99q-19 43 -19 119q0 62 18 112q9 24 21.5 46t32.5 50h435zM1544 801h432q-47 -42 -97 -64q-38 -11 -65.5 -16.5
t-55.5 -5.5q-45 0 -115 22q-51 21 -99 64zM529 461q0 31 -5 46q-4 14 -20 28q-14 9 -40 9t-42 -10q-14 -11 -20 -30q-4 -16 -4 -40q0 -27 6 -44q2 -9 7 -15t14 -14q14 -8 39 -8q26 0 40 10.5t20 29.5q5 14 5 38zM798 464q0 34 13 47q9 12 31 12q17 0 25 -6q12 -12 13 -25h25
q-1 17 -16 37q-15 15 -47 15q-27 0 -44 -10q-14 -14 -18 -30q-5 -15 -5 -40q0 -26 7 -44q4 -17 20 -29q18 -8 40 -8q42 0 56 28q6 16 7 27h-25q-2 -18 -13 -26.5t-25 -8.5q-16 0 -24 5q-9 9 -15 20q-5 18 -5 36zM1058 461q0 26 -5 46q-8 20 -22 28q-12 9 -38 9
q-27 0 -43 -10q-14 -16 -19 -30q-5 -22 -5 -40q0 -31 8 -44q4 -16 19 -29q18 -8 40 -8q48 0 61 40q4 15 4 38zM1775 464q0 33 11 47q12 12 31 12q16 0 27 -6q6 -6 9 -14.5t4 -10.5h25q-3 13 -6.5 21t-11.5 16t-19 11.5t-28 3.5q-26 0 -42 -10q-15 -15 -19 -30q-5 -22 -5 -40
q0 -27 6 -44q5 -17 22 -29q14 -8 38 -8t38 8q2 2 10 7.5t11 12.5q2 12 6 27h-26q-2 -9 -4.5 -16.5t-7.5 -10.5q-14 -8 -27 -8q-28 0 -36 25q-6 15 -6 36zM2561 428q0 14 -8 24q-6 9 -16 15l-9 3l-12 4l-6 1l-9 2q-7 1 -20 5q-6 2 -10 9q-1 1 -1 2.5t-1 2.5q-2 2 -2 6
q0 2 2 6q1 1 1 3t1 4q4 7 19 9q4 1 11 1q19 0 46 -9l3 18q-4 3 -13 5l-12 3q-18 2 -23 2q-21 0 -31 -5q-14 -4 -20 -14q-8 -14 -8 -21q-1 -1 -1 -3v-2q0 -12 9 -23q3 -6 19 -15l10 -3l14 -4q8 -2 12 -2q11 -2 18 -5q3 -2 5 -5q5 -8 5 -15q0 -9 -6 -14.5t-19 -8.5
q-3 -1 -9 -1h-10q-12 0 -23 4l-12 4l-13 4l-3 -19q3 -1 12 -5t19 -5q11 -3 28 -3q22 0 31 4l14 9l10 8l5 12q3 6 3 12zM2905 461q0 31 -5 46q-7 19 -21 28t-38 9q-27 0 -43 -10q-14 -11 -20 -30q-4 -12 -4 -40q0 -27 6 -44q4 -14 21 -29q14 -8 40 -8q27 0 40 11
q8 6 12.5 12.5t7.5 16.5q4 13 4 38zM365 542h-24v-119l-1 4l-6 8l-66 107h-29l3 -20v-136h23v118l3 -3l2 -7l70 -108h25v156zM687 542h-23v-119l-5 4l-3 8l-67 107h-28l1 -20v-136h23v118l4 -3l3 -7l68 -108h27v156zM1243 386l-4 156h-24l-50 -103l-3 -6l-51 109h-25l1 -17
l-5 -139h23l5 116l5 -10l40 -91h16l41 91l5 9h1l3 -115h22zM1437 386l-6 156h-24l-50 -103l-2 -6h-1l-51 109h-25l1 -17l-5 -139h25l2 116h1l4 -10l40 -91h15l43 91l3 9h2l3 -115h25zM1577 404h-80v50h62l2 20h-64v48h77l2 20h-104l1 -20v-136h104v18zM1735.5 390
q1.5 1 4.5 2l-8 14l-8 -3q0 -1 -1 -1h-3q-9 0 -15 5q-9 9 -10 15l-6 11q-4 4 -9 14q18 1 31 14q6 6 8.5 13.5t2.5 19.5q0 37 -34 46q-16 2 -25 2h-58l3 -20v-136h24v60h25l8 -13q5 -14 14 -29q2 -11 15 -15q6 -6 20 -6q7 0 10 3q3 0 9 2q1 1 2.5 2zM1934 542h-26l2 -20v-136
h24v156zM2100 386l-10 17l-54 139h-21l-60 -156h25l13 36l3 -9h66l10 -27h28zM2217 404h-73v138h-23v-136l-2 -20h98v18zM2418 542h-24v-84q0 -31 -11 -42q-7 -13 -29 -13q-20 0 -32 13q-7 13 -7 42v84h-28l4 -20v-66q0 -42 14 -56q20 -17 49 -17q64 0 64 73v86zM2697 404
h-80v50h62l3 20h-65v48h76l3 20h-105l2 -20v-136h104v18zM3062 542h-22v-119l-4 4l-5 8l-66 107h-28l2 -20v-136h22v118l4 -3l4 -7l67 -108h26v156zM3199 404h-72v138h-24v-136l-2 -20h98v18zM3309 542h-23l-39 -67l-2 -8l-2 8l-41 67h-24v-20h8l45 -75v-61h25v60zM501 499
q4 -9 4 -38q0 -30 -10 -44t-31 -14q-17 0 -25 6t-11 19q-6 15 -6 36q0 33 10 47q12 12 32 12q15 0 24 -4q5 -4 13 -20zM1029 499q4 -7 4 -38q0 -32 -10 -45t-30 -13q-30 0 -38 25q-5 18 -5 36q0 34 13 47q8 12 30 12q15 0 23 -4q7 -4 13 -20zM2877 499q3 -7 3 -38t-10 -45
q-7 -13 -29 -13q-18 0 -23 5q-12 7 -14 20q-6 22 -6 36q0 33 10 47q12 12 33 12q13 0 24 -4q4 -4 12 -20zM1694 475q-8 -8 -15 -8t-10 -1q-8 -2 -14 -2h-23v58h23q17 0 24 -3q10 -2 14 -8.5t4 -18.5t-3 -17zM2030 497l26 -64h-57l24 64l4 14zM132 45q-6 14 -9 34
q-2 18 -2 31q0 18 1 28t6 20q5 23 23 36q15 15 51 15q42 0 58 -19q19 -16 22 -47h-29q-4 22 -19 33q-5 5 -12 6.5t-20 1.5q-15 0 -27 -6q-15 -10 -18 -23q-6 -16 -6 -45t6 -44q3 -17 17 -25t28 -8q23 0 37.5 12.5t14.5 39.5h-34v24h63v-39q-1 -3 -1 -6.5t-1 -6.5
q-3 -15 -16 -28q-16 -14 -35 -18q-12 -3 -28 -3q-27 0 -47 13q-17 10 -23 24zM2042 45q1 2 5 7t4 12q0 9 -7 17t-18 10q-11 4 -27 6q-25 8 -31 11q-12 3 -24 17q-8 11 -8 29v5q0 10 9 26q3 4 11 10l14 8q18 6 39 6q15 0 27 -4l17 -4q7 -1 16 -5l-2 -23q-33 11 -59 11
q-8 0 -24 -2l-8 -5q-9 -5 -9 -20q0 -11 3 -17l6 -3q1 -1 2.5 -2t4.5 -2q5 -3 25 -8l13 -2l5 -2q13 -4 16 -5q4 -1 12 -5q11 -3 18 -16q9 -6 9 -29q0 -38 -37 -50q-16 -8 -42 -8q-20 0 -33 6q-22 3 -37 10l2 25q22 -8 34 -9l14 -4l13 -3q13 0 24 4q9 0 23 8zM2322 197
q18 -12 26 -33.5t8 -55.5q0 -26 -7 -49q-3 -17 -24 -36q-16 -15 -52 -15q-26 0 -48 13q-20 12 -25 33q-8 17 -8 56q0 29 5 48q7 23 25.5 37t50.5 14q31 0 49 -12zM3084 8q-25 0 -49 13q-18 11 -25 33q-7 26 -7 56q0 29 5 48q4 20 25 36q17 15 52 15q30 0 48 -12
q19 -11 26.5 -32t7.5 -57q0 -26 -7 -49q-3 -17 -24 -36q-18 -15 -52 -15zM322 14v167l-3 24h129l-2 -24h-94v-60h78l-1 -24h-77v-60h99v-23h-129zM520 14v167h-56l-3 24h146l-2 -24h-55v-167h-30zM737 181v-64h80l-3 -24h-77v-79h-29v167l-1 24h131l-2 -24h-99zM855 101v80
l-2 24h31v-104q0 -32 12.5 -50t37.5 -18q24 0 39 18q11 19 11 50v104h30v-105q0 -47 -20 -70q-25 -22 -60 -22q-36 0 -58 22q-21 24 -21 71zM1089 205v-168h89v-23h-122l3 23v168h30zM1236 205v-168h90v-23h-121l3 23v168h28zM1492 67l53 138h29l-75 -191h-26l-67 168
l-10 23h33l53 -138l4 -18h1zM1597 14v167l-2 24h129l-1 -24h-96v-60h79l-2 -24h-77v-60h99v-23h-129zM1914.5 14q-1.5 -1 -4.5 -2q-7 -4 -15 -4q-13 0 -26 9q-13 6 -17 19q-4 4 -9 14l-10 20l-8 16h-31v-72h-30v167l-1 24h68q34 0 53 -13q21 -13 21 -45q0 -21 -13 -41
q-15 -15 -38 -19q0 -1 10 -17l7 -14q4 -7 13 -16q1 -1 6.5 -4t11.5 -3q5 0 8 1l4 2q2 0 3 1l8 -16l-8 -5q-1 -1 -2.5 -2zM2122 14v167l-2 24h31v-191h-29zM2519 14l-87 133l-4 8l-3 4v-145h-29v168l-3 23h35l84 -131l5 -10l4 -5v146h30v-191h-32zM2774 93h-76v-79h-28v167
l-3 24h131l-3 -24h-97v-64h79zM2824 14v167l-1 24h69q73 0 73 -58q0 -49 -50 -60q3 -7 9 -17l7 -14q17 -23 30 -23q8 0 9 1l4 2q2 0 3 1l8 -16q-7 -6 -15 -9q-7 -4 -15 -4q-13 0 -26 9q-9 5 -13.5 11t-7 12.5t-4.5 9.5l-10 20l-8 16h-31v-72h-31zM3360 205h32l6 -191h-30
l-4 141h-3l-4 -13l-51 -112h-18l-54 112l-2 13h-1l-4 -141h-30l7 171l-3 20h32l64 -134l2 7zM2325 108q0 27 -5 46q-12 30 -47 30q-51 0 -51 -74q0 -18 1 -27.5t6 -16.5q4 -19 16 -25q13 -8 28 -8q52 0 52 75zM3057 41q11 -8 28 -8q23 0 39 18q11 17 11 57q0 25 -3 46
q-5 14 -18 23q-10 7 -29 7q-22 0 -39 -17q-13 -16 -13 -57q0 -31 7 -44q6 -20 17 -25zM1853 112.5q11 2.5 17 10.5q5 7 5 21q0 15 -5 23q-9 12 -31 14h-16h-29v-71h29q19 0 30 2.5zM2855 110h29q39 0 45 13q6 6 6 21t-5 22.5t-19 11.5q-7 3 -27 3h-29v-71zM2494 -193.5
q-1 -4.5 -2 -7.5q-3 -9 -3 -18t3 -19q1 -6 2 -10.5t2 -7.5q5 -10 10 -17.5t11 -12.5q12 -13 32 -22t36 -9q6 0 8 1l13 4q5 0 21 7q5 1 12 8q6 1 10 5h10q13 0 17 -4q6 -1 8 -4.5t3 -4.5l11 -12q-10 -12 -22 -19q-7 -5 -8 -5q-3 -1 -4.5 -2t-2.5 -2q-7 -6 -15 -9
q-4 -4 -14 -6q-12 -2 -17 -5q-7 -4 -30 -4q-29 0 -59 12q-52 25 -79 78q-5 16 -8.5 30.5t-3.5 29.5q0 9 4 20q1 16 7 38q1 1 2 2.5t2 4.5q2 4 4 7q18 26 24 32l17 13l9 6q3 1 4.5 2t2.5 2q15 11 35 15q21 7 39 7h7q16 0 23 -7q16 -1 31 -7l8 -5q4 -3 7.5 -4.5t6.5 -3.5
q1 0 8 -5q14 -9 22 -21l-11 -12q-1 -3 -5 -7q-6 -6 -15 -6h-8q-12 0 -20 6q-2 1 -6 5l-7 3q-4 2 -26 10q-3 1 -15 1q-16 0 -36 -9q-10 -2 -18 -7.5t-14 -11.5l-10 -14l-11 -18q-1 -6 -2 -10.5zM1585 -211v-17q0 -18 -6 -29q-2 -11 -6 -22t-6 -17q-1 -3 -5 -7q-6 -5 -12 -15
q-2 -3 -15 -13l-7 -5q-16 -18 -32 -22l-19 -7q-6 -2 -10 -2q-7 0 -10 -1q-4 -1 -10 -1h-12q-26 0 -58 12q-12 5 -24 14l-24 18q-2 2 -12.5 16.5t-16.5 29.5l-9 30q-4 12 -4 30q0 19 6 39q7 25 15 33l11 19q6 12 19 20l9 6q5 6 14 11l16 9l11 3l10 2q21 7 37 7h12q3 -1 10 -1
l10 -3l10 -3q10 -1 19 -5q4 -3 18 -10q7 -3 14 -10q3 -3 16 -13l11 -13q7 -8 12 -19q8 -12 12 -33q6 -12 6 -31zM2333 -257l2 -9v-10q0 -22 -9 -37q-1 -2 -6.5 -11t-16.5 -19q-15 -14 -32 -17q-14 -9 -39 -9q-21 0 -42 9q-15 5 -32 22q-11 8 -15 17q-1 1 -2 2.5t-2 4.5
q-3 3 -3 9v1q0 1 2 2t5 1q-2 0 6 5q4 0 6 2t3 2h11q7 0 11 -4q7 0 13 -3q1 -1 10 -7l8 -4l10 -4q9 -3 11 -3q11 0 16 4q3 1 5.5 2t4.5 2l8 4q6 4 11 12l6 11q3 3 3 6q0 10 -10 17q-4 6 -10 6q-3 6 -8 8q-4 0 -10 3q-8 1 -19 9l-14 4q-11 2 -28 13q-12 8 -23 20q-5 5 -7 13
q-8 13 -8 32q0 24 8 34q4 11 20 25l8 6q1 1 2.5 2t4.5 2q5 3 15 5l15 6q7 0 10 1h10q9 0 24 -7l10 -3q10 -3 15 -4q1 -3 7 -9l8 -9l9 -6q6 -6 7 -11l-11 -7q-3 -1 -6 -4q-6 -5 -14 -5h-16q-9 0 -9 3q-6 1 -9 4q-4 0 -4 1q-1 1 -5 1q-3 3 -6 3q-11 0 -17 -3q-5 0 -6 -1l-2 -2
l-5 -2q-4 -1 -6.5 -7t-2.5 -13q0 -9 3 -9l2 -6q3 0 4 -7q7 0 9 -1q3 -3 8 -3q8 -2 13 -5q7 -2 11 -6l13 -1q7 -7 14 -9l9 -3q4 -2 5 -4q12 -5 22 -20l8 -9q2 -4 8 -12q1 -3 1 -7v-4zM3011 -180q4 -13 4 -39q0 -27 -4 -38q-2 -12 -6 -19q-12 -29 -28 -44q-15 -13 -20 -16
q-2 -3 -15 -13q-8 -6 -17 -9q-16 -5 -20 -7q-6 -2 -8 -2q-7 0 -11 -1q-3 -1 -10 -1h-10q-30 0 -56 12q-27 11 -48 32q-22 22 -32 46q-10 33 -10 60v10q0 6 1 10l4 20q2 12 5 18l6 7q1 3 2 4.5t2 2.5q5 20 22 32q15 16 31 23q14 10 34 15l11 3l19 4h9q21 0 39 -7
q20 -4 37 -15q8 -3 15 -10q6 -4 10 -7l8 -6q3 -5 6 -6q4 -4 5 -7q9 -9 10 -19q11 -12 15 -33zM139 -73h214v-32q0 -10 -4 -14q-2 -2 -6 -4l-141 -195l2 1h148v-50h-224v18q0 8 0.5 11.5t2.5 7t4 5.5q6 7 6 15l5 4l3 5l128 178h-138v50zM389 -73h189v-50h-136v-70h109v-52
h-109v-72h136v-50h-189v294zM809 -123h-82v-244h-53v244h-88v50h223v-50zM944 -73l127 -294h-31q-7 0 -13 2t-11 5q-3 1 -7 7q-1 4 -7 10l-17 38h-133l-14 -38l-5 -5l-4 -3q-1 -5 -3.5 -6.5t-3.5 -2.5q-3 0 -5 -3q-7 -4 -11 -4h-37l128 294h47zM1084 -73h187v-50h-137v-77
h114v-53h-114v-114h-50v294zM1831 -73h52v-294h-50l-137 198q-1 0 -1 2q0 1 -1 1q-1 1 -3 1l-3 6l-2 4q-4 0 -4 2q-1 1 0 2l-1 2l-2 2l-2 4v-224h-55v294h49q4 0 10 -2l8 -3q2 -1 4 -1t3 -1l4 -4l31 -44q15 -23 27 -45q19 -21 34 -41q4 -9 14 -21q5 -7 17 -21l2 -5l1 -4
q0 -3 2 -7q3 -6 3 -8v207zM1910 -73h223v-50h-87v-244h-52v244h-84v50zM3328 -73h52v-294h-52v216q-2 -6 -2 -7q-2 -2 -4 -7t-2 -9v-6q-3 -7 -5.5 -12.5t-4.5 -9.5q-3 -6 -19 -46q-3 -8 -11 -24l-9 -23l-10 -23l-9 -24l-9 -25h-50l-76 187q-3 4 -3 15q-5 7 -5 11v-213h-55
v294h51q6 0 9 -1q4 -4 10 -4q3 0 5 -1l6 -6q8 -8 9 -12q2 -7 8 -21l8 -21l10 -23q6 -14 7 -21q4 -9 19 -46q8 -25 18 -43v-14q4 0 4 -6q0 6 1 6v6q0 3 1 3v5l13 19l59 156l3 6l2 6l3 2l3 2q3 1 3 2q1 1 5 1q5 0 6 1q2 0 3 1l2 2q1 1 6 1zM1532 -219q0 19 -7 36q-2 11 -7 18
t-15 14q-16 16 -30 19q-20 9 -38 9q-15 0 -37 -9q-17 -7 -27 -19q-9 -7 -14 -13.5t-9 -18.5q-5 -13 -5 -36q0 -26 5 -37q4 -12 9 -18.5t14 -11.5q3 -6 7.5 -8.5t5.5 -3.5l8 -4q4 -4 6 -5q19 -10 37 -10q21 0 38 10q4 2 13.5 7t16.5 14q17 9 22 30q7 15 7 37zM2961 -219
q0 6 -2 18q-1 4 -4 16.5t-8 19.5q-10 13 -11 14q-15 15 -32 19q-9 9 -38 9q-15 0 -35 -9q-6 -1 -16 -7q-3 -3 -12.5 -11t-14.5 -15q-8 -13 -10 -18q-5 -22 -5 -36q0 -17 5 -37q9 -23 22 -30q9 -9 18 -14t13 -7q17 -10 35 -10q27 0 38 10l18 9q8 5 14 12q12 9 19 30
q6 13 6 37zM961 -253l-36 93v1v2q-1 0 -1 2q-3 0 -3 4v-2l-1 -2q-3 -5 -4 -5l-38 -93h83zM2415 -330v-6q0 -10 -1.5 -14.5t-7.5 -9.5q-3 0 -5 -2l-4 -5q-6 -2 -14 -2h-6q-3 0 -5 2q-3 3 -6 4q-7 5 -9 8q-4 4 -5 6q-3 9 -3 13v6q0 5 3 5l3 4l2 3q0 1 3 1q6 10 12 10q2 2 5 2
h6h5q7 0 10 -2t8 -10q8 0 8 -8q1 0 1 -5z" />
    <glyph glyph-name="six" unicode="6" 
d="M3380 256h-3241v789h1227q0 91 32 154q21 44 40 74t46 52q56 53 124 81q65 31 150 31q94 0 156 -33q75 -31 128 -87q48 -52 82 -123q26 -70 26 -149h1230v-789zM1898 707q59 25 117 78q50 54 78 116q29 72 29 142q0 74 -21 125q-13 32 -26 56.5t-32 45.5q-17 21 -36.5 38
t-47.5 38q-30 13 -52 25q-28 13 -54 20q-19 8 -41 10.5t-54 2.5q-84 0 -143 -31q-65 -26 -115 -77q-41 -46 -73 -115q-29 -64 -29 -138q0 -71 29 -137q29 -65 75 -116q48 -51 116 -80q65 -30 140 -30q67 0 140 27zM1975 1285h-435q52 44 103 61q51 24 115 24q62 0 121 -24
q57 -24 96 -61zM2079.5 981.5q-3.5 -26.5 -13.5 -50.5q-19 -44 -57 -97h-431l423 428q82 -103 82 -219q0 -35 -3.5 -61.5zM1941 1251l-426 -426q-31 36 -62 99q-19 43 -19 119q0 62 18 112q9 24 21.5 46t32.5 50h435zM1544 801h432q-47 -42 -97 -64q-38 -11 -65.5 -16.5
t-55.5 -5.5q-45 0 -115 22q-51 21 -99 64zM529 461q0 31 -5 46q-4 14 -20 28q-14 9 -40 9t-42 -10q-14 -11 -20 -30q-4 -16 -4 -40q0 -27 6 -44q2 -9 7 -15t14 -14q14 -8 39 -8q26 0 40 10.5t20 29.5q5 14 5 38zM798 464q0 34 13 47q9 12 31 12q17 0 25 -6q12 -12 13 -25h25
q-1 17 -16 37q-15 15 -47 15q-27 0 -44 -10q-14 -14 -18 -30q-5 -15 -5 -40q0 -26 7 -44q4 -17 20 -29q18 -8 40 -8q42 0 56 28q6 16 7 27h-25q-2 -18 -13 -26.5t-25 -8.5q-16 0 -24 5q-9 9 -15 20q-5 18 -5 36zM1058 461q0 26 -5 46q-8 20 -22 28q-12 9 -38 9
q-27 0 -43 -10q-14 -16 -19 -30q-5 -22 -5 -40q0 -31 8 -44q4 -16 19 -29q18 -8 40 -8q48 0 61 40q4 15 4 38zM1775 464q0 33 11 47q12 12 31 12q16 0 27 -6q6 -6 9 -14.5t4 -10.5h25q-3 13 -6.5 21t-11.5 16t-19 11.5t-28 3.5q-26 0 -42 -10q-15 -15 -19 -30q-5 -22 -5 -40
q0 -27 6 -44q5 -17 22 -29q14 -8 38 -8t38 8q2 2 10 7.5t11 12.5q2 12 6 27h-26q-2 -9 -4.5 -16.5t-7.5 -10.5q-14 -8 -27 -8q-28 0 -36 25q-6 15 -6 36zM2561 428q0 14 -8 24q-6 9 -16 15l-9 3l-12 4l-6 1l-9 2q-7 1 -20 5q-6 2 -10 9q-1 1 -1 2.5t-1 2.5q-2 2 -2 6
q0 2 2 6q1 1 1 3t1 4q4 7 19 9q4 1 11 1q19 0 46 -9l3 18q-4 3 -13 5l-12 3q-18 2 -23 2q-21 0 -31 -5q-14 -4 -20 -14q-8 -14 -8 -21q-1 -1 -1 -3v-2q0 -12 9 -23q3 -6 19 -15l10 -3l14 -4q8 -2 12 -2q11 -2 18 -5q3 -2 5 -5q5 -8 5 -15q0 -9 -6 -14.5t-19 -8.5
q-3 -1 -9 -1h-10q-12 0 -23 4l-12 4l-13 4l-3 -19q3 -1 12 -5t19 -5q11 -3 28 -3q22 0 31 4l14 9l10 8l5 12q3 6 3 12zM2905 461q0 31 -5 46q-7 19 -21 28t-38 9q-27 0 -43 -10q-14 -11 -20 -30q-4 -12 -4 -40q0 -27 6 -44q4 -14 21 -29q14 -8 40 -8q27 0 40 11
q8 6 12.5 12.5t7.5 16.5q4 13 4 38zM365 542h-24v-119l-1 4l-6 8l-66 107h-29l3 -20v-136h23v118l3 -3l2 -7l70 -108h25v156zM687 542h-23v-119l-5 4l-3 8l-67 107h-28l1 -20v-136h23v118l4 -3l3 -7l68 -108h27v156zM1243 386l-4 156h-24l-50 -103l-3 -6l-51 109h-25l1 -17
l-5 -139h23l5 116l5 -10l40 -91h16l41 91l5 9h1l3 -115h22zM1437 386l-6 156h-24l-50 -103l-2 -6h-1l-51 109h-25l1 -17l-5 -139h25l2 116h1l4 -10l40 -91h15l43 91l3 9h2l3 -115h25zM1577 404h-80v50h62l2 20h-64v48h77l2 20h-104l1 -20v-136h104v18zM1735.5 390
q1.5 1 4.5 2l-8 14l-8 -3q0 -1 -1 -1h-3q-9 0 -15 5q-9 9 -10 15l-6 11q-4 4 -9 14q18 1 31 14q6 6 8.5 13.5t2.5 19.5q0 37 -34 46q-16 2 -25 2h-58l3 -20v-136h24v60h25l8 -13q5 -14 14 -29q2 -11 15 -15q6 -6 20 -6q7 0 10 3q3 0 9 2q1 1 2.5 2zM1934 542h-26l2 -20v-136
h24v156zM2100 386l-10 17l-54 139h-21l-60 -156h25l13 36l3 -9h66l10 -27h28zM2217 404h-73v138h-23v-136l-2 -20h98v18zM2418 542h-24v-84q0 -31 -11 -42q-7 -13 -29 -13q-20 0 -32 13q-7 13 -7 42v84h-28l4 -20v-66q0 -42 14 -56q20 -17 49 -17q64 0 64 73v86zM2697 404
h-80v50h62l3 20h-65v48h76l3 20h-105l2 -20v-136h104v18zM3062 542h-22v-119l-4 4l-5 8l-66 107h-28l2 -20v-136h22v118l4 -3l4 -7l67 -108h26v156zM3199 404h-72v138h-24v-136l-2 -20h98v18zM3309 542h-23l-39 -67l-2 -8l-2 8l-41 67h-24v-20h8l45 -75v-61h25v60zM501 499
q4 -9 4 -38q0 -30 -10 -44t-31 -14q-17 0 -25 6t-11 19q-6 15 -6 36q0 33 10 47q12 12 32 12q15 0 24 -4q5 -4 13 -20zM1029 499q4 -7 4 -38q0 -32 -10 -45t-30 -13q-30 0 -38 25q-5 18 -5 36q0 34 13 47q8 12 30 12q15 0 23 -4q7 -4 13 -20zM2877 499q3 -7 3 -38t-10 -45
q-7 -13 -29 -13q-18 0 -23 5q-12 7 -14 20q-6 22 -6 36q0 33 10 47q12 12 33 12q13 0 24 -4q4 -4 12 -20zM1694 475q-8 -8 -15 -8t-10 -1q-8 -2 -14 -2h-23v58h23q17 0 24 -3q10 -2 14 -8.5t4 -18.5t-3 -17zM2030 497l26 -64h-57l24 64l4 14zM132 45q-6 14 -9 34
q-2 18 -2 31q0 18 1 28t6 20q5 23 23 36q15 15 51 15q42 0 58 -19q19 -16 22 -47h-29q-4 22 -19 33q-5 5 -12 6.5t-20 1.5q-15 0 -27 -6q-15 -10 -18 -23q-6 -16 -6 -45t6 -44q3 -17 17 -25t28 -8q23 0 37.5 12.5t14.5 39.5h-34v24h63v-39q-1 -3 -1 -6.5t-1 -6.5
q-3 -15 -16 -28q-16 -14 -35 -18q-12 -3 -28 -3q-27 0 -47 13q-17 10 -23 24zM2042 45q1 2 5 7t4 12q0 9 -7 17t-18 10q-11 4 -27 6q-25 8 -31 11q-12 3 -24 17q-8 11 -8 29v5q0 10 9 26q3 4 11 10l14 8q18 6 39 6q15 0 27 -4l17 -4q7 -1 16 -5l-2 -23q-33 11 -59 11
q-8 0 -24 -2l-8 -5q-9 -5 -9 -20q0 -11 3 -17l6 -3q1 -1 2.5 -2t4.5 -2q5 -3 25 -8l13 -2l5 -2q13 -4 16 -5q4 -1 12 -5q11 -3 18 -16q9 -6 9 -29q0 -38 -37 -50q-16 -8 -42 -8q-20 0 -33 6q-22 3 -37 10l2 25q22 -8 34 -9l14 -4l13 -3q13 0 24 4q9 0 23 8zM2322 197
q18 -12 26 -33.5t8 -55.5q0 -26 -7 -49q-3 -17 -24 -36q-16 -15 -52 -15q-26 0 -48 13q-20 12 -25 33q-8 17 -8 56q0 29 5 48q7 23 25.5 37t50.5 14q31 0 49 -12zM3084 8q-25 0 -49 13q-18 11 -25 33q-7 26 -7 56q0 29 5 48q4 20 25 36q17 15 52 15q30 0 48 -12
q19 -11 26.5 -32t7.5 -57q0 -26 -7 -49q-3 -17 -24 -36q-18 -15 -52 -15zM322 14v167l-3 24h129l-2 -24h-94v-60h78l-1 -24h-77v-60h99v-23h-129zM520 14v167h-56l-3 24h146l-2 -24h-55v-167h-30zM737 181v-64h80l-3 -24h-77v-79h-29v167l-1 24h131l-2 -24h-99zM855 101v80
l-2 24h31v-104q0 -32 12.5 -50t37.5 -18q24 0 39 18q11 19 11 50v104h30v-105q0 -47 -20 -70q-25 -22 -60 -22q-36 0 -58 22q-21 24 -21 71zM1089 205v-168h89v-23h-122l3 23v168h30zM1236 205v-168h90v-23h-121l3 23v168h28zM1492 67l53 138h29l-75 -191h-26l-67 168
l-10 23h33l53 -138l4 -18h1zM1597 14v167l-2 24h129l-1 -24h-96v-60h79l-2 -24h-77v-60h99v-23h-129zM1914.5 14q-1.5 -1 -4.5 -2q-7 -4 -15 -4q-13 0 -26 9q-13 6 -17 19q-4 4 -9 14l-10 20l-8 16h-31v-72h-30v167l-1 24h68q34 0 53 -13q21 -13 21 -45q0 -21 -13 -41
q-15 -15 -38 -19q0 -1 10 -17l7 -14q4 -7 13 -16q1 -1 6.5 -4t11.5 -3q5 0 8 1l4 2q2 0 3 1l8 -16l-8 -5q-1 -1 -2.5 -2zM2122 14v167l-2 24h31v-191h-29zM2519 14l-87 133l-4 8l-3 4v-145h-29v168l-3 23h35l84 -131l5 -10l4 -5v146h30v-191h-32zM2774 93h-76v-79h-28v167
l-3 24h131l-3 -24h-97v-64h79zM2824 14v167l-1 24h69q73 0 73 -58q0 -49 -50 -60q3 -7 9 -17l7 -14q17 -23 30 -23q8 0 9 1l4 2q2 0 3 1l8 -16q-7 -6 -15 -9q-7 -4 -15 -4q-13 0 -26 9q-9 5 -13.5 11t-7 12.5t-4.5 9.5l-10 20l-8 16h-31v-72h-31zM3360 205h32l6 -191h-30
l-4 141h-3l-4 -13l-51 -112h-18l-54 112l-2 13h-1l-4 -141h-30l7 171l-3 20h32l64 -134l2 7zM2325 108q0 27 -5 46q-12 30 -47 30q-51 0 -51 -74q0 -18 1 -27.5t6 -16.5q4 -19 16 -25q13 -8 28 -8q52 0 52 75zM3057 41q11 -8 28 -8q23 0 39 18q11 17 11 57q0 25 -3 46
q-5 14 -18 23q-10 7 -29 7q-22 0 -39 -17q-13 -16 -13 -57q0 -31 7 -44q6 -20 17 -25zM1853 112.5q11 2.5 17 10.5q5 7 5 21q0 15 -5 23q-9 12 -31 14h-16h-29v-71h29q19 0 30 2.5zM2855 110h29q39 0 45 13q6 6 6 21t-5 22.5t-19 11.5q-7 3 -27 3h-29v-71zM2494 -193.5
q-1 -4.5 -2 -7.5q-3 -9 -3 -18t3 -19q1 -6 2 -10.5t2 -7.5q5 -10 10 -17.5t11 -12.5q12 -13 32 -22t36 -9q6 0 8 1l13 4q5 0 21 7q5 1 12 8q6 1 10 5h10q13 0 17 -4q6 -1 8 -4.5t3 -4.5l11 -12q-10 -12 -22 -19q-7 -5 -8 -5q-3 -1 -4.5 -2t-2.5 -2q-7 -6 -15 -9
q-4 -4 -14 -6q-12 -2 -17 -5q-7 -4 -30 -4q-29 0 -59 12q-52 25 -79 78q-5 16 -8.5 30.5t-3.5 29.5q0 9 4 20q1 16 7 38q1 1 2 2.5t2 4.5q2 4 4 7q18 26 24 32l17 13l9 6q3 1 4.5 2t2.5 2q15 11 35 15q21 7 39 7h7q16 0 23 -7q16 -1 31 -7l8 -5q4 -3 7.5 -4.5t6.5 -3.5
q1 0 8 -5q14 -9 22 -21l-11 -12q-1 -3 -5 -7q-6 -6 -15 -6h-8q-12 0 -20 6q-2 1 -6 5l-7 3q-4 2 -26 10q-3 1 -15 1q-16 0 -36 -9q-10 -2 -18 -7.5t-14 -11.5l-10 -14l-11 -18q-1 -6 -2 -10.5zM1585 -211v-17q0 -18 -6 -29q-2 -11 -6 -22t-6 -17q-1 -3 -5 -7q-6 -5 -12 -15
q-2 -3 -15 -13l-7 -5q-16 -18 -32 -22l-19 -7q-6 -2 -10 -2q-7 0 -10 -1q-4 -1 -10 -1h-12q-26 0 -58 12q-12 5 -24 14l-24 18q-2 2 -12.5 16.5t-16.5 29.5l-9 30q-4 12 -4 30q0 19 6 39q7 25 15 33l11 19q6 12 19 20l9 6q5 6 14 11l16 9l11 3l10 2q21 7 37 7h12q3 -1 10 -1
l10 -3l10 -3q10 -1 19 -5q4 -3 18 -10q7 -3 14 -10q3 -3 16 -13l11 -13q7 -8 12 -19q8 -12 12 -33q6 -12 6 -31zM2333 -257l2 -9v-10q0 -22 -9 -37q-1 -2 -6.5 -11t-16.5 -19q-15 -14 -32 -17q-14 -9 -39 -9q-21 0 -42 9q-15 5 -32 22q-11 8 -15 17q-1 1 -2 2.5t-2 4.5
q-3 3 -3 9v1q0 1 2 2t5 1q-2 0 6 5q4 0 6 2t3 2h11q7 0 11 -4q7 0 13 -3q1 -1 10 -7l8 -4l10 -4q9 -3 11 -3q11 0 16 4q3 1 5.5 2t4.5 2l8 4q6 4 11 12l6 11q3 3 3 6q0 10 -10 17q-4 6 -10 6q-3 6 -8 8q-4 0 -10 3q-8 1 -19 9l-14 4q-11 2 -28 13q-12 8 -23 20q-5 5 -7 13
q-8 13 -8 32q0 24 8 34q4 11 20 25l8 6q1 1 2.5 2t4.5 2q5 3 15 5l15 6q7 0 10 1h10q9 0 24 -7l10 -3q10 -3 15 -4q1 -3 7 -9l8 -9l9 -6q6 -6 7 -11l-11 -7q-3 -1 -6 -4q-6 -5 -14 -5h-16q-9 0 -9 3q-6 1 -9 4q-4 0 -4 1q-1 1 -5 1q-3 3 -6 3q-11 0 -17 -3q-5 0 -6 -1l-2 -2
l-5 -2q-4 -1 -6.5 -7t-2.5 -13q0 -9 3 -9l2 -6q3 0 4 -7q7 0 9 -1q3 -3 8 -3q8 -2 13 -5q7 -2 11 -6l13 -1q7 -7 14 -9l9 -3q4 -2 5 -4q12 -5 22 -20l8 -9q2 -4 8 -12q1 -3 1 -7v-4zM3011 -180q4 -13 4 -39q0 -27 -4 -38q-2 -12 -6 -19q-12 -29 -28 -44q-15 -13 -20 -16
q-2 -3 -15 -13q-8 -6 -17 -9q-16 -5 -20 -7q-6 -2 -8 -2q-7 0 -11 -1q-3 -1 -10 -1h-10q-30 0 -56 12q-27 11 -48 32q-22 22 -32 46q-10 33 -10 60v10q0 6 1 10l4 20q2 12 5 18l6 7q1 3 2 4.5t2 2.5q5 20 22 32q15 16 31 23q14 10 34 15l11 3l19 4h9q21 0 39 -7
q20 -4 37 -15q8 -3 15 -10q6 -4 10 -7l8 -6q3 -5 6 -6q4 -4 5 -7q9 -9 10 -19q11 -12 15 -33zM139 -73h214v-32q0 -10 -4 -14q-2 -2 -6 -4l-141 -195l2 1h148v-50h-224v18q0 8 0.5 11.5t2.5 7t4 5.5q6 7 6 15l5 4l3 5l128 178h-138v50zM389 -73h189v-50h-136v-70h109v-52
h-109v-72h136v-50h-189v294zM809 -123h-82v-244h-53v244h-88v50h223v-50zM944 -73l127 -294h-31q-7 0 -13 2t-11 5q-3 1 -7 7q-1 4 -7 10l-17 38h-133l-14 -38l-5 -5l-4 -3q-1 -5 -3.5 -6.5t-3.5 -2.5q-3 0 -5 -3q-7 -4 -11 -4h-37l128 294h47zM1084 -73h187v-50h-137v-77
h114v-53h-114v-114h-50v294zM1831 -73h52v-294h-50l-137 198q-1 0 -1 2q0 1 -1 1q-1 1 -3 1l-3 6l-2 4q-4 0 -4 2q-1 1 0 2l-1 2l-2 2l-2 4v-224h-55v294h49q4 0 10 -2l8 -3q2 -1 4 -1t3 -1l4 -4l31 -44q15 -23 27 -45q19 -21 34 -41q4 -9 14 -21q5 -7 17 -21l2 -5l1 -4
q0 -3 2 -7q3 -6 3 -8v207zM1910 -73h223v-50h-87v-244h-52v244h-84v50zM3328 -73h52v-294h-52v216q-2 -6 -2 -7q-2 -2 -4 -7t-2 -9v-6q-3 -7 -5.5 -12.5t-4.5 -9.5q-3 -6 -19 -46q-3 -8 -11 -24l-9 -23l-10 -23l-9 -24l-9 -25h-50l-76 187q-3 4 -3 15q-5 7 -5 11v-213h-55
v294h51q6 0 9 -1q4 -4 10 -4q3 0 5 -1l6 -6q8 -8 9 -12q2 -7 8 -21l8 -21l10 -23q6 -14 7 -21q4 -9 19 -46q8 -25 18 -43v-14q4 0 4 -6q0 6 1 6v6q0 3 1 3v5l13 19l59 156l3 6l2 6l3 2l3 2q3 1 3 2q1 1 5 1q5 0 6 1q2 0 3 1l2 2q1 1 6 1zM1532 -219q0 19 -7 36q-2 11 -7 18
t-15 14q-16 16 -30 19q-20 9 -38 9q-15 0 -37 -9q-17 -7 -27 -19q-9 -7 -14 -13.5t-9 -18.5q-5 -13 -5 -36q0 -26 5 -37q4 -12 9 -18.5t14 -11.5q3 -6 7.5 -8.5t5.5 -3.5l8 -4q4 -4 6 -5q19 -10 37 -10q21 0 38 10q4 2 13.5 7t16.5 14q17 9 22 30q7 15 7 37zM2961 -219
q0 6 -2 18q-1 4 -4 16.5t-8 19.5q-10 13 -11 14q-15 15 -32 19q-9 9 -38 9q-15 0 -35 -9q-6 -1 -16 -7q-3 -3 -12.5 -11t-14.5 -15q-8 -13 -10 -18q-5 -22 -5 -36q0 -17 5 -37q9 -23 22 -30q9 -9 18 -14t13 -7q17 -10 35 -10q27 0 38 10l18 9q8 5 14 12q12 9 19 30
q6 13 6 37zM961 -253l-36 93v1v2q-1 0 -1 2q-3 0 -3 4v-2l-1 -2q-3 -5 -4 -5l-38 -93h83zM2415 -330v-6q0 -10 -1.5 -14.5t-7.5 -9.5q-3 0 -5 -2l-4 -5q-6 -2 -14 -2h-6q-3 0 -5 2q-3 3 -6 4q-7 5 -9 8q-4 4 -5 6q-3 9 -3 13v6q0 5 3 5l3 4l2 3q0 1 3 1q6 10 12 10q2 2 5 2
h6h5q7 0 10 -2t8 -10q8 0 8 -8q1 0 1 -5z" />
    <glyph glyph-name="seven" unicode="7" 
d="M3380 256h-3241v789h1227q0 91 32 154q21 44 40 74t46 52q56 53 124 81q65 31 150 31q94 0 156 -33q75 -31 128 -87q48 -52 82 -123q26 -70 26 -149h1230v-789zM1898 707q59 25 117 78q50 54 78 116q29 72 29 142q0 74 -21 125q-13 32 -26 56.5t-32 45.5q-17 21 -36.5 38
t-47.5 38q-30 13 -52 25q-28 13 -54 20q-19 8 -41 10.5t-54 2.5q-84 0 -143 -31q-65 -26 -115 -77q-41 -46 -73 -115q-29 -64 -29 -138q0 -71 29 -137q29 -65 75 -116q48 -51 116 -80q65 -30 140 -30q67 0 140 27zM1975 1285h-435q52 44 103 61q51 24 115 24q62 0 121 -24
q57 -24 96 -61zM2079.5 981.5q-3.5 -26.5 -13.5 -50.5q-19 -44 -57 -97h-431l423 428q82 -103 82 -219q0 -35 -3.5 -61.5zM1941 1251l-426 -426q-31 36 -62 99q-19 43 -19 119q0 62 18 112q9 24 21.5 46t32.5 50h435zM1544 801h432q-47 -42 -97 -64q-38 -11 -65.5 -16.5
t-55.5 -5.5q-45 0 -115 22q-51 21 -99 64zM529 461q0 31 -5 46q-4 14 -20 28q-14 9 -40 9t-42 -10q-14 -11 -20 -30q-4 -16 -4 -40q0 -27 6 -44q2 -9 7 -15t14 -14q14 -8 39 -8q26 0 40 10.5t20 29.5q5 14 5 38zM798 464q0 34 13 47q9 12 31 12q17 0 25 -6q12 -12 13 -25h25
q-1 17 -16 37q-15 15 -47 15q-27 0 -44 -10q-14 -14 -18 -30q-5 -15 -5 -40q0 -26 7 -44q4 -17 20 -29q18 -8 40 -8q42 0 56 28q6 16 7 27h-25q-2 -18 -13 -26.5t-25 -8.5q-16 0 -24 5q-9 9 -15 20q-5 18 -5 36zM1058 461q0 26 -5 46q-8 20 -22 28q-12 9 -38 9
q-27 0 -43 -10q-14 -16 -19 -30q-5 -22 -5 -40q0 -31 8 -44q4 -16 19 -29q18 -8 40 -8q48 0 61 40q4 15 4 38zM1775 464q0 33 11 47q12 12 31 12q16 0 27 -6q6 -6 9 -14.5t4 -10.5h25q-3 13 -6.5 21t-11.5 16t-19 11.5t-28 3.5q-26 0 -42 -10q-15 -15 -19 -30q-5 -22 -5 -40
q0 -27 6 -44q5 -17 22 -29q14 -8 38 -8t38 8q2 2 10 7.5t11 12.5q2 12 6 27h-26q-2 -9 -4.5 -16.5t-7.5 -10.5q-14 -8 -27 -8q-28 0 -36 25q-6 15 -6 36zM2561 428q0 14 -8 24q-6 9 -16 15l-9 3l-12 4l-6 1l-9 2q-7 1 -20 5q-6 2 -10 9q-1 1 -1 2.5t-1 2.5q-2 2 -2 6
q0 2 2 6q1 1 1 3t1 4q4 7 19 9q4 1 11 1q19 0 46 -9l3 18q-4 3 -13 5l-12 3q-18 2 -23 2q-21 0 -31 -5q-14 -4 -20 -14q-8 -14 -8 -21q-1 -1 -1 -3v-2q0 -12 9 -23q3 -6 19 -15l10 -3l14 -4q8 -2 12 -2q11 -2 18 -5q3 -2 5 -5q5 -8 5 -15q0 -9 -6 -14.5t-19 -8.5
q-3 -1 -9 -1h-10q-12 0 -23 4l-12 4l-13 4l-3 -19q3 -1 12 -5t19 -5q11 -3 28 -3q22 0 31 4l14 9l10 8l5 12q3 6 3 12zM2905 461q0 31 -5 46q-7 19 -21 28t-38 9q-27 0 -43 -10q-14 -11 -20 -30q-4 -12 -4 -40q0 -27 6 -44q4 -14 21 -29q14 -8 40 -8q27 0 40 11
q8 6 12.5 12.5t7.5 16.5q4 13 4 38zM365 542h-24v-119l-1 4l-6 8l-66 107h-29l3 -20v-136h23v118l3 -3l2 -7l70 -108h25v156zM687 542h-23v-119l-5 4l-3 8l-67 107h-28l1 -20v-136h23v118l4 -3l3 -7l68 -108h27v156zM1243 386l-4 156h-24l-50 -103l-3 -6l-51 109h-25l1 -17
l-5 -139h23l5 116l5 -10l40 -91h16l41 91l5 9h1l3 -115h22zM1437 386l-6 156h-24l-50 -103l-2 -6h-1l-51 109h-25l1 -17l-5 -139h25l2 116h1l4 -10l40 -91h15l43 91l3 9h2l3 -115h25zM1577 404h-80v50h62l2 20h-64v48h77l2 20h-104l1 -20v-136h104v18zM1735.5 390
q1.5 1 4.5 2l-8 14l-8 -3q0 -1 -1 -1h-3q-9 0 -15 5q-9 9 -10 15l-6 11q-4 4 -9 14q18 1 31 14q6 6 8.5 13.5t2.5 19.5q0 37 -34 46q-16 2 -25 2h-58l3 -20v-136h24v60h25l8 -13q5 -14 14 -29q2 -11 15 -15q6 -6 20 -6q7 0 10 3q3 0 9 2q1 1 2.5 2zM1934 542h-26l2 -20v-136
h24v156zM2100 386l-10 17l-54 139h-21l-60 -156h25l13 36l3 -9h66l10 -27h28zM2217 404h-73v138h-23v-136l-2 -20h98v18zM2418 542h-24v-84q0 -31 -11 -42q-7 -13 -29 -13q-20 0 -32 13q-7 13 -7 42v84h-28l4 -20v-66q0 -42 14 -56q20 -17 49 -17q64 0 64 73v86zM2697 404
h-80v50h62l3 20h-65v48h76l3 20h-105l2 -20v-136h104v18zM3062 542h-22v-119l-4 4l-5 8l-66 107h-28l2 -20v-136h22v118l4 -3l4 -7l67 -108h26v156zM3199 404h-72v138h-24v-136l-2 -20h98v18zM3309 542h-23l-39 -67l-2 -8l-2 8l-41 67h-24v-20h8l45 -75v-61h25v60zM501 499
q4 -9 4 -38q0 -30 -10 -44t-31 -14q-17 0 -25 6t-11 19q-6 15 -6 36q0 33 10 47q12 12 32 12q15 0 24 -4q5 -4 13 -20zM1029 499q4 -7 4 -38q0 -32 -10 -45t-30 -13q-30 0 -38 25q-5 18 -5 36q0 34 13 47q8 12 30 12q15 0 23 -4q7 -4 13 -20zM2877 499q3 -7 3 -38t-10 -45
q-7 -13 -29 -13q-18 0 -23 5q-12 7 -14 20q-6 22 -6 36q0 33 10 47q12 12 33 12q13 0 24 -4q4 -4 12 -20zM1694 475q-8 -8 -15 -8t-10 -1q-8 -2 -14 -2h-23v58h23q17 0 24 -3q10 -2 14 -8.5t4 -18.5t-3 -17zM2030 497l26 -64h-57l24 64l4 14zM132 45q-6 14 -9 34
q-2 18 -2 31q0 18 1 28t6 20q5 23 23 36q15 15 51 15q42 0 58 -19q19 -16 22 -47h-29q-4 22 -19 33q-5 5 -12 6.5t-20 1.5q-15 0 -27 -6q-15 -10 -18 -23q-6 -16 -6 -45t6 -44q3 -17 17 -25t28 -8q23 0 37.5 12.5t14.5 39.5h-34v24h63v-39q-1 -3 -1 -6.5t-1 -6.5
q-3 -15 -16 -28q-16 -14 -35 -18q-12 -3 -28 -3q-27 0 -47 13q-17 10 -23 24zM2042 45q1 2 5 7t4 12q0 9 -7 17t-18 10q-11 4 -27 6q-25 8 -31 11q-12 3 -24 17q-8 11 -8 29v5q0 10 9 26q3 4 11 10l14 8q18 6 39 6q15 0 27 -4l17 -4q7 -1 16 -5l-2 -23q-33 11 -59 11
q-8 0 -24 -2l-8 -5q-9 -5 -9 -20q0 -11 3 -17l6 -3q1 -1 2.5 -2t4.5 -2q5 -3 25 -8l13 -2l5 -2q13 -4 16 -5q4 -1 12 -5q11 -3 18 -16q9 -6 9 -29q0 -38 -37 -50q-16 -8 -42 -8q-20 0 -33 6q-22 3 -37 10l2 25q22 -8 34 -9l14 -4l13 -3q13 0 24 4q9 0 23 8zM2322 197
q18 -12 26 -33.5t8 -55.5q0 -26 -7 -49q-3 -17 -24 -36q-16 -15 -52 -15q-26 0 -48 13q-20 12 -25 33q-8 17 -8 56q0 29 5 48q7 23 25.5 37t50.5 14q31 0 49 -12zM3084 8q-25 0 -49 13q-18 11 -25 33q-7 26 -7 56q0 29 5 48q4 20 25 36q17 15 52 15q30 0 48 -12
q19 -11 26.5 -32t7.5 -57q0 -26 -7 -49q-3 -17 -24 -36q-18 -15 -52 -15zM322 14v167l-3 24h129l-2 -24h-94v-60h78l-1 -24h-77v-60h99v-23h-129zM520 14v167h-56l-3 24h146l-2 -24h-55v-167h-30zM737 181v-64h80l-3 -24h-77v-79h-29v167l-1 24h131l-2 -24h-99zM855 101v80
l-2 24h31v-104q0 -32 12.5 -50t37.5 -18q24 0 39 18q11 19 11 50v104h30v-105q0 -47 -20 -70q-25 -22 -60 -22q-36 0 -58 22q-21 24 -21 71zM1089 205v-168h89v-23h-122l3 23v168h30zM1236 205v-168h90v-23h-121l3 23v168h28zM1492 67l53 138h29l-75 -191h-26l-67 168
l-10 23h33l53 -138l4 -18h1zM1597 14v167l-2 24h129l-1 -24h-96v-60h79l-2 -24h-77v-60h99v-23h-129zM1914.5 14q-1.5 -1 -4.5 -2q-7 -4 -15 -4q-13 0 -26 9q-13 6 -17 19q-4 4 -9 14l-10 20l-8 16h-31v-72h-30v167l-1 24h68q34 0 53 -13q21 -13 21 -45q0 -21 -13 -41
q-15 -15 -38 -19q0 -1 10 -17l7 -14q4 -7 13 -16q1 -1 6.5 -4t11.5 -3q5 0 8 1l4 2q2 0 3 1l8 -16l-8 -5q-1 -1 -2.5 -2zM2122 14v167l-2 24h31v-191h-29zM2519 14l-87 133l-4 8l-3 4v-145h-29v168l-3 23h35l84 -131l5 -10l4 -5v146h30v-191h-32zM2774 93h-76v-79h-28v167
l-3 24h131l-3 -24h-97v-64h79zM2824 14v167l-1 24h69q73 0 73 -58q0 -49 -50 -60q3 -7 9 -17l7 -14q17 -23 30 -23q8 0 9 1l4 2q2 0 3 1l8 -16q-7 -6 -15 -9q-7 -4 -15 -4q-13 0 -26 9q-9 5 -13.5 11t-7 12.5t-4.5 9.5l-10 20l-8 16h-31v-72h-31zM3360 205h32l6 -191h-30
l-4 141h-3l-4 -13l-51 -112h-18l-54 112l-2 13h-1l-4 -141h-30l7 171l-3 20h32l64 -134l2 7zM2325 108q0 27 -5 46q-12 30 -47 30q-51 0 -51 -74q0 -18 1 -27.5t6 -16.5q4 -19 16 -25q13 -8 28 -8q52 0 52 75zM3057 41q11 -8 28 -8q23 0 39 18q11 17 11 57q0 25 -3 46
q-5 14 -18 23q-10 7 -29 7q-22 0 -39 -17q-13 -16 -13 -57q0 -31 7 -44q6 -20 17 -25zM1853 112.5q11 2.5 17 10.5q5 7 5 21q0 15 -5 23q-9 12 -31 14h-16h-29v-71h29q19 0 30 2.5zM2855 110h29q39 0 45 13q6 6 6 21t-5 22.5t-19 11.5q-7 3 -27 3h-29v-71zM2494 -193.5
q-1 -4.5 -2 -7.5q-3 -9 -3 -18t3 -19q1 -6 2 -10.5t2 -7.5q5 -10 10 -17.5t11 -12.5q12 -13 32 -22t36 -9q6 0 8 1l13 4q5 0 21 7q5 1 12 8q6 1 10 5h10q13 0 17 -4q6 -1 8 -4.5t3 -4.5l11 -12q-10 -12 -22 -19q-7 -5 -8 -5q-3 -1 -4.5 -2t-2.5 -2q-7 -6 -15 -9
q-4 -4 -14 -6q-12 -2 -17 -5q-7 -4 -30 -4q-29 0 -59 12q-52 25 -79 78q-5 16 -8.5 30.5t-3.5 29.5q0 9 4 20q1 16 7 38q1 1 2 2.5t2 4.5q2 4 4 7q18 26 24 32l17 13l9 6q3 1 4.5 2t2.5 2q15 11 35 15q21 7 39 7h7q16 0 23 -7q16 -1 31 -7l8 -5q4 -3 7.5 -4.5t6.5 -3.5
q1 0 8 -5q14 -9 22 -21l-11 -12q-1 -3 -5 -7q-6 -6 -15 -6h-8q-12 0 -20 6q-2 1 -6 5l-7 3q-4 2 -26 10q-3 1 -15 1q-16 0 -36 -9q-10 -2 -18 -7.5t-14 -11.5l-10 -14l-11 -18q-1 -6 -2 -10.5zM1585 -211v-17q0 -18 -6 -29q-2 -11 -6 -22t-6 -17q-1 -3 -5 -7q-6 -5 -12 -15
q-2 -3 -15 -13l-7 -5q-16 -18 -32 -22l-19 -7q-6 -2 -10 -2q-7 0 -10 -1q-4 -1 -10 -1h-12q-26 0 -58 12q-12 5 -24 14l-24 18q-2 2 -12.5 16.5t-16.5 29.5l-9 30q-4 12 -4 30q0 19 6 39q7 25 15 33l11 19q6 12 19 20l9 6q5 6 14 11l16 9l11 3l10 2q21 7 37 7h12q3 -1 10 -1
l10 -3l10 -3q10 -1 19 -5q4 -3 18 -10q7 -3 14 -10q3 -3 16 -13l11 -13q7 -8 12 -19q8 -12 12 -33q6 -12 6 -31zM2333 -257l2 -9v-10q0 -22 -9 -37q-1 -2 -6.5 -11t-16.5 -19q-15 -14 -32 -17q-14 -9 -39 -9q-21 0 -42 9q-15 5 -32 22q-11 8 -15 17q-1 1 -2 2.5t-2 4.5
q-3 3 -3 9v1q0 1 2 2t5 1q-2 0 6 5q4 0 6 2t3 2h11q7 0 11 -4q7 0 13 -3q1 -1 10 -7l8 -4l10 -4q9 -3 11 -3q11 0 16 4q3 1 5.5 2t4.5 2l8 4q6 4 11 12l6 11q3 3 3 6q0 10 -10 17q-4 6 -10 6q-3 6 -8 8q-4 0 -10 3q-8 1 -19 9l-14 4q-11 2 -28 13q-12 8 -23 20q-5 5 -7 13
q-8 13 -8 32q0 24 8 34q4 11 20 25l8 6q1 1 2.5 2t4.5 2q5 3 15 5l15 6q7 0 10 1h10q9 0 24 -7l10 -3q10 -3 15 -4q1 -3 7 -9l8 -9l9 -6q6 -6 7 -11l-11 -7q-3 -1 -6 -4q-6 -5 -14 -5h-16q-9 0 -9 3q-6 1 -9 4q-4 0 -4 1q-1 1 -5 1q-3 3 -6 3q-11 0 -17 -3q-5 0 -6 -1l-2 -2
l-5 -2q-4 -1 -6.5 -7t-2.5 -13q0 -9 3 -9l2 -6q3 0 4 -7q7 0 9 -1q3 -3 8 -3q8 -2 13 -5q7 -2 11 -6l13 -1q7 -7 14 -9l9 -3q4 -2 5 -4q12 -5 22 -20l8 -9q2 -4 8 -12q1 -3 1 -7v-4zM3011 -180q4 -13 4 -39q0 -27 -4 -38q-2 -12 -6 -19q-12 -29 -28 -44q-15 -13 -20 -16
q-2 -3 -15 -13q-8 -6 -17 -9q-16 -5 -20 -7q-6 -2 -8 -2q-7 0 -11 -1q-3 -1 -10 -1h-10q-30 0 -56 12q-27 11 -48 32q-22 22 -32 46q-10 33 -10 60v10q0 6 1 10l4 20q2 12 5 18l6 7q1 3 2 4.5t2 2.5q5 20 22 32q15 16 31 23q14 10 34 15l11 3l19 4h9q21 0 39 -7
q20 -4 37 -15q8 -3 15 -10q6 -4 10 -7l8 -6q3 -5 6 -6q4 -4 5 -7q9 -9 10 -19q11 -12 15 -33zM139 -73h214v-32q0 -10 -4 -14q-2 -2 -6 -4l-141 -195l2 1h148v-50h-224v18q0 8 0.5 11.5t2.5 7t4 5.5q6 7 6 15l5 4l3 5l128 178h-138v50zM389 -73h189v-50h-136v-70h109v-52
h-109v-72h136v-50h-189v294zM809 -123h-82v-244h-53v244h-88v50h223v-50zM944 -73l127 -294h-31q-7 0 -13 2t-11 5q-3 1 -7 7q-1 4 -7 10l-17 38h-133l-14 -38l-5 -5l-4 -3q-1 -5 -3.5 -6.5t-3.5 -2.5q-3 0 -5 -3q-7 -4 -11 -4h-37l128 294h47zM1084 -73h187v-50h-137v-77
h114v-53h-114v-114h-50v294zM1831 -73h52v-294h-50l-137 198q-1 0 -1 2q0 1 -1 1q-1 1 -3 1l-3 6l-2 4q-4 0 -4 2q-1 1 0 2l-1 2l-2 2l-2 4v-224h-55v294h49q4 0 10 -2l8 -3q2 -1 4 -1t3 -1l4 -4l31 -44q15 -23 27 -45q19 -21 34 -41q4 -9 14 -21q5 -7 17 -21l2 -5l1 -4
q0 -3 2 -7q3 -6 3 -8v207zM1910 -73h223v-50h-87v-244h-52v244h-84v50zM3328 -73h52v-294h-52v216q-2 -6 -2 -7q-2 -2 -4 -7t-2 -9v-6q-3 -7 -5.5 -12.5t-4.5 -9.5q-3 -6 -19 -46q-3 -8 -11 -24l-9 -23l-10 -23l-9 -24l-9 -25h-50l-76 187q-3 4 -3 15q-5 7 -5 11v-213h-55
v294h51q6 0 9 -1q4 -4 10 -4q3 0 5 -1l6 -6q8 -8 9 -12q2 -7 8 -21l8 -21l10 -23q6 -14 7 -21q4 -9 19 -46q8 -25 18 -43v-14q4 0 4 -6q0 6 1 6v6q0 3 1 3v5l13 19l59 156l3 6l2 6l3 2l3 2q3 1 3 2q1 1 5 1q5 0 6 1q2 0 3 1l2 2q1 1 6 1zM1532 -219q0 19 -7 36q-2 11 -7 18
t-15 14q-16 16 -30 19q-20 9 -38 9q-15 0 -37 -9q-17 -7 -27 -19q-9 -7 -14 -13.5t-9 -18.5q-5 -13 -5 -36q0 -26 5 -37q4 -12 9 -18.5t14 -11.5q3 -6 7.5 -8.5t5.5 -3.5l8 -4q4 -4 6 -5q19 -10 37 -10q21 0 38 10q4 2 13.5 7t16.5 14q17 9 22 30q7 15 7 37zM2961 -219
q0 6 -2 18q-1 4 -4 16.5t-8 19.5q-10 13 -11 14q-15 15 -32 19q-9 9 -38 9q-15 0 -35 -9q-6 -1 -16 -7q-3 -3 -12.5 -11t-14.5 -15q-8 -13 -10 -18q-5 -22 -5 -36q0 -17 5 -37q9 -23 22 -30q9 -9 18 -14t13 -7q17 -10 35 -10q27 0 38 10l18 9q8 5 14 12q12 9 19 30
q6 13 6 37zM961 -253l-36 93v1v2q-1 0 -1 2q-3 0 -3 4v-2l-1 -2q-3 -5 -4 -5l-38 -93h83zM2415 -330v-6q0 -10 -1.5 -14.5t-7.5 -9.5q-3 0 -5 -2l-4 -5q-6 -2 -14 -2h-6q-3 0 -5 2q-3 3 -6 4q-7 5 -9 8q-4 4 -5 6q-3 9 -3 13v6q0 5 3 5l3 4l2 3q0 1 3 1q6 10 12 10q2 2 5 2
h6h5q7 0 10 -2t8 -10q8 0 8 -8q1 0 1 -5z" />
    <glyph glyph-name="eight" unicode="8" 
d="M3380 256h-3241v789h1227q0 91 32 154q21 44 40 74t46 52q56 53 124 81q65 31 150 31q94 0 156 -33q75 -31 128 -87q48 -52 82 -123q26 -70 26 -149h1230v-789zM1898 707q59 25 117 78q50 54 78 116q29 72 29 142q0 74 -21 125q-13 32 -26 56.5t-32 45.5q-17 21 -36.5 38
t-47.5 38q-30 13 -52 25q-28 13 -54 20q-19 8 -41 10.5t-54 2.5q-84 0 -143 -31q-65 -26 -115 -77q-41 -46 -73 -115q-29 -64 -29 -138q0 -71 29 -137q29 -65 75 -116q48 -51 116 -80q65 -30 140 -30q67 0 140 27zM1975 1285h-435q52 44 103 61q51 24 115 24q62 0 121 -24
q57 -24 96 -61zM2079.5 981.5q-3.5 -26.5 -13.5 -50.5q-19 -44 -57 -97h-431l423 428q82 -103 82 -219q0 -35 -3.5 -61.5zM1941 1251l-426 -426q-31 36 -62 99q-19 43 -19 119q0 62 18 112q9 24 21.5 46t32.5 50h435zM1544 801h432q-47 -42 -97 -64q-38 -11 -65.5 -16.5
t-55.5 -5.5q-45 0 -115 22q-51 21 -99 64zM529 461q0 31 -5 46q-4 14 -20 28q-14 9 -40 9t-42 -10q-14 -11 -20 -30q-4 -16 -4 -40q0 -27 6 -44q2 -9 7 -15t14 -14q14 -8 39 -8q26 0 40 10.5t20 29.5q5 14 5 38zM798 464q0 34 13 47q9 12 31 12q17 0 25 -6q12 -12 13 -25h25
q-1 17 -16 37q-15 15 -47 15q-27 0 -44 -10q-14 -14 -18 -30q-5 -15 -5 -40q0 -26 7 -44q4 -17 20 -29q18 -8 40 -8q42 0 56 28q6 16 7 27h-25q-2 -18 -13 -26.5t-25 -8.5q-16 0 -24 5q-9 9 -15 20q-5 18 -5 36zM1058 461q0 26 -5 46q-8 20 -22 28q-12 9 -38 9
q-27 0 -43 -10q-14 -16 -19 -30q-5 -22 -5 -40q0 -31 8 -44q4 -16 19 -29q18 -8 40 -8q48 0 61 40q4 15 4 38zM1775 464q0 33 11 47q12 12 31 12q16 0 27 -6q6 -6 9 -14.5t4 -10.5h25q-3 13 -6.5 21t-11.5 16t-19 11.5t-28 3.5q-26 0 -42 -10q-15 -15 -19 -30q-5 -22 -5 -40
q0 -27 6 -44q5 -17 22 -29q14 -8 38 -8t38 8q2 2 10 7.5t11 12.5q2 12 6 27h-26q-2 -9 -4.5 -16.5t-7.5 -10.5q-14 -8 -27 -8q-28 0 -36 25q-6 15 -6 36zM2561 428q0 14 -8 24q-6 9 -16 15l-9 3l-12 4l-6 1l-9 2q-7 1 -20 5q-6 2 -10 9q-1 1 -1 2.5t-1 2.5q-2 2 -2 6
q0 2 2 6q1 1 1 3t1 4q4 7 19 9q4 1 11 1q19 0 46 -9l3 18q-4 3 -13 5l-12 3q-18 2 -23 2q-21 0 -31 -5q-14 -4 -20 -14q-8 -14 -8 -21q-1 -1 -1 -3v-2q0 -12 9 -23q3 -6 19 -15l10 -3l14 -4q8 -2 12 -2q11 -2 18 -5q3 -2 5 -5q5 -8 5 -15q0 -9 -6 -14.5t-19 -8.5
q-3 -1 -9 -1h-10q-12 0 -23 4l-12 4l-13 4l-3 -19q3 -1 12 -5t19 -5q11 -3 28 -3q22 0 31 4l14 9l10 8l5 12q3 6 3 12zM2905 461q0 31 -5 46q-7 19 -21 28t-38 9q-27 0 -43 -10q-14 -11 -20 -30q-4 -12 -4 -40q0 -27 6 -44q4 -14 21 -29q14 -8 40 -8q27 0 40 11
q8 6 12.5 12.5t7.5 16.5q4 13 4 38zM365 542h-24v-119l-1 4l-6 8l-66 107h-29l3 -20v-136h23v118l3 -3l2 -7l70 -108h25v156zM687 542h-23v-119l-5 4l-3 8l-67 107h-28l1 -20v-136h23v118l4 -3l3 -7l68 -108h27v156zM1243 386l-4 156h-24l-50 -103l-3 -6l-51 109h-25l1 -17
l-5 -139h23l5 116l5 -10l40 -91h16l41 91l5 9h1l3 -115h22zM1437 386l-6 156h-24l-50 -103l-2 -6h-1l-51 109h-25l1 -17l-5 -139h25l2 116h1l4 -10l40 -91h15l43 91l3 9h2l3 -115h25zM1577 404h-80v50h62l2 20h-64v48h77l2 20h-104l1 -20v-136h104v18zM1735.5 390
q1.5 1 4.5 2l-8 14l-8 -3q0 -1 -1 -1h-3q-9 0 -15 5q-9 9 -10 15l-6 11q-4 4 -9 14q18 1 31 14q6 6 8.5 13.5t2.5 19.5q0 37 -34 46q-16 2 -25 2h-58l3 -20v-136h24v60h25l8 -13q5 -14 14 -29q2 -11 15 -15q6 -6 20 -6q7 0 10 3q3 0 9 2q1 1 2.5 2zM1934 542h-26l2 -20v-136
h24v156zM2100 386l-10 17l-54 139h-21l-60 -156h25l13 36l3 -9h66l10 -27h28zM2217 404h-73v138h-23v-136l-2 -20h98v18zM2418 542h-24v-84q0 -31 -11 -42q-7 -13 -29 -13q-20 0 -32 13q-7 13 -7 42v84h-28l4 -20v-66q0 -42 14 -56q20 -17 49 -17q64 0 64 73v86zM2697 404
h-80v50h62l3 20h-65v48h76l3 20h-105l2 -20v-136h104v18zM3062 542h-22v-119l-4 4l-5 8l-66 107h-28l2 -20v-136h22v118l4 -3l4 -7l67 -108h26v156zM3199 404h-72v138h-24v-136l-2 -20h98v18zM3309 542h-23l-39 -67l-2 -8l-2 8l-41 67h-24v-20h8l45 -75v-61h25v60zM501 499
q4 -9 4 -38q0 -30 -10 -44t-31 -14q-17 0 -25 6t-11 19q-6 15 -6 36q0 33 10 47q12 12 32 12q15 0 24 -4q5 -4 13 -20zM1029 499q4 -7 4 -38q0 -32 -10 -45t-30 -13q-30 0 -38 25q-5 18 -5 36q0 34 13 47q8 12 30 12q15 0 23 -4q7 -4 13 -20zM2877 499q3 -7 3 -38t-10 -45
q-7 -13 -29 -13q-18 0 -23 5q-12 7 -14 20q-6 22 -6 36q0 33 10 47q12 12 33 12q13 0 24 -4q4 -4 12 -20zM1694 475q-8 -8 -15 -8t-10 -1q-8 -2 -14 -2h-23v58h23q17 0 24 -3q10 -2 14 -8.5t4 -18.5t-3 -17zM2030 497l26 -64h-57l24 64l4 14zM132 45q-6 14 -9 34
q-2 18 -2 31q0 18 1 28t6 20q5 23 23 36q15 15 51 15q42 0 58 -19q19 -16 22 -47h-29q-4 22 -19 33q-5 5 -12 6.5t-20 1.5q-15 0 -27 -6q-15 -10 -18 -23q-6 -16 -6 -45t6 -44q3 -17 17 -25t28 -8q23 0 37.5 12.5t14.5 39.5h-34v24h63v-39q-1 -3 -1 -6.5t-1 -6.5
q-3 -15 -16 -28q-16 -14 -35 -18q-12 -3 -28 -3q-27 0 -47 13q-17 10 -23 24zM2042 45q1 2 5 7t4 12q0 9 -7 17t-18 10q-11 4 -27 6q-25 8 -31 11q-12 3 -24 17q-8 11 -8 29v5q0 10 9 26q3 4 11 10l14 8q18 6 39 6q15 0 27 -4l17 -4q7 -1 16 -5l-2 -23q-33 11 -59 11
q-8 0 -24 -2l-8 -5q-9 -5 -9 -20q0 -11 3 -17l6 -3q1 -1 2.5 -2t4.5 -2q5 -3 25 -8l13 -2l5 -2q13 -4 16 -5q4 -1 12 -5q11 -3 18 -16q9 -6 9 -29q0 -38 -37 -50q-16 -8 -42 -8q-20 0 -33 6q-22 3 -37 10l2 25q22 -8 34 -9l14 -4l13 -3q13 0 24 4q9 0 23 8zM2322 197
q18 -12 26 -33.5t8 -55.5q0 -26 -7 -49q-3 -17 -24 -36q-16 -15 -52 -15q-26 0 -48 13q-20 12 -25 33q-8 17 -8 56q0 29 5 48q7 23 25.5 37t50.5 14q31 0 49 -12zM3084 8q-25 0 -49 13q-18 11 -25 33q-7 26 -7 56q0 29 5 48q4 20 25 36q17 15 52 15q30 0 48 -12
q19 -11 26.5 -32t7.5 -57q0 -26 -7 -49q-3 -17 -24 -36q-18 -15 -52 -15zM322 14v167l-3 24h129l-2 -24h-94v-60h78l-1 -24h-77v-60h99v-23h-129zM520 14v167h-56l-3 24h146l-2 -24h-55v-167h-30zM737 181v-64h80l-3 -24h-77v-79h-29v167l-1 24h131l-2 -24h-99zM855 101v80
l-2 24h31v-104q0 -32 12.5 -50t37.5 -18q24 0 39 18q11 19 11 50v104h30v-105q0 -47 -20 -70q-25 -22 -60 -22q-36 0 -58 22q-21 24 -21 71zM1089 205v-168h89v-23h-122l3 23v168h30zM1236 205v-168h90v-23h-121l3 23v168h28zM1492 67l53 138h29l-75 -191h-26l-67 168
l-10 23h33l53 -138l4 -18h1zM1597 14v167l-2 24h129l-1 -24h-96v-60h79l-2 -24h-77v-60h99v-23h-129zM1914.5 14q-1.5 -1 -4.5 -2q-7 -4 -15 -4q-13 0 -26 9q-13 6 -17 19q-4 4 -9 14l-10 20l-8 16h-31v-72h-30v167l-1 24h68q34 0 53 -13q21 -13 21 -45q0 -21 -13 -41
q-15 -15 -38 -19q0 -1 10 -17l7 -14q4 -7 13 -16q1 -1 6.5 -4t11.5 -3q5 0 8 1l4 2q2 0 3 1l8 -16l-8 -5q-1 -1 -2.5 -2zM2122 14v167l-2 24h31v-191h-29zM2519 14l-87 133l-4 8l-3 4v-145h-29v168l-3 23h35l84 -131l5 -10l4 -5v146h30v-191h-32zM2774 93h-76v-79h-28v167
l-3 24h131l-3 -24h-97v-64h79zM2824 14v167l-1 24h69q73 0 73 -58q0 -49 -50 -60q3 -7 9 -17l7 -14q17 -23 30 -23q8 0 9 1l4 2q2 0 3 1l8 -16q-7 -6 -15 -9q-7 -4 -15 -4q-13 0 -26 9q-9 5 -13.5 11t-7 12.5t-4.5 9.5l-10 20l-8 16h-31v-72h-31zM3360 205h32l6 -191h-30
l-4 141h-3l-4 -13l-51 -112h-18l-54 112l-2 13h-1l-4 -141h-30l7 171l-3 20h32l64 -134l2 7zM2325 108q0 27 -5 46q-12 30 -47 30q-51 0 -51 -74q0 -18 1 -27.5t6 -16.5q4 -19 16 -25q13 -8 28 -8q52 0 52 75zM3057 41q11 -8 28 -8q23 0 39 18q11 17 11 57q0 25 -3 46
q-5 14 -18 23q-10 7 -29 7q-22 0 -39 -17q-13 -16 -13 -57q0 -31 7 -44q6 -20 17 -25zM1853 112.5q11 2.5 17 10.5q5 7 5 21q0 15 -5 23q-9 12 -31 14h-16h-29v-71h29q19 0 30 2.5zM2855 110h29q39 0 45 13q6 6 6 21t-5 22.5t-19 11.5q-7 3 -27 3h-29v-71zM2494 -193.5
q-1 -4.5 -2 -7.5q-3 -9 -3 -18t3 -19q1 -6 2 -10.5t2 -7.5q5 -10 10 -17.5t11 -12.5q12 -13 32 -22t36 -9q6 0 8 1l13 4q5 0 21 7q5 1 12 8q6 1 10 5h10q13 0 17 -4q6 -1 8 -4.5t3 -4.5l11 -12q-10 -12 -22 -19q-7 -5 -8 -5q-3 -1 -4.5 -2t-2.5 -2q-7 -6 -15 -9
q-4 -4 -14 -6q-12 -2 -17 -5q-7 -4 -30 -4q-29 0 -59 12q-52 25 -79 78q-5 16 -8.5 30.5t-3.5 29.5q0 9 4 20q1 16 7 38q1 1 2 2.5t2 4.5q2 4 4 7q18 26 24 32l17 13l9 6q3 1 4.5 2t2.5 2q15 11 35 15q21 7 39 7h7q16 0 23 -7q16 -1 31 -7l8 -5q4 -3 7.5 -4.5t6.5 -3.5
q1 0 8 -5q14 -9 22 -21l-11 -12q-1 -3 -5 -7q-6 -6 -15 -6h-8q-12 0 -20 6q-2 1 -6 5l-7 3q-4 2 -26 10q-3 1 -15 1q-16 0 -36 -9q-10 -2 -18 -7.5t-14 -11.5l-10 -14l-11 -18q-1 -6 -2 -10.5zM1585 -211v-17q0 -18 -6 -29q-2 -11 -6 -22t-6 -17q-1 -3 -5 -7q-6 -5 -12 -15
q-2 -3 -15 -13l-7 -5q-16 -18 -32 -22l-19 -7q-6 -2 -10 -2q-7 0 -10 -1q-4 -1 -10 -1h-12q-26 0 -58 12q-12 5 -24 14l-24 18q-2 2 -12.5 16.5t-16.5 29.5l-9 30q-4 12 -4 30q0 19 6 39q7 25 15 33l11 19q6 12 19 20l9 6q5 6 14 11l16 9l11 3l10 2q21 7 37 7h12q3 -1 10 -1
l10 -3l10 -3q10 -1 19 -5q4 -3 18 -10q7 -3 14 -10q3 -3 16 -13l11 -13q7 -8 12 -19q8 -12 12 -33q6 -12 6 -31zM2333 -257l2 -9v-10q0 -22 -9 -37q-1 -2 -6.5 -11t-16.5 -19q-15 -14 -32 -17q-14 -9 -39 -9q-21 0 -42 9q-15 5 -32 22q-11 8 -15 17q-1 1 -2 2.5t-2 4.5
q-3 3 -3 9v1q0 1 2 2t5 1q-2 0 6 5q4 0 6 2t3 2h11q7 0 11 -4q7 0 13 -3q1 -1 10 -7l8 -4l10 -4q9 -3 11 -3q11 0 16 4q3 1 5.5 2t4.5 2l8 4q6 4 11 12l6 11q3 3 3 6q0 10 -10 17q-4 6 -10 6q-3 6 -8 8q-4 0 -10 3q-8 1 -19 9l-14 4q-11 2 -28 13q-12 8 -23 20q-5 5 -7 13
q-8 13 -8 32q0 24 8 34q4 11 20 25l8 6q1 1 2.5 2t4.5 2q5 3 15 5l15 6q7 0 10 1h10q9 0 24 -7l10 -3q10 -3 15 -4q1 -3 7 -9l8 -9l9 -6q6 -6 7 -11l-11 -7q-3 -1 -6 -4q-6 -5 -14 -5h-16q-9 0 -9 3q-6 1 -9 4q-4 0 -4 1q-1 1 -5 1q-3 3 -6 3q-11 0 -17 -3q-5 0 -6 -1l-2 -2
l-5 -2q-4 -1 -6.5 -7t-2.5 -13q0 -9 3 -9l2 -6q3 0 4 -7q7 0 9 -1q3 -3 8 -3q8 -2 13 -5q7 -2 11 -6l13 -1q7 -7 14 -9l9 -3q4 -2 5 -4q12 -5 22 -20l8 -9q2 -4 8 -12q1 -3 1 -7v-4zM3011 -180q4 -13 4 -39q0 -27 -4 -38q-2 -12 -6 -19q-12 -29 -28 -44q-15 -13 -20 -16
q-2 -3 -15 -13q-8 -6 -17 -9q-16 -5 -20 -7q-6 -2 -8 -2q-7 0 -11 -1q-3 -1 -10 -1h-10q-30 0 -56 12q-27 11 -48 32q-22 22 -32 46q-10 33 -10 60v10q0 6 1 10l4 20q2 12 5 18l6 7q1 3 2 4.5t2 2.5q5 20 22 32q15 16 31 23q14 10 34 15l11 3l19 4h9q21 0 39 -7
q20 -4 37 -15q8 -3 15 -10q6 -4 10 -7l8 -6q3 -5 6 -6q4 -4 5 -7q9 -9 10 -19q11 -12 15 -33zM139 -73h214v-32q0 -10 -4 -14q-2 -2 -6 -4l-141 -195l2 1h148v-50h-224v18q0 8 0.5 11.5t2.5 7t4 5.5q6 7 6 15l5 4l3 5l128 178h-138v50zM389 -73h189v-50h-136v-70h109v-52
h-109v-72h136v-50h-189v294zM809 -123h-82v-244h-53v244h-88v50h223v-50zM944 -73l127 -294h-31q-7 0 -13 2t-11 5q-3 1 -7 7q-1 4 -7 10l-17 38h-133l-14 -38l-5 -5l-4 -3q-1 -5 -3.5 -6.5t-3.5 -2.5q-3 0 -5 -3q-7 -4 -11 -4h-37l128 294h47zM1084 -73h187v-50h-137v-77
h114v-53h-114v-114h-50v294zM1831 -73h52v-294h-50l-137 198q-1 0 -1 2q0 1 -1 1q-1 1 -3 1l-3 6l-2 4q-4 0 -4 2q-1 1 0 2l-1 2l-2 2l-2 4v-224h-55v294h49q4 0 10 -2l8 -3q2 -1 4 -1t3 -1l4 -4l31 -44q15 -23 27 -45q19 -21 34 -41q4 -9 14 -21q5 -7 17 -21l2 -5l1 -4
q0 -3 2 -7q3 -6 3 -8v207zM1910 -73h223v-50h-87v-244h-52v244h-84v50zM3328 -73h52v-294h-52v216q-2 -6 -2 -7q-2 -2 -4 -7t-2 -9v-6q-3 -7 -5.5 -12.5t-4.5 -9.5q-3 -6 -19 -46q-3 -8 -11 -24l-9 -23l-10 -23l-9 -24l-9 -25h-50l-76 187q-3 4 -3 15q-5 7 -5 11v-213h-55
v294h51q6 0 9 -1q4 -4 10 -4q3 0 5 -1l6 -6q8 -8 9 -12q2 -7 8 -21l8 -21l10 -23q6 -14 7 -21q4 -9 19 -46q8 -25 18 -43v-14q4 0 4 -6q0 6 1 6v6q0 3 1 3v5l13 19l59 156l3 6l2 6l3 2l3 2q3 1 3 2q1 1 5 1q5 0 6 1q2 0 3 1l2 2q1 1 6 1zM1532 -219q0 19 -7 36q-2 11 -7 18
t-15 14q-16 16 -30 19q-20 9 -38 9q-15 0 -37 -9q-17 -7 -27 -19q-9 -7 -14 -13.5t-9 -18.5q-5 -13 -5 -36q0 -26 5 -37q4 -12 9 -18.5t14 -11.5q3 -6 7.5 -8.5t5.5 -3.5l8 -4q4 -4 6 -5q19 -10 37 -10q21 0 38 10q4 2 13.5 7t16.5 14q17 9 22 30q7 15 7 37zM2961 -219
q0 6 -2 18q-1 4 -4 16.5t-8 19.5q-10 13 -11 14q-15 15 -32 19q-9 9 -38 9q-15 0 -35 -9q-6 -1 -16 -7q-3 -3 -12.5 -11t-14.5 -15q-8 -13 -10 -18q-5 -22 -5 -36q0 -17 5 -37q9 -23 22 -30q9 -9 18 -14t13 -7q17 -10 35 -10q27 0 38 10l18 9q8 5 14 12q12 9 19 30
q6 13 6 37zM961 -253l-36 93v1v2q-1 0 -1 2q-3 0 -3 4v-2l-1 -2q-3 -5 -4 -5l-38 -93h83zM2415 -330v-6q0 -10 -1.5 -14.5t-7.5 -9.5q-3 0 -5 -2l-4 -5q-6 -2 -14 -2h-6q-3 0 -5 2q-3 3 -6 4q-7 5 -9 8q-4 4 -5 6q-3 9 -3 13v6q0 5 3 5l3 4l2 3q0 1 3 1q6 10 12 10q2 2 5 2
h6h5q7 0 10 -2t8 -10q8 0 8 -8q1 0 1 -5z" />
    <glyph glyph-name="nine" unicode="9" 
d="M3380 256h-3241v789h1227q0 91 32 154q21 44 40 74t46 52q56 53 124 81q65 31 150 31q94 0 156 -33q75 -31 128 -87q48 -52 82 -123q26 -70 26 -149h1230v-789zM1898 707q59 25 117 78q50 54 78 116q29 72 29 142q0 74 -21 125q-13 32 -26 56.5t-32 45.5q-17 21 -36.5 38
t-47.5 38q-30 13 -52 25q-28 13 -54 20q-19 8 -41 10.5t-54 2.5q-84 0 -143 -31q-65 -26 -115 -77q-41 -46 -73 -115q-29 -64 -29 -138q0 -71 29 -137q29 -65 75 -116q48 -51 116 -80q65 -30 140 -30q67 0 140 27zM1975 1285h-435q52 44 103 61q51 24 115 24q62 0 121 -24
q57 -24 96 -61zM2079.5 981.5q-3.5 -26.5 -13.5 -50.5q-19 -44 -57 -97h-431l423 428q82 -103 82 -219q0 -35 -3.5 -61.5zM1941 1251l-426 -426q-31 36 -62 99q-19 43 -19 119q0 62 18 112q9 24 21.5 46t32.5 50h435zM1544 801h432q-47 -42 -97 -64q-38 -11 -65.5 -16.5
t-55.5 -5.5q-45 0 -115 22q-51 21 -99 64zM529 461q0 31 -5 46q-4 14 -20 28q-14 9 -40 9t-42 -10q-14 -11 -20 -30q-4 -16 -4 -40q0 -27 6 -44q2 -9 7 -15t14 -14q14 -8 39 -8q26 0 40 10.5t20 29.5q5 14 5 38zM798 464q0 34 13 47q9 12 31 12q17 0 25 -6q12 -12 13 -25h25
q-1 17 -16 37q-15 15 -47 15q-27 0 -44 -10q-14 -14 -18 -30q-5 -15 -5 -40q0 -26 7 -44q4 -17 20 -29q18 -8 40 -8q42 0 56 28q6 16 7 27h-25q-2 -18 -13 -26.5t-25 -8.5q-16 0 -24 5q-9 9 -15 20q-5 18 -5 36zM1058 461q0 26 -5 46q-8 20 -22 28q-12 9 -38 9
q-27 0 -43 -10q-14 -16 -19 -30q-5 -22 -5 -40q0 -31 8 -44q4 -16 19 -29q18 -8 40 -8q48 0 61 40q4 15 4 38zM1775 464q0 33 11 47q12 12 31 12q16 0 27 -6q6 -6 9 -14.5t4 -10.5h25q-3 13 -6.5 21t-11.5 16t-19 11.5t-28 3.5q-26 0 -42 -10q-15 -15 -19 -30q-5 -22 -5 -40
q0 -27 6 -44q5 -17 22 -29q14 -8 38 -8t38 8q2 2 10 7.5t11 12.5q2 12 6 27h-26q-2 -9 -4.5 -16.5t-7.5 -10.5q-14 -8 -27 -8q-28 0 -36 25q-6 15 -6 36zM2561 428q0 14 -8 24q-6 9 -16 15l-9 3l-12 4l-6 1l-9 2q-7 1 -20 5q-6 2 -10 9q-1 1 -1 2.5t-1 2.5q-2 2 -2 6
q0 2 2 6q1 1 1 3t1 4q4 7 19 9q4 1 11 1q19 0 46 -9l3 18q-4 3 -13 5l-12 3q-18 2 -23 2q-21 0 -31 -5q-14 -4 -20 -14q-8 -14 -8 -21q-1 -1 -1 -3v-2q0 -12 9 -23q3 -6 19 -15l10 -3l14 -4q8 -2 12 -2q11 -2 18 -5q3 -2 5 -5q5 -8 5 -15q0 -9 -6 -14.5t-19 -8.5
q-3 -1 -9 -1h-10q-12 0 -23 4l-12 4l-13 4l-3 -19q3 -1 12 -5t19 -5q11 -3 28 -3q22 0 31 4l14 9l10 8l5 12q3 6 3 12zM2905 461q0 31 -5 46q-7 19 -21 28t-38 9q-27 0 -43 -10q-14 -11 -20 -30q-4 -12 -4 -40q0 -27 6 -44q4 -14 21 -29q14 -8 40 -8q27 0 40 11
q8 6 12.5 12.5t7.5 16.5q4 13 4 38zM365 542h-24v-119l-1 4l-6 8l-66 107h-29l3 -20v-136h23v118l3 -3l2 -7l70 -108h25v156zM687 542h-23v-119l-5 4l-3 8l-67 107h-28l1 -20v-136h23v118l4 -3l3 -7l68 -108h27v156zM1243 386l-4 156h-24l-50 -103l-3 -6l-51 109h-25l1 -17
l-5 -139h23l5 116l5 -10l40 -91h16l41 91l5 9h1l3 -115h22zM1437 386l-6 156h-24l-50 -103l-2 -6h-1l-51 109h-25l1 -17l-5 -139h25l2 116h1l4 -10l40 -91h15l43 91l3 9h2l3 -115h25zM1577 404h-80v50h62l2 20h-64v48h77l2 20h-104l1 -20v-136h104v18zM1735.5 390
q1.5 1 4.5 2l-8 14l-8 -3q0 -1 -1 -1h-3q-9 0 -15 5q-9 9 -10 15l-6 11q-4 4 -9 14q18 1 31 14q6 6 8.5 13.5t2.5 19.5q0 37 -34 46q-16 2 -25 2h-58l3 -20v-136h24v60h25l8 -13q5 -14 14 -29q2 -11 15 -15q6 -6 20 -6q7 0 10 3q3 0 9 2q1 1 2.5 2zM1934 542h-26l2 -20v-136
h24v156zM2100 386l-10 17l-54 139h-21l-60 -156h25l13 36l3 -9h66l10 -27h28zM2217 404h-73v138h-23v-136l-2 -20h98v18zM2418 542h-24v-84q0 -31 -11 -42q-7 -13 -29 -13q-20 0 -32 13q-7 13 -7 42v84h-28l4 -20v-66q0 -42 14 -56q20 -17 49 -17q64 0 64 73v86zM2697 404
h-80v50h62l3 20h-65v48h76l3 20h-105l2 -20v-136h104v18zM3062 542h-22v-119l-4 4l-5 8l-66 107h-28l2 -20v-136h22v118l4 -3l4 -7l67 -108h26v156zM3199 404h-72v138h-24v-136l-2 -20h98v18zM3309 542h-23l-39 -67l-2 -8l-2 8l-41 67h-24v-20h8l45 -75v-61h25v60zM501 499
q4 -9 4 -38q0 -30 -10 -44t-31 -14q-17 0 -25 6t-11 19q-6 15 -6 36q0 33 10 47q12 12 32 12q15 0 24 -4q5 -4 13 -20zM1029 499q4 -7 4 -38q0 -32 -10 -45t-30 -13q-30 0 -38 25q-5 18 -5 36q0 34 13 47q8 12 30 12q15 0 23 -4q7 -4 13 -20zM2877 499q3 -7 3 -38t-10 -45
q-7 -13 -29 -13q-18 0 -23 5q-12 7 -14 20q-6 22 -6 36q0 33 10 47q12 12 33 12q13 0 24 -4q4 -4 12 -20zM1694 475q-8 -8 -15 -8t-10 -1q-8 -2 -14 -2h-23v58h23q17 0 24 -3q10 -2 14 -8.5t4 -18.5t-3 -17zM2030 497l26 -64h-57l24 64l4 14zM132 45q-6 14 -9 34
q-2 18 -2 31q0 18 1 28t6 20q5 23 23 36q15 15 51 15q42 0 58 -19q19 -16 22 -47h-29q-4 22 -19 33q-5 5 -12 6.5t-20 1.5q-15 0 -27 -6q-15 -10 -18 -23q-6 -16 -6 -45t6 -44q3 -17 17 -25t28 -8q23 0 37.5 12.5t14.5 39.5h-34v24h63v-39q-1 -3 -1 -6.5t-1 -6.5
q-3 -15 -16 -28q-16 -14 -35 -18q-12 -3 -28 -3q-27 0 -47 13q-17 10 -23 24zM2042 45q1 2 5 7t4 12q0 9 -7 17t-18 10q-11 4 -27 6q-25 8 -31 11q-12 3 -24 17q-8 11 -8 29v5q0 10 9 26q3 4 11 10l14 8q18 6 39 6q15 0 27 -4l17 -4q7 -1 16 -5l-2 -23q-33 11 -59 11
q-8 0 -24 -2l-8 -5q-9 -5 -9 -20q0 -11 3 -17l6 -3q1 -1 2.5 -2t4.5 -2q5 -3 25 -8l13 -2l5 -2q13 -4 16 -5q4 -1 12 -5q11 -3 18 -16q9 -6 9 -29q0 -38 -37 -50q-16 -8 -42 -8q-20 0 -33 6q-22 3 -37 10l2 25q22 -8 34 -9l14 -4l13 -3q13 0 24 4q9 0 23 8zM2322 197
q18 -12 26 -33.5t8 -55.5q0 -26 -7 -49q-3 -17 -24 -36q-16 -15 -52 -15q-26 0 -48 13q-20 12 -25 33q-8 17 -8 56q0 29 5 48q7 23 25.5 37t50.5 14q31 0 49 -12zM3084 8q-25 0 -49 13q-18 11 -25 33q-7 26 -7 56q0 29 5 48q4 20 25 36q17 15 52 15q30 0 48 -12
q19 -11 26.5 -32t7.5 -57q0 -26 -7 -49q-3 -17 -24 -36q-18 -15 -52 -15zM322 14v167l-3 24h129l-2 -24h-94v-60h78l-1 -24h-77v-60h99v-23h-129zM520 14v167h-56l-3 24h146l-2 -24h-55v-167h-30zM737 181v-64h80l-3 -24h-77v-79h-29v167l-1 24h131l-2 -24h-99zM855 101v80
l-2 24h31v-104q0 -32 12.5 -50t37.5 -18q24 0 39 18q11 19 11 50v104h30v-105q0 -47 -20 -70q-25 -22 -60 -22q-36 0 -58 22q-21 24 -21 71zM1089 205v-168h89v-23h-122l3 23v168h30zM1236 205v-168h90v-23h-121l3 23v168h28zM1492 67l53 138h29l-75 -191h-26l-67 168
l-10 23h33l53 -138l4 -18h1zM1597 14v167l-2 24h129l-1 -24h-96v-60h79l-2 -24h-77v-60h99v-23h-129zM1914.5 14q-1.5 -1 -4.5 -2q-7 -4 -15 -4q-13 0 -26 9q-13 6 -17 19q-4 4 -9 14l-10 20l-8 16h-31v-72h-30v167l-1 24h68q34 0 53 -13q21 -13 21 -45q0 -21 -13 -41
q-15 -15 -38 -19q0 -1 10 -17l7 -14q4 -7 13 -16q1 -1 6.5 -4t11.5 -3q5 0 8 1l4 2q2 0 3 1l8 -16l-8 -5q-1 -1 -2.5 -2zM2122 14v167l-2 24h31v-191h-29zM2519 14l-87 133l-4 8l-3 4v-145h-29v168l-3 23h35l84 -131l5 -10l4 -5v146h30v-191h-32zM2774 93h-76v-79h-28v167
l-3 24h131l-3 -24h-97v-64h79zM2824 14v167l-1 24h69q73 0 73 -58q0 -49 -50 -60q3 -7 9 -17l7 -14q17 -23 30 -23q8 0 9 1l4 2q2 0 3 1l8 -16q-7 -6 -15 -9q-7 -4 -15 -4q-13 0 -26 9q-9 5 -13.5 11t-7 12.5t-4.5 9.5l-10 20l-8 16h-31v-72h-31zM3360 205h32l6 -191h-30
l-4 141h-3l-4 -13l-51 -112h-18l-54 112l-2 13h-1l-4 -141h-30l7 171l-3 20h32l64 -134l2 7zM2325 108q0 27 -5 46q-12 30 -47 30q-51 0 -51 -74q0 -18 1 -27.5t6 -16.5q4 -19 16 -25q13 -8 28 -8q52 0 52 75zM3057 41q11 -8 28 -8q23 0 39 18q11 17 11 57q0 25 -3 46
q-5 14 -18 23q-10 7 -29 7q-22 0 -39 -17q-13 -16 -13 -57q0 -31 7 -44q6 -20 17 -25zM1853 112.5q11 2.5 17 10.5q5 7 5 21q0 15 -5 23q-9 12 -31 14h-16h-29v-71h29q19 0 30 2.5zM2855 110h29q39 0 45 13q6 6 6 21t-5 22.5t-19 11.5q-7 3 -27 3h-29v-71zM2494 -193.5
q-1 -4.5 -2 -7.5q-3 -9 -3 -18t3 -19q1 -6 2 -10.5t2 -7.5q5 -10 10 -17.5t11 -12.5q12 -13 32 -22t36 -9q6 0 8 1l13 4q5 0 21 7q5 1 12 8q6 1 10 5h10q13 0 17 -4q6 -1 8 -4.5t3 -4.5l11 -12q-10 -12 -22 -19q-7 -5 -8 -5q-3 -1 -4.5 -2t-2.5 -2q-7 -6 -15 -9
q-4 -4 -14 -6q-12 -2 -17 -5q-7 -4 -30 -4q-29 0 -59 12q-52 25 -79 78q-5 16 -8.5 30.5t-3.5 29.5q0 9 4 20q1 16 7 38q1 1 2 2.5t2 4.5q2 4 4 7q18 26 24 32l17 13l9 6q3 1 4.5 2t2.5 2q15 11 35 15q21 7 39 7h7q16 0 23 -7q16 -1 31 -7l8 -5q4 -3 7.5 -4.5t6.5 -3.5
q1 0 8 -5q14 -9 22 -21l-11 -12q-1 -3 -5 -7q-6 -6 -15 -6h-8q-12 0 -20 6q-2 1 -6 5l-7 3q-4 2 -26 10q-3 1 -15 1q-16 0 -36 -9q-10 -2 -18 -7.5t-14 -11.5l-10 -14l-11 -18q-1 -6 -2 -10.5zM1585 -211v-17q0 -18 -6 -29q-2 -11 -6 -22t-6 -17q-1 -3 -5 -7q-6 -5 -12 -15
q-2 -3 -15 -13l-7 -5q-16 -18 -32 -22l-19 -7q-6 -2 -10 -2q-7 0 -10 -1q-4 -1 -10 -1h-12q-26 0 -58 12q-12 5 -24 14l-24 18q-2 2 -12.5 16.5t-16.5 29.5l-9 30q-4 12 -4 30q0 19 6 39q7 25 15 33l11 19q6 12 19 20l9 6q5 6 14 11l16 9l11 3l10 2q21 7 37 7h12q3 -1 10 -1
l10 -3l10 -3q10 -1 19 -5q4 -3 18 -10q7 -3 14 -10q3 -3 16 -13l11 -13q7 -8 12 -19q8 -12 12 -33q6 -12 6 -31zM2333 -257l2 -9v-10q0 -22 -9 -37q-1 -2 -6.5 -11t-16.5 -19q-15 -14 -32 -17q-14 -9 -39 -9q-21 0 -42 9q-15 5 -32 22q-11 8 -15 17q-1 1 -2 2.5t-2 4.5
q-3 3 -3 9v1q0 1 2 2t5 1q-2 0 6 5q4 0 6 2t3 2h11q7 0 11 -4q7 0 13 -3q1 -1 10 -7l8 -4l10 -4q9 -3 11 -3q11 0 16 4q3 1 5.5 2t4.5 2l8 4q6 4 11 12l6 11q3 3 3 6q0 10 -10 17q-4 6 -10 6q-3 6 -8 8q-4 0 -10 3q-8 1 -19 9l-14 4q-11 2 -28 13q-12 8 -23 20q-5 5 -7 13
q-8 13 -8 32q0 24 8 34q4 11 20 25l8 6q1 1 2.5 2t4.5 2q5 3 15 5l15 6q7 0 10 1h10q9 0 24 -7l10 -3q10 -3 15 -4q1 -3 7 -9l8 -9l9 -6q6 -6 7 -11l-11 -7q-3 -1 -6 -4q-6 -5 -14 -5h-16q-9 0 -9 3q-6 1 -9 4q-4 0 -4 1q-1 1 -5 1q-3 3 -6 3q-11 0 -17 -3q-5 0 -6 -1l-2 -2
l-5 -2q-4 -1 -6.5 -7t-2.5 -13q0 -9 3 -9l2 -6q3 0 4 -7q7 0 9 -1q3 -3 8 -3q8 -2 13 -5q7 -2 11 -6l13 -1q7 -7 14 -9l9 -3q4 -2 5 -4q12 -5 22 -20l8 -9q2 -4 8 -12q1 -3 1 -7v-4zM3011 -180q4 -13 4 -39q0 -27 -4 -38q-2 -12 -6 -19q-12 -29 -28 -44q-15 -13 -20 -16
q-2 -3 -15 -13q-8 -6 -17 -9q-16 -5 -20 -7q-6 -2 -8 -2q-7 0 -11 -1q-3 -1 -10 -1h-10q-30 0 -56 12q-27 11 -48 32q-22 22 -32 46q-10 33 -10 60v10q0 6 1 10l4 20q2 12 5 18l6 7q1 3 2 4.5t2 2.5q5 20 22 32q15 16 31 23q14 10 34 15l11 3l19 4h9q21 0 39 -7
q20 -4 37 -15q8 -3 15 -10q6 -4 10 -7l8 -6q3 -5 6 -6q4 -4 5 -7q9 -9 10 -19q11 -12 15 -33zM139 -73h214v-32q0 -10 -4 -14q-2 -2 -6 -4l-141 -195l2 1h148v-50h-224v18q0 8 0.5 11.5t2.5 7t4 5.5q6 7 6 15l5 4l3 5l128 178h-138v50zM389 -73h189v-50h-136v-70h109v-52
h-109v-72h136v-50h-189v294zM809 -123h-82v-244h-53v244h-88v50h223v-50zM944 -73l127 -294h-31q-7 0 -13 2t-11 5q-3 1 -7 7q-1 4 -7 10l-17 38h-133l-14 -38l-5 -5l-4 -3q-1 -5 -3.5 -6.5t-3.5 -2.5q-3 0 -5 -3q-7 -4 -11 -4h-37l128 294h47zM1084 -73h187v-50h-137v-77
h114v-53h-114v-114h-50v294zM1831 -73h52v-294h-50l-137 198q-1 0 -1 2q0 1 -1 1q-1 1 -3 1l-3 6l-2 4q-4 0 -4 2q-1 1 0 2l-1 2l-2 2l-2 4v-224h-55v294h49q4 0 10 -2l8 -3q2 -1 4 -1t3 -1l4 -4l31 -44q15 -23 27 -45q19 -21 34 -41q4 -9 14 -21q5 -7 17 -21l2 -5l1 -4
q0 -3 2 -7q3 -6 3 -8v207zM1910 -73h223v-50h-87v-244h-52v244h-84v50zM3328 -73h52v-294h-52v216q-2 -6 -2 -7q-2 -2 -4 -7t-2 -9v-6q-3 -7 -5.5 -12.5t-4.5 -9.5q-3 -6 -19 -46q-3 -8 -11 -24l-9 -23l-10 -23l-9 -24l-9 -25h-50l-76 187q-3 4 -3 15q-5 7 -5 11v-213h-55
v294h51q6 0 9 -1q4 -4 10 -4q3 0 5 -1l6 -6q8 -8 9 -12q2 -7 8 -21l8 -21l10 -23q6 -14 7 -21q4 -9 19 -46q8 -25 18 -43v-14q4 0 4 -6q0 6 1 6v6q0 3 1 3v5l13 19l59 156l3 6l2 6l3 2l3 2q3 1 3 2q1 1 5 1q5 0 6 1q2 0 3 1l2 2q1 1 6 1zM1532 -219q0 19 -7 36q-2 11 -7 18
t-15 14q-16 16 -30 19q-20 9 -38 9q-15 0 -37 -9q-17 -7 -27 -19q-9 -7 -14 -13.5t-9 -18.5q-5 -13 -5 -36q0 -26 5 -37q4 -12 9 -18.5t14 -11.5q3 -6 7.5 -8.5t5.5 -3.5l8 -4q4 -4 6 -5q19 -10 37 -10q21 0 38 10q4 2 13.5 7t16.5 14q17 9 22 30q7 15 7 37zM2961 -219
q0 6 -2 18q-1 4 -4 16.5t-8 19.5q-10 13 -11 14q-15 15 -32 19q-9 9 -38 9q-15 0 -35 -9q-6 -1 -16 -7q-3 -3 -12.5 -11t-14.5 -15q-8 -13 -10 -18q-5 -22 -5 -36q0 -17 5 -37q9 -23 22 -30q9 -9 18 -14t13 -7q17 -10 35 -10q27 0 38 10l18 9q8 5 14 12q12 9 19 30
q6 13 6 37zM961 -253l-36 93v1v2q-1 0 -1 2q-3 0 -3 4v-2l-1 -2q-3 -5 -4 -5l-38 -93h83zM2415 -330v-6q0 -10 -1.5 -14.5t-7.5 -9.5q-3 0 -5 -2l-4 -5q-6 -2 -14 -2h-6q-3 0 -5 2q-3 3 -6 4q-7 5 -9 8q-4 4 -5 6q-3 9 -3 13v6q0 5 3 5l3 4l2 3q0 1 3 1q6 10 12 10q2 2 5 2
h6h5q7 0 10 -2t8 -10q8 0 8 -8q1 0 1 -5z" />
    <glyph glyph-name="colon" unicode=":" horiz-adv-x="390" 
d="M165 864l124 -65l-63 -118l-125 65zM164 166l128 -68l-65 -124l-128 68z" />
    <glyph glyph-name="semicolon" unicode=";" horiz-adv-x="390" 
d="M163 864l124 -65l-63 -118l-125 65zM164 166q25 -11 38 -16q47 -21 68 -62q12 -24 12 -61q0 -53 -25 -108q-22 -46 -56 -88t-80 -81l-54 31q83 80 116 156q12 33 11 54l-95 51z" />
    <glyph glyph-name="less" unicode="&#x3c;" horiz-adv-x="1077" 
d="M95 476q55 25 171 80l73 34q50 24 75 35l131 62q64 30 120 58q22 11 71 36l70 35l167 84v-85l-166 -78l-70 -33q-25 -11 -71 -33l-122 -57l-364 -179q81 -42 180 -88q56 -28 100 -48q67 -33 140 -66l66 -31l23 -11q37 -18 48 -23l70 -33l166 -78v-86l-167 84
q-27 14 -85 42l-56 28q-56 28 -120 58l-61 29q-31 13 -70 33q-25 11 -75 35q-24 11 -73 34q-116 55 -171 80v82z" />
    <glyph glyph-name="equal" unicode="=" horiz-adv-x="774" 
d="M105 587q104 -6 175 -6q33 -1 105 -1q132 0 188 3l93 4v-82l-93 3q-73 4 -189 4q-65 0 -155 -2l-39 -1l-85 -3v81zM105 319q87 -5 175 -5q33 -1 105 -1q132 0 188 3l93 3v-82l-93 3q-73 4 -189 4q-65 0 -155 -2l-39 -1l-85 -3v81z" />
    <glyph glyph-name="greater" unicode="&#x3e;" horiz-adv-x="1090" 
d="M973 395q-55 -25 -171 -80q-49 -23 -73 -34q-50 -24 -75 -35l-70 -33q-75 -35 -116 -55l-65 -32q-23 -12 -43.5 -22t-37.5 -19l-60 -30l-167 -84v85l166 78q46 22 71 33l71 34l120 56q180 86 364 179q-64 33 -180 89l-99 48l-85 40l-120 57l-71 33q-25 11 -71 33l-166 78
v86l167 -84l70 -35l136 -67l18 -9l37 -17l131 -62q25 -11 75 -35l73 -34q116 -55 171 -80v-82z" />
    <glyph glyph-name="question" unicode="?" horiz-adv-x="794" 
d="M94 1424q29 20 71.5 31t92.5 11q33 0 60 -4q70 -10 137.5 -42t119.5 -84q57 -58 89.5 -140t32.5 -188q0 -61 -22 -103.5t-62 -72.5q-38 -29 -82 -48q-59 -26 -98.5 -46t-73.5 -45q-85 -62 -85 -191q0 -64 27 -159l-102 -12q-28 112 -28 191q0 74 23 131q19 48 53.5 80.5
t84.5 60.5q51 27 86 43q47 21 81 47t54 62q19 36 19 100q0 40 -8 82t-23 78q-53 124 -162 163q-55 18 -106 18q-45 0 -82 -12q-41 -14 -63 -33zM249 166l128 -68l-64 -124l-129 68z" />
    <glyph glyph-name="at" unicode="@" 
d="M3380 256h-3241v789h1227q0 91 32 154q21 44 40 74t46 52q56 53 124 81q65 31 150 31q94 0 156 -33q75 -31 128 -87q48 -52 82 -123q26 -70 26 -149h1230v-789zM1898 707q59 25 117 78q50 54 78 116q29 72 29 142q0 74 -21 125q-13 32 -26 56.5t-32 45.5q-17 21 -36.5 38
t-47.5 38q-30 13 -52 25q-28 13 -54 20q-19 8 -41 10.5t-54 2.5q-84 0 -143 -31q-65 -26 -115 -77q-41 -46 -73 -115q-29 -64 -29 -138q0 -71 29 -137q29 -65 75 -116q48 -51 116 -80q65 -30 140 -30q67 0 140 27zM1975 1285h-435q52 44 103 61q51 24 115 24q62 0 121 -24
q57 -24 96 -61zM2079.5 981.5q-3.5 -26.5 -13.5 -50.5q-19 -44 -57 -97h-431l423 428q82 -103 82 -219q0 -35 -3.5 -61.5zM1941 1251l-426 -426q-31 36 -62 99q-19 43 -19 119q0 62 18 112q9 24 21.5 46t32.5 50h435zM1544 801h432q-47 -42 -97 -64q-38 -11 -65.5 -16.5
t-55.5 -5.5q-45 0 -115 22q-51 21 -99 64zM529 461q0 31 -5 46q-4 14 -20 28q-14 9 -40 9t-42 -10q-14 -11 -20 -30q-4 -16 -4 -40q0 -27 6 -44q2 -9 7 -15t14 -14q14 -8 39 -8q26 0 40 10.5t20 29.5q5 14 5 38zM798 464q0 34 13 47q9 12 31 12q17 0 25 -6q12 -12 13 -25h25
q-1 17 -16 37q-15 15 -47 15q-27 0 -44 -10q-14 -14 -18 -30q-5 -15 -5 -40q0 -26 7 -44q4 -17 20 -29q18 -8 40 -8q42 0 56 28q6 16 7 27h-25q-2 -18 -13 -26.5t-25 -8.5q-16 0 -24 5q-9 9 -15 20q-5 18 -5 36zM1058 461q0 26 -5 46q-8 20 -22 28q-12 9 -38 9
q-27 0 -43 -10q-14 -16 -19 -30q-5 -22 -5 -40q0 -31 8 -44q4 -16 19 -29q18 -8 40 -8q48 0 61 40q4 15 4 38zM1775 464q0 33 11 47q12 12 31 12q16 0 27 -6q6 -6 9 -14.5t4 -10.5h25q-3 13 -6.5 21t-11.5 16t-19 11.5t-28 3.5q-26 0 -42 -10q-15 -15 -19 -30q-5 -22 -5 -40
q0 -27 6 -44q5 -17 22 -29q14 -8 38 -8t38 8q2 2 10 7.5t11 12.5q2 12 6 27h-26q-2 -9 -4.5 -16.5t-7.5 -10.5q-14 -8 -27 -8q-28 0 -36 25q-6 15 -6 36zM2561 428q0 14 -8 24q-6 9 -16 15l-9 3l-12 4l-6 1l-9 2q-7 1 -20 5q-6 2 -10 9q-1 1 -1 2.5t-1 2.5q-2 2 -2 6
q0 2 2 6q1 1 1 3t1 4q4 7 19 9q4 1 11 1q19 0 46 -9l3 18q-4 3 -13 5l-12 3q-18 2 -23 2q-21 0 -31 -5q-14 -4 -20 -14q-8 -14 -8 -21q-1 -1 -1 -3v-2q0 -12 9 -23q3 -6 19 -15l10 -3l14 -4q8 -2 12 -2q11 -2 18 -5q3 -2 5 -5q5 -8 5 -15q0 -9 -6 -14.5t-19 -8.5
q-3 -1 -9 -1h-10q-12 0 -23 4l-12 4l-13 4l-3 -19q3 -1 12 -5t19 -5q11 -3 28 -3q22 0 31 4l14 9l10 8l5 12q3 6 3 12zM2905 461q0 31 -5 46q-7 19 -21 28t-38 9q-27 0 -43 -10q-14 -11 -20 -30q-4 -12 -4 -40q0 -27 6 -44q4 -14 21 -29q14 -8 40 -8q27 0 40 11
q8 6 12.5 12.5t7.5 16.5q4 13 4 38zM365 542h-24v-119l-1 4l-6 8l-66 107h-29l3 -20v-136h23v118l3 -3l2 -7l70 -108h25v156zM687 542h-23v-119l-5 4l-3 8l-67 107h-28l1 -20v-136h23v118l4 -3l3 -7l68 -108h27v156zM1243 386l-4 156h-24l-50 -103l-3 -6l-51 109h-25l1 -17
l-5 -139h23l5 116l5 -10l40 -91h16l41 91l5 9h1l3 -115h22zM1437 386l-6 156h-24l-50 -103l-2 -6h-1l-51 109h-25l1 -17l-5 -139h25l2 116h1l4 -10l40 -91h15l43 91l3 9h2l3 -115h25zM1577 404h-80v50h62l2 20h-64v48h77l2 20h-104l1 -20v-136h104v18zM1735.5 390
q1.5 1 4.5 2l-8 14l-8 -3q0 -1 -1 -1h-3q-9 0 -15 5q-9 9 -10 15l-6 11q-4 4 -9 14q18 1 31 14q6 6 8.5 13.5t2.5 19.5q0 37 -34 46q-16 2 -25 2h-58l3 -20v-136h24v60h25l8 -13q5 -14 14 -29q2 -11 15 -15q6 -6 20 -6q7 0 10 3q3 0 9 2q1 1 2.5 2zM1934 542h-26l2 -20v-136
h24v156zM2100 386l-10 17l-54 139h-21l-60 -156h25l13 36l3 -9h66l10 -27h28zM2217 404h-73v138h-23v-136l-2 -20h98v18zM2418 542h-24v-84q0 -31 -11 -42q-7 -13 -29 -13q-20 0 -32 13q-7 13 -7 42v84h-28l4 -20v-66q0 -42 14 -56q20 -17 49 -17q64 0 64 73v86zM2697 404
h-80v50h62l3 20h-65v48h76l3 20h-105l2 -20v-136h104v18zM3062 542h-22v-119l-4 4l-5 8l-66 107h-28l2 -20v-136h22v118l4 -3l4 -7l67 -108h26v156zM3199 404h-72v138h-24v-136l-2 -20h98v18zM3309 542h-23l-39 -67l-2 -8l-2 8l-41 67h-24v-20h8l45 -75v-61h25v60zM501 499
q4 -9 4 -38q0 -30 -10 -44t-31 -14q-17 0 -25 6t-11 19q-6 15 -6 36q0 33 10 47q12 12 32 12q15 0 24 -4q5 -4 13 -20zM1029 499q4 -7 4 -38q0 -32 -10 -45t-30 -13q-30 0 -38 25q-5 18 -5 36q0 34 13 47q8 12 30 12q15 0 23 -4q7 -4 13 -20zM2877 499q3 -7 3 -38t-10 -45
q-7 -13 -29 -13q-18 0 -23 5q-12 7 -14 20q-6 22 -6 36q0 33 10 47q12 12 33 12q13 0 24 -4q4 -4 12 -20zM1694 475q-8 -8 -15 -8t-10 -1q-8 -2 -14 -2h-23v58h23q17 0 24 -3q10 -2 14 -8.5t4 -18.5t-3 -17zM2030 497l26 -64h-57l24 64l4 14zM132 45q-6 14 -9 34
q-2 18 -2 31q0 18 1 28t6 20q5 23 23 36q15 15 51 15q42 0 58 -19q19 -16 22 -47h-29q-4 22 -19 33q-5 5 -12 6.5t-20 1.5q-15 0 -27 -6q-15 -10 -18 -23q-6 -16 -6 -45t6 -44q3 -17 17 -25t28 -8q23 0 37.5 12.5t14.5 39.5h-34v24h63v-39q-1 -3 -1 -6.5t-1 -6.5
q-3 -15 -16 -28q-16 -14 -35 -18q-12 -3 -28 -3q-27 0 -47 13q-17 10 -23 24zM2042 45q1 2 5 7t4 12q0 9 -7 17t-18 10q-11 4 -27 6q-25 8 -31 11q-12 3 -24 17q-8 11 -8 29v5q0 10 9 26q3 4 11 10l14 8q18 6 39 6q15 0 27 -4l17 -4q7 -1 16 -5l-2 -23q-33 11 -59 11
q-8 0 -24 -2l-8 -5q-9 -5 -9 -20q0 -11 3 -17l6 -3q1 -1 2.5 -2t4.5 -2q5 -3 25 -8l13 -2l5 -2q13 -4 16 -5q4 -1 12 -5q11 -3 18 -16q9 -6 9 -29q0 -38 -37 -50q-16 -8 -42 -8q-20 0 -33 6q-22 3 -37 10l2 25q22 -8 34 -9l14 -4l13 -3q13 0 24 4q9 0 23 8zM2322 197
q18 -12 26 -33.5t8 -55.5q0 -26 -7 -49q-3 -17 -24 -36q-16 -15 -52 -15q-26 0 -48 13q-20 12 -25 33q-8 17 -8 56q0 29 5 48q7 23 25.5 37t50.5 14q31 0 49 -12zM3084 8q-25 0 -49 13q-18 11 -25 33q-7 26 -7 56q0 29 5 48q4 20 25 36q17 15 52 15q30 0 48 -12
q19 -11 26.5 -32t7.5 -57q0 -26 -7 -49q-3 -17 -24 -36q-18 -15 -52 -15zM322 14v167l-3 24h129l-2 -24h-94v-60h78l-1 -24h-77v-60h99v-23h-129zM520 14v167h-56l-3 24h146l-2 -24h-55v-167h-30zM737 181v-64h80l-3 -24h-77v-79h-29v167l-1 24h131l-2 -24h-99zM855 101v80
l-2 24h31v-104q0 -32 12.5 -50t37.5 -18q24 0 39 18q11 19 11 50v104h30v-105q0 -47 -20 -70q-25 -22 -60 -22q-36 0 -58 22q-21 24 -21 71zM1089 205v-168h89v-23h-122l3 23v168h30zM1236 205v-168h90v-23h-121l3 23v168h28zM1492 67l53 138h29l-75 -191h-26l-67 168
l-10 23h33l53 -138l4 -18h1zM1597 14v167l-2 24h129l-1 -24h-96v-60h79l-2 -24h-77v-60h99v-23h-129zM1914.5 14q-1.5 -1 -4.5 -2q-7 -4 -15 -4q-13 0 -26 9q-13 6 -17 19q-4 4 -9 14l-10 20l-8 16h-31v-72h-30v167l-1 24h68q34 0 53 -13q21 -13 21 -45q0 -21 -13 -41
q-15 -15 -38 -19q0 -1 10 -17l7 -14q4 -7 13 -16q1 -1 6.5 -4t11.5 -3q5 0 8 1l4 2q2 0 3 1l8 -16l-8 -5q-1 -1 -2.5 -2zM2122 14v167l-2 24h31v-191h-29zM2519 14l-87 133l-4 8l-3 4v-145h-29v168l-3 23h35l84 -131l5 -10l4 -5v146h30v-191h-32zM2774 93h-76v-79h-28v167
l-3 24h131l-3 -24h-97v-64h79zM2824 14v167l-1 24h69q73 0 73 -58q0 -49 -50 -60q3 -7 9 -17l7 -14q17 -23 30 -23q8 0 9 1l4 2q2 0 3 1l8 -16q-7 -6 -15 -9q-7 -4 -15 -4q-13 0 -26 9q-9 5 -13.5 11t-7 12.5t-4.5 9.5l-10 20l-8 16h-31v-72h-31zM3360 205h32l6 -191h-30
l-4 141h-3l-4 -13l-51 -112h-18l-54 112l-2 13h-1l-4 -141h-30l7 171l-3 20h32l64 -134l2 7zM2325 108q0 27 -5 46q-12 30 -47 30q-51 0 -51 -74q0 -18 1 -27.5t6 -16.5q4 -19 16 -25q13 -8 28 -8q52 0 52 75zM3057 41q11 -8 28 -8q23 0 39 18q11 17 11 57q0 25 -3 46
q-5 14 -18 23q-10 7 -29 7q-22 0 -39 -17q-13 -16 -13 -57q0 -31 7 -44q6 -20 17 -25zM1853 112.5q11 2.5 17 10.5q5 7 5 21q0 15 -5 23q-9 12 -31 14h-16h-29v-71h29q19 0 30 2.5zM2855 110h29q39 0 45 13q6 6 6 21t-5 22.5t-19 11.5q-7 3 -27 3h-29v-71zM2494 -193.5
q-1 -4.5 -2 -7.5q-3 -9 -3 -18t3 -19q1 -6 2 -10.5t2 -7.5q5 -10 10 -17.5t11 -12.5q12 -13 32 -22t36 -9q6 0 8 1l13 4q5 0 21 7q5 1 12 8q6 1 10 5h10q13 0 17 -4q6 -1 8 -4.5t3 -4.5l11 -12q-10 -12 -22 -19q-7 -5 -8 -5q-3 -1 -4.5 -2t-2.5 -2q-7 -6 -15 -9
q-4 -4 -14 -6q-12 -2 -17 -5q-7 -4 -30 -4q-29 0 -59 12q-52 25 -79 78q-5 16 -8.5 30.5t-3.5 29.5q0 9 4 20q1 16 7 38q1 1 2 2.5t2 4.5q2 4 4 7q18 26 24 32l17 13l9 6q3 1 4.5 2t2.5 2q15 11 35 15q21 7 39 7h7q16 0 23 -7q16 -1 31 -7l8 -5q4 -3 7.5 -4.5t6.5 -3.5
q1 0 8 -5q14 -9 22 -21l-11 -12q-1 -3 -5 -7q-6 -6 -15 -6h-8q-12 0 -20 6q-2 1 -6 5l-7 3q-4 2 -26 10q-3 1 -15 1q-16 0 -36 -9q-10 -2 -18 -7.5t-14 -11.5l-10 -14l-11 -18q-1 -6 -2 -10.5zM1585 -211v-17q0 -18 -6 -29q-2 -11 -6 -22t-6 -17q-1 -3 -5 -7q-6 -5 -12 -15
q-2 -3 -15 -13l-7 -5q-16 -18 -32 -22l-19 -7q-6 -2 -10 -2q-7 0 -10 -1q-4 -1 -10 -1h-12q-26 0 -58 12q-12 5 -24 14l-24 18q-2 2 -12.5 16.5t-16.5 29.5l-9 30q-4 12 -4 30q0 19 6 39q7 25 15 33l11 19q6 12 19 20l9 6q5 6 14 11l16 9l11 3l10 2q21 7 37 7h12q3 -1 10 -1
l10 -3l10 -3q10 -1 19 -5q4 -3 18 -10q7 -3 14 -10q3 -3 16 -13l11 -13q7 -8 12 -19q8 -12 12 -33q6 -12 6 -31zM2333 -257l2 -9v-10q0 -22 -9 -37q-1 -2 -6.5 -11t-16.5 -19q-15 -14 -32 -17q-14 -9 -39 -9q-21 0 -42 9q-15 5 -32 22q-11 8 -15 17q-1 1 -2 2.5t-2 4.5
q-3 3 -3 9v1q0 1 2 2t5 1q-2 0 6 5q4 0 6 2t3 2h11q7 0 11 -4q7 0 13 -3q1 -1 10 -7l8 -4l10 -4q9 -3 11 -3q11 0 16 4q3 1 5.5 2t4.5 2l8 4q6 4 11 12l6 11q3 3 3 6q0 10 -10 17q-4 6 -10 6q-3 6 -8 8q-4 0 -10 3q-8 1 -19 9l-14 4q-11 2 -28 13q-12 8 -23 20q-5 5 -7 13
q-8 13 -8 32q0 24 8 34q4 11 20 25l8 6q1 1 2.5 2t4.5 2q5 3 15 5l15 6q7 0 10 1h10q9 0 24 -7l10 -3q10 -3 15 -4q1 -3 7 -9l8 -9l9 -6q6 -6 7 -11l-11 -7q-3 -1 -6 -4q-6 -5 -14 -5h-16q-9 0 -9 3q-6 1 -9 4q-4 0 -4 1q-1 1 -5 1q-3 3 -6 3q-11 0 -17 -3q-5 0 -6 -1l-2 -2
l-5 -2q-4 -1 -6.5 -7t-2.5 -13q0 -9 3 -9l2 -6q3 0 4 -7q7 0 9 -1q3 -3 8 -3q8 -2 13 -5q7 -2 11 -6l13 -1q7 -7 14 -9l9 -3q4 -2 5 -4q12 -5 22 -20l8 -9q2 -4 8 -12q1 -3 1 -7v-4zM3011 -180q4 -13 4 -39q0 -27 -4 -38q-2 -12 -6 -19q-12 -29 -28 -44q-15 -13 -20 -16
q-2 -3 -15 -13q-8 -6 -17 -9q-16 -5 -20 -7q-6 -2 -8 -2q-7 0 -11 -1q-3 -1 -10 -1h-10q-30 0 -56 12q-27 11 -48 32q-22 22 -32 46q-10 33 -10 60v10q0 6 1 10l4 20q2 12 5 18l6 7q1 3 2 4.5t2 2.5q5 20 22 32q15 16 31 23q14 10 34 15l11 3l19 4h9q21 0 39 -7
q20 -4 37 -15q8 -3 15 -10q6 -4 10 -7l8 -6q3 -5 6 -6q4 -4 5 -7q9 -9 10 -19q11 -12 15 -33zM139 -73h214v-32q0 -10 -4 -14q-2 -2 -6 -4l-141 -195l2 1h148v-50h-224v18q0 8 0.5 11.5t2.5 7t4 5.5q6 7 6 15l5 4l3 5l128 178h-138v50zM389 -73h189v-50h-136v-70h109v-52
h-109v-72h136v-50h-189v294zM809 -123h-82v-244h-53v244h-88v50h223v-50zM944 -73l127 -294h-31q-7 0 -13 2t-11 5q-3 1 -7 7q-1 4 -7 10l-17 38h-133l-14 -38l-5 -5l-4 -3q-1 -5 -3.5 -6.5t-3.5 -2.5q-3 0 -5 -3q-7 -4 -11 -4h-37l128 294h47zM1084 -73h187v-50h-137v-77
h114v-53h-114v-114h-50v294zM1831 -73h52v-294h-50l-137 198q-1 0 -1 2q0 1 -1 1q-1 1 -3 1l-3 6l-2 4q-4 0 -4 2q-1 1 0 2l-1 2l-2 2l-2 4v-224h-55v294h49q4 0 10 -2l8 -3q2 -1 4 -1t3 -1l4 -4l31 -44q15 -23 27 -45q19 -21 34 -41q4 -9 14 -21q5 -7 17 -21l2 -5l1 -4
q0 -3 2 -7q3 -6 3 -8v207zM1910 -73h223v-50h-87v-244h-52v244h-84v50zM3328 -73h52v-294h-52v216q-2 -6 -2 -7q-2 -2 -4 -7t-2 -9v-6q-3 -7 -5.5 -12.5t-4.5 -9.5q-3 -6 -19 -46q-3 -8 -11 -24l-9 -23l-10 -23l-9 -24l-9 -25h-50l-76 187q-3 4 -3 15q-5 7 -5 11v-213h-55
v294h51q6 0 9 -1q4 -4 10 -4q3 0 5 -1l6 -6q8 -8 9 -12q2 -7 8 -21l8 -21l10 -23q6 -14 7 -21q4 -9 19 -46q8 -25 18 -43v-14q4 0 4 -6q0 6 1 6v6q0 3 1 3v5l13 19l59 156l3 6l2 6l3 2l3 2q3 1 3 2q1 1 5 1q5 0 6 1q2 0 3 1l2 2q1 1 6 1zM1532 -219q0 19 -7 36q-2 11 -7 18
t-15 14q-16 16 -30 19q-20 9 -38 9q-15 0 -37 -9q-17 -7 -27 -19q-9 -7 -14 -13.5t-9 -18.5q-5 -13 -5 -36q0 -26 5 -37q4 -12 9 -18.5t14 -11.5q3 -6 7.5 -8.5t5.5 -3.5l8 -4q4 -4 6 -5q19 -10 37 -10q21 0 38 10q4 2 13.5 7t16.5 14q17 9 22 30q7 15 7 37zM2961 -219
q0 6 -2 18q-1 4 -4 16.5t-8 19.5q-10 13 -11 14q-15 15 -32 19q-9 9 -38 9q-15 0 -35 -9q-6 -1 -16 -7q-3 -3 -12.5 -11t-14.5 -15q-8 -13 -10 -18q-5 -22 -5 -36q0 -17 5 -37q9 -23 22 -30q9 -9 18 -14t13 -7q17 -10 35 -10q27 0 38 10l18 9q8 5 14 12q12 9 19 30
q6 13 6 37zM961 -253l-36 93v1v2q-1 0 -1 2q-3 0 -3 4v-2l-1 -2q-3 -5 -4 -5l-38 -93h83zM2415 -330v-6q0 -10 -1.5 -14.5t-7.5 -9.5q-3 0 -5 -2l-4 -5q-6 -2 -14 -2h-6q-3 0 -5 2q-3 3 -6 4q-7 5 -9 8q-4 4 -5 6q-3 9 -3 13v6q0 5 3 5l3 4l2 3q0 1 3 1q6 10 12 10q2 2 5 2
h6h5q7 0 10 -2t8 -10q8 0 8 -8q1 0 1 -5z" />
    <glyph glyph-name="A" unicode="A" horiz-adv-x="1363" 
d="M754 1386l387 -956q77 -192 131 -309q18 -41 56 -121h-181l-9 30l-64 180q-56 150 -89 238l-9 23q-28 75 -51 131l-7 18l-63 3l-119 1h-153q-87 0 -114 -1l-30 -1q-22 0 -30 -1q-27 -62 -61 -145l-34 -82l-25 -60q-18 -42 -33 -81q-24 -56 -63 -152q-10 -23 -29 -72
l-11 -29h-120q53 105 126 262q21 43 49 108l19 42l424 964zM438 695q26 -2 50 -2h85h164q89 0 153 2l-217 545z" />
    <glyph glyph-name="B" unicode="B" horiz-adv-x="1113" 
d="M192 948q0 136 -6 298l-6 134h96q50 0 97 3q88 4 131 4q36 0 55 -1q58 -3 116 -16.5t101 -41.5q89 -60 115 -159q11 -49 11 -93q0 -132 -69 -214q-67 -77 -191 -103q199 -15 310 -100q125 -96 125 -271q0 -88 -37 -166q-50 -101 -151 -159q-125 -71 -324 -71
q-24 0 -120 4t-143 4h-120q1 35 5 133q5 133 5 297v518zM403 790h34q71 0 134 18q88 25 137 78q62 65 62 176q0 131 -75 195q-60 51 -176 56q-15 1 -44 1q-56 -2 -91 -2q-17 -1 -57 -1v-316v-264q0 -152 1 -215v-169l2 -277h41h40q142 0 221 10q143 19 216 83q89 79 89 236
q0 139 -102 221q-82 63 -217 86q-89 14 -197 14z" />
    <glyph glyph-name="C" unicode="C" horiz-adv-x="1203" 
d="M1114 32q-70 -36 -186 -53q-59 -10 -142 -10q-158 0 -291 51t-230 148q-98 97 -151 232t-53 298q0 175 58 310t164 227q100 87 234 131.5t285 44.5q126 0 234 -29q55 -15 88 -29l-24 -102q-70 47 -169 73q-51 13 -117 13q-67 0 -136.5 -14.5t-133.5 -44.5
q-151 -71 -234 -203q-100 -157 -100 -380q0 -133 40 -251t115 -207q78 -92 187 -143t240 -51q119 0 218 42q52 22 82 44z" />
    <glyph glyph-name="D" unicode="D" horiz-adv-x="1385" 
d="M193 948q0 109 -7 298l-6 134h99q42 0 164 4q120 4 181 4q149 0 277.5 -45t222.5 -131q97 -89 150 -219t53 -295t-50 -296.5t-144 -223.5q-93 -91 -225 -139t-292 -48q-18 0 -68 2l-173 6q-32 1 -96 1h-97q1 35 5 133q6 160 6 297v518zM328 430q0 -80 2 -206
q2 -115 5 -154q76 0 150 -2q72 -2 122 -2q71 0 140.5 15.5t132.5 46.5q139 69 215 198q87 147 87 355q0 166 -50 297q-59 154 -179 239q-139 97 -352 97q-80 0 -176 -2l-61 -2q-17 -1 -36 -1v-879z" />
    <glyph glyph-name="E" unicode="E" horiz-adv-x="855" 
d="M185 133q6 160 6 297v518q0 109 -7 298l-6 134h599v-94q-97 10 -259 16q-107 4 -192 5v-531q226 2 296 5l66 3l24 1v-93q-90 6 -210 7l-176 2v-271q0 -81 2 -205l3 -118l1 -35q196 4 332 13l117 9v-94h-601q1 35 5 133z" />
    <glyph glyph-name="F" unicode="F" horiz-adv-x="844" 
d="M192 948q0 136 -6 298l-6 134h599v-94q-98 10 -260 16q-107 4 -192 5v-535q226 2 296 5l66 3l24 1v-93q-90 6 -210 7l-176 2v-267q0 -137 6 -297q4 -87 7 -133h-158q1 35 5 133q5 133 5 297v518z" />
    <glyph glyph-name="G" unicode="G" horiz-adv-x="1318" 
d="M1122 1242q-69 51 -183 80q-60 15 -138 15q-63 0 -128.5 -14.5t-128.5 -44.5q-147 -70 -232 -203q-100 -157 -100 -380q0 -132 40.5 -250t115.5 -208q77 -92 183 -143t233 -51q99 0 191 23q56 14 119 42q-4 58 -9 226q-5 121 -7 291q-91 -2 -119 -5l-36 -4v82l290 -6
v-266q0 -59 1 -86v-77q1 -81 7 -148l5 -53q-55 -26 -117.5 -44.5t-142.5 -33.5q-79 -15 -170 -15q-158 0 -292 51t-233 148q-100 97 -154 232t-54 298q0 175 57.5 309.5t162.5 226.5q100 87 234 132t286 45q132 0 254 -33q52 -15 89 -33z" />
    <glyph glyph-name="H" unicode="H" horiz-adv-x="1469" 
d="M1278 432q0 -136 6 -298l6 -134h-152l2 142l1 72q2 130 2 197v278l-52 1l-57 1l-172 3h-128q-114 0 -264 -2l-94 -2l-47 -1v-259q0 -137 6 -297l6 -133h-158q1 35 5 133q6 160 6 297v518q0 109 -7 298l-6 134h153q-4 -124 -4 -274q-1 -49 -1 -139v-198q4 -1 25 -1l24 -1
l44 -1l174 -3q45 -1 139 -1q54 0 168 2q69 0 157 2q40 0 55 1h28v183q0 110 -7 297l-6 133h158q-5 -98 -8 -270q-2 -104 -2 -160v-518z" />
    <glyph glyph-name="I" unicode="I" horiz-adv-x="519" 
d="M191 948q0 163 -5 298q-4 97 -5 134h156q-5 -96 -8 -272q-2 -104 -2 -160v-518q0 -164 5 -297q1 -51 5 -133h-156q1 35 5 133q5 133 5 297v518z" />
    <glyph glyph-name="J" unicode="J" horiz-adv-x="514" 
d="M190 892q0 166 -5 326q-4 114 -5 162h156q-5 -123 -8 -331q-2 -122 -2 -185v-467q0 -299 -73 -472q-55 -132 -142 -188q-34 -22 -61 -30q-25 -7 -35 -11l-13 43q24 14 39.5 25.5t33.5 35.5q50 67 79 212q36 183 36 504v376z" />
    <glyph glyph-name="K" unicode="K" horiz-adv-x="1177" 
d="M194 948q0 109 -7 298l-6 134h148v-950q0 -137 6 -297l6 -133h-158q1 35 5 133q6 160 6 297v518zM1196 2q-7 -5 -16 -5l-13 -2q-51 -4 -138 41q-66 48 -138 156q-25 36 -52.5 83.5t-51.5 91.5l-13 24q-59 111 -151 214q-53 67 -116 95q-33 15 -73 18l-29 68l196 266
q13 17 61 85l25 36q31 44 62 91q12 20 24 36l51 80h144q-25 -25 -105 -125q-44 -55 -86 -111l-280 -375q112 0 210 -75q76 -58 148 -174q29 -46 57.5 -100t34.5 -66l17 -33q97 -187 176 -260q35 -33 61 -38z" />
    <glyph glyph-name="L" unicode="L" horiz-adv-x="791" 
d="M193 948q0 136 -6 298q-4 97 -5 134h156l-1 -21l-2 -59l-2 -87q-4 -134 -4 -228q-1 -42 -1 -124v-431q0 -81 2 -205q0 -61 2 -131q1 -8 1 -22q238 4 350 12q71 5 105 10v-94h-606q1 35 5 133q6 160 6 297v518z" />
    <glyph glyph-name="M" unicode="M" horiz-adv-x="1815" 
d="M1435 1380l174 -951q26 -145 64 -318q5 -25 10 -45t8 -36l7 -30h-167q-6 61 -30 218q-37 228 -66 390l-79 444q-19 100 -33 185l-428 -975l-65 -1l-19 49l-42 102l-119 293l-64 156l-25 61q-62 151 -75 186l-23 56l-27 65l-146 -798q-28 -169 -47 -306q-8 -48 -12 -90
l-5 -35h-110l5 23q1 4 2 10t2 13q5 23 11.5 55t15.5 74l23 112l25 125q9 43 25 127l80 411q33 176 56 312l20 118h148q46 -118 87 -226q43 -119 105 -274l172 -432l219 500q53 123 74 176q54 134 100 256h149z" />
    <glyph glyph-name="N" unicode="N" horiz-adv-x="1486" 
d="M1224 0l-456 566q-86 105 -80 98q-38 48 -35 44q-128 159 -209 255q-106 127 -142 166q-25 26 -31 30l7 -611q4 -199 13 -377l6 -124l2 -47h-110q0 49 2 193v30q1 84 1 256v471q0 185 -5 312l-4 118h77l434 -543q37 -47 113 -139l89 -111q14 -16 20 -24
q103 -127 188 -229l16 -19q73 -88 95 -110l-6 629q-4 225 -13 396l-9 150h110v-104q-2 -152 -2 -244q-1 -43 -1 -129v-471q0 -212 4 -313q1 -52 5 -119h-79z" />
    <glyph glyph-name="O" unicode="O" horiz-adv-x="1593" 
d="M506 20.5q-134 51.5 -233 147.5q-101 97 -156 232t-55 298q0 233 105 398q100 157 270 237q165 78 365 78q155 0 289.5 -51.5t233.5 -147.5q100 -97 155 -232t55 -298q0 -233 -105 -398q-50 -78 -118.5 -137.5t-151.5 -99.5q-81 -39 -174 -58.5t-191 -19.5
q-155 0 -289 51.5zM250.5 444q40.5 -119 115.5 -208q77 -92 183.5 -142.5t233.5 -50.5q65 0 134 15t133 45q151 71 236 203q101 155 101 379q0 132 -41 250.5t-116 208.5q-77 92 -183.5 142.5t-233.5 50.5q-141 0 -266 -59q-148 -70 -235 -203q-102 -158 -102 -380
q0 -132 40.5 -251z" />
    <glyph glyph-name="P" unicode="P" horiz-adv-x="1000" 
d="M404 701l66 -3l27 -1q46 0 90 10q98 23 157 89q78 86 78 245q0 146 -92 215q-75 54 -193 56q-16 1 -51 1q-34 0 -52 -1q-70 -2 -107 -2v-880q0 -137 6 -297q4 -87 7 -133h-158q1 35 5 133q5 133 5 297v518q0 136 -6 298l-6 134h135q69 0 156 5q46 2 67 2q123 0 213 -29
q124 -41 178 -159q28 -60 28 -149q0 -104 -32.5 -185.5t-95.5 -135.5t-151.5 -80.5t-198.5 -22.5l-39 1z" />
    <glyph glyph-name="Q" unicode="Q" horiz-adv-x="1588" 
d="M1889 -268q-35 -38 -90 -62t-175 -24q-135 0 -300 106q-91 59 -197 168q-54 52 -97 80q-112 -31 -239 -31q-155 0 -289 51.5t-233 147.5q-101 97 -156 232t-55 298q0 233 105 398q100 157 270 237q165 78 365 78q155 0 289.5 -51.5t233.5 -147.5q100 -97 155 -232
t55 -298q0 -233 -105 -398q-50 -78 -118.5 -137.5t-151.5 -99.5q-28 -13 -35 -15q29 -14 57 -31q30 -18 69 -53q128 -118 255 -171q105 -44 207 -44q94 0 171 41zM913 58q69 15 133 45q151 71 236 203q101 155 101 379q0 132 -41 250.5t-116 208.5q-77 92 -183.5 142.5
t-233.5 50.5q-141 0 -266 -59q-148 -70 -235 -203q-102 -158 -102 -380q0 -132 40.5 -251t115.5 -208q77 -92 183.5 -142.5t233.5 -50.5q65 0 134 15z" />
    <glyph glyph-name="R" unicode="R" horiz-adv-x="1173" 
d="M1194 2q-13 -5 -27 -9l-21 -3q-38 -1 -93 22q-80 41 -164 169q-64 97 -136 256q-50 101 -111 168q-54 58 -104 85q-55 31 -108 34l-26 66h44q68 0 131 17q81 20 131 77q60 67 60 178q0 136 -80 200q-66 52 -189 54q-27 0 -39 -1q-13 -1 -39 -1l-44 -2q-15 -1 -52 -1v-881
q0 -137 6 -297q4 -87 7 -133h-158l1 21q1 8 1 29l1 29l3 87q2 72 4 226v124v432q0 136 -6 298l-6 134h110q65 0 116 4q52 2 77 2q84 0 148 -13q53 -10 113 -40q80 -35 122 -109q36 -65 36 -148q0 -148 -88 -233q-86 -81 -237 -95q41 -13 85 -39t84 -62q91 -81 142 -189
q97 -198 176 -309q58 -82 102 -112q16 -11 25 -13l8 -2z" />
    <glyph glyph-name="S" unicode="S" horiz-adv-x="1026" 
d="M145 129q85 -49 207 -74q61 -13 137 -13q74 0 133 24.5t100 66.5q38 38 58.5 86.5t20.5 95.5q0 108 -100 205q-37 36 -81.5 67t-122.5 82l-18 12q-77 50 -129 88.5t-92 81.5q-101 104 -101 227q0 73 24.5 134t73.5 105q105 94 305 94q98 0 188 -30q44 -15 70 -29
l-17 -102q-8 5 -25 19q-43 34 -121 56q-44 12 -101 12q-65 0 -117 -17.5t-89 -49.5q-36 -32 -55.5 -73.5t-19.5 -89.5q0 -51 26.5 -96t75.5 -88q36 -32 82 -64t115 -76l25 -16q77 -51 129 -90t93 -83q101 -109 101 -234q0 -82 -28.5 -153t-83.5 -124q-57 -55 -140 -84.5
t-189 -29.5q-129 0 -253 31q-55 13 -103 32z" />
    <glyph glyph-name="T" unicode="T" horiz-adv-x="1035" 
d="M446 133q6 160 6 297v877q-188 -5 -302 -12l-130 -9v94h996v-94q-103 10 -255 16q-102 4 -174 5v-877q0 -164 5 -297q1 -51 5 -133h-156q1 35 5 133z" />
    <glyph glyph-name="U" unicode="U" horiz-adv-x="1485" 
d="M274 737q0 -190 41 -336q47 -165 149 -255q113 -102 291 -102q225 0 354 147q147 166 147 502v256q0 162 -5 297q-4 98 -5 134h109q-5 -98 -8 -272q-2 -102 -2 -159v-255q0 -358 -154.5 -541.5t-449.5 -183.5q-308 0 -460 191q-142 179 -142 509v270q0 166 -5 304
q-4 99 -5 137h156q-7 -144 -8 -260q-1 -47 -1 -139z" />
    <glyph glyph-name="V" unicode="V" horiz-adv-x="1326" 
d="M592 -6l-386 956q-80 196 -132 309q-18 41 -56 121h182q44 -137 92 -269l60 -161l321 -810l365 844q66 155 112 274l48 122h115q-61 -121 -126 -262q-28 -60 -67 -150l-424 -964z" />
    <glyph glyph-name="W" unicode="W" horiz-adv-x="1866" 
d="M1308 0q-47 118 -86 225q-53 140 -106 274l-173 433l-177 -406l-68 -162q-59 -139 -101 -247l-30 -74l-8 -19l-5 -13q-1 -2 -4 -11h-135l-268 951l-26 92q-12 40 -34.5 117.5t-35.5 117.5q-22 71 -34 102h167q11 -60 49 -211q24 -100 86 -320l19 -70l63 -230l61 -222
l50 -187q23 53 71 157l29 64q13 31 41 93l282 653l75 1l391 -962l228 803q40 152 77 305l30 126h112l-42 -134q-37 -120 -89 -297l-153 -519q-45 -150 -88 -312l-31 -118h-137z" />
    <glyph glyph-name="X" unicode="X" horiz-adv-x="1117" 
d="M1093 0h-186l-10 20q-8 15 -63 112l-14 24q-59 103 -127 218l-75 124l-78 126l-129 -194q-76 -113 -167 -258q-8 -11 -14 -21t-11 -18l-84 -134h-117q77 105 193 272l108 159l176 266l-158 254q-132 211 -199 311q-42 63 -82 119h186l19 -34q57 -108 128 -230l73 -125
l25 -41l92 -148l99 149q100 150 193 297q57 90 83 134h117q-77 -105 -193 -272q-54 -78 -108 -159l-146 -221l187 -300q92 -149 200 -310q52 -78 82 -120z" />
    <glyph glyph-name="Y" unicode="Y" horiz-adv-x="1051" 
d="M587 671v-241q0 -164 5 -297q1 -51 5 -133h-156q1 35 5 133q5 133 5 297v227l-183 293q-109 174 -200 310l-81 120h186q0 -2 16 -30q22 -42 89 -151q4 -8 9 -16t9 -15l79 -131l85 -142l86 -143l149 226q111 167 181 279l77 123h113q-103 -146 -188 -271l-107 -158z" />
    <glyph glyph-name="Z" unicode="Z" horiz-adv-x="1133" 
d="M1058 1380q-66 -94 -166 -250q-49 -76 -113 -181l-256 -410l-89 -139l-58 -91q-8 -13 -14 -23t-11 -17q-87 -137 -121 -197q363 1 659 12q134 5 198 10v-94h-1077l90 132q80 116 197 300l337 519q122 188 225 358q-403 -4 -595 -12q-119 -5 -178 -10v93h972z" />
    <glyph glyph-name="bracketleft" unicode="[" horiz-adv-x="588" 
d="M195 752q0 93 -2 283l-2 136l-3 113l-2 79l-2 29l377 4v-81q-21 1 -72 5q-23 2 -45.5 3t-43.5 2l-64 3l-2 -77q-4 -122 -4 -213q-1 -39 -1 -119v-979q0 -86 2 -226l3 -97l2 -75q54 2 81 4l72 4q51 4 72 5v-80l-377 3q1 43 5 147q6 176 6 315v812z" />
    <glyph glyph-name="backslash" unicode="\" horiz-adv-x="727" 
d="M581 407q67 -172 124 -304q42 -98 58 -134h-99q-33 99 -98 274l-63 164l-292 723q-52 129 -126 306l-58 135h98q34 -98 101 -276q28 -79 63 -165z" />
    <glyph glyph-name="bracketright" unicode="]" horiz-adv-x="579" 
d="M388 118q0 -93 2 -283q1 -131 5 -249l1 -39q0 -28 1 -39q0 -30 1 -30l-376 -4v81q20 -1 71 -5l72 -4q27 -2 81 -4l3 78q2 64 4 212q1 39 1 119v979q0 58 -2 162l-1 65l-2 96l-3 75l-64 -3q-21 -1 -43.5 -2t-45.5 -3q-51 -4 -71 -5v80l376 -3q-5 -105 -8 -295
q-2 -110 -2 -167v-812z" />
    <glyph glyph-name="asciicircum" unicode="^" horiz-adv-x="1132" 
d="M608 1378l18 -38q25 -56 62 -132l34 -73l36 -75q5 -11 23 -48l11 -23l29 -61q32 -68 59 -120l35 -71l36 -70l17 -33q10 -19 30.5 -60t38.5 -74h-91l-78 166q-22 46 -33 71q-32 63 -65 137l-27 55l-178 361l-176 -361l-27 -55l-31 -66l-34 -71q-11 -25 -33 -71l-78 -166
h-92l85 167q14 30 36 70l35 71q11 23 33 65l9 18l17 37l29 61l69 146l35 73l80 170h86z" />
    <glyph glyph-name="underscore" unicode="_" horiz-adv-x="761" 
d="M0 -174q144 -6 238 -6q45 -1 142 -1q177 0 253 3l128 4v-79l-127 3q-100 4 -255 4q-86 0 -210 -2l-53 -1l-116 -3v78z" />
    <glyph glyph-name="grave" unicode="`" horiz-adv-x="660" 
d="M216 1336q13 -21 56 -78q14 -20 29 -38l161 -185h-86l-151 157q-22 22 -76 67q-20 17 -43 34z" />
    <glyph glyph-name="a" unicode="a" horiz-adv-x="944" 
d="M914 17q-24 -14 -63 -25.5t-82 -11.5q-57 0 -94.5 28t-49.5 70q-62 -48 -146 -77q-88 -30 -171 -30q-105 0 -165 45q-65 48 -65 137q0 40 8 68t28 50q21 22 58 41t97 40l348 120v104q0 109 -27 164q-37 76 -130 76q-64 0 -148 -36q-69 -30 -131 -79l-21 72q68 48 173 83
q92 29 161 29q84 0 135 -28t78 -82q23 -47 31 -110.5t8 -152.5v-347q0 -110 80 -110q18 0 41.5 7.5t31.5 9.5zM411.5 56q36.5 8 76.5 22q41 14 75 33t54 39v249l-160 -57l-103 -36q-50 -17 -83 -35.5t-52 -40.5q-20 -23 -20 -56q0 -37 10 -61t30 -39q19 -14 46 -20t66 -6
q24 0 60.5 8z" />
    <glyph glyph-name="b" unicode="b" horiz-adv-x="1192" 
d="M953 82q-66 -56 -155.5 -83t-193.5 -27q-97 0 -174 29.5t-131 85.5q-53 55 -81 133.5t-29 174.5v21v26v51v101v173v267q0 268 -5 391q-1 29 -4 77l-2 22l149 12q-5 -50 -8 -200q-2 -96 -2 -178v-251q-1 -88 -1 -252q43 92 115 149q102 81 255 81q98 0 175 -29t131 -85
q53 -55 81 -133t28 -174q0 -255 -148 -382zM945.5 620.5q-23.5 67.5 -68.5 113.5q-39 39 -92 59.5t-117 20.5q-22 0 -33 -1q-68 -7 -132 -44q-81 -48 -128 -128q-57 -98 -57 -238v-7q0 -82 22.5 -149.5t63.5 -115.5q76 -88 191 -88q17 0 26 1q153 8 244 103q104 109 104 319
q0 87 -23.5 154.5z" />
    <glyph glyph-name="c" unicode="c" horiz-adv-x="917" 
d="M435.5 788q-64.5 -25 -113.5 -72q-53 -51 -83 -124t-29 -165q0 -96 30 -169t84 -122q50 -46 116 -69.5t139 -23.5q78 0 164 39q30 14 53 29l26 16l15 -69q-6 -6 -29 -19q-55 -34 -145 -56q-46 -12 -97 -12q-103 0 -191.5 30t-154.5 87q-68 58 -105.5 144.5t-37.5 195.5
t39 195t109 146q68 57 157.5 86.5t191.5 29.5q95 0 179 -28q40 -12 71 -27l-21 -84q-57 38 -135 57q-41 10 -100 10q-68 0 -132.5 -25z" />
    <glyph glyph-name="d" unicode="d" horiz-adv-x="1197" 
d="M173 730q84 113 240 143q44 10 104 10q88 0 154 -23q110 -38 166 -115q26 -36 39 -69v399q0 245 -5 363q-1 28 -4 76l-2 22l149 -12l-2 -21l-3 -75q-5 -177 -5 -371v-699q0 -156 5 -261q1 -43 5 -97h-149l1 32l3 76q0 20 2 74q-23 -41 -47.5 -74t-59.5 -60
q-94 -73 -235 -74q-8 -1 -24 -1q-37 0 -92 11q-152 33 -240 164q-83 124 -83 300q0 170 83 282zM249 286.5q22 -75.5 64 -131.5q40 -54 96.5 -84t126.5 -30q30 0 70 7t80 25q80 36 130 115q60 95 60 249q0 150 -63 243q-50 74 -136 110q-64 26 -130 26q-76 0 -136 -27.5
t-102 -77.5q-40 -48 -61 -116t-21 -147q0 -86 22 -161.5z" />
    <glyph glyph-name="e" unicode="e" horiz-adv-x="1008" 
d="M724 861q80 -28 127 -74q54 -54 54 -125q0 -44 -11.5 -67.5t-30.5 -37.5h29q26 0 40 1h37h22l-13 -70l-29 1q-35 0 -58 1q-92 2 -155 2h-519q-5 -26 -5 -65q0 -95 30 -168t84 -123q50 -46 115 -69.5t136 -23.5q78 0 166 39q28 13 55 29l25 16l15 -69q-5 -7 -30 -20
q-59 -34 -149 -55q-48 -12 -99 -12q-98 0 -185.5 30t-152.5 87q-68 60 -105.5 146t-37.5 194q0 110 39.5 196t110.5 146q67 56 157 85.5t190 29.5q74 0 148 -24zM461 797q-53 -16 -98 -48q-101 -71 -135 -190h415h46q62 0 90 31q16 17 16 54q0 36 -17 67.5t-47 54.5t-72 35
t-90 12q-55 0 -108 -16z" />
    <glyph glyph-name="f" unicode="f" horiz-adv-x="594" 
d="M78 834l26 7q35 6 88 10v145q0 256 101 394q108 147 325 147q85 0 140 -21q24 -8 42 -20l-20 -78l-22 12q-31 18 -80 28q-28 5 -56 5q-154 -4 -230 -128q-72 -119 -72 -342v-138h265l-19 -81q-46 6 -78 7q-35 0 -54 1l-114 2v-426q0 -156 5 -261q1 -43 5 -97h-148l5 114
q5 122 5 305v368h-114v47z" />
    <glyph glyph-name="g" unicode="g" horiz-adv-x="1067" 
d="M1012 -225q32 -52 32 -123q0 -77 -40.5 -137t-112.5 -103q-68 -40 -154.5 -61t-177.5 -21q-196 0 -320 67q-100 54 -147 147q-19 38 -26.5 76t-5.5 70l241 238l-29 12q-58 25 -89.5 62t-31.5 89q0 51 54 103q30 28 63 45q-18 10 -32 21q-61 44 -94.5 110t-33.5 155
q0 88 33.5 154.5t95.5 110.5q58 41 134 61.5t161 20.5h2v0q32 0 134 4l77 3l76 3l24 1l154 9l-18 -86l-223 19q36 -18 58 -34q61 -44 95.5 -111t34.5 -156q0 -88 -34 -154t-96 -110q-58 -42 -134 -62.5t-160 -20.5q-104 0 -194 33q-48 -28 -64 -44q-11 -12 -15.5 -22.5
t-4.5 -23.5q0 -27 18 -45t58 -33q30 -11 84.5 -25t118.5 -28q3 -1 50 -11q123 -27 205.5 -52t138.5 -60q63 -39 95 -91zM322 308q80 -64 212 -64q55 0 106.5 16.5t92.5 49.5q91 73 91 212q0 147 -92 219q-41 32 -95.5 47.5t-116.5 15.5q-56 0 -107.5 -16t-91.5 -49
q-43 -35 -67 -88.5t-24 -123.5q0 -147 92 -219zM889 -466.5q35 42.5 35 99.5q0 55 -31 94t-89 67q-49 23 -109 39t-157 36q-116 24 -169 38l-115 -113q-35 -35 -79 -81l-27 -29q-10 -11 -10 -14q0 -57 26 -104.5t78 -81.5q111 -74 307 -74q60 0 125 13t119 39q61 29 96 71.5
z" />
    <glyph glyph-name="h" unicode="h" horiz-adv-x="1170" 
d="M1034 0h-149q2 2 3 18l3 72q5 117 5 383q0 163 -58 242q-63 84 -203 84q-66 0 -124 -30.5t-102 -82.5q-42 -49 -65.5 -110.5t-23.5 -118.5v-99q0 -156 5 -261q1 -43 5 -97h-148l5 97q5 105 5 261v711q0 246 -5 361l-5 94l148 12q-5 -50 -8 -200q-2 -96 -2 -178v-511
q14 45 49 87.5t85 76.5q52 35 111.5 54.5t122.5 19.5q165 0 251 -94q68 -74 80 -204q1 -7 2 -20t2 -36q1 -13 1 -50v-79q0 -162 5 -317l3 -66z" />
    <glyph glyph-name="i" unicode="i" horiz-adv-x="512" 
d="M228 1282l132 -70l-67 -127l-132 69zM192 498q0 195 -5 283l-5 70l149 12q-6 -50 -9 -182q-2 -92 -2 -175v-148q0 -156 5 -261l6 -97h-149l5 97q5 105 5 261v140z" />
    <glyph glyph-name="j" unicode="j" horiz-adv-x="496" 
d="M228 1282l132 -70l-67 -127l-132 69zM191 486q0 156 -5 263l-5 101l148 12q-5 -62 -8 -212q-2 -94 -2 -164v-322q0 -227 -48 -386q-37 -124 -105 -206q-67 -79 -153 -97l-17 67q48 26 78.5 75t54.5 114q36 97 54 262q8 90 8 191v302z" />
    <glyph glyph-name="k" unicode="k" horiz-adv-x="1047" 
d="M192 1150q0 195 -5 293l-5 81l148 12q-5 -50 -8 -200q-2 -96 -2 -178v-800q0 -156 5 -261q1 -43 5 -97h-148l5 97q5 105 5 261v792zM1058 -12q-18 -7 -43 -8q-9 -1 -33 -1q-81 0 -168 90q-71 74 -140 198q-68 104 -175 149q-47 19 -94 22l-36 65l214 212l38 45l83 104
l133 -16l-58 -53q-66 -62 -103 -99l-215 -210q88 -6 171 -49q106 -58 170 -155q118 -181 198 -242q37 -30 62 -34z" />
    <glyph glyph-name="l" unicode="l" horiz-adv-x="513" 
d="M192 1150q0 195 -5 293l-5 81l149 12q-6 -63 -9 -200q-2 -96 -2 -178v-800q0 -156 5 -261l6 -97h-149l5 97q5 105 5 261v792z" />
    <glyph glyph-name="m" unicode="m" horiz-adv-x="1704" 
d="M192 498q0 177 -6 283l-5 70l149 12l-3 -41q-3 -35 -5 -170q15 44 47.5 86t76.5 74q46 34 102 53.5t117 19.5q134 0 200 -63q54 -53 67 -148q19 41 52.5 79t78.5 68q97 64 210 64q132 0 198 -64q52 -52 66 -146q6 -40 6 -82v-75v-156q0 -168 5 -270q1 -45 5 -92h-148
q7 113 9 199q1 44 1 157v132q0 95 -4 145.5t-20 86.5q-18 40 -57.5 59.5t-107.5 19.5q-58 0 -110.5 -26t-93.5 -70q-39 -43 -62 -97t-24 -108v-136q0 -189 4 -270q1 -45 5 -92h-148q7 113 9 199q1 44 1 157v132q0 95 -4 145.5t-20 86.5q-19 40 -57.5 59.5t-106.5 19.5
q-64 0 -118.5 -29t-95.5 -80q-38 -48 -60.5 -107t-24.5 -117v-108q0 -156 5 -261q1 -43 5 -97h-149l5 97q6 126 6 261v140z" />
    <glyph glyph-name="n" unicode="n" horiz-adv-x="1171" 
d="M325 123q0 -15 4 -91l2 -32h-149l5 97q5 105 5 261v140q0 195 -5 283l-5 70l149 12l-3 -41l-3 -64l-3 -106q16 43 51.5 85t84.5 75q50 34 109.5 53.5t120.5 19.5q134 0 216 -64q68 -55 97 -146q23 -73 23 -157v-204q0 -164 5 -246q1 -36 5 -68h-149q5 51 9 158
q2 78 2 150v180q0 157 -59 231q-65 80 -202 80q-66 0 -124.5 -31.5t-101.5 -84.5q-42 -51 -65.5 -113t-23.5 -120q0 -195 5 -327z" />
    <glyph glyph-name="o" unicode="o" horiz-adv-x="1140" 
d="M378 1q-88 30 -154 87q-69 60 -107.5 146t-38.5 194q0 109 39.5 195t110.5 146q68 57 157 86.5t189 29.5q98 0 186.5 -30t154.5 -87q69 -60 108 -146t39 -194q0 -110 -39.5 -196t-110.5 -145q-68 -57 -158 -86.5t-190 -29.5q-98 0 -186 30zM241 259q30 -73 83 -122
q49 -47 113.5 -70.5t135.5 -23.5q67 0 130.5 24.5t113.5 72.5q53 50 82.5 123t29.5 165q0 95 -30 168.5t-83 123.5q-50 46 -114.5 69.5t-134.5 23.5q-67 0 -130.5 -24.5t-112.5 -71.5q-53 -51 -83 -124t-30 -166q0 -95 30 -168z" />
    <glyph glyph-name="p" unicode="p" horiz-adv-x="1190" 
d="M1078 624.5q28 -80.5 28 -176.5q0 -102 -28 -189t-81 -151q-55 -65 -132.5 -101t-174.5 -36q-164 0 -268 76q-66 49 -102 128v-493q0 -156 5 -261q1 -43 5 -97h-148l5 97q5 105 5 261v792q0 195 -5 293l-5 80l148 13q-5 -51 -7 -176q33 74 99 124q105 77 268 77
q97 0 175 -31.5t132 -90.5q53 -58 81 -138.5zM948 288q21 75 21 160q0 79 -21 147t-61 116q-42 50 -102 77.5t-137 27.5q-66 0 -128 -26q-85 -35 -136 -110q-64 -94 -64 -243v-13q0 -146 62 -240q49 -76 132 -111q65 -29 124 -31l22 -1q71 0 128.5 30.5t97.5 85.5
q41 56 62 131z" />
    <glyph glyph-name="q" unicode="q" horiz-adv-x="1182" 
d="M993 -578q1 -43 5 -97h-149l5 97q6 126 6 261v491q-12 -25 -31 -54q-60 -88 -182 -127q-65 -22 -158 -22q-97 0 -174.5 35t-131.5 100q-53 64 -81 151t-28 191q0 96 28 176.5t81 138.5q54 59 131.5 90.5t174.5 31.5q164 0 269 -77q64 -48 100 -124l-3 66l-1 28l-5 83
l149 -12q-5 -48 -8 -195q-2 -94 -2 -178v-793q0 -156 5 -261zM860 424v13q0 150 -63 243q-50 74 -136 110q-64 26 -130 26q-76 0 -136 -27.5t-102 -77.5q-40 -48 -61 -116t-21 -147q0 -86 21.5 -161t63.5 -131q41 -55 97.5 -85t126.5 -30l21 1q58 2 125 31q83 35 133 111
q61 95 61 240z" />
    <glyph glyph-name="r" unicode="r" horiz-adv-x="639" 
d="M641 866l-24 -103q-20 15 -46 23q-13 4 -33 4q-47 0 -87 -25.5t-71 -67.5q-27 -38 -43 -83t-17 -83v-25v-148q0 -156 5 -261q1 -43 5 -97h-149l5 97q6 126 6 261v140q0 177 -6 283l-5 70l149 12q-5 -41 -7 -156q17 43 48 82q34 43 83 69.5t113 26.5q28 0 54 -10z" />
    <glyph glyph-name="s" unicode="s" horiz-adv-x="764" 
d="M104 101q59 -36 148 -53q44 -10 104 -10q37 0 73 10.5t64 30.5q63 45 63 119q0 43 -30 78.5t-86 70.5q-43 27 -107 61q-64 33 -112 67.5t-79 74.5q-33 42 -33 98q0 53 21.5 97t63.5 75q89 65 243 65q72 0 139 -28q35 -13 59 -28l-20 -78q-48 37 -114 57q-33 10 -79 10
q-83 0 -135 -34q-59 -39 -59 -102q0 -38 30.5 -70t86.5 -65q49 -28 109 -59q64 -33 112 -68.5t80 -79.5q33 -46 33 -109q0 -57 -22.5 -105t-65.5 -82q-92 -73 -250 -73q-104 0 -185 27q-40 10 -70 27z" />
    <glyph glyph-name="t" unicode="t" horiz-adv-x="767" 
d="M75 834q25 8 63 13q28 4 54 5v84q0 84 25 171q8 32 25 73h83q0 -46 -1 -77q-1 -27 -1 -101l-2 -147h357l-19 -81q-9 4 -43 5q-88 4 -189 5q-73 0 -106 1q-1 -40 -1 -127v-146q0 -136 6.5 -218t26.5 -135q21 -58 65 -86t119 -28q69 0 147 32q33 14 63 33l17 -74
q-57 -36 -151 -55q-46 -10 -106 -10q-99 0 -161.5 29t-96.5 88q-32 54 -44 134.5t-13 201.5v363h-117v47z" />
    <glyph glyph-name="u" unicode="u" horiz-adv-x="1171" 
d="M844 54l1 30l3 120q-16 -43 -51 -84.5t-83 -74.5q-50 -34 -108.5 -53.5t-119.5 -19.5q-135 0 -216 65q-68 53 -99 146q-24 72 -24 155v204q0 163 -5 245q0 2 -4 69h148q-5 -39 -8 -158q-2 -80 -2 -151v-179q0 -157 60 -231q32 -40 81 -60t119 -20q66 0 124 31t102 84
q42 50 65.5 111t23.5 118v103q0 192 -5 279l-5 68l149 12q-6 -50 -9 -182q-2 -92 -2 -175v-148q0 -156 5 -261l6 -97h-149z" />
    <glyph glyph-name="v" unicode="v" horiz-adv-x="953" 
d="M246 685q20 -55 34 -90l204 -496q50 60 105 137q79 111 127 214q62 133 62 230q0 75 -13 134q-4 27 -12 50l98 -16l7 -42q8 -54 8 -103q0 -83 -24 -165t-72 -170q-89 -162 -273 -374l-106 8l-221 533q-43 104 -99 220l-50 101h167q20 -64 58 -171z" />
    <glyph glyph-name="w" unicode="w" horiz-adv-x="1506" 
d="M626 286q71 119 110 230q-4 10 -6 19q-60 138 -100 220l-50 101h168q17 -56 49 -147q2 -8 8 -24q20 -55 34 -90l204 -492q52 63 88 115q68 96 112 178q58 108 79 203q9 54 9 99q0 51 -12 123q-3 19 -11 43l98 -16q5 -26 10 -67l3 -46q2 -74 -13 -150.5t-45 -146.5
q-58 -134 -180 -289q-62 -79 -129 -155l-102 8l-175 411q-39 -105 -107 -212.5t-170 -206.5l-106 8l-221 533q-60 138 -100 220l-49 101h167q20 -64 58 -171q20 -55 34 -90l204 -496q73 76 141 187z" />
    <glyph glyph-name="x" unicode="x" horiz-adv-x="904" 
d="M868 16q12 -15 14 -16h-170q-53 81 -102 149l-62 87l-112 151l-68 -87q-63 -78 -132 -169l-52 -68l-20 -26l-15 -20l-13 -17h-113q93 110 141 169l80 98l145 189l-85 115q-74 105 -161 212l-15 18q-35 41 -47 54h170l153 -206l32 -46l40 -61l87 111l116 153l38 49h111
l-68 -82q-78 -94 -148 -183l-91 -115l35 -49q114 -159 229 -307q20 -27 70 -88z" />
    <glyph glyph-name="y" unicode="y" horiz-adv-x="960" 
d="M190 511q-16 42 -25 62l-27 59l-38 84l-33 71l-33 68h167q19 -63 58 -170q20 -55 34 -90q70 -166 103 -248l101 -248q52 63 89 115q67 92 114 180q60 115 80 205q9 54 9 99q0 51 -12 123q-3 19 -11 43l98 -16q6 -25 11 -73q3 -25 3 -61q0 -16 -2 -52q-3 -36 -10 -67
q-23 -134 -104.5 -274t-225.5 -297q-103 -113 -206 -268q-91 -136 -160 -272h-62l-2 30l13 26q29 59 86 158q72 124 139 217q37 54 77 98l-31 17z" />
    <glyph glyph-name="z" unicode="z" horiz-adv-x="843" 
d="M781 856l-30 -40l-23 -31q-71 -96 -140 -197l-176 -254l-56 -76l-51 -71l-45 -63l-35 -50q244 4 438 12l38 2l93 6v-94h-772q6 5 38 44q71 92 152 202q59 79 191 264q80 111 153 217l37 56q-210 -4 -377 -12l-27 -2l-86 -6v93h678z" />
    <glyph glyph-name="braceleft" unicode="{" horiz-adv-x="623" 
d="M577 -520l-34 -2q-28 -2 -45 -2q-102 0 -164 51q-77 62 -84 183q-3 25 -3 52l1 31l19 459q1 83 -38 119q-33 29 -93 29v69q60 0 93 30q39 38 38 118l-22 520q-4 134 70 201q62 56 172 56q63 0 90 -4l-17 -65q-4 0 -5 1h-6l-23 1q-95 0 -129 -57q-16 -27 -20 -62.5
t-3 -90.5l21 -507q1 -84 -34 -127q-36 -42 -89 -48q54 -8 89 -49q35 -43 34 -126l-21 -507q-1 -56 3 -91t20 -61q33 -58 124 -58q18 0 28 1q4 0 6 1h5z" />
    <glyph glyph-name="bar" unicode="|" horiz-adv-x="457" 
d="M192 1140q0 167 -5 305q-4 100 -5 135h93q-5 -96 -8 -276q-2 -106 -2 -164v-1022q0 -169 5 -304q1 -52 5 -134h-93q1 37 5 134q5 135 5 304v1022z" />
    <glyph glyph-name="braceright" unicode="}" horiz-adv-x="625" 
d="M58 -455h6q1 -1 5 -1q10 -1 28 -1q90 0 125 58q13 22 17.5 51.5t4.5 70.5v30l-21 507q-4 79 34 126q34 41 89 49q-55 6 -89 48q-38 47 -34 127l21 507q1 55 -3 90.5t-19 62.5q-17 28 -48.5 42.5t-81.5 14.5l-23 -1h-5q-2 -1 -6 -1l-17 65q25 4 89 4q110 0 173 -56
q73 -67 69 -201l-22 -520q-4 -78 39 -118q31 -30 92 -30v-69q-60 0 -92 -29q-43 -38 -39 -119l20 -459v-42q0 -15 -2 -41q-10 -125 -84 -183q-63 -51 -164 -51q-19 0 -45 2l-34 2z" />
    <glyph glyph-name="asciitilde" unicode="~" horiz-adv-x="1001" 
d="M104 345q7 32 24.5 64t44.5 57q60 58 154 58q41 0 81 -11.5t93 -33.5q53 -23 91.5 -34.5t76.5 -11.5q55 0 94 26q29 20 48 61h70q-17 -66 -61 -112q-64 -64 -168 -64q-41 0 -83.5 12t-96.5 34q-60 24 -93 35t-63 11q-58 0 -90 -21t-54 -70h-68z" />
    <glyph glyph-name="exclamdown" unicode="&#xa1;" horiz-adv-x="401" 
d="M229 713l-128 68l65 124l128 -68zM276 -651v-1h-160v1v0q10 93 19 305q4 121 5 195l4 200q4 205 4 488l100 11q2 -260 6 -492q1 -150 9 -398q7 -224 13 -309z" />
    <glyph glyph-name="cent" unicode="&#xa2;" horiz-adv-x="917" 
d="M509 -320l3 85q3 56 5 208q-94 7 -174 40t-139 90q-61 58 -94 140t-33 185q0 102 33.5 183.5t95.5 140.5q59 56 139 89t173 41l-3 124l-3 101l-3 93h93l-3 -93q-4 -87 -6 -224q74 -1 164 -27q29 -10 49 -18l18 -8l-21 -84q-47 34 -124 53q-39 11 -87 12v-766q75 1 156 40
q32 14 51 27q21 13 23 15l15 -69l-23 -16q-54 -33 -130 -54q-46 -13 -91 -14q2 -131 6 -209l3 -85h-93zM401.5 768.5q-55.5 -28.5 -97.5 -75.5q-45 -50 -70 -117t-24 -149q0 -166 93 -267q42 -46 97 -73.5t119 -36.5v756q-62 -9 -117.5 -37.5z" />
    <glyph glyph-name="sterling" unicode="&#xa3;" horiz-adv-x="1081" 
d="M750 550l-200 4q-72 0 -108 1h-103q-5 -116 -17 -192.5t-32 -127.5q-19 -48 -46 -81t-67 -63q33 15 67 21.5t79 6.5q40 0 82.5 -8.5t110.5 -25.5t110.5 -25.5t83.5 -8.5q69 0 146 18q110 26 177 86l18 -79q-78 -59 -158 -82q-79 -23 -185 -23q-51 0 -101 9t-122 27
q-68 17 -121 26t-106 9q-33 0 -63 -7t-63 -20l-54 -21q-21 -9 -53 -14l-15 67q62 33 101.5 79.5t63.5 109.5q22 59 31.5 136t10.5 182q-27 -1 -66 -1q-27 0 -75 -3v82q55 -3 75 -4l64 -2q-1 9 -1 26v25q-3 50 -3 98q0 143 25 262q37 174 128 268q101 106 270 106
q128 0 236 -29q55 -15 88 -29l-24 -102q-30 30 -121 58t-165 28q-145 0 -217 -120q-58 -94 -77 -278q-9 -87 -9 -233v-80q76 0 117 1l117 2q128 0 191 4z" />
    <glyph glyph-name="currency" unicode="&#xa4;" horiz-adv-x="1319" 
d="M487.5 223.5q-75.5 22.5 -137.5 67.5l-68 -70q-70 -73 -111 -118l-58 57q46 42 112 105l67 65q-131 128 -131 328q0 194 122 316l-66 65l-75 71q-36 33 -35 32l57 57q64 -70 108 -115q21 -23 67 -69q66 49 146.5 74.5t170.5 25.5q88 0 167.5 -25t143.5 -73l69 71
q70 73 110 117l57 -58q-70 -64 -112 -105l-68 -67q121 -121 121 -317q0 -97 -31 -177t-89 -139q93 -91 129 -124q38 -36 57 -53l-57 -57l-55 59l-59 61l-69 71q-66 -48 -148.5 -73t-173.5 -25q-85 0 -160.5 22.5zM324 489q30 -73 83 -122q49 -47 113.5 -70.5t135.5 -23.5
q67 0 130.5 24.5t113.5 72.5q53 50 82.5 123t29.5 165q-1 95 -30.5 168.5t-82.5 123.5q-50 46 -114.5 69.5t-134.5 23.5q-67 0 -130.5 -24.5t-112.5 -71.5q-54 -51 -84 -124.5t-29 -165.5q0 -95 30 -168z" />
    <glyph glyph-name="yen" unicode="&#xa5;" horiz-adv-x="1110" 
d="M150 435q121 -6 206 -7l125 -2v163l-160 -3l-70 -1l-101 -3v85l97 -3q62 -3 220 -5l-17 57l-206 324l-163 246q-36 51 -48 70l-17 24h186q0 -2 16 -30q22 -42 89 -151q4 -8 9 -16t9 -15l79 -131q22 -38 40.5 -68t32.5 -54q5 -6 13 -20l86 -143l149 226q93 140 180 279
l77 123h113l-22 -31l-136 -198l-12 -18q-72 -105 -185 -272l-97 -147l-22 -55q137 0 222 4l110 3v-85l-110 3l-108 3q-41 0 -119 2v-163q138 0 225 4l112 3v-84l-110 3l-108 2l-118 2q2 -182 5 -249l4 -107h-156q6 134 7 220l2 136l-158 -3l-71 -1l-100 -2v85z" />
    <glyph glyph-name="brokenbar" unicode="&#xa6;" horiz-adv-x="461" 
d="M269 1580q-6 -158 -7 -257q-1 -49 -1 -154q0 -193 3 -274l3 -139h-83l4 138q4 107 4 276q0 183 -4 284l-3 126h84zM269 506q-6 -158 -7 -257q-1 -49 -1 -154q0 -193 3 -274l3 -139h-83l4 138q4 107 4 275q0 184 -4 285l-3 126h84z" />
    <glyph glyph-name="section" unicode="&#xa7;" horiz-adv-x="1129" 
d="M978.5 369q-50.5 -82 -148.5 -126q47 -70 47 -150q0 -79 -28 -145t-83 -114q-56 -49 -137.5 -75.5t-185.5 -26.5q-121 0 -249 30q-56 14 -101 31l23 92q84 -47 203 -70q59 -13 134 -13q71 0 128 21t97 58q37 35 57 79.5t20 90.5q0 65 -36 117t-102 102q-65 46 -134 84
q-84 46 -148.5 88.5t-114.5 90.5q-54 51 -77 119q-16 52 -16 91q0 106 54 176.5t167 100.5q-71 84 -71 183q0 143 96 221q103 82 302 82q99 0 184 -29q41 -13 69 -28l-17 -80l-22 13q-41 24 -104 39q-47 10 -101 10q-89 0 -150.5 -28t-92.5 -80q-21 -24 -33 -45.5t-12 -48.5
q0 -48 25.5 -89t73.5 -78q35 -29 76 -53.5t123 -70.5l19 -10q70 -39 123.5 -75t94.5 -76q98 -98 98 -219q0 -107 -50.5 -189zM883 614.5q-23 43.5 -66 82.5q-32 28 -73 54t-101 60l-25 14q-72 39 -119 68.5t-84 64.5q-116 -29 -152 -113q-17 -40 -17 -82q0 -57 30 -98
q54 -74 178 -142q147 -82 225 -135q54 -38 90 -82q65 33 102 93q35 55 35 118q0 54 -23 97.5z" />
    <glyph glyph-name="dieresis" unicode="&#xa8;" horiz-adv-x="660" 
d="M226 1252l116 -64l-64 -115l-116 63zM537 1252l116 -64l-60 -115l-117 63z" />
    <glyph glyph-name="copyright" unicode="&#xa9;" horiz-adv-x="1655" 
d="M794 -40q-151 0 -283.5 52.5t-230.5 150.5q-100 99 -155 237t-55 302q0 177 59 313t166 229q101 88 235.5 132t286.5 44h16q151 0 284 -53t231 -150q100 -99 154.5 -236.5t54.5 -302.5q0 -234 -106 -402q-100 -158 -271 -238q-166 -78 -370 -78h-16zM222 360
q80 -153 225 -241q153 -93 351 -93h16q67 0 141 13t145 40q169 65 268 198q118 161 118 408q0 138 -45.5 260t-131.5 213q-88 92 -210.5 143.5t-269.5 52.5h-16q-151 0 -283 -52q-173 -68 -269 -198q-119 -162 -119 -409q0 -183 80 -335zM708.5 1043.5
q-65.5 -24.5 -115.5 -71.5q-54 -50 -84 -122t-29 -164q0 -95 30.5 -167t84.5 -121q50 -45 117 -68.5t141 -23.5q76 0 162 39q36 17 53 28q20 13 24 15l17 -73l-29 -16q-63 -33 -144 -53q-49 -11 -98 -11q-100 0 -187.5 29t-152.5 85q-69 59 -107.5 144.5t-38.5 193.5t39 194
t109 144q67 56 156 84.5t190 28.5q84 0 177 -27q38 -10 72 -26l-20 -82q-53 35 -135 55q-41 10 -97 10q-69 0 -134.5 -24.5z" />
    <glyph glyph-name="ordfeminine" unicode="&#xaa;" horiz-adv-x="826" 
d="M798 762q-52 -28 -124 -28q-54 0 -89 24t-47 63q-52 -42 -135 -71q-84 -29 -159 -29q-100 0 -147 29q-29 17 -43.5 45t-14.5 72q0 38 5 61t20 41q15 17 46 32t87 34l334 110q-2 93 -30 142q-36 62 -123 62q-63 0 -143 -35q-77 -34 -127 -76l-19 68q66 47 165 80
q84 28 154 28q136 0 193 -86q25 -38 35 -91.5t10 -124.5v-122q0 -39 -1 -60q-3 -72 19 -107q8 -14 23.5 -20.5t32.5 -6.5q13 0 22 3l42 12zM364 800q40 11 77 30q38 20 63 46t27 54v148l-171 -56q-64 -21 -100 -32q-43 -13 -68 -27t-36 -32q-12 -18 -12 -48q0 -62 49 -82
q19 -8 42.5 -10t58.5 -2q30 0 70 11z" />
    <glyph glyph-name="guillemotleft" unicode="&#xab;" horiz-adv-x="846" 
d="M110 507l50 68q45 62 88 130l74 113l65 -45l-232 -334l232 -334l-65 -45l-51 81q-53 85 -136 198l-76 100zM466 507l50 68q53 74 89 130l73 113l65 -45l-232 -334l232 -334l-65 -45l-51 81q-36 59 -136 198l-75 100z" />
    <glyph glyph-name="logicalnot" unicode="&#xac;" horiz-adv-x="1027" 
d="M903 691q-7 -83 -8 -159q-1 -31 -1 -97q0 -120 3 -171l4 -86h-89l4 85q4 68 4 173q0 67 -2 157q-1 10 -1 29q-260 -1 -521 -12q-92 -4 -182 -11v92h789z" />
    <glyph glyph-name="uni00AD" unicode="&#xad;" horiz-adv-x="624" 
d="M76 478q85 -6 144 -7q28 -1 89 -1q112 0 157 3l77 4v-82l-76 3q-60 4 -159 4q-55 0 -131 -2l-31 -1l-70 -3v82z" />
    <glyph glyph-name="registered" unicode="&#xae;" horiz-adv-x="1655" 
d="M1400 15q48 -48 81 -54l-5 -19q-11 -6 -41 -11q-18 -2 -33 -2q-62 0 -132 73q-24 26 -48 57l-42 -21q-166 -78 -370 -78h-16q-151 0 -283.5 52.5t-230.5 150.5q-100 99 -155 237t-55 302q0 177 59 313t166 229q101 88 235.5 132t286.5 44h16q151 0 284 -53t231 -150
q100 -99 154.5 -236.5t54.5 -302.5q0 -234 -106 -402q-56 -88 -137 -154q48 -69 86 -107zM1182 117q-26 43 -34 57q-42 73 -104 202q-48 97 -110 167q-52 56 -103 84q-55 31 -106 34l-26 56l6 -2l-6 3h49q47 0 98.5 7.5t95.5 24.5q52 20 83 55t31 86q0 41 -20 71.5t-57 49.5
q-68 34 -178 34q-28 0 -76 -2q-50 -2 -87 -2h-52l2 -509q0 -114 4 -178q1 -32 5 -80h-134q6 102 7 162q1 31 1 96v313q0 57 -2 141l-1 38l-2 81h140q53 0 100 4t113 4q205 0 297 -74q63 -52 63 -135q0 -99 -80 -153q-61 -43 -160 -58q-39 -7 -93 -9q63 -19 126 -63
q57 -39 105.5 -96.5t82.5 -129.5q59 -124 116 -216q56 47 92 97q118 161 118 408q0 138 -45.5 260t-131.5 213q-88 92 -210.5 143.5t-269.5 52.5h-16q-151 0 -283 -52q-173 -68 -269 -198q-119 -162 -119 -409q0 -183 80 -335q80 -153 225 -241q153 -93 351 -93h16
q67 0 141 13t145 40q46 18 82 38z" />
    <glyph glyph-name="macron.275" unicode="&#xaf;" horiz-adv-x="604" 
d="M562 1297l-66 3q-49 4 -111 4h-140q-48 0 -103 -5l-60 -4v82h480v-80z" />
    <glyph glyph-name="degree" unicode="&#xb0;" horiz-adv-x="800" 
d="M133 1235q22 52 62 92q40 39 92 61t110 22t110 -22t92 -61q39 -40 61 -92t22 -110t-22 -110t-61 -92q-40 -40 -92 -62t-110 -22t-110 22t-92 62t-62 92t-22 110t22 110zM199 1042q16 -39 46 -69t69 -46t83 -16t82.5 16t68.5 46t46 69t16 83t-16 82.5t-46 68.5t-68.5 46
t-82.5 16t-83 -16t-69 -46t-46 -68.5t-16 -82.5t16 -83z" />
    <glyph glyph-name="plusminus" unicode="&#xb1;" horiz-adv-x="720" 
d="M80 178q104 -6 175 -6q33 -1 105 -1q132 0 188 3l93 4v-82l-93 3q-73 4 -189 4q-65 0 -155 -2l-39 -1l-85 -3v81zM405 814q-6 -89 -7 -152q-1 -30 -1 -94q102 0 165 4l79 3v-82l-79 3l-78 2l-87 2q0 -120 3 -167l3 -80h-82l3 80l3 79q0 59 1 88l-118 -3l-55 -1l-75 -2v81
q78 -5 154 -5q29 -1 94 -1q-1 32 -1 92q-2 102 -5 153h83z" />
    <glyph glyph-name="uni00B2" unicode="&#xb2;" horiz-adv-x="741" 
d="M75 800q215 100 330 193q135 108 135 198q0 76 -58 117q-26 18 -59 28t-67 10q-89 0 -162 -23q-28 -9 -52 -23l-15 54q51 31 143 48q46 9 112 9q62 0 112 -16.5t84 -47.5q33 -30 51 -70t18 -85q0 -78 -71 -159q-59 -67 -161 -130q-83 -50 -175 -91q241 5 340 10l116 7
v-85h-621v56z" />
    <glyph glyph-name="uni00B3" unicode="&#xb3;" horiz-adv-x="716" 
d="M436 1328q-45 19 -118 19q-57 0 -110.5 -11.5t-86.5 -28.5l-13 54l24 12q47 19 121 32q36 7 82 7q125 0 193 -39q74 -43 74 -120q0 -57 -60 -99q-53 -37 -149 -55q47 -2 94.5 -13t84.5 -31q43 -23 68 -59t25 -84q0 -112 -103 -165q-45 -23 -102.5 -34t-119.5 -11
q-71 0 -160 20q-63 14 -132 38l15 60q2 -1 8.5 -2.5t20.5 -5.5q76 -21 139 -30q41 -7 87 -7q101 0 162 32q77 39 77 119q0 68 -107 107q-43 16 -96.5 23.5t-105.5 7.5l-15 63q37 1 82 9.5t85 22.5q97 35 97 89q0 55 -61 80z" />
    <glyph glyph-name="acute" unicode="&#xb4;" horiz-adv-x="660" 
d="M470 1293q-23 -17 -81 -66q-21 -18 -38 -35l-151 -157h-86l161 185q26 32 57 76l28 40z" />
    <glyph glyph-name="uni00B5" unicode="&#xb5;" horiz-adv-x="1217" 
d="M192 392q0 247 -5 362q-1 27 -4 72l-2 21l149 13q-5 -45 -8 -166q-2 -78 -2 -144v-144q0 -169 58 -254q62 -95 203 -95q66 0 123.5 31t101.5 84q42 50 65.5 111t23.5 118q0 256 -5 366q-1 30 -4 67l-2 17l150 12q-6 -50 -9 -182q-2 -92 -2 -175v-148q0 -156 5 -261l6 -97
h-149l3 54l1 31l3 117q-14 -43 -46 -84t-77 -73q-100 -73 -219 -73q-92 0 -153 43q-51 36 -77 101v-434q0 -156 5 -261q1 -43 5 -97h-149l5 97q6 126 6 261v710z" />
    <glyph glyph-name="paragraph" unicode="&#xb6;" horiz-adv-x="1028" 
d="M468 -358q15 99 23 253q3 59 5 200l4 633q-79 0 -144.5 23.5t-112.5 67.5q-47 43 -72 101.5t-25 127.5q0 169 106 252q98 76 278 76h284q-11 -94 -17 -246q-3 -76 -3 -171v-1317h-84v1659h-131v-1659h-111z" />
    <glyph glyph-name="periodcentered" unicode="&#xb7;" horiz-adv-x="506" 
d="M229 533l134 -71l-67 -129l-135 71z" />
    <glyph glyph-name="cedilla" unicode="&#xb8;" horiz-adv-x="660" 
d="M88 -356q36 -17 89 -28q28 -5 53 -5q63 0 104 22q55 28 55 84q0 28 -13 47.5t-36 28.5q-28 12 -67 12q-19 0 -37 -3l-84 -9l72 207q11 9 25 9q5 0 13 -2q5 -1 24 -7l-48 -144l58 4q9 1 27 1q63 0 103 -28q52 -37 52 -111q0 -41 -19.5 -74t-54.5 -56q-33 -22 -77.5 -33.5
t-90.5 -11.5q-60 0 -124 14q-30 6 -53 15z" />
    <glyph glyph-name="uni00B9" unicode="&#xb9;" horiz-adv-x="516" 
d="M9 1270l241 109l119 1q-6 -68 -9 -156q-2 -66 -2 -113v-111q0 -128 4 -187q1 -31 5 -69h-126q7 88 9 146q1 31 1 106v118q0 66 -3 159l-1 21q0 15 -1 21l-208 -115z" />
    <glyph glyph-name="ordmasculine" unicode="&#xba;" horiz-adv-x="952" 
d="M320.5 732q-69.5 23 -119.5 67q-106 93 -106 261q0 84 29 150t82 112q51 44 122.5 66.5t156.5 22.5q83 0 152.5 -23t119.5 -67q50 -45 77.5 -111.5t27.5 -149.5q0 -168 -110 -262q-51 -44 -122.5 -66.5t-156.5 -22.5q-83 0 -152.5 23zM286 840q74 -70 199 -70
q55 0 104 18.5t86 53.5q37 36 57.5 90t20.5 123q0 148 -81 226q-75 69 -199 69q-55 0 -103 -18t-85 -54q-39 -39 -60.5 -94t-20.5 -125q0 -143 82 -219z" />
    <glyph glyph-name="guillemotright" unicode="&#xbb;" horiz-adv-x="842" 
d="M337 372l-51 -69q-41 -57 -88 -129l-74 -114l-65 45l232 334l-232 334l65 45q39 -60 52 -81q56 -89 136 -197l75 -101zM693 372l-50 -69q-52 -72 -89 -129l-73 -114l-65 45l232 334l-232 334l65 45l51 -81q48 -79 136 -197l75 -101z" />
    <glyph glyph-name="onequarter" unicode="&#xbc;" horiz-adv-x="1570" 
d="M874 1003q68 105 152 249q5 7 13 21q31 53 69 119h117q-86 -122 -166 -243l-95 -146l-408 -627q-85 -133 -162 -268l-67 -119h-117q67 97 163 243l93 144zM133 1270l241 109l119 1q-6 -68 -9 -156q-2 -66 -2 -113v-111q0 -128 4 -187q1 -31 5 -69h-126q7 88 9 146
q1 31 1 106v118q0 66 -3 159l-1 21q0 15 -1 21l-208 -115zM1420 155h-146l3 -76q1 -30 5 -73h-126q6 81 8 149h-390v72l384 418l123 2l-4 -97q-1 -13 -1 -37l-2 -64q-1 -8 -1 -18v-161v-34l56 3l91 5v-89zM865 227q143 1 300 5v36v160q0 66 -2 104q-1 11 -1 23z" />
    <glyph glyph-name="onehalf" unicode="&#xbd;" horiz-adv-x="1574" 
d="M874 1003q68 105 152 249q5 7 13 21q31 53 69 119h117q-86 -122 -166 -243l-95 -146l-408 -627q-85 -133 -162 -268l-67 -119h-117q67 97 163 243l93 144zM133 1270l241 109l119 1q-6 -68 -9 -156q-2 -66 -2 -113v-111q0 -128 4 -187q1 -31 5 -69h-126q7 88 9 146
q1 31 1 106v118q0 66 -3 159l-1 21q0 15 -1 21l-208 -115zM850 57q215 100 330 193q135 108 135 198q0 76 -58 117q-26 18 -59 28t-67 10q-89 0 -162 -23q-28 -9 -52 -23l-15 54q51 31 143 48q46 9 112 9q62 0 112 -16.5t84 -47.5q33 -30 51 -70t18 -85q0 -78 -71 -159
q-59 -67 -161 -130q-83 -50 -175 -91q241 5 340 10l116 7v-85h-621v56z" />
    <glyph glyph-name="threequarters" unicode="&#xbe;" horiz-adv-x="1757" 
d="M1080 1003q68 105 152 249q5 7 13 21q31 53 69 119h117q-86 -122 -166 -243l-95 -146l-408 -627q-85 -133 -162 -268l-67 -119h-117q67 97 163 243l93 144zM525 1328q-45 19 -118 19q-57 0 -110.5 -11.5t-86.5 -28.5l-13 54l24 12q47 19 121 32q36 7 82 7q125 0 193 -39
q74 -43 74 -120q0 -57 -60 -99q-53 -37 -149 -55q47 -2 94.5 -13t84.5 -31q43 -23 68 -59t25 -84q0 -112 -103 -165q-45 -23 -102.5 -34t-119.5 -11q-71 0 -160 20q-63 14 -132 38l15 60q2 -1 8.5 -2.5t20.5 -5.5q76 -21 139 -30q41 -7 87 -7q101 0 162 32q77 39 77 119
q0 68 -107 107q-43 16 -96.5 23.5t-105.5 7.5l-15 63q37 1 82 9.5t85 22.5q97 35 97 89q0 55 -61 80zM1607 155h-146l3 -76q1 -30 5 -73h-126q6 81 8 149h-390v72l384 418l123 2l-4 -97q-1 -13 -1 -37l-2 -64q-1 -8 -1 -18v-161v-34l56 3l91 5v-89zM1052 227q143 1 300 5v36
v160q0 66 -2 104q-1 11 -1 23z" />
    <glyph glyph-name="questiondown" unicode="&#xbf;" horiz-adv-x="737" 
d="M538 717l-128 68l64 124l129 -68zM693 -542q-29 -20 -70 -30.5t-89 -10.5q-28 0 -65 5q-70 9 -137 40.5t-119 84.5q-58 58 -90.5 140t-32.5 188q0 61 22 103.5t62 72.5q38 29 82 48q62 28 100 47t72 44q85 62 85 192q0 64 -27 158l102 11q28 -106 28 -192q0 -73 -22 -128
q-20 -48 -55 -81.5t-83 -60.5q-43 -24 -86 -43q-99 -44 -135 -109q-20 -34 -20 -101q0 -39 8 -80.5t23 -77.5q53 -126 163 -163q57 -20 109 -20q43 0 79 12q39 12 62 33z" />
    <glyph glyph-name="Agrave" unicode="&#xc0;" horiz-adv-x="1363" 
d="M754 1386l387 -956q77 -192 131 -309q18 -41 56 -121h-181l-9 30l-64 180q-56 150 -89 238l-9 23q-28 75 -51 131l-7 18l-63 3l-119 1h-153q-87 0 -114 -1l-30 -1q-22 0 -30 -1q-27 -62 -61 -145l-34 -82l-25 -60q-18 -42 -33 -81q-24 -56 -63 -152q-10 -23 -29 -72
l-11 -29h-120q53 105 126 262q21 43 49 108l19 42l424 964zM438 695q26 -2 50 -2h85h164q89 0 153 2l-217 545zM497 1854q13 -21 56 -78q14 -20 29 -38l161 -185h-86l-151 157q-22 22 -76 67q-20 17 -43 34z" />
    <glyph glyph-name="Aacute" unicode="&#xc1;" horiz-adv-x="1363" 
d="M754 1386l387 -956q77 -192 131 -309q18 -41 56 -121h-181l-9 30l-64 180q-56 150 -89 238l-9 23q-28 75 -51 131l-7 18l-63 3l-119 1h-153q-87 0 -114 -1l-30 -1q-22 0 -30 -1q-27 -62 -61 -145l-34 -82l-25 -60q-18 -42 -33 -81q-24 -56 -63 -152q-10 -23 -29 -72
l-11 -29h-120q53 105 126 262q21 43 49 108l19 42l424 964zM438 695q26 -2 50 -2h85h164q89 0 153 2l-217 545zM1010 1811q-23 -17 -81 -66q-21 -18 -38 -35l-151 -157h-86l161 185q26 32 57 76l28 40z" />
    <glyph glyph-name="Acircumflex" unicode="&#xc2;" horiz-adv-x="1363" 
d="M754 1386l387 -956q77 -192 131 -309q18 -41 56 -121h-181l-9 30l-64 180q-56 150 -89 238l-9 23q-28 75 -51 131l-7 18l-63 3l-119 1h-153q-87 0 -114 -1l-30 -1q-22 0 -30 -1q-27 -62 -61 -145l-34 -82l-25 -60q-18 -42 -33 -81q-24 -56 -63 -152q-10 -23 -29 -72
l-11 -29h-120q53 105 126 262q21 43 49 108l19 42l424 964zM438 695q26 -2 50 -2h85h164q89 0 153 2l-217 545zM745 1845q22 -31 54 -71l29 -36l161 -185h-104l-197 205l-201 -205h-78l161 185q32 38 55 71l26 36h94z" />
    <glyph glyph-name="Atilde" unicode="&#xc3;" horiz-adv-x="1363" 
d="M754 1386l387 -956q77 -192 131 -309q18 -41 56 -121h-181l-9 30l-64 180q-56 150 -89 238l-9 23q-28 75 -51 131l-7 18l-63 3l-119 1h-153q-87 0 -114 -1l-30 -1q-22 0 -30 -1q-27 -62 -61 -145l-34 -82l-25 -60q-18 -42 -33 -81q-24 -56 -63 -152q-10 -23 -29 -72
l-11 -29h-120q53 105 126 262q21 43 49 108l19 42l424 964zM438 695q26 -2 50 -2h85h164q89 0 153 2l-217 545zM378 1553q14 74 56 124q51 59 127 59q33 0 65.5 -11.5t78.5 -34.5q49 -24 78 -35t59 -11q79 0 114 89h60q-15 -70 -50 -114q-52 -66 -138 -66q-34 0 -68.5 12
t-78.5 35q-53 25 -79 35.5t-50 10.5q-46 0 -71 -21.5t-45 -71.5h-58z" />
    <glyph glyph-name="Adieresis" unicode="&#xc4;" horiz-adv-x="1363" 
d="M754 1386l387 -956q77 -192 131 -309q18 -41 56 -121h-181l-9 30l-64 180q-56 150 -89 238l-9 23q-28 75 -51 131l-7 18l-63 3l-119 1h-153q-87 0 -114 -1l-30 -1q-22 0 -30 -1q-27 -62 -61 -145l-34 -82l-25 -60q-18 -42 -33 -81q-24 -56 -63 -152q-10 -23 -29 -72
l-11 -29h-120q53 105 126 262q21 43 49 108l19 42l424 964zM438 695q26 -2 50 -2h85h164q89 0 153 2l-217 545zM513 1770l116 -64l-64 -115l-116 63zM824 1770l116 -64l-60 -115l-117 63z" />
    <glyph glyph-name="Aring" unicode="&#xc5;" horiz-adv-x="1363" 
d="M754 1386l387 -956q77 -192 131 -309q18 -41 56 -121h-181l-9 30l-64 180q-56 150 -89 238l-9 23q-28 75 -51 131l-7 18l-63 3l-119 1h-153q-87 0 -114 -1l-30 -1q-22 0 -30 -1q-27 -62 -61 -145l-34 -82l-25 -60q-18 -42 -33 -81q-24 -56 -63 -152q-10 -23 -29 -72
l-11 -29h-120q53 105 126 262q21 43 49 108l19 42l424 964zM438 695q26 -2 50 -2h85h164q89 0 153 2l-217 545zM616 1557.5q-41 13.5 -72 39.5q-70 58 -70 153q0 98 71 156q32 26 73 39t87 13q45 0 86 -13.5t73 -39.5q70 -57 70 -153q0 -98 -71 -156q-32 -26 -74 -39
t-87 -13t-86 13.5zM612 1648q18 -17 42.5 -25.5t50.5 -8.5q25 0 48.5 9t41.5 27q41 39 41 102q0 65 -42 104q-18 17 -42 25.5t-50 8.5q-25 0 -48.5 -9t-41.5 -26q-42 -39 -42 -103q0 -65 42 -104z" />
    <glyph glyph-name="AE" unicode="&#xc6;" horiz-adv-x="1660" 
d="M1565 94v-94h-601q1 35 5 133q5 133 5 297v243q-57 -3 -225 -8l-38 -1l-88 -3q-37 -2 -47 -3l-136 -205q-112 -169 -199 -305q-18 -27 -65 -102l-28 -46h-112q85 120 189 272l71 105l36 54l303 457q68 102 114 175l100 155l72 113q28 42 30 49h610v-94q-97 10 -259 16
q-107 4 -192 5v-543q239 6 307 11q26 1 60 4l16 2v-93q-49 3 -78 4h-77q-44 0 -95 -3h-65q-23 -1 -68 -1v-258q0 -81 2 -205l3 -118l1 -35q196 4 332 13zM974 927q0 245 -3 322l-41 -59l-31 -46l-18 -26q-52 -74 -113 -169l-137 -206l92 1l126 3l125 3v177z" />
    <glyph glyph-name="Ccedilla" unicode="&#xc7;" horiz-adv-x="1207" 
d="M779 -31l-40 -119l58 4q9 1 27 1q63 0 103 -28q52 -37 52 -111q0 -41 -19.5 -74t-54.5 -56q-33 -22 -77.5 -33.5t-90.5 -11.5q-60 0 -124 14q-30 6 -53 15l29 68q36 -17 89 -28q28 -5 53 -5q63 0 104 22q55 28 55 84q0 28 -13 47.5t-36 28.5q-28 12 -67 12q-19 0 -37 -3
l-84 -9l64 185q-136 10 -251 60t-201 136q-98 97 -151 232t-53 298q0 175 58 310t164 227q100 87 234 131.5t285 44.5q126 0 234 -29q55 -15 88 -29l-24 -102q-70 47 -169 73q-51 13 -117 13q-67 0 -136.5 -14.5t-133.5 -44.5q-151 -71 -234 -203q-100 -157 -100 -380
q0 -133 40 -251t115 -207q78 -92 187 -143t240 -51q119 0 218 42q52 22 82 44l22 -97q-70 -36 -186 -53q-59 -10 -142 -10h-7z" />
    <glyph glyph-name="Egrave" unicode="&#xc8;" horiz-adv-x="855" 
d="M185 133q6 160 6 297v518q0 109 -7 298l-6 134h599v-94q-97 10 -259 16q-107 4 -192 5v-531q226 2 296 5l66 3l24 1v-93q-90 6 -210 7l-176 2v-271q0 -81 2 -205l3 -118l1 -35q196 4 332 13l117 9v-94h-601q1 35 5 133zM286 1854q13 -21 56 -78q14 -20 29 -38l161 -185
h-86l-151 157q-22 22 -76 67q-20 17 -43 34z" />
    <glyph glyph-name="Eacute" unicode="&#xc9;" horiz-adv-x="855" 
d="M185 133q6 160 6 297v518q0 109 -7 298l-6 134h599v-94q-97 10 -259 16q-107 4 -192 5v-531q226 2 296 5l66 3l24 1v-93q-90 6 -210 7l-176 2v-271q0 -81 2 -205l3 -118l1 -35q196 4 332 13l117 9v-94h-601q1 35 5 133zM770 1811q-23 -17 -81 -66q-21 -18 -38 -35
l-151 -157h-86l161 185q26 32 57 76l28 40z" />
    <glyph glyph-name="Ecircumflex" unicode="&#xca;" horiz-adv-x="855" 
d="M185 133q6 160 6 297v518q0 109 -7 298l-6 134h599v-94q-97 10 -259 16q-107 4 -192 5v-531q226 2 296 5l66 3l24 1v-93q-90 6 -210 7l-176 2v-271q0 -81 2 -205l3 -118l1 -35q196 4 332 13l117 9v-94h-601q1 35 5 133zM540 1841q22 -31 54 -71l29 -36l161 -185h-104
l-197 205l-201 -205h-78l161 185q32 38 55 71l26 36h94z" />
    <glyph glyph-name="Edieresis" unicode="&#xcb;" horiz-adv-x="855" 
d="M185 133q6 160 6 297v518q0 109 -7 298l-6 134h599v-94q-97 10 -259 16q-107 4 -192 5v-531q226 2 296 5l66 3l24 1v-93q-90 6 -210 7l-176 2v-271q0 -81 2 -205l3 -118l1 -35q196 4 332 13l117 9v-94h-601q1 35 5 133zM308 1770l116 -64l-64 -115l-116 63zM619 1770
l116 -64l-60 -115l-117 63z" />
    <glyph glyph-name="Igrave" unicode="&#xcc;" horiz-adv-x="519" 
d="M191 948q0 163 -5 298q-4 97 -5 134h156q-5 -96 -8 -272q-2 -104 -2 -160v-518q0 -164 5 -297q1 -51 5 -133h-156q1 35 5 133q5 133 5 297v518zM61 1854q13 -21 56 -78q14 -20 29 -38l161 -185h-86l-151 157q-22 22 -76 67q-20 17 -43 34z" />
    <glyph glyph-name="Iacute" unicode="&#xcd;" horiz-adv-x="519" 
d="M191 948q0 163 -5 298q-4 97 -5 134h156q-5 -96 -8 -272q-2 -104 -2 -160v-518q0 -164 5 -297q1 -51 5 -133h-156q1 35 5 133q5 133 5 297v518zM578 1811q-23 -17 -81 -66q-21 -18 -38 -35l-151 -157h-86l161 185q26 32 57 76l28 40z" />
    <glyph glyph-name="Icircumflex" unicode="&#xce;" horiz-adv-x="519" 
d="M191 948q0 163 -5 298q-4 97 -5 134h156q-5 -96 -8 -272q-2 -104 -2 -160v-518q0 -164 5 -297q1 -51 5 -133h-156q1 35 5 133q5 133 5 297v518zM307 1845q22 -31 54 -71l29 -36l161 -185h-104l-197 205l-201 -205h-78l161 185q32 38 55 71l26 36h94z" />
    <glyph glyph-name="Idieresis" unicode="&#xcf;" horiz-adv-x="519" 
d="M191 948q0 163 -5 298q-4 97 -5 134h156q-5 -96 -8 -272q-2 -104 -2 -160v-518q0 -164 5 -297q1 -51 5 -133h-156q1 35 5 133q5 133 5 297v518zM79 1770l116 -64l-64 -115l-116 63zM390 1770l116 -64l-60 -115l-117 63z" />
    <glyph glyph-name="Eth" unicode="&#xd0;" horiz-adv-x="1385" 
d="M1274 993q53 -130 53 -295t-50 -296.5t-144 -223.5q-93 -91 -225 -139t-292 -48q-18 0 -68 2l-173 6q-32 1 -96 1h-97q1 35 5 133q6 160 6 297v264l-30 -1l-117 -4v85q72 -5 147 -6v180q0 109 -7 298l-6 134h99q42 0 164 4q120 4 181 4q149 0 277.5 -45t222.5 -131
q97 -89 150 -219zM1182 681q0 166 -50 297q-59 154 -179 239q-139 97 -352 97q-80 0 -176 -2l-61 -2q-17 -1 -36 -1v-544h107q160 0 261 4l128 4v-85q-163 6 -253 8q-46 1 -137 1h-106v-267q0 -80 2 -206q2 -115 5 -154q76 0 150 -2q72 -2 122 -2q71 0 140.5 15.5
t132.5 46.5q139 69 215 198q87 147 87 355z" />
    <glyph glyph-name="Ntilde" unicode="&#xd1;" horiz-adv-x="1486" 
d="M1224 0l-456 566q-86 105 -80 98q-38 48 -35 44q-128 159 -209 255q-106 127 -142 166q-25 26 -31 30l7 -611q4 -199 13 -377l6 -124l2 -47h-110q0 49 2 193v30q1 84 1 256v471q0 185 -5 312l-4 118h77l434 -543q37 -47 113 -139l89 -111q14 -16 20 -24
q103 -127 188 -229l16 -19q73 -88 95 -110l-6 629q-4 225 -13 396l-9 150h110v-104q-2 -152 -2 -244q-1 -43 -1 -129v-471q0 -212 4 -313q1 -52 5 -119h-79zM424 1553q14 74 56 124q51 59 127 59q33 0 65.5 -11.5t78.5 -34.5q49 -24 78 -35t59 -11q79 0 114 89h60
q-15 -70 -50 -114q-52 -66 -138 -66q-34 0 -68.5 12t-78.5 35q-53 25 -79 35.5t-50 10.5q-46 0 -71 -21.5t-45 -71.5h-58z" />
    <glyph glyph-name="Ograve" unicode="&#xd2;" horiz-adv-x="1593" 
d="M506 20.5q-134 51.5 -233 147.5q-101 97 -156 232t-55 298q0 233 105 398q100 157 270 237q165 78 365 78q155 0 289.5 -51.5t233.5 -147.5q100 -97 155 -232t55 -298q0 -233 -105 -398q-50 -78 -118.5 -137.5t-151.5 -99.5q-81 -39 -174 -58.5t-191 -19.5
q-155 0 -289 51.5zM250.5 444q40.5 -119 115.5 -208q77 -92 183.5 -142.5t233.5 -50.5q65 0 134 15t133 45q151 71 236 203q101 155 101 379q0 132 -41 250.5t-116 208.5q-77 92 -183.5 142.5t-233.5 50.5q-141 0 -266 -59q-148 -70 -235 -203q-102 -158 -102 -380
q0 -132 40.5 -251zM604 1854q13 -21 56 -78q14 -20 29 -38l161 -185h-86l-151 157q-22 22 -76 67q-20 17 -43 34z" />
    <glyph glyph-name="Oacute" unicode="&#xd3;" horiz-adv-x="1593" 
d="M506 20.5q-134 51.5 -233 147.5q-101 97 -156 232t-55 298q0 233 105 398q100 157 270 237q165 78 365 78q155 0 289.5 -51.5t233.5 -147.5q100 -97 155 -232t55 -298q0 -233 -105 -398q-50 -78 -118.5 -137.5t-151.5 -99.5q-81 -39 -174 -58.5t-191 -19.5
q-155 0 -289 51.5zM250.5 444q40.5 -119 115.5 -208q77 -92 183.5 -142.5t233.5 -50.5q65 0 134 15t133 45q151 71 236 203q101 155 101 379q0 132 -41 250.5t-116 208.5q-77 92 -183.5 142.5t-233.5 50.5q-141 0 -266 -59q-148 -70 -235 -203q-102 -158 -102 -380
q0 -132 40.5 -251zM1136 1811q-23 -17 -81 -66q-21 -18 -38 -35l-151 -157h-86l161 185q26 32 57 76l28 40z" />
    <glyph glyph-name="Ocircumflex" unicode="&#xd4;" horiz-adv-x="1593" 
d="M506 20.5q-134 51.5 -233 147.5q-101 97 -156 232t-55 298q0 233 105 398q100 157 270 237q165 78 365 78q155 0 289.5 -51.5t233.5 -147.5q100 -97 155 -232t55 -298q0 -233 -105 -398q-50 -78 -118.5 -137.5t-151.5 -99.5q-81 -39 -174 -58.5t-191 -19.5
q-155 0 -289 51.5zM250.5 444q40.5 -119 115.5 -208q77 -92 183.5 -142.5t233.5 -50.5q65 0 134 15t133 45q151 71 236 203q101 155 101 379q0 132 -41 250.5t-116 208.5q-77 92 -183.5 142.5t-233.5 50.5q-141 0 -266 -59q-148 -70 -235 -203q-102 -158 -102 -380
q0 -132 40.5 -251zM842 1845q22 -31 54 -71l29 -36l161 -185h-104l-197 205l-201 -205h-78l161 185q32 38 55 71l26 36h94z" />
    <glyph glyph-name="Otilde" unicode="&#xd5;" horiz-adv-x="1593" 
d="M506 20.5q-134 51.5 -233 147.5q-101 97 -156 232t-55 298q0 233 105 398q100 157 270 237q165 78 365 78q155 0 289.5 -51.5t233.5 -147.5q100 -97 155 -232t55 -298q0 -233 -105 -398q-50 -78 -118.5 -137.5t-151.5 -99.5q-81 -39 -174 -58.5t-191 -19.5
q-155 0 -289 51.5zM250.5 444q40.5 -119 115.5 -208q77 -92 183.5 -142.5t233.5 -50.5q65 0 134 15t133 45q151 71 236 203q101 155 101 379q0 132 -41 250.5t-116 208.5q-77 92 -183.5 142.5t-233.5 50.5q-141 0 -266 -59q-148 -70 -235 -203q-102 -158 -102 -380
q0 -132 40.5 -251zM477 1553q14 74 56 124q51 59 127 59q33 0 65.5 -11.5t78.5 -34.5q49 -24 78 -35t59 -11q79 0 114 89h60q-15 -70 -50 -114q-52 -66 -138 -66q-34 0 -68.5 12t-78.5 35q-53 25 -79 35.5t-50 10.5q-46 0 -71 -21.5t-45 -71.5h-58z" />
    <glyph glyph-name="Odieresis" unicode="&#xd6;" horiz-adv-x="1593" 
d="M506 20.5q-134 51.5 -233 147.5q-101 97 -156 232t-55 298q0 233 105 398q100 157 270 237q165 78 365 78q155 0 289.5 -51.5t233.5 -147.5q100 -97 155 -232t55 -298q0 -233 -105 -398q-50 -78 -118.5 -137.5t-151.5 -99.5q-81 -39 -174 -58.5t-191 -19.5
q-155 0 -289 51.5zM250.5 444q40.5 -119 115.5 -208q77 -92 183.5 -142.5t233.5 -50.5q65 0 134 15t133 45q151 71 236 203q101 155 101 379q0 132 -41 250.5t-116 208.5q-77 92 -183.5 142.5t-233.5 50.5q-141 0 -266 -59q-148 -70 -235 -203q-102 -158 -102 -380
q0 -132 40.5 -251zM615 1770l116 -64l-64 -115l-116 63zM926 1770l116 -64l-60 -115l-117 63z" />
    <glyph glyph-name="multiply" unicode="&#xd7;" horiz-adv-x="719" 
d="M606 619q-45 -41 -125 -117l-23 -22q-16 -14 -47 -45q75 -75 127 -123l66 -62l-58 -57l-121 128l-63 65q-63 -63 -123 -128l-62 -67l-59 58q74 68 130 122l66 64l-70 68q-76 72 -126 119l57 57q47 -50 119 -126l68 -70l126 132l22 23l37 39z" />
    <glyph glyph-name="Oslash" unicode="&#xd8;" horiz-adv-x="1598" 
d="M1482 980q55 -135 55 -298q0 -233 -105 -398q-50 -78 -118.5 -137.5t-151.5 -99.5q-81 -39 -174 -58.5t-191 -19.5q-118 0 -223 30q-18 -48 -40 -114h-98q35 79 60 140q-124 49 -221 143q-101 97 -156 232t-55 298q0 233 105 398q100 157 270 237q165 78 365 78
q121 0 231 -32l38 108h99l-58 -136q121 -50 213 -139q100 -97 155 -232zM530 105l22 54l66 164l292 723q35 86 63 165l34 93q-93 33 -192 33q-141 0 -266 -59q-148 -70 -235 -203q-102 -158 -102 -380q0 -132 40.5 -251t115.5 -208q69 -83 162 -131zM1389 685
q0 132 -41 250.5t-116 208.5q-66 79 -152 126l-25 -59l-67 -165l-292 -723q-47 -117 -95 -249q87 -31 184 -31q65 0 134 15t133 45q151 71 236 203q101 155 101 379z" />
    <glyph glyph-name="Ugrave" unicode="&#xd9;" horiz-adv-x="1485" 
d="M274 737q0 -190 41 -336q47 -165 149 -255q113 -102 291 -102q225 0 354 147q147 166 147 502v256q0 162 -5 297q-4 98 -5 134h109q-5 -98 -8 -272q-2 -102 -2 -159v-255q0 -358 -154.5 -541.5t-449.5 -183.5q-308 0 -460 191q-142 179 -142 509v270q0 166 -5 304
q-4 99 -5 137h156q-7 -144 -8 -260q-1 -47 -1 -139zM562 1854q13 -21 56 -78q14 -20 29 -38l161 -185h-86l-151 157q-22 22 -76 67q-20 17 -43 34z" />
    <glyph glyph-name="Uacute" unicode="&#xda;" horiz-adv-x="1485" 
d="M274 737q0 -190 41 -336q47 -165 149 -255q113 -102 291 -102q225 0 354 147q147 166 147 502v256q0 162 -5 297q-4 98 -5 134h109q-5 -98 -8 -272q-2 -102 -2 -159v-255q0 -358 -154.5 -541.5t-449.5 -183.5q-308 0 -460 191q-142 179 -142 509v270q0 166 -5 304
q-4 99 -5 137h156q-7 -144 -8 -260q-1 -47 -1 -139zM1035 1811q-23 -17 -81 -66q-21 -18 -38 -35l-151 -157h-86l161 185q26 32 57 76l28 40z" />
    <glyph glyph-name="Ucircumflex" unicode="&#xdb;" horiz-adv-x="1485" 
d="M274 737q0 -190 41 -336q47 -165 149 -255q113 -102 291 -102q225 0 354 147q147 166 147 502v256q0 162 -5 297q-4 98 -5 134h109q-5 -98 -8 -272q-2 -102 -2 -159v-255q0 -358 -154.5 -541.5t-449.5 -183.5q-308 0 -460 191q-142 179 -142 509v270q0 166 -5 304
q-4 99 -5 137h156q-7 -144 -8 -260q-1 -47 -1 -139zM792 1845q22 -31 54 -71l29 -36l161 -185h-104l-197 205l-201 -205h-78l161 185q32 38 55 71l26 36h94z" />
    <glyph glyph-name="Udieresis" unicode="&#xdc;" horiz-adv-x="1485" 
d="M274 737q0 -190 41 -336q47 -165 149 -255q113 -102 291 -102q225 0 354 147q147 166 147 502v256q0 162 -5 297q-4 98 -5 134h109q-5 -98 -8 -272q-2 -102 -2 -159v-255q0 -358 -154.5 -541.5t-449.5 -183.5q-308 0 -460 191q-142 179 -142 509v270q0 166 -5 304
q-4 99 -5 137h156q-7 -144 -8 -260q-1 -47 -1 -139zM566 1770l116 -64l-64 -115l-116 63zM877 1770l116 -64l-60 -115l-117 63z" />
    <glyph glyph-name="Yacute" unicode="&#xdd;" horiz-adv-x="1051" 
d="M587 671v-241q0 -164 5 -297q1 -51 5 -133h-156q1 35 5 133q5 133 5 297v227l-183 293q-109 174 -200 310l-81 120h186q0 -2 16 -30q22 -42 89 -151q4 -8 9 -16t9 -15l79 -131l85 -142l86 -143l149 226q111 167 181 279l77 123h113q-103 -146 -188 -271l-107 -158z
M842 1811q-23 -17 -81 -66q-21 -18 -38 -35l-151 -157h-86l161 185q26 32 57 76l28 40z" />
    <glyph glyph-name="Thorn" unicode="&#xde;" horiz-adv-x="1007" 
d="M397 399l66 -3q62 -3 119 10q97 22 155 89q77 87 77 244q0 146 -92 215q-75 54 -192 56q-16 1 -50 1q-33 0 -51 -1q-70 -2 -106 -2v-578q0 -164 5 -297l6 -133h-156q1 35 5 133q5 133 5 297v518q0 163 -5 298q-4 97 -5 134h156q-6 -104 -7 -183l-3 -117l59 1q23 0 32 1
q14 0 62 2l47 1q30 0 70 -3t82 -12q124 -19 194 -94q79 -84 79 -228q0 -104 -32.5 -185.5t-95.5 -135.5t-151 -80.5t-198 -22.5l-40 1z" />
    <glyph glyph-name="germandbls" unicode="&#xdf;" horiz-adv-x="1092" 
d="M192 787h-114l1 47q26 8 61 13q64 5 52 4v148q0 241 90 379q102 156 316 156q53 0 103 -17t89 -50q41 -34 64 -80.5t23 -96.5q0 -86 -57 -200q-31 -60 -62 -106q-83 -128 -112 -183q-20 -42 -20 -71q0 -38 27 -73t77 -74q48 -38 96 -71q119 -84 170 -169q29 -50 29 -112
q0 -118 -76 -187q-83 -73 -238 -73q-93 0 -182 27q-36 11 -51 19l-18 8l18 76q38 -26 124 -45q58 -13 116 -13q15 0 35 2q79 6 122 64q27 35 27 89q0 44 -26.5 84t-74.5 82q-27 23 -94 74q-117 84 -167 164q-29 47 -29 102q0 37 16.5 80.5t46.5 98.5q19 36 58 99
q69 110 102 205q18 53 18 102q0 38 -14 71t-39 56q-24 22 -54 34.5t-60 12.5q-75 0 -126 -28.5t-81 -86.5q-58 -109 -58 -352v-638q0 -156 5 -261l6 -97h-149l5 97q5 105 5 261v429z" />
    <glyph glyph-name="agrave" unicode="&#xe0;" horiz-adv-x="944" 
d="M914 17q-24 -14 -63 -25.5t-82 -11.5q-57 0 -94.5 28t-49.5 70q-62 -48 -146 -77q-88 -30 -171 -30q-105 0 -165 45q-65 48 -65 137q0 40 8 68t28 50q21 22 58 41t97 40l348 120v104q0 109 -27 164q-37 76 -130 76q-64 0 -148 -36q-69 -30 -131 -79l-21 72q68 48 173 83
q92 29 161 29q84 0 135 -28t78 -82q23 -47 31 -110.5t8 -152.5v-347q0 -110 80 -110q18 0 41.5 7.5t31.5 9.5zM411.5 56q36.5 8 76.5 22q41 14 75 33t54 39v249l-160 -57l-103 -36q-50 -17 -83 -35.5t-52 -40.5q-20 -23 -20 -56q0 -37 10 -61t30 -39q19 -14 46 -20t66 -6
q24 0 60.5 8zM279 1336q13 -21 56 -78q14 -20 29 -38l161 -185h-86l-151 157q-22 22 -76 67q-20 17 -43 34z" />
    <glyph glyph-name="aacute" unicode="&#xe1;" horiz-adv-x="944" 
d="M914 17q-24 -14 -63 -25.5t-82 -11.5q-57 0 -94.5 28t-49.5 70q-62 -48 -146 -77q-88 -30 -171 -30q-105 0 -165 45q-65 48 -65 137q0 40 8 68t28 50q21 22 58 41t97 40l348 120v104q0 109 -27 164q-37 76 -130 76q-64 0 -148 -36q-69 -30 -131 -79l-21 72q68 48 173 83
q92 29 161 29q84 0 135 -28t78 -82q23 -47 31 -110.5t8 -152.5v-347q0 -110 80 -110q18 0 41.5 7.5t31.5 9.5zM411.5 56q36.5 8 76.5 22q41 14 75 33t54 39v249l-160 -57l-103 -36q-50 -17 -83 -35.5t-52 -40.5q-20 -23 -20 -56q0 -37 10 -61t30 -39q19 -14 46 -20t66 -6
q24 0 60.5 8zM772 1293q-23 -17 -81 -66q-21 -18 -38 -35l-151 -157h-86l161 185q26 32 57 76l28 40z" />
    <glyph glyph-name="acircumflex" unicode="&#xe2;" horiz-adv-x="944" 
d="M914 17q-24 -14 -63 -25.5t-82 -11.5q-57 0 -94.5 28t-49.5 70q-62 -48 -146 -77q-88 -30 -171 -30q-105 0 -165 45q-65 48 -65 137q0 40 8 68t28 50q21 22 58 41t97 40l348 120v104q0 109 -27 164q-37 76 -130 76q-64 0 -148 -36q-69 -30 -131 -79l-21 72q68 48 173 83
q92 29 161 29q84 0 135 -28t78 -82q23 -47 31 -110.5t8 -152.5v-347q0 -110 80 -110q18 0 41.5 7.5t31.5 9.5zM411.5 56q36.5 8 76.5 22q41 14 75 33t54 39v249l-160 -57l-103 -36q-50 -17 -83 -35.5t-52 -40.5q-20 -23 -20 -56q0 -37 10 -61t30 -39q19 -14 46 -20t66 -6
q24 0 60.5 8zM517 1327q22 -31 54 -71l29 -36l161 -185h-104l-197 205l-201 -205h-78l161 185q32 38 55 71l26 36h94z" />
    <glyph glyph-name="atilde" unicode="&#xe3;" horiz-adv-x="944" 
d="M914 17q-24 -14 -63 -25.5t-82 -11.5q-57 0 -94.5 28t-49.5 70q-62 -48 -146 -77q-88 -30 -171 -30q-105 0 -165 45q-65 48 -65 137q0 40 8 68t28 50q21 22 58 41t97 40l348 120v104q0 109 -27 164q-37 76 -130 76q-64 0 -148 -36q-69 -30 -131 -79l-21 72q68 48 173 83
q92 29 161 29q84 0 135 -28t78 -82q23 -47 31 -110.5t8 -152.5v-347q0 -110 80 -110q18 0 41.5 7.5t31.5 9.5zM411.5 56q36.5 8 76.5 22q41 14 75 33t54 39v249l-160 -57l-103 -36q-50 -17 -83 -35.5t-52 -40.5q-20 -23 -20 -56q0 -37 10 -61t30 -39q19 -14 46 -20t66 -6
q24 0 60.5 8zM152 1035q14 74 56 124q51 59 127 59q33 0 65.5 -11.5t78.5 -34.5q49 -24 78 -35t59 -11q79 0 114 89h60q-15 -70 -50 -114q-52 -66 -138 -66q-34 0 -68.5 12t-78.5 35q-53 25 -79 35.5t-50 10.5q-46 0 -71 -21.5t-45 -71.5h-58z" />
    <glyph glyph-name="adieresis" unicode="&#xe4;" horiz-adv-x="944" 
d="M914 17q-24 -14 -63 -25.5t-82 -11.5q-57 0 -94.5 28t-49.5 70q-62 -48 -146 -77q-88 -30 -171 -30q-105 0 -165 45q-65 48 -65 137q0 40 8 68t28 50q21 22 58 41t97 40l348 120v104q0 109 -27 164q-37 76 -130 76q-64 0 -148 -36q-69 -30 -131 -79l-21 72q68 48 173 83
q92 29 161 29q84 0 135 -28t78 -82q23 -47 31 -110.5t8 -152.5v-347q0 -110 80 -110q18 0 41.5 7.5t31.5 9.5zM411.5 56q36.5 8 76.5 22q41 14 75 33t54 39v249l-160 -57l-103 -36q-50 -17 -83 -35.5t-52 -40.5q-20 -23 -20 -56q0 -37 10 -61t30 -39q19 -14 46 -20t66 -6
q24 0 60.5 8zM290 1252l116 -64l-64 -115l-116 63zM601 1252l116 -64l-60 -115l-117 63z" />
    <glyph glyph-name="aring" unicode="&#xe5;" horiz-adv-x="944" 
d="M914 17q-24 -14 -63 -25.5t-82 -11.5q-57 0 -94.5 28t-49.5 70q-62 -48 -146 -77q-88 -30 -171 -30q-105 0 -165 45q-65 48 -65 137q0 40 8 68t28 50q21 22 58 41t97 40l348 120v104q0 109 -27 164q-37 76 -130 76q-64 0 -148 -36q-69 -30 -131 -79l-21 72q68 48 173 83
q92 29 161 29q84 0 135 -28t78 -82q23 -47 31 -110.5t8 -152.5v-347q0 -110 80 -110q18 0 41.5 7.5t31.5 9.5zM411.5 56q36.5 8 76.5 22q41 14 75 33t54 39v249l-160 -57l-103 -36q-50 -17 -83 -35.5t-52 -40.5q-20 -23 -20 -56q0 -37 10 -61t30 -39q19 -14 46 -20t66 -6
q24 0 60.5 8zM390 1039.5q-41 13.5 -72 39.5q-70 58 -70 153q0 98 71 156q32 26 73 39t87 13q45 0 86 -13.5t73 -39.5q70 -57 70 -153q0 -98 -71 -156q-32 -26 -74 -39t-87 -13t-86 13.5zM386 1130q18 -17 42.5 -25.5t50.5 -8.5q25 0 48.5 9t41.5 27q41 39 41 102
q0 65 -42 104q-18 17 -42 25.5t-50 8.5q-25 0 -48.5 -9t-41.5 -26q-42 -39 -42 -103q0 -65 42 -104z" />
    <glyph glyph-name="ae" unicode="&#xe6;" horiz-adv-x="1529" 
d="M1220 870.5q58 -14.5 106 -40.5q51 -30 81 -72t30 -96q0 -44 -11.5 -67.5t-30.5 -37.5q18 0 39 3l31 2l-1 -74l-64 2q-72 2 -132 2h-519q-5 -35 -5 -65q0 -95 30 -168t84 -123q50 -46 115 -69.5t136 -23.5q78 0 166 39q28 13 55 29l25 16l16 -69q-3 -4 -26 -17
q-57 -34 -140 -56q-49 -13 -112 -13q-49 0 -102 9q-120 22 -214 94q-48 36 -86 86q-50 -93 -176 -145q-102 -44 -227 -44q-100 0 -157 48q-59 49 -59 138q0 47 7 73t29 46t66 39t131 49q28 10 42 14q74 26 112 38l153 51l1 93q0 55 -5.5 98t-19.5 76q-35 81 -133 81
q-64 0 -151 -36q-73 -30 -135 -79l-21 72q96 62 193 90q73 21 136 21q40 0 76 -9q72 -18 109 -75t35 -137q59 104 170 163q112 59 242 59q53 0 111 -14.5zM993.5 797q-53.5 -16 -98.5 -48q-101 -71 -135 -190h415h45q59 0 88 30q17 19 17 54q0 29 -14 62q-23 51 -78 79.5
t-132 28.5q-54 0 -107.5 -16zM436 57q45 12 87 33q46 22 82 54t53 70q-41 80 -45 184l-194 -67l-107 -38q-46 -16 -72.5 -30.5t-37.5 -33.5q-12 -19 -12 -53q0 -71 50 -104q41 -27 117 -27q34 0 79 12z" />
    <glyph glyph-name="ccedilla" unicode="&#xe7;" horiz-adv-x="917" 
d="M574 -29l-38 -115l58 4q9 1 27 1q63 0 103 -28q52 -37 52 -111q0 -41 -19.5 -74t-54.5 -56q-33 -22 -77.5 -33.5t-90.5 -11.5q-60 0 -124 14q-30 6 -53 15l29 68q36 -17 89 -28q28 -5 53 -5q63 0 104 22q55 28 55 84q0 28 -13 47.5t-36 28.5q-29 12 -67 12q-19 0 -37 -3
l-84 -9l63 180q-87 7 -161.5 36t-131.5 79q-68 58 -105.5 144.5t-37.5 195.5t39 195t109 146q68 57 157.5 86.5t191.5 29.5q95 0 179 -28q40 -12 71 -27l-21 -84q-57 38 -135 57q-41 10 -100 10q-68 0 -132.5 -25t-113.5 -72q-53 -51 -83 -124t-29 -165q0 -96 30 -169
t84 -122q50 -46 116 -69.5t139 -23.5q78 0 164 39q30 14 53 29l26 16l15 -69q-6 -6 -29 -19q-55 -34 -145 -56q-42 -10 -89 -12z" />
    </font>
</defs>
</svg>
