<svg width="137" height="407" viewBox="0 0 137 407" fill="none" xmlns="http://www.w3.org/2000/svg">
<path fill-rule="evenodd" clip-rule="evenodd" d="M58.1433 406.543C57.6476 399.307 56.6721 391.99 55.7312 384.914C54.22 373.56 52.6568 361.819 53.0179 350.052C53.9748 318.868 61.6575 297.345 74.395 261.684C75.6477 258.179 76.9404 254.541 78.2864 250.743C80.1654 245.439 81.578 239.428 82.311 233.192C79.5124 238.389 76.9804 246.971 73.9552 257.153C70.6369 268.36 66.4977 282.313 60.5821 296.732L59.0668 300.411L58.5604 296.466C57.4983 288.15 56.9026 268.773 56.3282 250.036C55.8018 232.872 55.3048 216.68 54.4879 209.244C53.7123 202.194 53.3618 194.691 53.4324 186.975C51.7786 184.923 49.725 183.004 47.085 181.218L43.8426 179.032L47.7486 179.299C49.7783 179.432 51.7319 179.672 53.607 180.032C53.8255 174.635 54.2466 169.171 54.861 163.707C55.5806 157.35 59.8291 149.061 64.3268 140.292C69.0178 131.15 73.8619 121.702 74.0352 115.185C74.1818 109.628 73.0224 105.603 70.597 103.138C65.3677 106.15 62.4545 110.348 58.4272 116.145C56.5468 118.85 54.4146 121.915 51.7119 125.327C45.8496 132.723 34.542 141.585 25.7639 143.597L21.8099 144.504L24.8217 141.785C28.6877 138.293 32.7203 132.35 36.9874 126.06C44.2731 115.305 52.4928 103.178 62.2812 100.18C62.2172 100.166 62.1546 100.166 62.0893 100.166C45.8909 100.166 18.0105 119.196 8.8951 125.753L5.35297 128.285L7.33991 124.407C11.7443 115.811 27.347 107.309 35.7281 102.738C36.6983 102.205 37.5778 101.725 38.3374 101.312C43.4468 98.4602 47.1996 97.1009 50.6578 96.6478C35.155 90.8108 22.0884 70.3279 16.5739 61.679C14.6042 58.6006 11.9016 55.5887 9.2896 52.6702C4.14689 46.9265 -0.709269 41.5161 0.223588 35.919C0.80729 32.4408 3.58048 29.3489 8.70453 26.4837C11.1273 25.1378 13.5901 24.0982 15.9742 23.0987C20.4572 21.2197 24.6897 19.4339 28.2972 15.7691L29.8324 14.2101C39.2636 1.41656 61.0912 0.0840454 68.4154 0.00408936C77.2336 -0.102539 81.4181 2.09613 87.2285 6.10742C89.2008 7.06693 90.9066 8.19977 92.2259 9.53241C97.1301 12.6108 100.302 13.1972 105.886 14.2234C106.992 14.4233 108.178 14.6498 109.484 14.903C115.934 16.1824 119.652 18.861 120.518 22.899C120.611 23.3121 120.678 23.7518 120.691 24.1916C126.342 24.5648 131.473 26.2573 133.325 29.6289C135.67 33.9201 132.352 39.3972 123.437 45.8872C107.218 57.7079 106.165 61.3725 104.233 68.0224C103.367 71.0209 102.287 74.7523 99.5555 80.003C97.983 83.0281 93.4387 90.9442 86.5755 96.2216C89.3074 95.8484 92.1326 95.5683 94.8779 95.3151C107.525 94.1291 120.611 92.9031 127.568 80.7493L131.246 74.3128L129.5 81.5224C126.062 95.7684 116.347 103.018 100.648 103.058C99.7154 103.058 98.716 103.058 97.6498 103.071C93.5719 103.098 88.6944 103.138 83.7635 102.898C85.7359 104.111 87.5616 105.763 88.9476 108.055C92.6523 114.132 92.3991 123.421 88.188 135.628L85.2694 144.09L86.1357 135.188C87.0686 125.593 83.577 111.747 76.1275 105.164C75.2479 104.391 74.3284 103.738 73.3955 103.205C75.3545 106.07 76.2741 110.095 76.1408 115.239C75.9676 122.235 70.9968 131.91 66.2032 141.265C61.9907 149.474 57.6329 157.963 56.9572 163.934C56.3322 169.478 55.9138 175.008 55.7006 180.459C65.1211 182.657 72.4227 187.641 77.4735 195.317C79.6457 198.636 81.2848 202.327 82.4709 206.258C82.4043 191.413 85.5627 176.367 97.7165 169.051C101.501 166.759 105.512 165.693 109.39 164.653C116.4 162.787 123.01 161.029 127.315 152.22L129.807 147.129L129.314 152.779C128.981 156.617 128.794 160.602 128.594 164.813C127.834 181.338 126.968 200.075 115.614 212.469C108.911 219.785 99.9953 224.583 91.2664 225.995C116.6 227.768 128.714 246.971 129.607 265.842C132.765 267.907 135.057 270.799 135.884 275.237L136.177 276.796L134.631 276.463C134.018 276.33 128.581 274.957 127.568 267.081C124.263 265.175 119.985 264.056 115.387 262.857C103.1 259.672 89.1742 256.047 85.7359 236.07C85.4161 234.231 85.0696 232.179 84.7097 229.98C84.1634 237.589 82.5508 245.039 80.272 251.449C78.926 255.247 77.6334 258.885 76.3807 262.403C63.7151 297.852 56.0737 319.254 55.1275 350.119C54.7704 361.713 56.3216 373.36 57.8222 384.634C58.7684 391.737 59.7465 399.094 60.2475 406.41L58.1433 406.543ZM55.5367 189.987C55.57 196.57 55.9191 202.967 56.5841 209.017C57.4104 216.52 57.9088 232.778 58.4352 249.97C58.9256 265.948 59.4307 282.393 60.2236 291.948C65.2651 279.061 68.9325 266.681 71.9297 256.553C75.781 243.586 78.7661 233.511 82.6974 228.741C82.7507 227.914 82.7774 227.088 82.8041 226.262C81.7113 226.142 80.6319 225.955 79.5791 225.715C70.9435 223.69 64.712 217.48 62.0333 208.218C61.6922 207.045 61.371 205.886 61.0565 204.766C59.5 199.196 58.1327 194.305 55.5367 189.987ZM130.06 268.853C130.806 271.399 132.152 272.798 133.258 273.557C132.565 271.625 131.472 270.106 130.06 268.853ZM86.5755 228.247C87.0019 230.979 87.4284 233.498 87.8148 235.71C91.0132 254.341 104.246 257.792 115.92 260.818C120.038 261.897 124.05 262.936 127.421 264.602C125.995 246.691 114.015 228.994 89.5873 228.021L89.3607 227.981C88.3745 227.728 87.455 227.821 86.5755 228.247ZM86.0025 224.329C86.0158 224.329 86.0291 224.329 86.0291 224.329C95.7308 224.329 106.392 219.412 114.068 211.043C124.903 199.222 125.702 181.671 126.488 164.72C126.608 162.081 126.728 159.536 126.888 157.044C122.251 163.414 116 165.08 109.937 166.692C106.205 167.692 102.341 168.731 98.7959 170.85C82.5242 180.658 83.4971 205.965 86.0025 224.329ZM55.5486 186.269C59.5426 191.519 61.2284 197.543 63.0875 204.193C63.4007 205.313 63.7205 206.458 64.059 207.631C67.2094 218.519 74.5016 222.357 80.0588 223.65C80.965 223.863 81.8979 224.036 82.8307 224.143C82.8307 214.108 80.7784 204.193 75.701 196.477C71.05 189.387 64.3135 184.749 55.626 182.617C55.59 183.843 55.5633 185.056 55.5486 186.269ZM51.3095 181.791C52.0918 182.457 52.8141 183.151 53.4844 183.844C53.4964 183.284 53.511 182.724 53.5297 182.164C52.8021 182.018 52.0624 181.898 51.3095 181.791ZM67.1147 101.539C66.0859 101.539 65.0358 101.659 63.963 101.912C54.4479 104.058 46.1001 116.371 38.7332 127.232C35.4709 132.057 32.3419 136.668 29.2674 140.212C36.7836 137.014 45.3965 129.911 50.0608 124.021C52.7207 120.662 54.8317 117.624 56.6948 114.945C60.6287 109.282 63.6379 104.95 68.8179 101.752C68.7513 101.712 68.6819 101.672 68.614 101.632C68.1196 101.579 67.6198 101.539 67.1147 101.539ZM75.7277 102.192C76.3407 102.605 76.9404 103.071 77.5267 103.591C83.7102 109.055 87.3484 119.143 88.2013 128.112C90.1603 119.889 89.8138 113.533 87.1485 109.148C84.6565 105.057 80.4053 103.231 76.6872 102.312C76.3673 102.272 76.0475 102.232 75.7277 102.192ZM53.579 98.567C49.5104 98.567 45.5311 99.713 39.3649 103.151C38.6 103.578 37.7137 104.058 36.7382 104.591C30.3855 108.056 19.7856 113.826 13.4408 119.996C24.9256 112.173 42.59 101.405 56.271 98.7268C55.3541 98.6202 54.4652 98.567 53.579 98.567ZM78.7128 100.419C85.1895 101.059 92.1593 101.006 97.6365 100.966C98.7026 100.953 99.7021 100.939 100.635 100.939C112.935 100.913 121.065 96.4215 125.316 87.2528C117.506 95.3154 106.139 96.3813 95.0778 97.4208C91.1332 97.794 87.4151 98.1405 83.8436 98.7935C83.1506 98.9134 82.4843 99.0468 81.8446 99.18C80.8318 99.6731 79.7923 100.086 78.7128 100.419ZM60.3995 93.5562C60.5141 93.6629 60.6314 93.7695 60.7473 93.8627C65.1184 97.6741 69.6348 99.4332 74.2884 99.1133C76.2874 98.3804 78.5529 97.7274 81.1649 97.1677C89.9471 92.7966 95.8773 82.5084 97.6764 79.0302C100.315 73.9661 101.315 70.5012 102.208 67.4361C104.193 60.573 105.393 56.4285 122.197 44.1814C129.887 38.5709 133.178 33.7735 131.473 30.6418C130.1 28.1364 125.649 26.6971 120.598 26.3373C118.453 40.9432 88.2413 63.6116 78.4063 70.6347C69.7907 76.7915 64.752 78.6705 62.5531 76.5516C59.3574 73.4732 64.9252 63.8379 68.53 58.3874C75.9143 47.1931 93.2521 31.1746 106.339 26.0705C109.657 24.7779 114.148 24.0583 118.572 24.1116C118.559 23.845 118.519 23.592 118.453 23.3388C117.786 20.2071 114.628 18.0615 109.084 16.9687C107.778 16.7155 106.592 16.5023 105.499 16.3024C101.208 15.5028 98.1828 14.9431 94.678 13.3039C95.6641 15.9159 95.4909 18.9009 94.1183 22.0859C92.6524 25.5108 89.374 27.8697 84.3633 29.1223C71.4365 32.334 50.6512 27.0567 44.4517 22.0592C44.0185 21.6994 43.6067 21.3532 43.2216 21.0067C41.7037 28.7494 42.9724 37.9445 44.0958 46.087C44.1984 46.8333 44.2997 47.5664 44.397 48.2861C48.371 53.6833 52.0238 60.3065 53.9481 69.835C54.4065 72.1138 54.7118 74.4859 55.0089 76.778C55.6486 81.7355 56.2683 86.5331 58.3086 90.4644C59.0296 91.4772 59.6399 92.4102 60.1277 93.2364C60.2156 93.343 60.3062 93.4496 60.3995 93.5562ZM26.8366 19.8071C23.6556 22.1659 20.18 23.6184 16.7924 25.0443C14.4616 26.0172 12.0522 27.0303 9.73338 28.323C5.20503 30.855 2.77427 33.4536 2.30651 36.2655C1.5389 40.8632 6.06721 45.9139 10.8594 51.2579C13.5287 54.243 16.2901 57.3214 18.353 60.5464C24.0408 69.4619 41.0387 96.1015 58.8883 96.1015C59.0216 96.1015 59.1535 96.1015 59.2881 96.1015C59.1548 95.7417 58.9483 95.3153 58.6764 94.8355C55.8578 92.2102 53.535 88.9453 51.608 85.2405C48.9094 81.9222 45.9468 78.4306 43.4681 75.5121C38.1748 69.2886 33.6065 63.9179 31.99 61.1194C25.3201 49.5653 23.0226 33.6935 26.2729 21.6063C26.4382 20.9933 26.6274 20.3935 26.8366 19.8071ZM53.539 84.2677C53.7709 84.5475 53.9974 84.8273 54.2213 85.1071C53.619 82.4951 53.2658 79.7498 52.918 77.0445C52.6248 74.7923 52.3237 72.4604 51.8812 70.2615C50.4193 63.0252 47.9033 57.508 45.0127 52.9237C46.1375 61.1328 48.311 74.1928 53.539 84.2677ZM27.4603 26.1906C25.7465 37.105 28.128 50.2049 33.8171 60.0532C35.3377 62.6918 40.0672 68.2624 45.074 74.1527C46.3067 75.592 47.4821 76.9781 48.5962 78.3108C45.4511 69.6485 43.744 59.6001 42.5086 50.085C42.4673 49.7651 42.4233 49.432 42.3807 49.1122C40.5963 46.7134 38.7505 44.5678 36.9808 42.5022C32.543 37.3315 28.5238 32.654 27.4603 26.1906ZM118.013 26.2439C114.135 26.2439 110.163 26.8434 107.112 28.0295C94.7579 32.8537 77.4734 48.6458 70.2904 59.5469C63.9177 69.2086 63.0475 74.0993 64.0177 75.0322C64.3428 75.352 66.5164 76.5383 77.1803 68.9155C95.8374 55.6023 116.693 37.185 118.479 26.2573C118.319 26.244 118.173 26.2439 118.013 26.2439ZM29.7005 18.5145C27.8601 28.6426 32.6283 34.1998 38.5813 41.1296C39.6421 42.3689 40.7269 43.6351 41.813 44.9544C40.6976 36.8253 39.5542 27.3234 41.4799 19.2742C38.668 16.1425 37.8763 13.1704 39.129 10.4119C39.5208 9.55896 40.0992 8.75961 40.8309 8.01334C35.9414 10.5587 31.974 13.9968 29.7005 18.5145ZM43.788 18.6479C44.3704 19.2209 45.034 19.8071 45.7789 20.4201C51.524 25.0577 71.6898 30.0818 83.8436 27.07C88.188 25.9906 90.9865 24.0451 92.1859 21.2598C93.905 17.2352 93.4786 13.9301 90.8799 11.1715C90.1603 10.7184 89.414 10.2122 88.6144 9.65247C87.9214 9.15939 87.2551 8.6929 86.6288 8.25311C87.3617 9.15933 87.9081 10.1187 88.2679 11.1449C89.2008 13.8768 88.5611 16.7552 86.4822 19.0474C83.3771 22.499 76.2341 25.2976 65.5063 22.7922C57.4397 20.8999 55.3141 17.9948 54.9516 15.8892C54.5998 13.8503 55.7819 11.798 58.1913 10.2521C63.1994 7.04041 72.6093 6.41409 80.1788 11.6114L80.312 11.7045C81.8712 13.1971 81.6047 14.4498 81.2982 15.0761C79.9255 17.9547 72.9691 18.1681 68.9139 17.635C63.5339 16.9154 60.0917 14.8631 59.424 11.9713C59.392 11.9846 59.3601 12.011 59.3294 12.0243C57.6689 13.0904 56.8293 14.3699 57.0305 15.5294C57.1971 16.5022 58.4058 18.9675 65.9873 20.7399C75.8076 23.0321 82.2177 20.6335 84.923 17.635C86.4822 15.9159 86.9619 13.8502 86.2689 11.8379C85.416 9.37247 83.0573 7.25369 79.5125 5.65451C70.8902 3.60223 60.5221 3.8287 55.8312 5.57446C48.9987 8.0932 45.4512 12.8508 43.788 18.6479ZM52.4223 4.76141C47.0064 6.17404 42.374 8.37311 41.048 11.2916C40.3004 12.9308 40.6843 14.783 42.1848 16.822C43.8746 11.7979 47.0037 7.52002 52.4223 4.76141ZM61.9854 12.5309C63.0781 13.9702 65.6755 15.0763 69.1937 15.5427C74.395 16.2357 78.8994 15.1962 79.4058 14.17C79.4991 13.9701 79.2059 13.5838 78.9127 13.2906C75.8743 11.2383 72.5294 10.1988 69.3683 9.93228C70.024 10.5053 70.557 11.2649 70.8768 12.2244C71.1167 13.1706 70.7968 13.9436 70.0306 14.3168C68.49 15.0764 64.3282 13.6903 61.9854 12.5309ZM62.8929 10.6386C64.4774 11.3982 67.4639 12.4509 68.7112 12.4775C67.9636 10.9183 66.0286 10.3718 64.5801 10.3585C63.9604 10.3718 63.3833 10.4654 62.8929 10.6386Z" fill="url(#paint0_linear_4_351)"/>
<defs>
<linearGradient id="paint0_linear_4_351" x1="7.75574" y1="-23.1707" x2="72.7705" y2="219.877" gradientUnits="userSpaceOnUse">
<stop stop-color="#FFEEA0"/>
<stop offset="1" stop-color="#B78E43"/>
</linearGradient>
</defs>
</svg>
