<svg width="303" height="436" viewBox="0 0 303 436" fill="none" xmlns="http://www.w3.org/2000/svg">
<path fill-rule="evenodd" clip-rule="evenodd" d="M257.942 45.8847C240.014 61.7966 251.793 73.4706 252.858 77.8151C254.365 83.9719 262.778 88.7029 269.041 87.8366C272.019 87.4235 281.659 85.1979 284.673 82.1195C287.104 79.6408 288.881 76.6287 291.823 71.498C298.312 60.1971 275.401 30.6792 257.942 45.8847Z" fill="#B78E43" fill-opacity="0.262745"/>
<path fill-rule="evenodd" clip-rule="evenodd" d="M95.4007 296.409C121.658 251.992 14.4633 201.618 0.327848 277.179C-2.5227 292.424 12.9308 342.106 57.8625 327.98C83.7359 319.837 85.3764 313.361 95.4007 296.409Z" fill="#B78E43" fill-opacity="0.262745"/>
<path fill-rule="evenodd" clip-rule="evenodd" d="M146.941 0.334C146.637 3.43909 146.235 6.53082 146.057 9.63589C145.764 14.7533 145.923 19.9237 145.335 25.0011C144.585 31.4911 141.073 36.8489 137.081 41.8597C134.843 44.6583 132.566 47.4301 130.218 50.1354C128.185 52.4809 127.227 55.1326 127.528 58.2244C127.892 61.9025 128.153 65.6073 128.688 69.2721C129.618 75.6422 129.293 81.8925 127.358 88.036C126.495 90.3681 127.953 88.156 127.997 88.116C134.01 82.1058 140.276 77.7879 144.202 70.3783C146.609 65.834 146.682 65.3676 143.078 61.7428C142.237 60.9032 141.368 60.0637 140.682 59.1041C139.352 57.2384 139.725 54.933 141.508 53.5204C142.065 53.0806 142.708 52.7473 143.325 52.3875C144.645 51.6279 145.983 50.8947 147.293 50.1217C148.624 49.3355 150.077 49.2154 151.131 50.2682C152.978 52.1205 155.379 53.3736 156.552 55.999C157.989 59.2106 157.622 61.4092 154.297 62.3688C149.876 63.6614 147.146 66.1939 145.335 70.4584C142.716 76.6419 138.067 81.3592 132.827 85.4637C128.132 89.1285 124.887 93.6728 122.911 99.3766C120.264 107.026 115.64 113.45 108.593 117.661C104.297 120.22 99.6118 122.139 95.1621 124.458C92.3075 125.937 89.4703 127.495 86.793 129.281C83.672 131.36 82.41 134.532 82.358 138.223C82.3513 138.663 82.3167 139.09 82.2834 139.516C82.258 139.863 82.0115 140.143 81.6797 140.209H81.6743C81.2106 139.41 81.1453 138.89 81.1333 138.223C81.0507 133.812 82.7858 130.148 86.5132 127.909C91.1068 125.137 95.9644 122.792 100.727 120.299C102.926 119.153 105.184 118.114 107.403 117.008C105.166 116.128 102.993 115.062 100.718 114.289C97.9047 113.329 95.0515 112.477 92.1703 111.744C90.6884 111.371 89.1119 111.344 87.574 111.21C87.1089 111.17 86.6265 111.331 86.152 111.384C80.2964 112.157 77.803 110.838 75.2909 105.534C74.4847 103.828 73.841 102.042 73.2826 100.683C76.0798 101.842 79.113 102.935 81.9888 104.347C84.4156 105.547 86.6598 107.106 88.4309 108.172C87.6872 105.867 86.9023 102.895 85.7496 100.083C85.2658 98.8972 84.0904 97.9376 83.0763 97.0581C81.3439 95.5388 80.8547 94.0061 81.7569 92.1804C82.5512 90.5678 84.309 89.8616 86.3386 90.2881C87.8259 90.5946 88.7854 91.4075 88.6175 92.9801C88.4562 94.5126 88.0951 96.0184 87.7219 97.511C86.3493 103.001 89.2092 108.758 94.6904 110.957C92.8113 108.332 91.7106 105.467 91.9451 101.975C92.4942 103.548 92.8753 104.974 93.4816 106.28C95.0142 109.625 97.2384 112.09 101.066 113.036C103.163 113.556 105.112 114.516 107.141 115.355C107.73 115.609 108.595 116.075 109.096 115.782C113.369 113.21 114.079 111.25 112.696 106.373C111.742 103.015 108.098 100.389 104.399 100.403C103.708 100.403 103.018 100.403 102.274 100.403C105.637 98.5903 110.681 100.017 113.342 103.335C114.094 104.281 114.63 105.64 114.845 106.72C115.033 107.653 115.033 108.785 114.845 109.731C118.414 106.346 120.729 101.842 118.365 97.7778C115.33 92.5671 110.51 90.5677 104.648 92.0736C103.984 92.2469 103.277 92.2605 102.557 92.3404C102.692 89.6618 107.48 85.2508 111.165 84.7844C119.675 83.6916 121.193 89.8346 122.294 96.5779C124.03 93.6727 124.816 90.9279 124.724 88.0627C124.494 80.893 122.929 73.9098 120.144 67.3532C117.631 61.4229 112.877 57.1713 107.6 53.6531C106.602 52.9868 104.861 53.0138 103.513 53.307C102.444 53.5468 101.535 53.8265 100.378 53.7332C99.837 53.6932 98.3112 53.7468 98.3112 52.4142C98.3112 51.1082 99.6145 50.6016 100.001 50.5349C101.355 50.2951 102.813 50.2682 104.091 50.628C108.45 51.8274 111.614 54.9062 114.711 57.9979C115.793 59.0774 116.78 60.25 117.917 61.5027C118.062 57.7179 106.699 34.1431 103.568 31.611C102.673 33.1302 102.86 35.889 99.893 35.1561C96.2989 34.2499 95.6992 33.6767 95.6125 31.3312C91.5346 29.9053 91.0882 27.8401 93.988 23.8155C92.129 20.7371 92.77 18.7646 95.5659 16.3258C96.8359 15.2197 98.5977 13.9137 100.068 13.9937C101.972 14.087 103.471 13.2075 105.16 13.0742C107.608 12.8744 110.084 13.1139 110.588 16.3655C110.62 16.5654 110.85 16.7655 111.027 16.9121C113.682 19.1776 114.118 23.1354 112.096 25.9739C111.744 26.467 111.4 27.3204 111.587 27.7868C112.958 31.2917 111.764 33.2371 107.964 33.4903C107.628 33.5036 107.293 33.5437 106.776 33.597C109.801 39.2741 112.738 44.7913 115.678 50.3085C115.906 48.8559 115.869 47.3496 116.213 45.937C116.834 43.365 117.23 40.9396 116.274 38.2476C115.42 35.8355 117.104 33.637 118.249 31.598C118.538 31.0783 119.969 30.9048 120.794 31.0514C122.307 31.3046 123.529 32.3839 123.592 33.9165C123.649 35.2491 123.149 36.6754 122.645 37.9548C122.335 38.7544 121.646 39.4741 120.969 40.0338C116.978 43.4054 116.816 48.0297 116.846 52.6673C116.851 53.6535 117.263 54.6529 117.631 55.5858C120.914 63.9548 123.649 72.4839 125.355 81.3194C125.716 83.1851 125.9 85.0904 126.233 86.9695C126.415 85.89 126.855 84.864 127.086 83.7979C128.398 77.721 127.749 71.6576 126.807 65.6073C126.622 64.4346 126.414 63.2353 126.388 62.0492C126.24 55.0795 125.701 48.0695 126.132 41.1263C126.771 30.785 131.337 21.8828 137.696 13.8069C139.978 10.9018 141.928 7.73047 143.856 4.57208C144.694 3.21277 145.011 1.52007 145.612 0.000839233C146.384 0.200745 146.169 0.14743 146.941 0.334ZM144.488 11.1019C139.746 24.3885 131.798 35.8493 128.616 49.7222C139.108 38.9011 146.796 27.3337 144.488 11.1019ZM144.157 7.13066C144.037 7.11734 139.294 13.8473 136.855 17.1522C130.684 25.5213 127.304 34.8497 126.977 45.2577C126.958 45.8441 127.04 46.4303 127.083 47.15C129.11 42.4324 130.983 37.9283 132.969 33.4772C136.33 25.9611 139.475 18.9643 142.842 11.4481C143.383 10.2487 143.968 8.82314 144.157 7.13066ZM120.558 99.1501C121.166 95.9651 120.538 92.0207 119.203 89.7552C117.239 86.4102 114.923 85.2774 111.119 86.037C108.241 86.6234 106.133 88.4092 104.317 90.808C112.004 89.0489 116.979 92.4202 120.558 99.1501ZM101.892 26.5609C100.477 23.2292 100.745 19.9503 101.621 16.6453C101.931 15.4859 100.956 14.6069 99.965 15.1799C98.1899 16.2194 96.3655 17.3255 94.9675 18.7914C93.5283 20.2973 93.9721 22.3362 95.7298 23.4023C97.6995 24.6017 99.8517 25.4947 101.892 26.5609ZM103.383 24.8013C104.964 22.2293 107.565 19.4442 108.863 16.9655C109.567 15.6195 108.83 14.7135 107.293 14.4869C106.823 14.4203 105.638 14.4603 104.886 14.4603C103.211 14.4603 102.474 16.3789 102.714 18.0313C103.066 20.4568 102.717 22.2826 103.383 24.8013ZM103.931 26.3071C106.232 26.6536 108.726 27.0668 110.673 25.441C112.587 23.8418 112.966 22.1629 111.73 19.4044C111.584 19.0845 111.366 18.7644 111.07 18.4712C110.845 18.2447 110.486 18.2183 110.232 18.4049C109.989 18.5914 109.755 18.7776 109.58 19.0042C108.493 20.4168 107.476 21.8827 106.395 23.3086C105.614 24.3347 104.74 25.2943 103.931 26.3071ZM145.747 62.8756V52.4539C144.381 53.1735 143.507 53.5469 142.711 54.0533C141.043 55.1061 140.527 56.7452 141.666 58.3311C142.854 59.9836 144.393 61.3964 145.747 62.8756ZM104.011 27.6397C104.351 31.5844 107.578 33.6634 110.336 31.7444C110.851 31.3846 111.038 30.1318 111.051 29.6387C111.089 28.1728 109.989 27.84 109.291 27.7334C107.574 27.4536 105.785 27.6397 104.011 27.6397ZM101.9 27.8135C99.9064 26.9073 97.9727 25.854 95.9404 25.0545C95.4913 24.8679 94.7397 24.8013 94.3145 25.4143C93.491 26.6004 92.9579 27.9465 93.6136 28.9327C93.988 29.4924 94.805 29.692 95.3394 29.5854C97.5542 29.1322 99.7078 28.3865 101.9 27.8135ZM149.043 61.2495C152.237 57.678 153.435 54.8795 151.104 51.9743C150.581 51.3213 149.206 50.9346 148.33 51.0679C147.109 51.2678 146.913 52.4537 147.148 53.5998C150.046 53.7997 150.426 54.3198 150.035 57.3316C149.943 58.0246 149.151 60.1701 149.043 61.2495ZM154.327 54.626C154.1 58.1175 150.792 59.6769 149.301 62.8353C150.698 62.3689 151.693 62.0622 152.673 61.7024C155.864 60.543 157.496 59.597 154.796 55.5324C154.606 55.2525 154.482 54.9325 154.327 54.626ZM102.416 28.7993C100.666 29.3723 99.1827 29.759 97.8034 30.3721C96.7067 30.8518 96.5494 32.424 97.3903 32.997C100.513 35.1559 101.961 34.4763 102.328 30.6649C102.372 30.1984 102.373 29.7455 102.416 28.7993ZM86.0347 110.398C82.0874 109.265 78.6919 107.24 75.6294 103.775C77.3019 109.585 81.4264 111.49 86.0347 110.398ZM87.6326 94.7526C88.2456 92.727 87.9565 91.834 86.4879 91.3409C84.5862 90.7013 82.999 91.2607 82.4353 92.74C81.8036 94.4191 82.5179 95.9385 83.9585 96.5382C84.4516 95.3121 84.946 94.0994 85.4377 92.9C86.1467 93.4997 86.857 94.0863 87.6326 94.7526ZM118.979 40.7665C120.481 39.074 121.607 37.5152 122.455 35.4495C123.021 34.0636 121.823 32.3577 120.36 32.0112C120.325 32.0112 120.291 31.9975 120.257 31.9975C119.618 31.9309 119.115 32.5444 119.259 33.1708C119.276 33.2507 119.295 33.3303 119.311 33.4102C119.495 34.2365 119.586 35.0495 119.542 35.8758C119.452 37.6748 118.925 38.9541 118.979 40.7665ZM87.4594 109.092C84.4476 106.067 80.9587 104.854 76.9687 103.721C79.0583 106.427 83.6293 108.745 87.4594 109.092ZM146.974 61.8091C147.182 63.1951 147.539 63.6883 147.91 61.636C148.256 59.9169 148.651 58.198 148.915 56.4655C148.951 56.239 148.849 55.972 148.724 55.7055C148.566 55.3856 148.17 55.2527 147.845 55.4127C147.562 55.5593 147.305 55.7054 147.206 55.9319C146.86 56.7049 146.571 57.6113 146.615 58.4508C146.668 59.4903 146.72 60.783 146.974 61.8091ZM118.04 40.2069C118.388 38.4211 118.321 35.8356 118.605 34.383C116.739 35.4758 116.856 38.1279 118.04 40.2069Z" fill="#FAFAFA"/>
<path fill-rule="evenodd" clip-rule="evenodd" d="M98.6711 154.708C98.5472 154.801 98.3673 154.788 98.2607 154.669C97.4064 153.762 96.4989 152.882 95.7406 151.883C94.3373 150.044 93.0393 148.125 91.7027 146.233C91.4282 145.846 91.1363 145.46 90.9218 145.033C90.1075 143.448 90.3194 141.768 91.3828 141.155C92.5036 140.502 94.8331 141.355 95.4714 142.821C95.9112 143.834 96.1671 144.993 96.2284 146.099C96.3843 149.044 96.5548 151.936 98.7124 154.255C98.8337 154.389 98.8137 154.602 98.6711 154.708ZM94.9583 148.152C94.9997 148.138 95.041 148.125 95.0836 148.112C95.2115 148.059 95.2915 147.939 95.2822 147.805C95.2396 147.006 95.2862 146.18 95.045 145.447C94.7105 144.434 94.2107 143.407 93.5457 142.581C93.3298 142.314 92.8621 142.048 92.0585 142.435C91.9212 142.514 91.8279 142.568 91.7626 142.714C91.5467 143.167 91.5654 143.754 91.7706 144.087C92.6342 145.46 93.643 146.739 94.6065 148.045C94.6865 148.165 94.8291 148.205 94.9583 148.152Z" fill="#FAFAFA"/>
<path fill-rule="evenodd" clip-rule="evenodd" d="M150.592 218.063C149.913 218.183 149.223 218.236 148.564 218.423C136.804 221.701 125.015 224.713 112.672 224.873C106.034 224.966 99.5239 224.473 93.1938 222.434C83.7586 219.409 74.9311 215.078 66.4647 209.96C59.5389 205.776 53.4194 200.752 48.6578 194.102C46.5775 191.197 45.5141 188.238 46.0791 184.734C46.3163 183.268 46.5282 181.761 47.0373 180.362C48.7378 175.711 56.3126 163.491 58.4595 158.334C58.4675 158.36 58.4621 158.374 58.4755 158.387C59.2284 159.147 60.4278 159.373 61.0422 159.466C66.1622 160.173 70.7999 162.598 74.8231 165.53C80.4163 169.608 85.7042 173.766 88.9426 180.242C89.0905 180.536 89.2931 180.842 89.5503 181.042C84.4369 179.083 73.0108 175.338 69.939 173.606C66.3968 171.633 63.1651 169.314 59.9374 166.849C61.0702 169.834 62.5028 171.86 69.939 175.685C76.2544 178.923 88.163 182.814 90.9815 182.441C91.5466 182.255 91.7705 182.148 91.9224 181.695C92.0463 181.308 92.1676 180.509 92.137 180.149C91.5533 173.379 90.1087 166.796 87.6766 160.452C86.7331 158 85.4377 155.722 82.8924 154.416C81.6437 153.763 80.4923 152.896 79.3981 151.99C76.8594 149.924 74.3647 149.231 70.8785 149.938C69.0288 150.311 67.3336 151.27 65.8051 152.376C64.6683 153.203 63.7515 154.548 62.716 155.548C62.3908 155.868 61.947 156.041 61.4966 156.014C60.2186 155.921 60.6344 154.322 60.7303 153.882C60.8756 153.229 61.482 150.498 61.5353 150.338C63.9154 143.208 67.4682 136.518 70.5613 129.668C72.5989 125.15 75.856 121.592 79.9512 118.821C81.9782 117.435 84.0425 116.115 86.0628 114.729C86.3959 114.502 86.6744 114.196 87.0062 113.85C87.2048 113.637 87.0782 113.263 86.7877 113.263C86.7664 113.263 86.7504 113.263 86.7344 113.263C81.6277 116.048 76.6009 118.967 72.9001 123.591C69.0781 128.375 67.0325 134.106 64.6004 139.623C64.2952 140.316 63.942 140.982 63.6102 141.662C63.4583 141.635 60.6037 148.485 60.3559 149.365C60.3425 149.418 60.3292 149.458 60.3172 149.511C59.471 151.59 56.5445 159.213 56.4099 159.519C54.9066 162.904 53.4114 164.983 52.276 166.849C49.6453 171.167 48.8937 172.672 47.0133 177.177C46.948 177.337 44.7358 184.067 44.6319 186.639C44.5333 189.184 45.1983 191.53 46.5989 193.596C47.8676 195.475 49.2842 197.273 50.8327 198.913C55.6929 204.083 61.1541 208.521 67.3896 211.959C69.4405 213.092 70.6639 214.878 70.7172 217.156C70.8132 221.248 70.7572 225.366 70.5093 229.47C70.448 230.47 69.6298 231.776 68.7675 232.323C55.2611 240.891 48.0395 253.032 47.1919 269.064C46.4177 283.696 49.0616 298.035 50.3476 312.494C51.3618 323.862 52.192 335.27 51.0806 346.704C50.9967 347.57 51.0686 348.463 51.0686 349.343C51.3351 349.37 51.599 349.369 51.8655 349.383C52.208 346.571 52.797 343.759 52.8517 340.934C53.1062 327.82 52.3519 314.734 50.5355 301.754C49.1096 291.546 48.1901 281.324 48.3753 271.009C48.5486 261.294 51.1059 252.392 57.1242 244.596C61.5925 238.812 66.7926 234.002 73.8916 231.656C81.8782 229.018 90.05 227.365 98.4897 227.205C98.495 227.205 98.4991 227.205 98.5031 227.205C99.0201 227.178 99.0121 226.405 98.495 226.365C89.4437 225.792 80.948 227.658 72.1925 230.163L71.9846 214.745C72.2351 214.838 72.6722 214.998 73.0947 215.184C78.0442 217.436 82.955 219.755 87.9444 221.901C94.681 224.793 101.805 226.126 109.09 226.072C116.19 226.019 123.33 225.952 130.303 224.233C136.625 222.687 142.942 221.115 149.252 219.502C149.822 219.356 150.314 218.916 150.842 218.609C150.758 218.423 150.675 218.249 150.592 218.063ZM67.5788 159.653C73.3519 157.374 81.3412 163.051 84.2583 171.607C78.957 166.09 75.9505 163.464 67.5788 159.653ZM62.724 157.654C62.7253 157.654 62.7253 157.654 62.7253 157.654C65.4546 153.549 67.5615 151.857 72.0113 150.951C74.2568 150.484 76.2997 151.257 78.1321 152.643C79.5927 153.749 81.2199 154.655 82.6032 155.841C83.7972 156.868 85.0872 158.014 85.7535 159.386C88.9013 165.89 90.1567 172.899 91.1402 179.976C91.1695 180.562 90.9816 180.749 90.4192 179.816C89.8368 178.843 89.2678 177.977 88.7267 176.991C86.5891 173.073 84.5542 169.381 82.2966 165.516C78.8344 159.612 73.5132 157.387 66.8086 158.174C65.8078 158.293 64.7896 158.32 63.7794 158.334C63.6102 158.334 63.393 158.32 63.1784 158.307C62.8612 158.267 62.6414 157.96 62.724 157.654Z" fill="#FAFAFA"/>
<path fill-rule="evenodd" clip-rule="evenodd" d="M86.5598 144.234C87.2794 146.619 87.7499 147.099 89.9394 146.953C90.2899 146.926 90.5711 147.272 90.4392 147.592C90.4232 147.632 90.4045 147.659 90.3805 147.659C88.3536 148.245 87.8498 149.844 86.5824 150.91C84.8167 152.403 82.7604 152.15 82.142 150.418L82.1394 150.404C82.0328 150.097 82.3553 149.831 82.6378 149.978C83.2588 150.324 83.8572 150.711 84.4076 150.644C85.1872 150.564 85.9574 149.911 86.6264 149.365C87.3993 148.752 87.3074 148.098 86.6997 147.219C84.882 144.62 84.5502 141.542 84.3996 138.477C84.3889 138.211 84.754 138.144 84.8287 138.397C85.4097 140.343 85.9734 142.288 86.5598 144.234Z" fill="#FAFAFA"/>
<path fill-rule="evenodd" clip-rule="evenodd" d="M284.819 95.0457C286.548 92.8602 288.627 90.9278 290.7 89.0488C298.593 81.9191 301.77 72.8174 301.955 62.4361C302.014 59.1044 302.018 55.7594 302.03 52.4145C302.031 52.0813 301.905 51.7481 301.83 51.3883C300.011 53.5205 298.413 55.7193 296.487 57.585C291.759 62.1693 288.535 67.6063 286.963 73.9497C286.145 77.2414 285.66 80.6397 285.28 84.0247C284.336 92.4203 280.627 99.4839 275.288 105.854C271.338 110.572 267.353 115.289 263.664 120.206C260.984 123.778 258.763 127.71 256.345 131.481C256.029 131.974 255.587 132.76 254.905 133.507C254.926 132.907 254.885 132.28 254.938 131.96C255.82 126.79 256.131 121.473 258.976 116.822C258.993 116.782 259.011 116.755 259.025 116.715C259.374 115.942 258.512 115.142 257.735 115.502C257.629 115.555 257.535 115.609 257.458 115.689C253.809 119.42 250.218 123.205 246.611 126.963C246.758 125.844 246.871 124.724 247.038 122.712C247.344 115.849 248.005 109.065 251.332 102.908C253.715 98.4972 256.373 94.2328 259.052 89.9949C262.554 84.4511 264.374 77.8013 269.842 73.5502C269.861 73.5368 269.878 73.5235 269.892 73.4968C272.737 69.6321 271.176 65.2213 266.553 64.0752C265.517 63.822 264.432 63.6886 263.363 63.662C262.12 63.6353 261.041 64.1549 260.875 65.5009C260.718 66.7669 260.037 67.2869 258.952 67.7667C255.908 69.126 255.291 71.2849 257.085 74.1501C257.907 75.4561 259.02 76.5883 259.809 77.921C261.035 79.9866 262.194 82.1459 260.775 84.6246C260.058 85.864 259.277 87.063 258.501 88.2757C254.503 94.5125 250.202 100.59 247.903 107.746C247.782 108.119 247.236 108.093 247.169 107.693C246.763 105.374 246.389 103.242 246.014 101.11C244.574 92.9005 243.84 85.2106 241.2 77.2813C239.67 72.697 236.609 66.5673 232.018 62.7425C227.361 58.8645 219.011 56.3058 219.011 57.3853C219.011 58.1582 224.298 59.7975 226.663 61.2101C230.489 63.5156 234.619 68.1528 235.844 70.3916C238.885 75.9888 239.483 77.6816 241.2 83.3987C243.496 91.0614 244.771 100.243 245.572 108.426C246.16 114.436 245.427 120.58 245.256 126.657C245.244 127.136 245.248 127.723 245.263 128.349C245.111 128.496 244.954 128.656 244.794 128.816C242.615 131.707 241.98 132.68 240.633 135.426C235.188 146.513 234.471 158 237.328 169.847C238.184 173.379 239.183 176.897 240.28 180.362C241.509 184.254 241.284 188.159 240.772 192.09C240.543 193.862 240.219 195.595 239.812 197.287C237.515 200.366 234.403 202.098 230.961 203.257C231.548 202.085 231.425 200.632 230.263 199.526C229.951 199.232 229.868 198.486 229.965 197.993C230.448 195.621 229.959 194.888 227.668 194.262C226.864 194.035 226.103 193.449 225.466 192.876C223.926 191.477 222.073 191.33 220.458 192.609C220.133 192.862 219.852 193.249 219.481 193.369C218.139 193.836 216.925 194.342 216.569 195.941C216.082 198.14 215.598 200.459 217.004 202.365C219.647 205.949 218.892 206.122 216.243 208.961C212.534 212.946 208.471 216.411 204.115 219.436C208.11 213.719 207.002 207.269 201.112 203.071C199.216 201.725 197.338 200.339 195.52 198.886C194.056 197.713 193.293 196.061 193.84 194.248C195.472 188.851 197.731 183.787 203.088 180.975C205.944 179.469 208.88 178.123 211.799 176.751C219.824 172.966 225.837 167.315 228.667 158.68C230.708 152.456 231.391 146.073 230.89 139.556L230.889 139.543C230.804 138.57 229.436 138.357 229.043 139.25C229.021 139.29 229.002 139.343 228.99 139.397C228.03 142.608 226.52 145.54 224.146 147.872C219.886 152.057 215.573 156.188 211.079 160.119C206.244 164.33 202.522 169.155 200.435 175.325C199.028 179.483 196.908 183.401 195.179 187.452C194.152 189.864 192.948 192.237 192.35 194.782C192.07 195.968 192.07 196.341 192.126 197.394C189.354 195.861 188.231 192.609 187.7 189.997C186.654 184.813 188.144 180.123 190.672 175.738C193.989 169.995 197.478 164.344 200.983 158.707C201.387 158.054 202.405 156.321 202.867 155.508C207.29 148.432 210.274 135.851 210.289 135.865C211.047 134.985 211.836 134.106 212.653 133.24C214.309 131.507 216.09 129.882 217.668 128.069C219.11 126.417 220.899 126.177 222.836 126.457C224.31 126.67 225.778 127.016 227.201 127.456C230.192 128.389 232.163 127.936 233.602 125.817C233.77 125.564 234.03 125.297 234.029 125.03C234.847 121.939 235.249 121.313 235.764 119.434C236.43 116.995 235.336 114.823 234.264 112.717C234.157 112.504 233.954 112.29 233.742 112.197C232.321 111.544 230.72 111.185 230.021 109.492C229.928 109.266 229.299 109.132 228.937 109.172C227.097 109.332 225.236 109.425 223.445 109.838C222.45 110.052 221.579 110.838 220.661 111.384C220.37 111.558 220.14 111.85 219.836 111.984C217.9 112.85 217.251 113.796 217.389 115.928C217.473 117.261 217.737 118.567 217.917 119.887C218.022 120.673 218.131 121.445 218.279 122.232C218.716 124.524 217.937 126.19 216.291 127.895C214.377 129.881 212.448 131.867 210.605 133.933C211.09 131.134 211.399 128.282 211.52 125.39C211.783 119.167 211.078 112.863 210.422 106.626C210.129 103.868 210.597 101.762 212.593 99.9365C213.247 99.3501 213.907 98.7509 214.532 98.1379C215.739 96.9252 217.056 95.8185 218.189 94.5525C219.882 92.6468 219.97 91.2746 218.78 89.0358C218.592 88.6893 218.592 88.2363 218.445 87.8632C217.985 86.6771 217.734 85.304 216.964 84.3578C215.578 82.652 213.891 81.1994 212.282 79.6935C211.967 79.4003 211.279 79.0544 211.024 79.2009C209.124 80.2804 207.35 79.4406 205.532 79.0142C205.262 78.9475 204.911 79.0009 204.654 79.1209C202.093 80.3203 199.47 81.5595 198.307 84.3448C198.027 85.0111 197.827 85.5576 197.639 86.0906C196.722 84.8913 195.792 83.7053 194.842 82.5326C194.301 81.8529 193.707 81.1461 193.451 80.3599C192.229 76.5751 191.169 72.777 193.552 69.0056C193.954 68.3659 194.33 67.6068 194.379 66.8739C194.458 65.7012 194.498 64.4213 194.106 63.3418C193.661 62.1158 192.387 61.5428 191.091 61.7294C190.382 61.8227 189.261 62.3292 189.158 62.8356C188.753 64.7946 187.948 67.0201 189.265 68.7525C190.736 70.6982 191.04 72.777 191.196 75.0292C191.284 76.2686 191.704 77.495 191.89 78.7344C188.072 74.9896 184.259 71.2579 180.332 67.4198C180.742 67.2466 181.004 67.1269 181.271 67.0203C184.302 65.8342 184.771 63.9417 182.751 61.4496C182.478 61.1031 182.542 60.3305 182.7 59.8508C183.614 56.9989 182.238 53.8934 179.492 52.734C179.31 52.654 179.071 52.5607 178.994 52.4008C177.745 49.8821 175.666 50.3352 173.725 51.1215C172.385 51.6679 171.393 52.7744 169.817 53.1875C168.598 53.5074 167.503 55.013 166.755 56.2523C165.102 58.9576 165.093 60.7299 167.4 62.7556C166.073 66.7668 166.971 68.3394 170.66 68.446C171.335 70.3384 171.971 70.6452 175.128 70.4586C177.736 70.2987 176.871 68.0994 177.208 66.6201C180.413 67.8861 195.743 84.1448 196.597 87.2632C195.354 86.5436 194.244 85.8372 193.086 85.2376C189.766 83.5184 186.397 81.8257 182.538 81.9723C181.406 82.0123 180.227 82.4124 179.185 82.9588C178.887 83.1187 177.953 83.8513 178.292 84.9174C178.636 86.0102 179.863 85.5706 180.313 85.464C181.282 85.2375 181.95 84.7709 182.759 84.3044C183.781 83.7314 185.19 83.2522 186.174 83.532C189.994 84.6382 193.676 86.1437 196.781 88.5158C196.538 89.1689 196.236 89.9282 195.823 90.8877C195.631 91.1409 195.672 91.5807 195.648 91.9405C195.45 94.9923 196.967 96.8719 200.47 98.1913C202.136 98.8176 203.776 99.5768 205.319 100.456C207.342 101.629 208.852 103.162 208.999 105.774C209.155 108.639 209.636 111.477 209.918 114.342C211.28 128.162 208.905 141.329 202.289 153.536C202.02 154.029 201.746 154.535 201.471 155.015C196.219 153.096 191.233 150.498 186.513 147.286C183.141 144.514 181.761 140.543 180.585 136.398C179.432 132.32 178.202 128.242 175.175 125.03C174.03 123.818 172.809 122.645 171.87 121.286C168.849 116.914 165.049 113.436 160.2 111.264C156.191 109.478 151.966 108.612 147.651 110.198C143.071 111.877 141.419 117.075 143.841 122.099C144.554 123.565 145.488 124.937 146.448 126.577C144.666 126.43 143.084 126.177 141.508 126.217C139.931 126.257 138.288 126.296 136.826 127.389C147.382 125.524 154.031 130.947 159.187 139.223C158.115 135.532 155.275 131.96 150.938 128.855C148.09 126.816 145.927 124.337 144.645 121.032C142.45 115.382 145.436 110.851 151.501 110.718C157.564 110.571 162.364 113.25 166.8 117.115C169.543 119.5 170.612 122.285 170.422 125.803C170.293 128.189 170.308 130.588 170.396 132.973C170.648 139.756 174.246 145.007 179.798 146.873C181.715 147.526 183.596 148.285 185.521 148.898C185.952 149.032 186.559 149.272 187.184 149.365C188.084 149.978 188.953 150.431 189.876 150.99C193.392 153.096 197.154 154.549 200.903 155.948C197.531 161.839 193.641 167.809 190.208 173.686C189.749 174.459 189.309 175.258 188.894 176.045C189.203 174.019 189.475 171.847 189.253 169.661C189.058 167.756 187.815 165.037 187.562 164.584C186.809 163.278 184.53 160.306 183.804 159.519C183.131 158.786 182.378 158.027 181.495 157.427C181.257 156.068 180.532 154.748 179.432 153.856C177.739 152.483 176.327 152.537 173.974 153.83C173.061 154.336 171.964 154.935 171.013 154.842C166.376 154.402 161.753 153.803 157.144 153.137C155.962 152.963 154.845 152.323 153.787 151.937C158.667 151.67 163.449 151.404 168.261 151.138C168.262 151.004 168.262 151.057 168.266 150.924C165.118 150.644 161.948 150.911 158.798 150.764C156.659 150.671 154.445 150.724 152.406 150.178C147.551 148.885 143.653 145.927 140.375 142.009C137.943 139.09 135.306 136.345 132.424 133.879C131.68 133.24 131.192 132.84 130.191 132.493C130.178 132.48 130.166 132.493 130.155 132.493C130.152 132.493 130.151 132.493 130.15 132.493C129.854 132.64 129.721 132.973 129.94 133.226C130.174 133.479 130.387 133.706 130.493 133.813C133.72 137.078 136.975 140.316 140.166 143.608C140.632 144.087 140.959 144.821 141.088 145.5C141.733 148.832 142.009 152.27 142.967 155.521C143.76 158.2 143.382 160.359 141.968 162.598C141.157 163.891 141.137 165.276 142.245 166.569C143.158 167.635 144.004 168.755 144.791 169.914C145.711 171.274 146.804 172.167 148.547 171.94C150.427 171.7 153.103 169.368 153.534 167.515C153.867 166.076 153.198 165.05 152.018 164.384C151.247 163.944 150.374 163.677 149.526 163.398C147.217 162.611 145.594 161.145 144.925 158.76C144.281 156.468 143.617 154.176 143.127 151.844C142.771 150.151 142.681 148.392 142.423 146.299C144.282 147.765 145.728 149.098 147.361 150.151C148.916 151.151 149.634 152.403 149.862 154.215C150.566 159.773 153.187 164.011 158.639 166.077C160.987 166.956 163.377 167.742 166.011 168.662C163.915 161.572 159.563 156.895 153.411 153.696C155.693 153.989 157.84 154.402 159.974 154.882C161.49 155.228 163.05 155.482 164.476 156.068C166.782 157.001 169.13 157.934 169.848 160.826C170.079 161.745 170.764 162.704 171.564 163.318C172.717 164.21 172.717 164.211 172.649 162.798C172.604 161.799 172.363 160.612 171.735 159.986C170.132 158.373 168.266 157.027 166.486 155.548C168.47 155.095 170.23 155.802 171.658 157.254C172.652 158.267 173.453 159.48 174.292 160.639C175.625 162.465 179.874 162.385 181.09 160.479C181.186 160.333 181.265 160.159 181.322 160C181.474 159.56 181.554 159.093 181.573 158.614C188.124 166.276 188.876 170.981 186.246 182.815C186.246 183.188 185.953 184.64 186.084 184.401C185.873 186.12 185.905 187.865 186.26 189.691C187.316 195.128 189.498 199.819 195.474 201.618C197.262 202.165 198.959 203.204 200.523 204.27C204.542 207.002 206.018 210.827 204.666 215.331C203.759 218.356 201.782 220.795 199.2 222.554C200.185 221.182 201.391 218.796 201.538 216.438C201.62 215.132 200.458 213.812 199.586 212.506C198.833 211.373 194.294 209.281 194.073 209.201C189.498 207.775 185.213 208.442 181.715 211.693C178.498 214.678 174.94 215.451 170.813 214.665C170.265 214.558 169.673 214.638 169.103 214.638C169.467 215.318 169.849 215.638 170.28 215.731C174.278 216.61 178.122 216.584 181.435 213.692C182.198 213.026 182.924 212.293 183.758 211.72C185.521 210.534 187.418 209.681 189.875 209.681C189.113 212.612 187.885 214.878 185.427 216.011C182.519 217.343 179.414 218.236 176.449 219.449C175.58 219.809 174.86 220.528 174.087 221.115C173.995 221.195 173.981 221.328 174.058 221.421H174.061C174.129 221.501 174.244 221.515 174.328 221.448C175.065 220.942 175.761 220.328 176.571 220.009C178.058 219.422 179.611 218.982 181.164 218.596C185.156 217.596 188.564 215.838 190.219 211.773C191.418 208.841 191.545 208.775 194.597 210.054C194.653 210.067 198.902 211.893 200.338 214.758C200.903 215.891 201.089 216.45 200.714 217.956C200.523 218.716 198.617 222.154 198.052 223.247C194.966 225.006 191.762 226.592 188.456 228.005C188.473 228.018 188.491 228.018 188.509 228.031C183.596 229.79 178.412 230.63 172.901 230.257C167.571 229.897 162.466 228.751 158.526 224.687C156.757 222.874 156.453 221.102 157.513 218.836C157.765 218.29 157.943 217.716 158.154 217.157C157.93 217.023 157.704 216.904 157.478 216.784C156.883 217.77 156.055 218.69 155.731 219.769C154.661 223.287 157.286 225.299 159.437 227.618C149.253 231.696 141.713 238.213 137.6 248.315C137.258 249.154 136.231 249.487 135.471 248.994C129.958 245.396 125.122 241.025 120.491 236.387C120.239 236.134 119.85 236.481 120.076 236.761H120.083C122.114 239.186 124.058 241.705 126.232 243.983C128.885 246.782 130.815 249.94 131.909 253.618C134.689 262.96 135.403 272.409 133.155 281.964C132.249 285.829 131.085 289.56 128.566 292.759C126.316 295.624 124.142 298.568 122.096 301.58C115.251 311.655 111.875 322.65 113.062 334.95C113.357 338.002 113.362 341.227 112.668 344.186C109.795 356.353 104.894 367.64 96.9785 377.461C94.5411 380.487 94.4772 381.26 90.5538 379.154C88.4669 378.035 86.2427 378.835 84.1344 379.634C82.6032 380.207 82.266 381.487 82.0035 382.886C81.9316 383.259 81.5944 383.592 81.3852 383.952C80.3484 385.737 80.7562 387.55 82.3607 388.869C83.023 389.415 83.7133 390.095 84.0452 390.855C84.9847 393.041 85.7803 393.414 88.0698 392.601C88.5335 392.441 89.2892 392.414 89.6303 392.681C91.8705 394.453 94.7517 392.801 94.9636 390.055C95.0862 388.509 95.1915 386.964 95.2061 385.418C95.2288 383.112 95.5939 381.113 97.1758 379.141C100.046 375.569 102.466 371.638 105.08 367.853C105.202 367.68 105.329 367.494 105.473 367.307C105.679 367.027 106.125 367.2 106.083 367.547C105.036 376.062 104.894 384.179 105.583 392.321C105.687 393.534 105.466 394.813 105.268 396.039C104.881 398.438 104.175 400.81 104.039 403.222C103.939 405.021 104.599 407.034 106.578 407.567C108.285 408.02 110.409 408.699 111.576 406.287C111.686 406.061 112.195 405.994 112.531 405.901C115.361 405.181 116.245 402.862 114.278 400.677C112.988 399.238 111.347 398.052 109.7 397.012C107.937 395.906 106.812 394.613 106.826 392.441C106.864 385.391 106.74 378.328 106.917 371.278C106.997 368.093 107.83 364.935 108.201 361.749C108.315 361.749 108.281 361.749 108.393 361.749C108.583 362.922 108.894 364.082 109.082 365.255C109.383 367.147 109.505 369.08 109.963 370.919C111.007 375.13 111.951 379.114 115.221 382.179C115.785 382.552 116.202 382.672 116.349 382.739C117.497 383.232 118.53 382.086 118.484 380.846C118.478 380.7 118.46 380.567 118.422 380.433C117.688 377.861 115.546 376.422 113.622 374.81C112.782 374.104 111.727 373.237 111.504 372.264C110.087 366.121 108.425 360.017 111.235 353.687C112.764 350.236 113.486 346.438 114.63 342.6C114.913 343.226 115.177 343.799 115.421 344.372C117.557 349.37 119.668 354.367 121.859 359.351C121.903 359.444 121.97 359.538 122.052 359.618C122.653 360.231 123.74 359.791 123.686 358.938C123.685 358.898 123.68 358.858 123.676 358.831C122.653 353.474 124.237 348.383 125.231 343.239C125.293 342.92 125.556 342.346 125.744 341.773C126.12 342.72 126.257 343.612 126.38 344.172C127.311 348.556 128.011 353.008 129.257 357.312C130.975 363.216 133.047 369.026 135.082 374.823C137.832 382.672 138.815 390.601 136.741 398.784C135.905 402.076 135.163 405.434 134.767 408.806C134.008 415.296 135.106 421.519 137.918 427.476C139.061 429.902 139.781 432.527 140.734 435.166C140.928 434.846 141.164 434.58 141.283 434.273C142.45 431.141 143.623 428.009 144.745 424.851C148.227 415.082 148.46 405.448 143.587 395.986C142.305 393.494 141.043 390.961 140.193 388.309C138.301 382.392 136.704 376.382 134.929 370.438C134.242 368.133 133.403 365.868 132.632 363.589C133.447 364.322 133.897 364.735 134.198 365.081C138.168 369.532 142.533 372.784 147.539 375.969C148.983 376.902 150.608 377.382 152.237 377.888C154.063 378.195 154.379 377.928 154.725 377.475C154.821 377.355 154.897 377.209 154.928 377.062C155.122 376.076 153.956 374.876 153.928 374.85C152.521 373.65 151.112 373.437 149.67 373.237C146.776 372.811 144.033 372.264 141.846 370.119C140.911 369.199 139.787 368.48 138.841 367.56C135.254 364.122 131.462 360.71 130.214 355.686C128.876 350.302 127.907 344.825 126.999 339.334C126.75 337.829 127.063 336.11 127.526 334.604C128.776 330.553 130.279 326.581 131.621 322.557C133.913 315.68 136.144 308.79 135.44 301.354C135.186 298.675 134.947 295.983 134.946 293.305C134.943 288.774 134.821 284.203 135.306 279.712C136.457 269.064 135.881 258.696 131.414 248.781C131.405 248.768 131.398 248.741 131.39 248.728C131.241 248.248 131.831 247.874 132.222 248.194C135.713 251.019 138.944 253.565 142.07 256.217C153.022 265.545 161.475 276.873 167.765 289.707C170.421 295.131 171.886 301.141 173.858 306.898C174.045 307.444 174.31 308.124 174.599 308.844C174.848 309.443 175.758 309.163 175.625 308.523C175.209 306.511 174.972 305.512 174.142 302.58C172.022 296.036 170.266 289.453 171.226 282.524C171.914 277.566 172.906 272.635 173.931 267.731C175.271 261.308 174.642 254.445 178.276 248.541C178.284 248.528 178.294 248.501 178.302 248.474C179.616 243.863 176.605 240.265 171.875 240.825C170.813 240.945 169.749 241.198 168.741 241.558C167.567 241.957 166.742 242.837 167.057 244.156C167.355 245.396 166.892 246.102 166.047 246.942C163.671 249.274 163.852 251.512 166.536 253.578C167.765 254.511 169.206 255.191 170.409 256.15C172.283 257.656 174.128 259.282 173.661 262.081C173.425 263.507 173.113 264.906 172.81 266.305C171.254 273.555 169.352 280.751 169.709 288.267C169.727 288.654 169.203 288.814 169.004 288.467C167.809 286.428 166.711 284.576 165.613 282.697C161.387 275.514 156.675 268.664 150.819 262.707C147.222 259.055 143.339 255.67 139.511 252.245C138.444 251.299 138.007 250.513 138.597 249.047C142.554 239.239 149.728 232.816 159.463 229.124C160.38 228.765 161.638 229.084 162.67 229.351C164.515 229.817 166.273 230.657 168.128 231.043C175.478 232.563 182.646 231.736 189.602 229.004C189.903 228.884 190.203 228.764 190.504 228.644C190.507 228.644 190.511 228.644 190.513 228.644C190.551 228.631 190.588 228.618 190.625 228.605C193.445 227.472 196.212 226.259 198.704 224.607C203.391 223.101 208.271 223.66 213.159 224.074C214.144 224.167 215.152 225.086 215.972 225.819C217.849 227.498 219.58 229.404 222.224 229.764C222.36 229.791 222.5 229.79 222.641 229.777C223.882 229.644 224.857 228.458 224.212 227.392C224.13 227.258 223.946 226.859 223.494 226.352C220.005 223.554 215.923 223.181 211.607 222.741C209.712 222.554 207.787 222.701 205.876 222.674C204.685 222.661 203.495 222.514 202.303 222.487C202.29 222.381 202.294 222.408 202.281 222.301C205.375 221.488 208.394 220.209 211.536 219.675C218.487 218.503 225.489 217.623 232.465 216.584C234.619 216.264 236.052 217.197 237.398 218.783C238.656 220.275 240.064 221.728 241.67 222.794C244.122 224.433 246.293 223.234 246.602 220.329C246.641 219.982 246.631 219.463 246.842 219.329C249.073 217.837 248.089 215.824 247.395 214.198C246.59 212.306 244.505 211.946 242.745 212.293C240.379 212.772 238.128 213.812 235.804 214.532C234.618 214.905 233.393 215.304 232.166 215.371C224.008 215.851 215.998 217.144 207.714 219.383C207.38 219.476 207.141 219.063 207.39 218.809C207.563 218.636 207.721 218.489 207.879 218.343C211.252 215.224 214.805 212.266 217.934 208.921C219.661 207.069 221.588 206.429 223.86 206.083C224.988 205.91 226.107 205.683 227.223 205.443C227.235 205.47 231.442 204.31 233.502 203.617C237.676 202.191 241.738 200.365 245.992 199.272C252.307 197.66 257.39 194.302 261.96 189.797C266.207 185.613 270.657 181.629 275.145 177.684C277.648 175.498 280.687 174.205 283.966 173.499C284.553 173.366 285.039 172.766 285.572 172.393C285.028 172.113 284.512 171.673 283.94 171.593C277.482 170.594 271.064 170.807 264.706 172.366C255.888 174.539 249.799 180.122 245.424 187.838C244.483 189.504 243.55 191.17 242.592 192.81C243.684 189.198 245.103 185.653 246.441 182.122C247.387 179.603 248.559 177.164 249.741 174.752C253.016 168.049 253.356 160.812 253.633 153.563C253.794 149.325 253.789 145.074 254.046 140.836C254.141 139.277 254.454 137.557 255.222 136.225C257.998 131.427 260.839 126.63 263.988 122.059C266.928 117.794 271.677 115.942 276.247 113.983C277.453 113.463 278.762 113.183 279.958 112.65C282.765 111.411 285.522 111.864 288.38 112.491C289.803 112.797 291.195 113.103 292.932 112.477C292.967 112.464 294.483 111.744 294.646 110.771C294.672 110.611 294.651 110.451 294.606 110.305C294.44 109.758 294.237 109.398 292.421 109.039C290.716 108.945 289.025 108.825 287.351 109.172C281.539 110.398 276.308 111.904 271.026 114.676C270.627 114.889 270.058 115.116 269.036 115.516C270.559 113.65 272.141 111.837 273.595 109.918C277.353 104.974 280.965 99.9099 284.819 95.0457ZM288.682 88.7026C293.854 78.6677 297.404 68.0327 300.519 57.2382C301.627 70.1783 296.919 83.1588 288.682 88.7026ZM286.602 83.5184C287.416 77.5881 288.25 74.7763 291.139 67.6333C293.186 63.9818 294.47 61.4632 299.029 56.7456C295.782 68.7395 291.834 80.4265 285.213 91.0478C285.682 88.5291 286.254 86.0371 286.602 83.5184ZM264.432 76.2025C264.352 76.7355 263.615 76.7883 263.451 76.2819C262.98 74.8159 262.57 72.6704 263.111 71.3111C263.211 71.0579 263.464 70.8714 263.735 70.6981C264.015 70.4982 264.389 70.5516 264.617 70.8048C264.852 71.058 265.069 71.3243 265.045 71.5642C264.893 73.1101 264.662 74.6566 264.432 76.2025ZM261.882 65.8477C262.094 65.4612 262.397 64.9948 262.775 64.8482C264.096 64.3018 268.037 65.6212 269.035 66.8472C270.277 68.3664 270.391 70.3786 269.096 72.3509C268.456 73.3104 267.663 74.1764 266.884 75.0559C266.472 75.509 265.71 75.2824 265.632 74.6694C265.614 74.5228 265.61 74.3762 265.631 74.2829C266.303 70.8979 265.19 68.3395 262.229 66.5537C262.03 66.4338 261.805 65.981 261.882 65.8477ZM257.887 73.0706C256.773 71.3115 257.113 70.0851 258.897 69.0323C259.807 68.5126 260.846 68.1396 261.87 67.8597C263.084 67.5399 263.609 68.6594 263.143 69.2724C261.036 71.991 262.004 74.9498 262.161 77.8683C262.182 78.2548 261.681 78.4413 261.451 78.1214C260.123 76.2957 258.933 74.7364 257.887 73.0706ZM229.154 145.674C230.185 148.299 228.421 156.961 225.965 161.999C221.198 171.794 211.785 175.458 202.69 179.536C202.622 179.429 202.638 179.456 202.569 179.35C204.861 177.031 207.146 174.712 209.444 172.393C212.81 168.995 216.248 165.663 219.535 162.198C223.987 157.507 227.273 152.084 229.154 145.674ZM200.803 178.137C202.878 171.047 206.785 165.263 212.534 160.546C216.816 157.027 220.715 153.056 224.732 149.218C225.889 148.125 226.71 146.66 227.806 145.5C227.876 145.54 227.858 145.54 227.928 145.58C227.548 146.446 227.365 147.379 227.016 148.245C224.172 155.348 219.245 160.919 213.916 166.209C209.764 170.34 205.668 174.525 201.547 178.683C201.251 178.977 200.735 178.75 200.766 178.337C200.772 178.257 200.783 178.19 200.803 178.137ZM230.965 126.59C228.583 127.229 227.113 126.337 224.338 125.457C223.834 125.297 223.021 125.071 224.374 125.044C227.268 124.511 230.161 123.978 233.254 123.405C233.126 125.111 232.368 126.216 230.965 126.59ZM230.356 114.223C229.893 113.33 230.255 112.624 231.17 112.637C231.928 112.664 233.14 113.277 233.4 113.823C234.101 115.276 234.627 116.595 234.763 118.194C234.943 120.273 233.711 121.925 231.82 122.392C228.986 123.085 226.09 123.512 223.222 124.071C223.153 123.898 223.165 123.938 223.093 123.765C223.671 123.352 224.214 122.885 224.8 122.485C226.321 121.433 227.912 120.473 229.363 119.34C231.149 117.927 231.401 116.248 230.356 114.223ZM224.919 120.473C225.927 119.034 226.88 117.541 227.981 116.168C228.204 115.889 228.594 115.755 228.994 115.622C229.302 115.515 229.623 115.729 229.651 116.049C229.692 116.542 229.733 117.021 229.507 117.261C228.248 118.594 226.806 119.753 225.433 120.966C225.261 120.806 225.09 120.646 224.919 120.473ZM224.34 110.704C225.626 110.678 226.91 110.505 228.197 110.438C228.658 110.412 229.416 110.585 229.556 110.825C229.788 111.198 229.7 111.597 229.596 112.09C229.495 112.557 229.243 113.037 228.95 113.423C227.364 115.542 225.762 117.635 224.126 119.713C223.771 120.167 223.323 120.54 222.752 121.073C222.572 121.233 222.28 121.139 222.237 120.899C221.847 118.567 221.428 116.622 221.271 114.663C221.085 112.344 221.8 110.758 224.34 110.704ZM219.028 113.569C219.055 113.516 219.38 113.21 219.444 113.21H219.5C220.073 113.25 220.531 113.703 220.569 114.276C220.741 116.848 220.949 119.42 220.997 121.992C221.007 122.485 220.73 122.978 220.479 123.391C220.368 123.578 220.085 123.538 220.045 123.325C219.529 120.62 218.972 117.914 218.573 115.196C218.487 114.609 218.742 114.209 219.028 113.569ZM173.862 52.3208C174.472 52.1342 175.425 51.7881 175.828 51.7215C177.136 51.5082 177.971 52.0546 177.744 53.3339C177.327 55.6927 175.928 58.638 175.303 61.1301C174.112 59.251 173.923 57.6649 173.012 55.7858C172.391 54.5064 172.497 52.7606 173.862 52.3208ZM166.9 58.4114C167.661 56.8522 168.859 55.4797 170.04 54.187C170.7 53.4674 171.718 53.9202 171.766 54.9464C171.904 57.8649 172.531 60.5965 174.546 62.9553C172.604 62.6088 170.622 62.4226 168.71 61.9695C167.007 61.5564 166.118 60.0106 166.9 58.4114ZM169.985 67.1003C169.577 67.3269 168.865 67.3665 168.411 67.0066C167.625 66.3803 167.712 65.1412 168.074 63.9685C168.266 63.3554 168.895 63.2221 169.307 63.2488C171.17 63.3954 173.014 63.7419 174.872 63.9685C173.232 64.9946 171.676 66.1675 169.985 67.1003ZM172.536 69.3524C171.703 69.0859 171.429 67.78 172.196 67.1003C173.16 66.2474 174.27 65.5543 175.544 64.6348C175.754 65.4077 175.873 65.7944 175.953 66.1809C176.639 69.3792 175.637 70.2986 172.536 69.3524ZM176.134 62.2096C176.534 61.1835 176.998 60.1706 177.37 59.1311C177.883 57.7052 178.332 56.2389 178.853 54.813C178.937 54.5864 179.081 54.3736 179.231 54.1603C179.39 53.9338 179.692 53.867 179.936 54.0002C180.251 54.1602 180.511 54.36 180.708 54.5865C182.426 56.5189 182.548 57.9716 181.402 59.7708C180.237 61.5965 178.098 61.9031 176.134 62.2096ZM176.546 63.2755C177.991 62.8224 179.399 62.2094 180.866 61.9962C181.466 61.9029 182.447 61.8897 182.793 63.1024C182.911 63.5022 183.083 64.5682 182.756 64.9946C181.001 67.2602 177.84 66.4072 176.546 63.2755ZM190.164 65.0077C190.31 66.2603 191.032 68.3525 191.206 69.8984C189.709 68.5124 188.929 66.3803 190.164 65.0077ZM191.317 65.9805C191.137 65.3008 190.856 64.6612 190.49 64.0349C190.455 63.9682 190.42 63.9151 190.388 63.8618C190.111 63.382 190.358 62.7424 190.897 62.6358C190.927 62.6358 190.956 62.6358 190.985 62.6358C192.266 62.5292 193.677 63.6089 193.576 64.8749C193.42 66.7939 192.906 68.3527 192.117 70.1118C191.608 68.6459 191.708 67.4731 191.317 65.9805ZM204.634 98.4177C201.379 97.205 199.334 96.9646 197.563 94.6058C196.517 93.2199 196.61 91.6343 197.748 89.9285C200.24 92.7404 202.573 95.3658 204.907 98.0045C206.163 99.0173 205.223 98.6443 204.634 98.4177ZM207.753 93.2999C207.469 93.3265 207.186 93.3532 206.904 93.3799C206.507 91.221 205.999 89.0756 205.792 86.9034C205.755 86.5036 206.151 86.0772 206.551 85.6508C206.813 85.3576 207.272 85.3976 207.486 85.7308C207.763 86.1439 208.029 86.5703 208.034 86.9834C208.062 89.089 207.863 91.1943 207.753 93.2999ZM207.23 83.4117C204.759 84.5444 203.755 86.3171 204.405 88.9557C204.934 91.088 205.728 93.1666 206.388 95.2722C206.643 96.0851 206.81 96.9248 207.049 97.7377C206.862 97.8443 206.894 97.8312 206.708 97.9244C204.421 95.2858 202.008 92.7535 199.849 90.0216C198.405 88.1959 198.465 85.7307 200.159 83.9049C201.459 82.5056 202.931 81.6396 204.66 80.7867C205.302 80.4802 206.897 80.7866 207.623 81.3196C208.503 81.9727 208.323 82.9053 207.23 83.4117ZM209.356 95.4459C209.208 94.5264 209.064 93.8468 209.06 93.1671C209.045 90.0087 209.083 86.8499 209.141 83.6915C209.153 83.1051 209.261 82.479 209.512 81.9593C209.774 81.4262 209.986 80.9866 210.485 80.7867C210.791 80.6801 211.627 81.0666 212.045 81.4264C213.21 82.4392 214.291 83.545 215.483 84.5179C217.838 86.4236 217.344 88.4629 215.465 90.5018C213.871 92.2343 212.05 93.753 209.969 95.6587C209.753 95.8586 209.404 95.7391 209.356 95.4459ZM210.251 99.5636C210.057 99.7235 209.753 99.5637 209.788 99.3105C209.861 98.7241 209.962 98.0574 210.33 97.6043C212.27 95.2188 214.353 92.9534 216.404 90.6612C216.861 90.1415 217.629 90.0483 218.197 90.4348C218.217 90.4481 218.235 90.4618 218.254 90.4751C218.315 90.5151 218.394 91.0478 218.375 91.1278C218.174 91.9407 218.121 92.5003 217.609 92.9934C215.232 95.2589 212.725 97.3914 210.251 99.5636ZM178.406 145.287C176.618 144.527 175.159 143.168 174.022 141.156C172.996 138.983 172.027 136.638 171.768 134.293C171.434 131.241 171.615 128.122 171.867 124.87C171.895 124.524 172.368 124.418 172.531 124.738C172.992 125.63 173.458 126.51 173.723 127.456C174.59 130.548 175.123 133.733 176.046 136.798C176.868 139.543 177.949 142.195 178.922 144.794C179.042 145.114 178.718 145.42 178.406 145.287ZM183.688 146.673C181.451 145.594 179.546 144.074 178.751 141.702C177.604 138.277 176.952 134.693 176.06 131.174C175.788 130.095 175.476 129.042 175.297 127.882C175.244 127.536 175.689 127.336 175.901 127.616C176.162 127.949 176.892 129.069 177.039 129.455C178.254 132.614 178.939 135.025 180.006 138.25C180.96 141.129 182.039 143.928 183.957 146.34C184.101 146.526 183.897 146.78 183.688 146.673ZM148.479 164.21C151.485 165.716 152.424 165.343 152.611 166.663C152.779 167.223 152.546 168.075 151.485 168.728C149.231 167.782 147.352 167.222 146.224 163.278C146.343 163.145 148.324 164.144 148.479 164.21ZM150.92 169.475C150.074 171.34 147.142 171.473 145.858 169.781C144.819 168.422 143.757 167.076 142.824 165.637C142.513 165.157 142.323 164.331 142.513 163.837C142.942 162.691 143.641 161.652 144.325 160.413C145.286 164.411 146.325 168.328 150.92 169.475ZM153.552 156.894C155.944 159.6 155.995 159.52 158.624 162.145C158.894 162.438 159.804 163.344 160.429 163.624C160.622 163.717 160.802 163.477 160.666 163.318C158.951 161.252 157.685 159.519 156.935 158.573C156.605 158.173 155.721 157.107 155.586 156.521C158.418 158.147 160.069 159.386 161.82 162.145C162.169 162.705 162.76 163.651 163.382 164.81C163.495 165.023 164.449 166.476 163.887 166.849C163.517 167.049 162.57 166.662 161.619 166.316C156.022 164.33 152.424 160.839 151.11 155.948C151.07 155.802 150.923 154.296 151.11 153.696C152.106 154.829 152.725 155.948 153.552 156.894ZM180.045 155.948C177.979 155.202 175.604 155.402 173.562 155.402C175.792 153.309 178.918 153.323 180.045 155.948ZM175.149 160.386C174.363 159.373 173.698 158.267 173.172 156.894C174.891 157.934 177.937 158.84 179.67 159.893C178.542 161.212 176.663 161.585 175.149 160.386ZM176.287 156.695C177.731 155.828 180.096 156.961 180.609 158.96C179.262 158.267 177.36 157.241 176.287 156.695ZM91.2921 382.752C92.2983 382.366 91.536 383.592 91.2322 383.912C90.2553 384.951 88.916 386.31 87.7886 386.87C87.2142 387.163 86.7305 386.47 86.941 385.871C86.9757 385.764 87.0263 385.684 87.0982 385.631C88.7267 384.059 89.1039 383.685 91.2868 382.739L91.2921 382.752ZM83.8999 381.286C85.607 379.701 88.299 379.368 90.2993 380.301C91.0962 380.674 91.0456 381.833 90.2113 382.113C88.3643 382.726 86.3973 382.326 84.3277 382.339C83.772 382.339 83.4934 381.66 83.8999 381.286ZM85.0553 387.523C84.7781 388.096 84.0878 388.31 83.5254 388.03C83.0803 387.79 82.6685 387.55 82.446 387.177C82.0648 386.55 82.0168 385.417 82.3353 384.764C82.6352 384.151 83.5614 383.685 84.301 383.485C84.6049 383.405 84.9247 383.379 85.2565 383.379C86.0481 383.379 86.5785 384.192 86.2574 384.924C86.0188 385.458 85.7563 386.017 85.5337 386.497C85.3645 386.87 85.2325 387.164 85.0553 387.523ZM86.9917 391.734C86.9104 391.747 86.8144 391.747 86.7118 391.734C85.8309 391.641 85.2685 390.761 85.4738 389.895C85.659 389.122 86.0295 388.709 86.4972 388.363C87.2888 387.763 88.2523 387.39 89.2132 387.03C89.8662 386.777 90.5232 387.403 90.3099 388.056C89.7662 389.749 88.3643 391.468 86.9917 391.734ZM93.6549 390.228C93.3551 392.028 91.9238 392.734 90.6884 391.935C90.3966 391.748 90.23 391.388 90.4192 390.255C90.7897 388.03 91.8585 386.657 92.7554 384.591C92.9459 384.152 93.3457 383.805 93.6496 383.405L93.6549 383.419C93.9654 383.565 94.152 383.885 94.132 384.231C94.0107 386.244 93.9841 388.256 93.6549 390.228ZM109.96 398.331C111.149 399.371 112.423 400.317 113.43 401.503C113.906 402.062 114.174 402.982 114.094 403.781C114.058 404.155 113.414 405.208 112.403 404.541C111.839 404.155 111.839 404.155 111.624 403.808C110.681 402.249 110.115 401.236 109.208 398.518C108.834 397.398 109.435 397.758 109.96 398.331ZM107.862 399.291C109.96 400.584 110.985 404.221 110.032 406.087C109.863 406.42 109.402 406.474 109.174 406.181C107.593 404.128 107.705 400.97 107.862 399.291ZM107.649 406.341C107.688 406.554 107.435 406.767 107.269 406.62C104.887 404.542 104.196 401.276 105.903 398.811C106.003 398.677 106.232 398.718 106.266 398.904C106.724 401.37 107.179 403.809 107.649 406.341ZM116.831 380.087C117.051 380.66 116.353 381.14 115.896 380.753C114.761 379.754 114.134 378.368 113.587 376.916C115.117 377.635 116.269 378.635 116.831 380.087ZM141.569 395.612C147.333 403.688 147.164 417.495 141.566 429.222C142.455 418.015 142.879 406.82 141.569 395.612ZM140.001 429.155C137.393 423.132 137.081 420.333 136.453 416.188C136.266 408.486 136.473 405.567 137.799 399.73C138.363 397.238 138.708 394.706 139.152 392.188C141.606 404.461 141.187 416.788 140.001 429.155ZM153.406 376.303C153.562 376.489 153.432 376.769 153.193 376.782C150.693 376.875 148.103 375.409 147.351 374.29C149.861 373.61 151.785 374.357 153.406 376.303ZM120.68 353.101C108.91 329.966 114.052 311.762 130.491 293.025C129.95 294.864 129.381 296.703 128.876 298.569C126.551 307.098 123.915 315.56 122.02 324.182C119.943 333.644 119.502 343.266 121.303 352.887C121.305 352.887 121.305 352.888 121.305 352.901C121.377 353.274 120.852 353.447 120.68 353.101ZM128.848 326.421C126.153 333.671 124.027 341.054 122.855 348.703L122.799 349.063C122.759 349.316 122.428 349.423 122.26 349.223C121.976 348.889 121.799 348.157 121.855 347.464C121.017 335.696 122.768 324.222 126.049 312.948C128.168 305.659 130.411 298.408 132.603 291.146C132.603 291.146 132.604 291.146 132.607 291.146C132.743 290.692 133.399 290.786 133.432 291.252C133.584 293.491 133.686 295.73 133.954 297.969C135.163 307.977 132.259 317.252 128.848 326.421ZM168.606 242.864C169.653 241.904 173.806 241.744 175.168 242.544C176.863 243.53 177.679 245.383 177.154 247.675C176.892 248.808 176.454 249.9 176.029 250.993C175.806 251.566 175.008 251.606 174.722 251.06C174.652 250.927 174.603 250.807 174.586 250.7C174.031 247.302 172.09 245.289 168.694 244.663C168.463 244.609 168.096 244.277 168.118 244.117C168.182 243.677 168.303 243.143 168.606 242.864ZM172.016 255.764C170.133 254.524 168.471 253.472 166.911 252.286C165.253 251.033 165.137 249.754 166.443 248.154C167.109 247.328 167.954 246.635 168.815 246.009C169.837 245.276 170.724 246.156 170.5 246.875C169.483 250.167 171.425 252.605 172.592 255.271C172.592 255.271 172.593 255.284 172.595 255.284C172.751 255.644 172.341 255.977 172.016 255.764ZM173.248 253.339C172.295 252.139 171.155 250.273 171.185 248.807C171.191 248.541 171.363 248.275 171.551 248.008C171.748 247.728 172.118 247.648 172.416 247.795C172.729 247.955 173.022 248.128 173.084 248.354C173.483 249.86 173.811 251.393 174.136 252.925C174.247 253.445 173.578 253.765 173.248 253.339ZM222.176 227.219C222.637 227.618 222.248 228.378 221.656 228.245C220.136 227.898 218.982 226.898 218.062 225.486C219.573 225.819 221.033 226.246 222.176 227.219ZM246.43 217.823C244.714 219.036 240.977 218.53 239.397 216.637C241.029 216.251 244.138 215.691 246.401 216.957C246.726 217.143 246.738 217.61 246.43 217.823ZM238.646 214.772C240.837 212.733 244.162 212.946 246.562 215.011C246.727 215.158 246.557 215.438 246.338 215.438C243.774 215.331 241.288 215.225 238.778 215.118C238.601 215.105 238.516 214.892 238.646 214.772ZM238.823 218.09C241.639 218.596 242.717 219.009 244.395 219.729C244.778 219.889 244.778 219.889 245.228 220.395C246.041 221.301 245.083 222.088 244.724 222.168C243.936 222.368 242.993 222.234 242.374 221.835C241.052 221.008 239.94 219.889 238.746 218.849C238.101 218.409 237.655 217.876 238.823 218.09ZM225.541 197.047C225.825 196.527 226.179 196.101 226.922 195.808C227.748 195.488 228.699 195.915 228.915 196.781C228.941 196.874 228.954 196.967 228.95 197.047C228.891 198.446 227.375 200.085 225.789 200.858C225.162 201.165 224.46 200.605 224.611 199.926C224.832 198.913 225.064 197.913 225.541 197.047ZM219.882 201.605C219.727 202.471 218.59 202.684 218.109 201.951C216.903 200.099 216.845 197.394 218.174 195.475C218.491 195.022 219.204 195.195 219.279 195.755C219.559 197.794 220.23 199.686 219.882 201.605ZM220.409 195.554C220.505 194.795 220.833 193.822 221.398 193.436C222.003 193.022 223.129 192.916 223.8 193.195C224.194 193.369 224.5 193.742 224.789 194.142C225.156 194.662 225.033 195.382 224.509 195.728C224.175 195.955 223.903 196.127 223.563 196.354C223.117 196.647 222.6 196.981 222.103 197.287C221.431 197.714 220.547 197.3 220.435 196.527C220.389 196.194 220.369 195.874 220.409 195.554ZM220.669 202.591L220.663 202.577C221.279 200.285 221.598 199.859 222.922 198.02C222.966 197.94 223.042 197.886 223.14 197.833C223.71 197.54 224.459 197.926 224.256 198.526C223.858 199.725 222.704 201.245 221.818 202.365C221.543 202.711 220.43 203.631 220.669 202.591ZM228.41 203.857C226.506 204.47 224.508 204.776 222.537 205.189C222.199 205.256 221.852 205.109 221.66 204.83H221.658C222 204.47 222.289 204.017 222.698 203.777C224.619 202.591 225.827 201.338 227.976 200.658C229.066 200.312 229.45 200.419 229.676 200.685C230.637 201.791 230.149 203.31 228.41 203.857ZM277.789 174.219C276.544 175.232 275.03 175.938 273.843 177.004C269.725 180.722 265.462 184.307 261.639 188.318C256.504 193.702 250.442 197.154 243.221 198.7C243.156 198.713 243.091 198.727 243.02 198.727C242.603 198.727 242.416 198.193 242.735 197.913C247.186 194.115 251.665 190.344 256.091 186.519C261.768 181.602 267.695 177.098 274.985 174.792C275.882 174.512 276.831 174.405 277.716 174.085C277.757 174.165 277.748 174.139 277.789 174.219ZM261.193 174.819C266.404 172.74 275.17 171.633 277.713 172.86C271.184 174.259 265.53 177.124 260.514 181.215C256.809 184.227 253.233 187.412 249.594 190.517C247.113 192.623 244.62 194.728 242.132 196.847C242.04 196.767 242.062 196.781 241.969 196.714C246.719 187.945 251.071 178.83 261.193 174.819ZM254.643 126.003C253.044 133.573 252.432 141.235 252.402 148.965C252.363 158.746 251.814 168.449 247.155 177.404C246.12 179.39 245.232 181.455 244.298 183.507C244.106 183.92 243.462 183.774 243.49 183.307C243.49 183.307 243.49 183.308 243.49 183.294C243.997 175.738 244.453 168.155 245.034 160.586C245.934 148.885 248.337 137.531 253.271 126.803C253.459 126.15 253.885 125.523 254.27 125.31C254.497 125.177 254.767 125.39 254.715 125.643L254.643 126.003ZM254.671 121.526C254.667 121.539 254.665 121.539 254.662 121.539C249.586 129.908 246.609 139.077 245.222 148.658C243.958 157.401 243.442 166.25 242.614 175.045C242.432 176.964 242.316 178.883 242.171 180.802C233.389 157.481 234.989 138.624 254.157 121.112C254.437 120.859 254.869 121.206 254.671 121.526ZM292.925 110.412C293.146 110.505 293.166 110.811 292.959 110.931C290.756 112.184 288.693 112.197 286.579 110.691C287.678 109.905 290.616 109.452 292.925 110.412Z" fill="#FAFAFA"/>
</svg>
