<svg width="227" height="145" viewBox="0 0 227 145" fill="none" xmlns="http://www.w3.org/2000/svg">
<path d="M245.557 148H208.315C208.248 148 208.182 147.985 208.122 147.955C208.062 147.926 208.009 147.883 207.968 147.83C207.927 147.777 207.898 147.716 207.884 147.65C207.869 147.585 207.87 147.517 207.886 147.452L211.298 133.434C212.699 127.584 213.512 122.12 213.733 117.103C209.245 128.652 202.608 147.463 202.524 147.705C202.493 147.791 202.436 147.866 202.361 147.919C202.286 147.972 202.197 148 202.105 148H176.037C175.946 148 175.857 147.971 175.782 147.919C175.708 147.866 175.651 147.791 175.621 147.704C175.59 147.618 175.587 147.524 175.612 147.436C175.636 147.348 175.687 147.27 175.758 147.212C182.373 141.781 185.193 119.999 185.219 119.792C185.23 119.72 185.256 119.651 185.297 119.59C188.267 115.37 189.017 110.339 188.804 105.704C186.591 109.051 183.874 111.663 180.687 113.478C174.973 116.725 169.843 116.27 169.621 116.25C169.52 116.24 169.425 116.196 169.353 116.125C169.28 116.053 169.234 115.959 169.223 115.857C169.212 115.756 169.235 115.654 169.29 115.568C169.345 115.482 169.427 115.418 169.524 115.386C174.063 113.867 177.352 110.448 179.297 105.224C179.447 104.816 179.587 104.411 179.711 104.014C175.887 110.817 168.099 113.009 163.701 113.142C158.284 113.307 152.136 111.81 152.074 111.797C151.978 111.773 151.894 111.719 151.833 111.642C151.772 111.565 151.738 111.47 151.736 111.372C151.735 111.274 151.766 111.178 151.824 111.099C151.883 111.02 151.966 110.963 152.06 110.937C160.835 108.472 165.631 103.725 168.134 98.1569C164.128 99.3651 158.576 99.8604 152.565 96.8886C152.481 96.847 152.412 96.7795 152.368 96.6959C152.324 96.6123 152.309 96.5169 152.323 96.4236C152.337 96.3303 152.38 96.244 152.446 96.177C152.512 96.1101 152.598 96.066 152.691 96.0513C152.846 96.0268 161.632 94.6387 169.9 92.5331C171.259 85.7543 170.343 78.5225 169.639 73.0098C169.55 72.3101 169.466 71.6394 169.389 71.0108C168.763 65.7868 169.168 61.5446 169.57 57.4445C170.035 52.6403 170.476 48.1004 169.393 42.0701C168.185 35.338 165.025 26.2871 156.821 21.4141C151.932 18.5045 147.526 18.46 147.484 18.46C147.371 18.4596 147.262 18.4159 147.18 18.3379C146.774 17.9519 146.343 17.5942 145.888 17.2673C145.82 17.6262 145.775 17.9889 145.753 18.3534C145.746 18.4666 145.697 18.5728 145.614 18.6504C145.532 18.7281 145.423 18.7712 145.31 18.771C145.242 18.771 138.029 18.7132 135.057 24.0039C131.036 31.1691 133.815 40.0178 133.844 40.1067C133.862 40.1648 133.868 40.226 133.862 40.2866C133.862 40.3577 133.178 47.4918 134.262 51.5386C135.956 57.8531 140.922 70.2157 147.592 71.8015C155.117 73.5895 161.198 70.5977 161.258 70.5666C161.348 70.5208 161.452 70.5076 161.551 70.5292C161.65 70.5507 161.739 70.6058 161.802 70.6851C161.866 70.7644 161.9 70.8632 161.9 70.9649C161.899 71.0667 161.864 71.1652 161.8 71.244C161.659 71.4195 158.297 75.4796 149.9 75.1198C150.684 79.2308 151.136 83.3984 151.253 87.5823C151.474 97.0819 149.648 103.932 145.822 107.947C142.502 111.43 137.711 112.654 131.587 111.581C131.483 111.563 131.389 111.508 131.321 111.427C131.254 111.346 131.218 111.243 131.219 111.137C131.218 111.029 131.256 110.925 131.326 110.843C131.395 110.762 131.492 110.708 131.598 110.693C131.673 110.682 138.547 109.582 141.707 104.06C139.551 105.478 137.251 106.663 134.847 107.596C129.925 109.489 125.246 109.904 121.106 108.847C120.663 111.734 120.065 114.904 119.373 118.384C115.71 136.764 117.188 147.405 117.204 147.509C117.213 147.573 117.208 147.637 117.191 147.698C117.173 147.76 117.142 147.816 117.1 147.865C117.058 147.909 117.007 147.943 116.95 147.967C116.894 147.99 116.833 148.001 116.772 148H109.624C109.545 148.001 109.468 147.981 109.399 147.942C109.331 147.903 109.274 147.846 109.234 147.778C109.197 147.709 105.452 140.742 102.985 129.596C100.479 118.289 110.129 107.505 110.228 107.399C110.298 107.321 110.393 107.271 110.496 107.257C111.802 107.083 112.618 106.013 113.125 104.618C111.638 105.542 109.336 105.951 107.123 105.873C104.467 105.769 101.732 106.244 99.6584 106.748C100.858 110.253 102.226 115.808 100.628 119.744C100.283 120.63 99.7538 121.433 99.0757 122.098C98.3976 122.763 97.586 123.276 96.695 123.602C96.1285 123.992 91.4743 126.918 84.6137 123.077C79.7714 120.365 79.6497 114.055 80.3933 109.26C78.6671 110.593 77.1732 112.447 76.4739 113.389C77.0036 113.55 77.4851 113.841 77.8748 114.235C79.2735 115.606 80.7518 119.053 79.8843 127.695C79.1362 135.096 80.1764 140.024 81.1834 142.854C82.2678 145.91 83.547 147.241 83.558 147.254C83.619 147.316 83.6603 147.395 83.6769 147.481C83.6934 147.566 83.6844 147.655 83.651 147.736C83.6161 147.815 83.559 147.882 83.4866 147.929C83.4143 147.976 83.3299 148.001 83.2438 148H0.442621C0.325231 148 0.212648 147.953 0.12964 147.87C0.0466328 147.787 0 147.674 0 147.556C0 147.438 0.0466328 147.325 0.12964 147.242C0.212648 147.159 0.325231 147.112 0.442621 147.112H82.3275C80.9466 145.173 77.8239 139.358 79.0079 127.595C79.4682 123.053 79.5434 117.156 77.2949 114.897C76.5004 114.098 75.7679 114.16 75.7458 114.162C75.6618 114.172 75.5769 114.157 75.5009 114.12C75.425 114.083 75.3613 114.024 75.3173 113.952C75.2733 113.879 75.2509 113.796 75.2527 113.711C75.2545 113.626 75.2805 113.544 75.3275 113.473C75.4536 113.287 77.7818 109.853 80.6234 108.016C80.9331 106.401 81.3539 104.809 81.8827 103.252V97.4106C81.8511 96.9182 81.7612 96.4313 81.6149 95.9602C81.3693 95.0029 81.0616 93.8102 81.2675 92.3643C81.387 91.5247 81.7101 89.9211 82.1062 88.0754C82.6971 85.2391 83.4341 81.7075 83.4341 80.5903C83.4341 78.6735 84.0626 75.7617 85.0762 74.4068C85.9172 73.2808 89.2656 70.8087 90.2062 70.1268L90.0446 69.4383L88.9381 70.7043C88.8838 70.7663 88.8135 70.8119 88.7348 70.836C88.6562 70.8601 88.5725 70.8617 88.493 70.8407C88.4135 70.8197 88.3414 70.777 88.2848 70.7172C88.2281 70.6574 88.1892 70.5829 88.1723 70.5022L85.915 59.8232C84.9036 55.099 88.6659 54.0107 88.7123 53.9995C88.7621 53.9862 88.8138 53.9817 88.8651 53.9862L104.074 55.23C108.367 55.5632 109.42 59.2569 109.429 59.2946C109.77 60.7894 117.658 95.5249 117.658 98.3457C117.658 100.969 115.407 102.328 114.681 102.699C114.618 102.954 114.516 103.198 114.378 103.421C113.882 105.68 112.857 107.73 110.793 108.103C109.781 109.273 101.593 119.155 103.859 129.396C106.05 139.291 109.246 145.832 109.903 147.112H116.263C116.018 144.773 115.254 134.48 118.501 118.191C119.2 114.675 119.791 111.486 120.245 108.587C119.295 108.293 118.373 107.916 117.489 107.461C117.411 107.42 117.346 107.356 117.304 107.278C117.262 107.199 117.244 107.11 117.253 107.021C117.262 106.933 117.298 106.849 117.355 106.781C117.412 106.713 117.488 106.663 117.573 106.639C117.62 106.626 118.866 106.27 120.672 105.593C122.033 95.2584 121.238 89.1304 116.79 85.6033C116.731 85.5562 116.685 85.4947 116.656 85.4247C116.627 85.3547 116.617 85.2784 116.626 85.2032C116.635 85.1279 116.662 85.0562 116.707 84.9949C116.751 84.9335 116.81 84.8845 116.879 84.8526L121.117 82.8536C119.924 80.4104 114.139 68.1056 114.451 59.3746C114.606 55.0435 118.375 43.8625 123.217 33.3679C131.374 15.6904 137.498 10.0466 140.422 8.24307C140.935 7.92767 141.488 7.57674 142.075 7.19916C147.304 3.86754 155.205 -1.17654 163.763 1.97518L163.827 2.00405C166.992 1.00456 169.139 1.20446 169.243 1.21557H169.272C186.857 4.19626 188.552 19.2774 189.674 29.2567C189.82 30.5494 189.958 31.7688 190.117 32.846C191.29 40.7086 195.459 52.4581 202.132 60.9804C208.992 69.7492 207.266 82.8781 207.189 83.4311C207.179 83.501 207.153 83.5676 207.112 83.6254C207.072 83.6831 207.018 83.7303 206.956 83.7631C206.894 83.7959 206.824 83.8133 206.754 83.8139C206.684 83.8145 206.614 83.7982 206.551 83.7665C203.632 82.3028 200.766 82.5982 198.035 84.6438C196.75 85.6325 195.643 86.8344 194.762 88.1975C193.877 94.6076 192.131 100.043 189.597 104.371C190.108 110.564 188.917 115.886 186.071 119.979C185.835 121.787 183.25 140.635 177.146 147.089H201.795C202.727 144.451 209.623 124.979 213.797 114.508C213.807 112.729 213.727 110.95 213.558 109.178C213.018 103.603 211.566 98.7521 209.249 94.7586C205.308 87.9754 200.144 85.992 200.091 85.9742C199.995 85.9392 199.913 85.8714 199.861 85.7826C199.808 85.6937 199.788 85.5894 199.804 85.4874C199.82 85.3854 199.871 85.2923 199.948 85.2238C200.025 85.1554 200.124 85.116 200.226 85.1124C205.996 84.877 210.407 86.4962 213.312 89.9344C215.047 91.98 217.154 95.8181 217.342 102.488C217.416 104.88 217.24 107.273 216.818 109.629C216.81 109.664 216.798 109.698 216.783 109.731C216.247 110.857 215.521 112.581 214.682 114.684C214.647 120.412 213.797 126.758 212.159 133.628L208.88 147.112H245.557C245.675 147.112 245.787 147.159 245.87 147.242C245.953 147.325 246 147.438 246 147.556C246 147.674 245.953 147.787 245.87 147.87C245.787 147.953 245.675 148 245.557 148ZM81.4379 108.545C80.6079 113.182 80.4198 119.704 85.0452 122.291C91.7023 126.018 96.0444 122.971 96.2258 122.838C96.2578 122.814 96.2928 122.796 96.3299 122.782C97.1173 122.501 97.8354 122.054 98.4356 121.47C99.0358 120.886 99.5041 120.18 99.8089 119.399C101.296 115.732 99.9439 110.346 98.7864 106.961C97.8215 107.221 97.0624 107.465 96.6043 107.628C97.2682 108.878 98.9723 112.345 98.8462 114.571C98.5983 119.013 96.6508 121.569 93.3643 121.789C89.1793 122.073 84.4145 120.177 83.2172 119.053C83.0986 118.961 83.0003 118.845 82.9287 118.712C82.8571 118.58 82.8136 118.434 82.8011 118.284V107.936C82.3243 108.084 81.8667 108.289 81.4379 108.545ZM83.6864 118.238C84.0493 118.997 88.9492 121.185 93.3068 120.89C96.8721 120.652 97.806 117.287 97.9543 114.506C98.0915 112.063 95.5995 107.621 95.5752 107.588C95.5438 107.532 95.5246 107.471 95.5189 107.408C95.5131 107.344 95.521 107.28 95.542 107.22C95.563 107.16 95.5966 107.106 95.6405 107.06C95.6844 107.014 95.7376 106.978 95.7965 106.955C95.8961 106.917 96.9163 106.53 98.4744 106.108C97.9676 104.722 97.5581 103.834 97.5449 103.805C97.5107 103.731 97.4975 103.649 97.5065 103.569C97.5155 103.488 97.5465 103.411 97.596 103.347C97.6456 103.282 97.7118 103.233 97.7875 103.203C97.8631 103.174 97.9453 103.166 98.0251 103.181C100.347 103.612 105.193 102.93 108.192 102.421C107.336 102.149 106.504 101.803 105.707 101.389C105.076 101.071 102.87 100.944 100.924 100.827C97.5891 100.629 96.2944 100.505 95.9381 99.9759C95.886 99.8999 95.8522 99.8128 95.8396 99.7214C95.8269 99.63 95.8356 99.5369 95.8651 99.4495C96.2812 98.1968 100.718 96.2756 102.051 95.8958C104.043 95.3272 109.308 94.0501 109.907 93.8968C111.136 93.2305 111.788 92.5264 111.793 91.8579C111.793 91.045 110.89 90.3564 110.509 90.1055C109.299 90.5119 106.844 90.7984 104.664 91.0516C103.64 91.1716 102.755 91.2737 102.177 91.3715C100.353 91.6757 93.3599 93.4548 93.2913 93.4726C93.2231 93.4899 93.1518 93.4907 93.0833 93.4748C93.0148 93.459 92.9511 93.427 92.8973 93.3815C92.6838 93.2106 92.5212 92.9841 92.4272 92.7268C92.3331 92.4695 92.3112 92.1912 92.364 91.9223C92.6959 89.87 96.6109 87.1136 98.1756 86.4984C98.6691 86.3029 99.1604 86.1408 99.6805 85.9676C101.915 85.2781 104.04 84.2729 105.992 82.9824C107.194 82.2139 107.792 81.4499 107.763 80.7103C107.738 79.8574 106.878 79.1755 106.495 78.909C105.851 79.2221 104.007 80.1106 103.257 80.3771C102.546 80.6303 101.544 80.9057 100.482 81.1967C98.9701 81.6098 97.2549 82.0851 96.2944 82.5293C95.885 82.7181 95.3096 83.0535 94.701 83.4067C92.6295 84.6105 91.087 85.4456 90.111 85.1991C89.7171 85.1013 88.5198 84.8015 88.5198 78.4026C88.5198 77.8495 88.989 77.3364 89.6972 76.5568C90.6178 75.5485 91.8749 74.167 92.769 72.0303C93.2116 70.9975 93.2492 70.0979 92.9106 69.365C92.5803 68.7169 92.038 68.2025 91.3747 67.908L90.7506 68.6209L91.1246 70.2134C91.1451 70.2993 91.1395 70.3893 91.1088 70.4719C91.0781 70.5546 91.0235 70.6262 90.952 70.6777C89.7591 71.5328 86.5015 73.9649 85.7733 74.9421C84.8881 76.1126 84.3083 78.809 84.3083 80.5926C84.3083 81.8008 83.5934 85.2324 82.9605 88.2597C82.5953 90.0188 82.2479 91.6802 82.1328 92.4931C81.9513 93.7614 82.2235 94.8119 82.4625 95.7403C82.628 96.2837 82.7269 96.8454 82.7569 97.4128V103.33C82.7572 103.381 82.7482 103.432 82.7303 103.481C82.2943 104.775 81.9366 106.095 81.6592 107.432C82.1392 107.2 82.6485 107.035 83.1729 106.941C83.2369 106.93 83.3024 106.934 83.3648 106.951C83.4273 106.969 83.4851 107 83.5343 107.042C83.5835 107.085 83.6228 107.137 83.6495 107.197C83.6761 107.256 83.6895 107.32 83.6886 107.385L83.6864 118.238ZM181.313 97.2684H181.351C181.462 97.2779 181.565 97.3289 181.64 97.4112C181.715 97.4935 181.756 97.6011 181.756 97.7127C181.611 100.371 181.065 102.992 180.138 105.486C178.443 110.051 175.645 113.398 171.974 115.29C174.899 115.016 177.733 114.122 180.288 112.667C183.655 110.744 186.472 107.874 188.698 104.156C188.529 102.358 188.239 100.573 187.831 98.8143C186.948 95.044 185.66 91.3808 183.991 87.8888C182.884 88.8927 181.012 89.85 178.702 90.7429C178.217 91.6555 177.649 92.521 177.004 93.3282C176.989 93.3463 176.973 93.3634 176.956 93.3793C174.809 95.1861 172.373 96.6131 169.75 97.5994L169.261 97.7793C166.589 104.245 161.455 108.78 153.952 111.277C156.124 111.703 160.076 112.35 163.69 112.241C168.964 112.081 179.343 108.829 180.888 97.6616C180.902 97.5574 180.953 97.4617 181.031 97.3913C181.108 97.321 181.208 97.2806 181.313 97.2773V97.2684ZM202.092 86.0009C204.022 87.1447 207.251 89.5946 209.977 94.2567C212.374 98.359 213.875 103.334 214.434 109.042C214.541 110.14 214.614 111.263 214.656 112.412C215.16 111.192 215.603 110.171 215.964 109.409C216.128 108.54 218.177 97.0286 212.644 90.5163C210.221 87.6756 206.678 86.1608 202.092 86.0098V86.0009ZM134.035 110.972C138.755 111.35 142.497 110.12 145.182 107.303C149.737 102.524 150.516 93.9368 150.367 87.5756C150.252 83.2514 149.766 78.9451 148.915 74.7045C148.901 74.6369 148.902 74.5668 148.919 74.4997C148.935 74.4326 148.968 74.3704 149.013 74.318C149.057 74.2649 149.113 74.2233 149.177 74.1966C149.24 74.17 149.309 74.159 149.378 74.1647C153.95 74.4624 157.031 73.3829 158.883 72.3435C155.134 73.4194 151.173 73.518 147.375 72.63C138.523 70.5266 133.601 52.4981 133.395 51.7318C132.322 47.7339 132.877 41.1417 132.952 40.2533C132.64 39.2316 130.228 30.7226 134.267 23.5308C137.106 18.4756 143.226 17.9092 144.89 17.8515C144.938 17.4752 145.008 17.1021 145.1 16.7343C143.524 15.8236 141.929 15.5415 140.333 15.8925C133.745 17.3451 129.017 28.948 128.969 29.0657C128.965 29.0772 128.959 29.0884 128.953 29.099C125.132 36.618 123.067 44.9118 122.916 53.351C122.801 60.0831 123.887 66.9907 126.147 73.8827C129.998 85.6255 135.984 93.3327 136.044 93.4082C136.081 93.4557 136.109 93.5103 136.124 93.5687C136.14 93.6271 136.144 93.6882 136.135 93.748C135.599 97.5238 132.335 100.98 126.435 104.045C124.828 104.877 123.176 105.618 121.486 106.266C121.411 106.821 121.329 107.39 121.241 107.972C126.145 109.251 131.025 108.118 134.53 106.77C137.39 105.668 140.091 104.191 142.564 102.377C142.64 102.317 142.734 102.284 142.831 102.283C142.928 102.282 143.023 102.313 143.101 102.372C143.179 102.43 143.235 102.512 143.262 102.606C143.288 102.7 143.283 102.799 143.248 102.89C141.294 107.867 136.797 110.066 134.035 110.972ZM118.921 107.152C119.4 107.36 119.889 107.543 120.386 107.701C120.442 107.328 120.497 106.957 120.548 106.59C119.908 106.824 119.355 107.01 118.917 107.152H118.921ZM98.6846 104.167C98.8639 104.591 99.1007 105.18 99.3618 105.891C101.497 105.364 104.339 104.865 107.163 104.976C109.801 105.076 112.634 104.389 113.554 103.054C114.106 100.3 113.869 97.1574 113.844 96.8509L107.017 63.5502C106.209 59.761 103.976 58.7393 103.626 58.6016L90.6577 57.3623C89.8941 57.2845 89.3431 57.4311 89.0133 57.7954C88.4313 58.4395 88.6482 59.6233 88.6504 59.6367L90.5072 67.557L90.921 67.0817C90.9779 67.0162 91.0527 66.9689 91.136 66.9456C91.2194 66.9223 91.3078 66.9241 91.3902 66.9507C91.4566 66.9729 93.0323 67.4948 93.7162 68.983C94.1588 69.9602 94.1234 71.1019 93.59 72.3768C92.6384 74.6556 91.2641 76.1637 90.3567 77.161C89.9141 77.6474 89.4095 78.2005 89.4095 78.407C89.4095 82.5627 89.9738 84.2529 90.3279 84.3417C91.0361 84.5194 92.9836 83.3889 94.2606 82.6426C94.8891 82.2784 95.4822 81.9319 95.9271 81.7275C96.9562 81.2522 98.6315 80.7924 100.251 80.3482C101.298 80.0617 102.288 79.7907 102.965 79.5486C103.815 79.2466 106.307 78.025 106.331 78.0117C106.395 77.9803 106.466 77.9649 106.537 77.9668C106.608 77.9688 106.678 77.988 106.74 78.0228C106.818 78.065 108.604 79.0778 108.652 80.6881C108.686 81.7631 107.951 82.7892 106.468 83.7398C104.453 85.0711 102.259 86.1083 99.9527 86.8205C99.4459 86.9893 98.9657 87.1492 98.4943 87.3335C96.9119 87.9554 93.4794 90.5408 93.2337 92.0733C93.2155 92.1554 93.2137 92.2403 93.2286 92.323C93.2434 92.4058 93.2745 92.4847 93.32 92.5553C94.6125 92.2288 100.344 90.7784 102.026 90.503C102.626 90.4031 103.52 90.2987 104.558 90.1765C106.709 89.9277 109.385 89.6146 110.392 89.2104C110.453 89.186 110.518 89.1756 110.584 89.1798C110.649 89.1841 110.713 89.2028 110.77 89.2348C110.848 89.2792 112.685 90.312 112.674 91.8734C112.674 92.9107 111.857 93.8724 110.27 94.7164C110.237 94.7342 110.201 94.7477 110.164 94.7564C110.106 94.7697 104.375 96.1557 102.29 96.7554C100.661 97.2196 97.5537 98.7788 96.8389 99.5339C97.5294 99.7405 99.4946 99.856 100.973 99.9426C103.202 100.076 105.306 100.2 106.099 100.609C107.719 101.422 109.15 101.964 110.868 101.964C110.985 101.952 111.102 101.988 111.194 102.062C111.285 102.137 111.343 102.246 111.355 102.364C111.366 102.481 111.331 102.599 111.256 102.691C111.182 102.782 111.074 102.84 110.956 102.852C110.596 102.912 102.701 104.505 98.6802 104.167H98.6846ZM117.879 85.3657C122.084 89.1126 122.863 95.2517 121.606 105.229C126.517 103.288 134.267 99.3785 135.216 93.788C134.344 92.6286 128.889 85.1147 125.293 74.1448C123.002 67.1595 121.9 60.1519 122.017 53.3199C122.171 44.7527 124.265 36.333 128.143 28.6992C128.427 27.9996 133.158 16.5477 140.129 15.0107C141.884 14.622 143.626 14.8996 145.33 15.8347C146.466 12.3565 149.575 9.03377 154.466 6.11527C156.94 4.66102 159.536 3.42729 162.225 2.42828C154.532 0.318249 147.371 4.88923 142.548 7.96543C141.957 8.34079 141.402 8.69617 140.88 9.016C136.051 11.9811 129.905 20.9987 124.018 33.7566C119.297 43.9891 115.482 55.2634 115.334 59.4234C115 68.7187 122.037 82.7448 122.108 82.878C122.135 82.9312 122.151 82.9893 122.155 83.0488C122.159 83.1083 122.151 83.1681 122.132 83.2244C122.112 83.2808 122.082 83.3327 122.042 83.377C122.002 83.4213 121.954 83.457 121.9 83.4822L117.879 85.3657ZM184.108 86.6983H184.153C184.224 86.7046 184.292 86.7281 184.352 86.7668C184.412 86.8055 184.462 86.8582 184.498 86.9204C186.344 90.6354 187.753 94.553 188.698 98.5944C189.021 99.9912 189.274 101.403 189.455 102.826C191.615 98.7588 193.122 93.7836 193.919 88.0065C193.928 87.9479 193.947 87.8914 193.977 87.8399C194.027 87.7555 198.987 79.542 206.399 82.7315C206.651 80.0462 207.284 68.9852 201.459 61.5535C194.685 52.9046 190.453 40.9818 189.265 33.0014C189.101 31.9087 188.964 30.6804 188.822 29.3811C187.731 19.6683 186.08 4.99363 169.168 2.11733C168.964 2.10178 166.279 1.92187 162.623 3.41222C159.2 4.80483 154.238 7.97209 149.748 15.1795C153.968 16.0707 157.981 17.7591 161.572 20.1547C167.353 24.0127 174.408 31.52 175.229 45.3773C176.741 71.1729 179.472 75.6373 179.501 75.6795C179.518 75.7062 179.533 75.7345 179.545 75.7639C179.576 75.8439 182.232 82.7004 179.251 89.5902C181.353 88.7217 182.971 87.8022 183.759 86.856C183.801 86.8051 183.855 86.7645 183.916 86.7372C183.976 86.7099 184.042 86.6966 184.108 86.6983ZM90.2726 56.465C90.4271 56.4645 90.5815 56.4727 90.7351 56.4894L103.768 57.7354C103.802 57.7378 103.835 57.7445 103.868 57.7554C103.989 57.7976 106.911 58.8215 107.884 63.3792L114.712 96.6932C114.714 96.7094 114.714 96.7258 114.712 96.742C114.842 98.3872 114.819 100.041 114.643 101.682C115.42 101.193 116.755 100.098 116.755 98.3501C116.755 96.1712 111.397 71.9948 108.566 59.5145C108.535 59.4057 107.659 56.405 103.998 56.1207L88.8872 54.8769C88.4446 55.0301 86.0102 56.0318 86.7869 59.63L88.8496 69.4516L89.7901 68.3766L87.7806 59.8232C87.7651 59.741 87.4641 58.1796 88.3538 57.1957C88.7987 56.7137 89.4427 56.4538 90.2726 56.4538V56.465ZM154.278 96.6887C158.897 98.6122 163.699 98.7432 168.588 97.0796C169.04 95.9167 169.41 94.7233 169.694 93.5081C163.469 95.0696 157.088 96.2067 154.278 96.6776V96.6887ZM170.655 93.2594C170.568 93.6518 170.474 94.0442 170.374 94.4366C170.172 95.2051 169.941 95.9513 169.683 96.6754C172.094 95.7312 174.34 94.4071 176.336 92.753C176.722 92.2673 177.079 91.7593 177.405 91.2315C175.347 91.9489 173.027 92.6308 170.657 93.2483L170.655 93.2594ZM147.665 17.5472C148.568 17.5805 152.68 17.887 157.274 20.6211C165.766 25.6719 169.026 34.976 170.268 41.8902C171.374 48.0426 170.905 52.8535 170.453 57.5066C170.062 61.5623 169.657 65.7535 170.27 70.882C170.347 71.5194 170.431 72.188 170.52 72.881C171.204 78.2715 172.118 85.4589 170.854 92.2732C173.439 91.5936 175.944 90.8451 178.062 90.0521C181.382 83.4822 178.947 76.6635 178.744 76.1193C178.403 75.5485 175.822 70.4755 174.355 45.4217C174.005 39.4559 172.452 34.1964 169.741 29.7875C167.536 26.2248 164.584 23.1876 161.09 20.8877C154.999 16.8231 149.035 15.9436 148.975 15.9347C148.903 15.9241 148.835 15.8959 148.777 15.8526C148.718 15.8093 148.671 15.7521 148.64 15.6863C148.609 15.6204 148.594 15.5478 148.597 15.4749C148.6 15.402 148.622 15.3311 148.659 15.2683C150.429 12.3276 153.074 8.74059 156.661 5.91093C156.086 6.21744 155.499 6.54394 154.915 6.89487C151.449 8.96492 147.36 12.181 146.116 16.3189C146.663 16.6874 147.181 17.0981 147.665 17.5472Z" fill="url(#paint0_radial_37_907)"/>
<defs>
<radialGradient id="paint0_radial_37_907" cx="0" cy="0" r="1" gradientUnits="userSpaceOnUse" gradientTransform="translate(124.22 158.943) rotate(-90) scale(201.244 212.433)">
<stop stop-color="#FEE49A"/>
<stop offset="1" stop-color="#BB8D37"/>
</radialGradient>
</defs>
</svg>
