<svg width="51" height="51" viewBox="0 0 51 51" fill="none" xmlns="http://www.w3.org/2000/svg">
<path d="M27.5181 0.756271C15.0165 0.756271 4.84567 10.9248 4.84567 23.425C4.84567 28.8356 6.74869 33.8064 9.92041 37.6977L0.42926 47.1994L3.74623 50.5173L13.2374 41.0157C17.1381 44.1874 22.1102 46.0932 27.5181 46.0932C40.0197 46.0932 50.1905 35.9253 50.1905 23.425C50.1905 10.9248 40.0197 0.756271 27.5181 0.756271ZM27.5181 41.4022C17.6032 41.4022 9.53661 33.34 9.53661 23.425C9.53661 13.5101 17.6032 5.44724 27.5181 5.44724C37.433 5.44724 45.4996 13.5101 45.4996 23.425C45.4996 33.34 37.433 41.4022 27.5181 41.4022Z" fill="white"/>
<path d="M29.8635 21.0793V14.0432H25.1726V21.0793H18.1362V25.7703H25.1726V32.8064H29.8635V25.7703H36.8999V21.0793H29.8635Z" fill="white"/>
</svg>
