<svg width="50" height="50" viewBox="0 0 50 50" fill="none" xmlns="http://www.w3.org/2000/svg">
<path d="M8.61858 33.4388C4.17486 24.4056 7.89538 13.4804 16.9286 9.03664C25.9618 4.59292 36.887 8.31345 41.3308 17.3467C45.7745 26.3799 42.054 37.3051 33.0207 41.7488C23.9875 46.1925 13.0623 42.472 8.61858 33.4388Z" fill="#445A68"/>
<path d="M30.557 19.9155C29.2723 18.0498 27.2374 16.9834 24.9732 16.9834C22.7103 16.9834 20.6753 18.0498 19.3907 19.9155C18.114 21.7679 17.8181 24.1 18.6004 26.1656C18.8096 26.7386 19.1414 27.2847 19.5865 27.7911L24.5267 33.6019C24.6373 33.7352 24.8013 33.8017 24.9732 33.8017C25.1464 33.8017 25.3103 33.7352 25.4223 33.6019L30.3598 27.8047C30.8062 27.285 31.1393 26.7383 31.3459 26.1786C32.1295 24.0997 31.835 21.7679 30.557 19.9155ZM30.2438 25.7654C30.0852 26.1919 29.8227 26.6186 29.4682 27.0317C29.4682 27.0317 29.4669 27.0317 29.4655 27.0317L24.9732 32.3089L20.4781 27.0317C20.1236 26.6186 19.8637 26.1922 19.7011 25.7524C19.0548 24.0466 19.3001 22.1144 20.3582 20.5819C21.4203 19.0493 23.1021 18.1697 24.9732 18.1697C26.8456 18.1697 28.5274 19.0493 29.5895 20.5819C30.6463 22.1144 30.8928 24.0463 30.2438 25.7654Z" fill="white"/>
<path d="M24.9733 20.4752C23.1582 20.4752 21.6803 21.954 21.6803 23.7664C21.6803 25.5788 23.1582 27.0584 24.9733 27.0584C26.791 27.0584 28.2676 25.5788 28.2676 23.7664C28.2676 21.954 26.791 20.4752 24.9733 20.4752ZM24.9733 25.8858C23.8059 25.8858 22.857 24.9392 22.857 23.7664C22.857 22.607 23.8059 21.6477 24.9733 21.6477C26.1407 21.6477 27.0909 22.607 27.0909 23.7664C27.0909 24.9392 26.1407 25.8858 24.9733 25.8858Z" fill="white"/>
</svg>
