<svg width="49" height="50" viewBox="0 0 49 50" fill="none" xmlns="http://www.w3.org/2000/svg">
<path d="M8.16472 33.4388C3.721 24.4056 7.44153 13.4804 16.4747 9.03664C25.508 4.59292 36.4332 8.31345 40.8769 17.3467C45.3206 26.3799 41.6001 37.3051 32.5669 41.7488C23.5337 46.1925 12.6084 42.472 8.16472 33.4388Z" fill="url(#paint0_radial_1554_178)"/>
<path d="M30.5178 33.082C30.2792 33.082 30.0687 32.922 29.9994 32.6955C29.9327 32.4689 30.0234 32.2158 30.2246 32.0825C30.7337 31.7494 31.1668 31.3096 31.4959 30.8032C31.8078 30.3235 31.9144 29.9505 31.8145 29.6573C31.6106 29.0843 30.5192 28.6712 29.5916 28.378C28.7561 28.1115 27.8392 28.3243 27.2182 28.9507L26.8663 29.2975C26.8037 29.3641 26.7264 29.4172 26.6411 29.4439C26.3999 29.5105 25.0753 29.7506 22.6232 27.2985C22.4113 27.0853 22.4099 26.7387 22.6218 26.5255C22.8324 26.3256 23.1762 26.3256 23.3868 26.5255C24.9953 28.138 25.9375 28.3644 26.2467 28.391L26.4546 28.1913C27.3608 27.2717 28.6987 26.9521 29.9207 27.3519C31.1334 27.7383 32.4568 28.2314 32.8326 29.2975C33.0525 29.9238 32.9046 30.6166 32.4008 31.3895C31.989 32.0292 31.448 32.5755 30.8123 33.002C30.7243 33.0553 30.6217 33.082 30.5178 33.082ZM27.9217 33.8017C25.4483 33.8017 22.6098 32.3755 20.0751 29.8434C19.9352 29.7102 19.8779 29.5107 19.9272 29.3242C19.9779 29.1243 20.1245 28.9776 20.315 28.9376C20.5029 28.8843 20.7041 28.9375 20.8401 29.0841C23.2309 31.4695 25.9801 32.8288 28.1856 32.7222C28.3282 32.7088 28.4682 32.7623 28.5761 32.8556C28.6827 32.9489 28.7467 33.0952 28.7521 33.2284C28.768 33.5349 28.5375 33.7884 28.239 33.8017C28.1337 33.8017 28.0284 33.8017 27.9217 33.8017Z" fill="white"/>
<path d="M20.4577 30.0035C20.3151 30.0035 20.1765 29.95 20.0752 29.8434C17.3499 27.1115 15.8787 23.9536 16.1412 21.3816C16.2945 19.7824 17.1754 18.356 18.5254 17.5164C19.2956 17.01 19.9993 16.8636 20.6149 17.0902C21.6797 17.4633 22.1835 18.7829 22.5713 19.9956C22.9658 21.2216 22.6392 22.5538 21.7303 23.46L21.5185 23.6734C21.5438 23.9533 21.7543 24.8996 23.3855 26.5255C23.5894 26.7387 23.5867 27.0849 23.3788 27.2848C23.1696 27.4981 22.8325 27.4984 22.6219 27.2985C20.1698 24.8464 20.407 23.5137 20.4803 23.2739C20.5056 23.1939 20.5523 23.1141 20.6149 23.0474L20.9667 22.7006C21.5891 22.0742 21.8103 21.1683 21.5411 20.3288C21.244 19.3959 20.8295 18.3026 20.2551 18.1027C19.9726 18.0094 19.5902 18.1163 19.1184 18.4228C18.0376 19.0892 17.3326 20.2217 17.2153 21.4877C16.9861 23.7399 18.3387 26.5787 20.8388 29.0841C20.992 29.2306 21.0387 29.4704 20.9548 29.6703C20.8722 29.8702 20.6749 30.0035 20.4563 30.0035H20.4577Z" fill="white"/>
<defs>
<radialGradient id="paint0_radial_1554_178" cx="0" cy="0" r="1" gradientUnits="userSpaceOnUse" gradientTransform="translate(24.7703 4.44043) rotate(90.0008) scale(49.9102 31.4841)">
<stop stop-color="#FEE49A"/>
<stop offset="1" stop-color="#BB8D37"/>
</radialGradient>
</defs>
</svg>
