<svg width="17" height="18" viewBox="0 0 17 18" fill="none" xmlns="http://www.w3.org/2000/svg">
<path d="M14.5178 17.082C14.2792 17.082 14.0687 16.922 13.9994 16.6955C13.9327 16.4689 14.0234 16.2158 14.2246 16.0825C14.7337 15.7494 15.1668 15.3096 15.4959 14.8032C15.8078 14.3235 15.9144 13.9505 15.8145 13.6573C15.6106 13.0843 14.5192 12.6712 13.5916 12.378C12.7561 12.1115 11.8392 12.3243 11.2182 12.9507L10.8663 13.2975C10.8037 13.3641 10.7264 13.4172 10.6411 13.4439C10.3999 13.5105 9.07526 13.7506 6.62318 11.2985C6.41129 11.0853 6.40991 10.7387 6.6218 10.5255C6.83236 10.3256 7.17623 10.3256 7.38679 10.5255C8.9953 12.138 9.93748 12.3644 10.2467 12.391L10.4546 12.1913C11.3608 11.2717 12.6987 10.9521 13.9207 11.3519C15.1334 11.7383 16.4568 12.2314 16.8326 13.2975C17.0525 13.9238 16.9046 14.6166 16.4008 15.3895C15.989 16.0292 15.448 16.5755 14.8123 17.002C14.7243 17.0553 14.6217 17.082 14.5178 17.082ZM11.9217 17.8017C9.44834 17.8017 6.60979 16.3755 4.07508 13.8434C3.93516 13.7102 3.8779 13.5107 3.92721 13.3242C3.97785 13.1243 4.12446 12.9776 4.31503 12.9376C4.50294 12.8843 4.70414 12.9375 4.84007 13.0841C7.23085 15.4695 9.98007 16.8288 12.1856 16.7222C12.3282 16.7088 12.4682 16.7623 12.5761 16.8556C12.6827 16.9489 12.7467 17.0952 12.7521 17.2284C12.768 17.5349 12.5375 17.7884 12.239 17.8017C12.1337 17.8017 12.0284 17.8017 11.9217 17.8017Z" fill="white"/>
<path d="M4.45772 14.0035C4.31512 14.0035 4.17646 13.95 4.07518 13.8434C1.3499 11.1115 -0.121299 7.95363 0.141233 5.38161C0.294488 3.78242 1.17537 2.35596 2.52535 1.51639C3.29563 1.00998 3.99926 0.863626 4.61494 1.09018C5.67973 1.46332 6.1835 2.78288 6.5713 3.9956C6.96577 5.22164 6.63921 6.55377 5.73034 7.45997L5.51845 7.67341C5.54377 7.95326 5.75433 8.89963 7.3855 10.5255C7.5894 10.7387 7.58673 11.0849 7.37883 11.2848C7.16961 11.4981 6.83245 11.4984 6.62189 11.2985C4.16981 8.84643 4.40703 7.51375 4.48033 7.27387C4.50565 7.19391 4.55231 7.11406 4.61494 7.04742L4.96673 6.7006C5.58908 6.07425 5.81034 5.16833 5.54115 4.32876C5.24397 3.3959 4.82947 2.30258 4.2551 2.10268C3.97258 2.0094 3.59015 2.11632 3.11839 2.42283C2.03761 3.08916 1.33258 4.22165 1.21531 5.48767C0.986094 7.73986 2.33873 10.5787 4.83879 13.0841C4.99204 13.2306 5.03873 13.4704 4.95478 13.6703C4.87215 13.8702 4.67489 14.0035 4.45633 14.0035H4.45772Z" fill="white"/>
</svg>
